<svg width="70px" height="70px" viewBox="0 0 70 70" version="1.1" xmlns="http://www.w3.org/2000/svg" xmlns:xlink="http://www.w3.org/1999/xlink">
    <g id="Symbols" stroke="none" stroke-width="1" fill="none" fill-rule="evenodd">
        <g id="CTA_switch_arrows">
            <polygon id="bg" fill="#FFFFFF" fill-rule="nonzero" points="-4.54747351e-13 0 70 0 70 70 -4.54747351e-13 70"></polygon>
            <path d="M50.3585504,12.4004064 C44.4147741,19.9418594 38.499459,27.4472918 32.579028,34.9592153 C38.5241734,42.5019482 44.4396326,50.0070149 50.4062499,57.5769918 C50.2555137,57.5975619 50.1717154,57.6189548 50.087917,57.6189548 C45.9214156,57.6206004 41.7549863,57.6230688 37.5885569,57.6099039 C37.4334975,57.6094468 37.2396732,57.5043108 37.1294312,57.3647084 C31.3324281,50.025848 25.5438553,42.6762911 19.7468522,35.3374307 C19.5219008,35.0526492 19.5602333,34.9028989 19.7616953,34.6477384 C25.5482506,27.3176545 31.3288975,19.980074 37.1160292,12.6506301 C37.2215157,12.5170617 37.3932916,12.3910813 37.5344447,12.3906242 C41.7608947,12.3770022 45.9873447,12.3796534 50.2138667,12.3804763 C50.2488127,12.3804763 50.2837588,12.3898014 50.3585504,12.4004064" id="arrow" fill="#000000"></path>
        </g>
    </g>
</svg>