
<svg width="70px" height="70px" viewBox="0 0 70 70" version="1.1" xmlns="http://www.w3.org/2000/svg" xmlns:xlink="http://www.w3.org/1999/xlink">
    <g id="Symbols" stroke="none" stroke-width="1" fill="none" fill-rule="evenodd">
        <g id="CTA_switch_arrows" transform="translate(-70.000000, 0.000000)">
            <polygon id="bg" fill="#000000" fill-rule="nonzero" points="70 0 140 0 140 70 70 70"></polygon>
            <path d="M89.6414496,12.4004064 C89.7162412,12.3898014 89.7511873,12.3804763 89.7861333,12.3804763 C94.0126553,12.3796534 98.2391053,12.3770022 102.465555,12.3906242 C102.606708,12.3910813 102.778484,12.5170617 102.883971,12.6506301 C108.671103,19.980074 114.451749,27.3176545 120.238305,34.6477384 C120.439767,34.9028989 120.478099,35.0526492 120.253148,35.3374307 C114.456145,42.6762911 108.667572,50.025848 102.870569,57.3647084 C102.760327,57.5043108 102.566502,57.6094468 102.411443,57.6099039 C98.2450137,57.6230688 94.0785844,57.6206004 89.912083,57.6189548 C89.8282846,57.6189548 89.7444863,57.5975619 89.5937501,57.5769918 C95.5603674,50.0070149 101.475827,42.5019482 107.420972,34.9592153 C101.500541,27.4472918 95.5852259,19.9418594 89.6414496,12.4004064 Z" id="arrow" fill="#FFFFFF"></path>
        </g>
    </g>
</svg>