
<svg width="191px" height="191px" viewBox="0 0 191 191" version="1.1" xmlns="http://www.w3.org/2000/svg" xmlns:xlink="http://www.w3.org/1999/xlink">
    <defs>
        <path d="M15.4272362,54.2545735 L15.4272362,90.483154 L2.90787969,90.483154 L2.90787969,8.0548241 L15.4272362,8.0548241 L15.4272362,41.0704724 L23.9581252,41.0704724 L23.9581252,8.0548241 L36.4774818,8.0548241 L36.4774818,90.483154 L23.9581252,90.483154 L23.9581252,54.2545735 L15.4272362,54.2545735 Z M41.130694,8.0548241 L69.6039208,8.0548241 L69.6039208,20.0202268 L53.6500505,20.0202268 L53.6500505,41.6244262 L66.1694071,41.6244262 L66.1694071,54.1437828 L53.6500505,54.1437828 L53.6500505,77.9637974 L70.2686654,77.9637974 L70.2686654,90.483154 L41.130694,90.483154 L41.130694,8.0548241 Z M86.0009542,19.2446915 L86.0009542,41.9567985 L89.3246772,41.9567985 C92.7591909,41.9567985 93.8670986,39.7409832 93.8670986,36.0848879 L93.8670986,24.5626482 C93.8670986,21.0173437 93.0915632,19.2446915 89.3246772,19.2446915 L86.0009542,19.2446915 Z M86.0009542,53.7006197 L86.0009542,90.483154 L73.4815976,90.483154 L73.4815976,8.0548241 L93.7563078,8.0548241 C102.065615,8.0548241 106.275664,11.6001286 106.275664,20.7957622 L106.275664,35.4201433 C106.275664,42.2891708 103.062732,44.9481492 100.846917,45.9452661 C103.616686,47.1639645 106.275664,49.3797798 106.275664,54.9193181 L106.275664,83.835708 C106.275664,87.159431 106.940409,88.7105017 107.494363,89.9292002 L107.494363,90.483154 L95.085797,90.483154 C94.5318432,89.5968279 93.8670986,88.1565479 93.8670986,83.7249173 L93.8670986,58.9077857 C93.8670986,55.2516904 93.202354,53.7006197 89.2138864,53.7006197 L86.0009542,53.7006197 Z M110.596504,8.0548241 L139.069731,8.0548241 L139.069731,20.0202268 L123.115861,20.0202268 L123.115861,41.6244262 L135.635217,41.6244262 L135.635217,54.1437828 L123.115861,54.1437828 L123.115861,77.9637974 L139.734476,77.9637974 L139.734476,90.483154 L110.596504,90.483154 L110.596504,8.0548241 Z" id="path-1"></path>
    </defs>
    <g id="Page-1" stroke="none" stroke-width="1" fill="none" fill-rule="evenodd">
        <g id="button-here">
            <ellipse id="circle" fill="#000000" cx="95.601038" cy="95.8324425" rx="95" ry="94.8945616"></ellipse>
            <g id="HERE" transform="translate(25.000000, 47.668925)">
                <g>
                    <use fill="#000000" xlink:href="#path-1"></use>
                    <use fill="#FFFFFF" xlink:href="#path-1"></use>
                </g>
            </g>
        </g>
    </g>
</svg>