<svg width="154px" height="372px" viewBox="0 0 154 372" version="1.1" xmlns="http://www.w3.org/2000/svg" xmlns:xlink="http://www.w3.org/1999/xlink">
    <g id="desktop" stroke="none" stroke-width="1" fill="none" fill-rule="evenodd">
        <g id="Artboard" transform="translate(-10.000000, -206.000000)" fill="#14B978">
            <path d="M10.5,578 L10.5,206 L99.5,206 C146.5,206 159,230.5 159,266.5 L159,323.5 C159,354.5 145.5,369.5 131,375 C146,380 163.5,392.5 163.5,429.5 L163.5,510 C163.5,549.5 146,578 103.5,578 L10.5,578 Z M84,408.5 L67,408.5 L67,525.5 L84,525.5 C102,525.5 106,517 106,500.5 L106,432.5 C106,417 102,408.5 84,408.5 Z M84,256.5 L67,256.5 L67,353 L84,353 C99,353 103.5,342.5 103.5,327 L103.5,280 C103.5,265 99.5,256.5 84,256.5 Z" id="B"></path>
        </g>
    </g>
</svg>