<svg width="154px" height="372px" viewBox="0 0 154 372" version="1.1" xmlns="http://www.w3.org/2000/svg" xmlns:xlink="http://www.w3.org/1999/xlink">
    <g id="desktop" stroke="none" stroke-width="1" fill="none" fill-rule="evenodd">
        <g id="Artboard" transform="translate(-10.000000, -606.000000)" fill="#14B978">
            <path d="M66.5,656.5 L66.5,759 L81.5,759 C97,759 102,749 102,732.5 L102,680.5 C102,664.5 98.5,656.5 81.5,656.5 L66.5,656.5 Z M66.5,812 L66.5,978 L10,978 L10,606 L101.5,606 C139,606 158,622 158,663.5 L158,729.5 C158,760.5 143.5,772.5 133.5,777 C146,782.5 158,792.5 158,817.5 L158,948 C158,963 161,970 163.5,975.5 L163.5,978 L107.5,978 C105,974 102,967.5 102,947.5 L102,835.5 C102,819 99,812 81,812 L66.5,812 Z" id="R"></path>
        </g>
    </g>
</svg>