<svg width="153px" height="380px" viewBox="0 0 153 380" version="1.1" xmlns="http://www.w3.org/2000/svg" xmlns:xlink="http://www.w3.org/1999/xlink">
    <g id="desktop" stroke="none" stroke-width="1" fill="none" fill-rule="evenodd">
        <g id="Artboard" transform="translate(-417.000000, -199.000000)" fill="#14B978">
            <path d="M489.5,199 L500,199 C546.5,199 564.5,219.5 564.5,263.5 L564.5,324.5 L510,324.5 L510,271 C510,258.5 507.5,249 494,249 C480.5,249 477.5,257.5 477.5,275 L477.5,282 C477.5,303 481.5,314.5 500.5,339 L536.5,385.5 C562,418.5 570,437.5 570,479.5 L570,491.5 C570,546 546.5,578.5 497,578.5 L486,578.5 C441,578.5 417,554 417,508 L417,433.5 L473,433.5 L473,498.5 C473,515.5 478.5,524.5 491.5,524.5 C505,524.5 510,515.5 510,492.5 L510,484 C510,457.5 507.5,448 487,421.5 L451,375.5 C427,344.5 420,320.5 420,283.5 L420,271.5 C420,222 445,199 489.5,199 Z" id="S"></path>
        </g>
    </g>
</svg>