<svg width="70px" height="71px" viewBox="0 0 70 71" version="1.1" xmlns="http://www.w3.org/2000/svg" xmlns:xlink="http://www.w3.org/1999/xlink">
    <g id="desktop" stroke="none" stroke-width="1" fill="none" fill-rule="evenodd">
        <g id="HOMEPAGE" transform="translate(-1370.000000, -4430.000000)">
            <g id="Component_5" transform="translate(-0.000000, 3640.006904)">
                <g id="CTA_double_arrow" transform="translate(1405.000000, 825.289473) scale(1, -1) translate(-1405.000000, -825.289473) translate(1370.000000, 790.289473)">
                    <polygon id="bg" fill="#000000" fill-rule="nonzero" points="2.77555756e-17 0 70 0 70 70 2.77555756e-17 70"></polygon>
                    <g id="Group" stroke-width="1" fill-rule="evenodd" transform="translate(13.810217, 11.941870)" fill="#FFFFFF">
                        <path d="M33.1251371,13.0777609 C28.5018302,19.8980585 23.9006617,26.6857801 19.2955138,33.479372 C23.9198855,40.3008271 28.5211662,47.088218 33.1622396,53.9343118 C33.044991,53.9529149 32.9798093,53.9722621 32.9146275,53.9722621 C29.6737562,53.9737504 26.4329409,53.9759827 23.1921256,53.9640768 C23.0715142,53.9636634 22.92075,53.868581 22.8349993,53.7423282 C18.3258586,47.1052501 13.8232753,40.4584984 9.31413454,33.8214204 C9.13915831,33.5638712 9.16897489,33.4284409 9.32568006,33.1976802 C13.8266941,26.5685394 18.3231123,19.9326189 22.8245747,13.3040569 C22.9066263,13.1832609 23.0402405,13.0693275 23.150035,13.0689141 C26.4375367,13.0565947 29.7250385,13.0589925 33.0125963,13.0597366 C33.0397787,13.0597366 33.0669611,13.06817 33.1251371,13.0777609" id="arrow" transform="translate(21.178643, 33.516257) rotate(-90.000000) translate(-21.178643, -33.516257) "></path>
                        <path d="M33.1251371,-8.2128959 C28.5018302,-1.39259828 23.9006617,5.39512331 19.2955138,12.1887152 C23.9198855,19.0101703 28.5211662,25.7975612 33.1622396,32.6436551 C33.044991,32.6622581 32.9798093,32.6816053 32.9146275,32.6816053 C29.6737562,32.6830936 26.4329409,32.6853259 23.1921256,32.67342 C23.0715142,32.6730066 22.92075,32.5779242 22.8349993,32.4516714 C18.3258586,25.8145933 13.8232753,19.1678417 9.31413454,12.5307636 C9.13915831,12.2732145 9.16897489,12.1377841 9.32568006,11.9070234 C13.8266941,5.27788265 18.3231123,-1.35803791 22.8245747,-7.98659993 C22.9066263,-8.10739584 23.0402405,-8.22132929 23.150035,-8.22174269 C26.4375367,-8.23406205 29.7250385,-8.23166432 33.0125963,-8.2309202 C33.0397787,-8.2309202 33.0669611,-8.22248681 33.1251371,-8.2128959" id="arrow" transform="translate(21.178643, 12.225600) rotate(-90.000000) translate(-21.178643, -12.225600) "></path>
                    </g>
                </g>
            </g>
        </g>
    </g>
</svg>