<svg width="1330px" height="329px" viewBox="0 0 1330 329" version="1.1" xmlns="http://www.w3.org/2000/svg" xmlns:xlink="http://www.w3.org/1999/xlink">
    <g id="desktop" stroke="none" stroke-width="1" fill="none" fill-rule="evenodd">
        <g id="Artboard" transform="translate(-84.000000, -374.000000)">
            <g id="Group" transform="translate(84.000000, 374.000000)">
                <g id="stehven" transform="translate(475.928020, 0.648655)" fill="#FD4635" fill-rule="nonzero">
                    <path d="M54.9076303,0.196608363 C85.1832886,0.196608363 96.8610425,17.993878 96.8610425,55.8848392 L96.8610425,108.702543 L61.3952714,108.702543 L61.3952714,62.4870522 C61.3952714,51.5790482 59.6652338,43.5415716 51.0150457,43.5415716 C42.148603,43.5415716 40.2023106,51.0049427 40.2023106,65.931685 L40.2023106,71.9597925 C40.2023106,90.0441148 42.7973671,100.090961 55.123885,121.332863 L78.6956475,161.520246 C95.3472595,189.938467 100.537372,206.587526 100.537372,242.756171 L100.537372,253.090069 C100.537372,300.166718 85.1832886,328.297886 52.961338,328.297886 L45.8249329,328.297886 C16.4142935,328.297886 0.843954951,307.055984 0.843954951,267.442706 L0.843954951,202.85584 L37.3909995,202.85584 L37.3909995,259.118177 C37.3909995,273.757866 41.0673294,281.50829 49.5012628,281.50829 C58.3677056,281.50829 61.6115261,273.757866 61.6115261,253.951227 L61.6115261,246.487856 C61.6115261,223.523637 59.8814885,215.199108 46.6899517,192.521942 L23.1181892,152.908664 C7.5478507,126.21276 3.00650197,105.25791 3.00650197,73.3950561 L3.00650197,63.0611576 C3.00650197,20.2902999 19.2256046,0.196608363 48.2037346,0.196608363 L54.9076303,0.196608363 Z" id="Shape"></path>
                    <polygon id="Shape" points="204.988393 3.06713573 204.988393 49.8567318 174.063971 49.8567318 174.063971 324.853253 137.516926 324.853253 137.516926 49.8567318 106.592504 49.8567318 106.592504 3.06713573"></polygon>
                    <polygon id="Shape" points="327.1723 3.06713573 327.1723 80.5713745 279.163756 80.5713745 279.163756 119.036441 318.522112 119.036441 318.522112 198.262996 279.163756 198.262996 279.163756 246.774909 328.686083 246.774909 328.686083 325.140306 215.584874 325.140306 215.584874 3.06713573"></polygon>
                    <polygon id="Shape" points="405.023992 324.853253 339.931327 324.853253 339.931327 3.06713573 405.023992 3.06713573 405.023992 113.008334 419.080548 113.008334 419.080548 3.06713573 484.173213 3.06713573 484.173213 324.853253 419.080548 324.853253 419.080548 201.707629 405.023992 201.707629"></polygon>
                    <polygon id="Shape" points="491.309618 3.06713573 560.727377 3.06713573 574.135169 191.660784 587.54296 3.06713573 651.121843 3.06713573 616.304836 324.853253 529.5867 324.853253"></polygon>
                    <polygon id="Shape" points="741.516308 3.06713573 741.516308 49.8567318 694.589038 49.8567318 694.589038 134.250236 731.352337 134.250236 731.352337 183.049201 694.589038 183.049201 694.589038 276.054288 743.4626 276.054288 743.4626 324.853253 657.825738 324.853253 657.825738 3.06713573"></polygon>
                    <polygon id="Shape" points="788.011069 3.06713573 819.584255 175.58583 819.584255 3.06713573 853.103734 3.06713573 853.103734 324.853253 823.04433 324.853253 787.794814 139.704238 787.794814 324.853253 754.49159 324.853253 754.49159 3.06713573"></polygon>
                </g>
                <path d="M89.15,318.673868 L82.925,260.573868 L48.48,260.573868 L42.67,318.673868 L0.755,318.673868 L38.52,9.91386818 L94.13,9.91386818 L134.385,318.673868 L89.15,318.673868 Z M65.495,100.383868 L53.46,214.508868 L77.945,214.508868 L65.495,100.383868 Z M198.295,7.00886818 L207.01,7.00886818 C245.605,7.00886818 260.545,24.0238682 260.545,60.5438682 L260.545,111.173868 L215.31,111.173868 L215.31,66.7688682 C215.31,56.3938682 213.235,48.5088682 202.03,48.5088682 C190.825,48.5088682 188.335,55.5638682 188.335,70.0888682 L188.335,75.8988682 C188.335,93.3288682 191.655,102.873868 207.425,123.208868 L237.305,161.803868 C258.47,189.193868 265.11,204.963868 265.11,239.823868 L265.11,249.783868 C265.11,295.018868 245.605,321.993868 204.52,321.993868 L195.39,321.993868 C158.04,321.993868 138.12,301.658868 138.12,263.478868 L138.12,201.643868 L184.6,201.643868 L184.6,255.593868 C184.6,269.703868 189.165,277.173868 199.955,277.173868 C211.16,277.173868 215.31,269.703868 215.31,250.613868 L215.31,243.558868 C215.31,221.563868 213.235,213.678868 196.22,191.683868 L166.34,153.503868 C146.42,127.773868 140.61,107.853868 140.61,77.1438682 L140.61,67.1838682 C140.61,26.0988682 161.36,7.00886818 198.295,7.00886818 Z M325.285,184.628868 L325.285,318.673868 L278.39,318.673868 L278.39,9.91386818 L325.285,9.91386818 L325.285,133.583868 L362.22,9.91386818 L407.87,9.91386818 L364.295,153.503868 L412.435,318.673868 L364.295,318.673868 L325.285,184.628868 Z" id="ask" fill="#9854FC"></path>
            </g>
        </g>
    </g>
</svg>