<svg width="617px" height="836px" viewBox="0 0 617 836" version="1.1" xmlns="http://www.w3.org/2000/svg" xmlns:xlink="http://www.w3.org/1999/xlink">
    <g id="desktop" stroke="none" stroke-width="1" fill="none" fill-rule="evenodd">
        <g id="Group">
            <path d="M354.76,428.882469 L329.02,541.982469 L329.02,622.322469 L299.64,622.322469 L299.64,541.722469 L273.12,428.882469 L301.72,428.882469 L315.24,501.162469 L328.24,428.882469 L354.76,428.882469 Z M438.22,471.262469 L438.22,579.162469 C438.22,606.202469 429.12,624.662469 400.78,624.662469 L395.84,624.662469 C367.76,624.662469 357.88,606.202469 357.88,579.162469 L357.88,471.522469 C357.88,444.742469 368.02,427.062469 395.58,427.062469 L400.52,427.062469 C429.12,427.062469 438.22,444.742469 438.22,471.262469 Z M408.32,581.242469 L408.32,469.962469 C408.32,459.822469 404.94,455.142469 398.18,455.142469 C390.64,455.142469 387.78,460.082469 387.78,469.962469 L387.78,581.242469 C387.78,589.562469 390.12,596.062469 398.44,596.062469 C406.24,596.062469 408.32,589.562469 408.32,581.242469 Z M447.84,580.202469 L447.84,428.882469 L477.74,428.882469 L477.74,582.022469 C477.74,590.342469 480.6,595.802469 487.1,595.802469 C494.12,595.802469 496.72,590.602469 496.72,582.022469 L496.72,428.882469 L526.62,428.882469 L526.62,580.202469 C526.62,607.502469 515.7,624.662469 489.7,624.662469 L484.5,624.662469 C458.5,624.662469 447.84,608.022469 447.84,580.202469 Z M566.4,455.142469 L566.4,508.442469 L574.2,508.442469 C582.26,508.442469 584.86,503.242469 584.86,494.662469 L584.86,467.622469 C584.86,459.302469 583.04,455.142469 574.2,455.142469 L566.4,455.142469 Z M566.4,536.002469 L566.4,622.322469 L537.02,622.322469 L537.02,428.882469 L584.6,428.882469 C604.1,428.882469 613.98,437.202469 613.98,458.782469 L613.98,493.102469 C613.98,509.222469 606.44,515.462469 601.24,517.802469 C607.74,520.662469 613.98,525.862469 613.98,538.862469 L613.98,606.722469 C613.98,614.522469 615.54,618.162469 616.84,621.022469 L616.84,622.322469 L587.72,622.322469 C586.42,620.242469 584.86,616.862469 584.86,606.462469 L584.86,548.222469 C584.86,539.642469 583.3,536.002469 573.94,536.002469 L566.4,536.002469 Z" id="title" fill="#FD4635"></path>
            <path d="M394.1,198.040823 L392.28,198.040823 C375.12,198.040823 364.2,182.700823 364.2,162.680823 L364.2,41.7808229 C364.2,20.2008229 372.52,0.180822917 400.34,0.180822917 L406.06,0.180822917 C437.52,0.180822917 441.16,20.7208229 441.16,43.6008229 L441.16,63.3608229 L412.56,63.3608229 L412.56,41.5208229 C412.56,32.9408229 410.48,28.2608229 403.2,28.2608229 C396.96,28.2608229 394.1,32.9408229 394.1,41.5208229 L394.1,154.620823 C394.1,163.720823 397.74,168.400823 403.72,168.400823 C411.26,168.400823 414.64,163.200823 414.64,155.920823 L414.64,107.560823 L401.38,107.560823 L401.38,77.9208229 L442.46,77.9208229 L442.46,195.440823 L425.82,195.440823 C425.56,194.400823 423.22,184.780823 420.88,176.460823 C418.8,182.960823 408.92,198.040823 394.1,198.040823 Z M452.6,2.00082292 L519.42,2.00082292 L519.42,30.0808229 L481.98,30.0808229 L481.98,80.7808229 L511.36,80.7808229 L511.36,110.160823 L481.98,110.160823 L481.98,166.060823 L520.98,166.060823 L520.98,195.440823 L452.6,195.440823 L452.6,2.00082292 Z M524.88,2.00082292 L603.4,2.00082292 L603.4,30.0808229 L578.7,30.0808229 L578.7,195.440823 L549.58,195.440823 L549.58,30.0808229 L524.88,30.0808229 L524.88,2.00082292 Z M37.82,213.621646 L43.28,213.621646 C67.46,213.621646 76.82,224.281646 76.82,247.161646 L76.82,278.881646 L48.48,278.881646 L48.48,251.061646 C48.48,244.561646 47.18,239.621646 40.16,239.621646 C33.14,239.621646 31.58,244.041646 31.58,253.141646 L31.58,256.781646 C31.58,267.701646 33.66,273.681646 43.54,286.421646 L62.26,310.601646 C75.52,327.761646 79.68,337.641646 79.68,359.481646 L79.68,365.721646 C79.68,394.061646 67.46,410.961646 41.72,410.961646 L36,410.961646 C12.6,410.961646 0.12,398.221646 0.12,374.301646 L0.12,335.561646 L29.24,335.561646 L29.24,369.361646 C29.24,378.201646 32.1,382.881646 38.86,382.881646 C45.88,382.881646 48.48,378.201646 48.48,366.241646 L48.48,361.821646 C48.48,348.041646 47.18,343.101646 36.52,329.321646 L17.8,305.401646 C5.32,289.281646 1.68,276.801646 1.68,257.561646 L1.68,251.321646 C1.68,225.581646 14.68,213.621646 37.82,213.621646 Z M87.48,366.761646 L87.48,215.441646 L117.38,215.441646 L117.38,368.581646 C117.38,376.901646 120.24,382.361646 126.74,382.361646 C133.76,382.361646 136.36,377.161646 136.36,368.581646 L136.36,215.441646 L166.26,215.441646 L166.26,366.761646 C166.26,394.061646 155.34,411.221646 129.34,411.221646 L124.14,411.221646 C98.14,411.221646 87.48,394.581646 87.48,366.761646 Z M223.2,328.541646 L206.04,328.541646 L206.04,408.881646 L176.66,408.881646 L176.66,215.441646 L223.2,215.441646 C244,215.441646 253.36,224.281646 253.36,247.421646 L253.36,293.181646 C253.36,316.061646 243.22,328.541646 223.2,328.541646 Z M206.04,241.701646 L206.04,300.721646 L213.58,300.721646 C222.42,300.721646 223.72,294.481646 223.72,286.681646 L223.72,254.961646 C223.72,247.421646 222.16,241.701646 213.58,241.701646 L206.04,241.701646 Z M308.74,328.541646 L291.58,328.541646 L291.58,408.881646 L262.2,408.881646 L262.2,215.441646 L308.74,215.441646 C329.54,215.441646 338.9,224.281646 338.9,247.421646 L338.9,293.181646 C338.9,316.061646 328.76,328.541646 308.74,328.541646 Z M291.58,241.701646 L291.58,300.721646 L299.12,300.721646 C307.96,300.721646 309.26,294.481646 309.26,286.681646 L309.26,254.961646 C309.26,247.421646 307.7,241.701646 299.12,241.701646 L291.58,241.701646 Z M427.3,257.821646 L427.3,365.721646 C427.3,392.761646 418.2,411.221646 389.86,411.221646 L384.92,411.221646 C356.84,411.221646 346.96,392.761646 346.96,365.721646 L346.96,258.081646 C346.96,231.301646 357.1,213.621646 384.66,213.621646 L389.6,213.621646 C418.2,213.621646 427.3,231.301646 427.3,257.821646 Z M397.4,367.801646 L397.4,256.521646 C397.4,246.381646 394.02,241.701646 387.26,241.701646 C379.72,241.701646 376.86,246.641646 376.86,256.521646 L376.86,367.801646 C376.86,376.121646 379.2,382.621646 387.52,382.621646 C395.32,382.621646 397.4,376.121646 397.4,367.801646 Z M466.82,241.701646 L466.82,295.001646 L474.62,295.001646 C482.68,295.001646 485.28,289.801646 485.28,281.221646 L485.28,254.181646 C485.28,245.861646 483.46,241.701646 474.62,241.701646 L466.82,241.701646 Z M466.82,322.561646 L466.82,408.881646 L437.44,408.881646 L437.44,215.441646 L485.02,215.441646 C504.52,215.441646 514.4,223.761646 514.4,245.341646 L514.4,279.661646 C514.4,295.781646 506.86,302.021646 501.66,304.361646 C508.16,307.221646 514.4,312.421646 514.4,325.421646 L514.4,393.281646 C514.4,401.081646 515.96,404.721646 517.26,407.581646 L517.26,408.881646 L488.14,408.881646 C486.84,406.801646 485.28,403.421646 485.28,393.021646 L485.28,334.781646 C485.28,326.201646 483.72,322.561646 474.36,322.561646 L466.82,322.561646 Z M520.9,215.441646 L599.42,215.441646 L599.42,243.521646 L574.72,243.521646 L574.72,408.881646 L545.6,408.881646 L545.6,243.521646 L520.9,243.521646 L520.9,215.441646 Z M2.46,622.322469 L2.46,428.882469 L69.28,428.882469 L69.28,456.962469 L31.84,456.962469 L31.84,507.922469 L61.48,507.922469 L61.48,537.302469 L31.84,537.302469 L31.84,622.322469 L2.46,622.322469 Z M156.38,471.262469 L156.38,579.162469 C156.38,606.202469 147.28,624.662469 118.94,624.662469 L114,624.662469 C85.92,624.662469 76.04,606.202469 76.04,579.162469 L76.04,471.522469 C76.04,444.742469 86.18,427.062469 113.74,427.062469 L118.68,427.062469 C147.28,427.062469 156.38,444.742469 156.38,471.262469 Z M126.48,581.242469 L126.48,469.962469 C126.48,459.822469 123.1,455.142469 116.34,455.142469 C108.8,455.142469 105.94,460.082469 105.94,469.962469 L105.94,581.242469 C105.94,589.562469 108.28,596.062469 116.6,596.062469 C124.4,596.062469 126.48,589.562469 126.48,581.242469 Z M195.9,455.142469 L195.9,508.442469 L203.7,508.442469 C211.76,508.442469 214.36,503.242469 214.36,494.662469 L214.36,467.622469 C214.36,459.302469 212.54,455.142469 203.7,455.142469 L195.9,455.142469 Z M195.9,536.002469 L195.9,622.322469 L166.52,622.322469 L166.52,428.882469 L214.1,428.882469 C233.6,428.882469 243.48,437.202469 243.48,458.782469 L243.48,493.102469 C243.48,509.222469 235.94,515.462469 230.74,517.802469 C237.24,520.662469 243.48,525.862469 243.48,538.862469 L243.48,606.722469 C243.48,614.522469 245.04,618.162469 246.34,621.022469 L246.34,622.322469 L217.22,622.322469 C215.92,620.242469 214.36,616.862469 214.36,606.462469 L214.36,548.222469 C214.36,539.642469 212.8,536.002469 203.44,536.002469 L195.9,536.002469 Z M2.46,642.323292 L69.28,642.323292 L69.28,670.403292 L31.84,670.403292 L31.84,721.103292 L61.22,721.103292 L61.22,750.483292 L31.84,750.483292 L31.84,806.383292 L70.84,806.383292 L70.84,835.763292 L2.46,835.763292 L2.46,642.323292 Z M97.1,835.763292 L72.66,642.323292 L102.56,642.323292 L115.82,775.443292 L129.34,642.323292 L157.16,642.323292 L132.72,835.763292 L97.1,835.763292 Z M162.36,642.323292 L229.18,642.323292 L229.18,670.403292 L191.74,670.403292 L191.74,721.103292 L221.12,721.103292 L221.12,750.483292 L191.74,750.483292 L191.74,806.383292 L230.74,806.383292 L230.74,835.763292 L162.36,835.763292 L162.36,642.323292 Z M238.28,642.323292 L264.8,642.323292 L290.02,746.063292 L290.02,642.323292 L316.8,642.323292 L316.8,835.763292 L292.88,835.763292 L264.8,724.483292 L264.8,835.763292 L238.28,835.763292 L238.28,642.323292 Z M324.08,642.323292 L402.6,642.323292 L402.6,670.403292 L377.9,670.403292 L377.9,835.763292 L348.78,835.763292 L348.78,670.403292 L324.08,670.403292 L324.08,642.323292 Z" id="title" fill="#FFFFFF"></path>
        </g>
    </g>
</svg>