<svg width="531px" height="360px" viewBox="0 0 531 360" version="1.1" xmlns="http://www.w3.org/2000/svg" xmlns:xlink="http://www.w3.org/1999/xlink">
    <g id="desktop" stroke="none" stroke-width="1" fill="none" fill-rule="evenodd">
        <g id="HOMEPAGE_header_3" transform="translate(-62.000000, -136.000000)" fill="#FD4635">
            <g id="Component_1" transform="translate(0.000000, 101.000000)">
                <g id="title" transform="translate(53.000000, 136.000000)">
                    <path d="M9.00117687,99.2121069 L61.3931769,99.2121069 L61.3931769,185.588107 C61.3931769,197.860107 64.2251769,204.940107 74.1371769,204.940107 L76.0251769,204.940107 C85.9371769,204.940107 88.2971769,196.444107 88.2971769,185.588107 L88.2971769,-97.1398931 L142.577177,-97.1398931 L142.577177,189.836107 C142.577177,235.620107 118.977177,256.860107 82.1611769,256.860107 L67.5291769,256.860107 C33.0731769,256.860107 9.00117687,241.284107 9.00117687,193.140107 L9.00117687,99.2121069 Z M305.889177,-20.2038931 L305.889177,175.676107 C305.889177,224.764107 289.369177,258.276107 237.921177,258.276107 L228.953177,258.276107 C177.977177,258.276107 160.041177,224.764107 160.041177,175.676107 L160.041177,-19.7318931 C160.041177,-68.3478931 178.449177,-100.443893 228.481177,-100.443893 L237.449177,-100.443893 C289.369177,-100.443893 305.889177,-68.3478931 305.889177,-20.2038931 Z M251.609177,179.452107 L251.609177,-22.5638931 C251.609177,-40.9718931 245.473177,-49.4678931 233.201177,-49.4678931 C219.513177,-49.4678931 214.321177,-40.4998931 214.321177,-22.5638931 L214.321177,179.452107 C214.321177,194.556107 218.569177,206.356107 233.673177,206.356107 C247.833177,206.356107 251.609177,194.556107 251.609177,179.452107 Z M377.633177,-97.1398931 L377.633177,254.028107 L324.297177,254.028107 L324.297177,-97.1398931 L377.633177,-97.1398931 Z M397.457177,-97.1398931 L445.601177,-97.1398931 L491.385177,91.1881069 L491.385177,-97.1398931 L540.001177,-97.1398931 L540.001177,254.028107 L496.577177,254.028107 L445.601177,52.0121069 L445.601177,254.028107 L397.457177,254.028107 L397.457177,-97.1398931 Z" id="join"></path>
                </g>
            </g>
        </g>
    </g>
</svg>