<svg width="60px" height="59px" viewBox="0 0 60 59" version="1.1" xmlns="http://www.w3.org/2000/svg" xmlns:xlink="http://www.w3.org/1999/xlink">
    <defs>
        <polygon id="path-1" points="0 0.109976123 59.3043854 0.109976123 59.3043854 58.5433081 0 58.5433081"></polygon>
        <polygon id="path-3" points="0 0.10990035 59.3043468 0.10990035 59.3043468 58.5435567 0 58.5435567"></polygon>
    </defs>
    <g id="Symbols" stroke="none" stroke-width="1" fill="none" fill-rule="evenodd">
        <g id="footer/black" transform="translate(-1248.000000, -25.000000)">
            <g id="footer">
                <g id="instagram_icon" transform="translate(1248.500000, 25.000000)">
                    <g id="Group-3" transform="translate(0.000000, 0.270289)">
                        <mask id="mask-2" fill="white">
                            <use xlink:href="#path-1"></use>
                        </mask>
                        <g id="Clip-2"></g>
                        <path d="M29.6954285,0.109978253 C13.299376,0.1160607 0.105864337,13.097144 0.000578493643,29.3270146 C-0.103936025,45.3823949 13.2368987,58.5265638 29.6541626,58.5432906 C46.1605146,58.5607776 59.3482413,45.4991019 59.3042758,29.176474 C59.2610816,13.1260356 45.996608,0.103895805 29.6954285,0.109978253" id="Fill-1" fill="#FFFFFF" mask="url(#mask-2)"></path>
                    </g>
                    <g id="Group-6" transform="translate(0.000000, 0.270289)">
                        <mask id="mask-4" fill="white">
                            <use xlink:href="#path-3"></use>
                        </mask>
                        <g id="Clip-5"></g>
                        <path d="M16.8080942,29.3524088 L16.7679853,29.3524088 C16.7679853,31.1866468 16.6904672,33.0246864 16.7834118,34.8547428 C17.0013111,39.167198 19.5524681,41.846136 23.9077539,42.0472369 C27.7501087,42.2247683 31.6156032,42.2335119 35.4564153,42.0434354 C39.6852038,41.8339711 42.3701857,39.2432286 42.551447,35.2193095 C42.7280804,31.3048744 42.7311657,27.3706714 42.549133,23.4566164 C42.3632437,19.4574072 39.6933027,16.869706 35.6311204,16.7134631 C31.5967057,16.5587409 27.5449362,16.5587409 23.5116786,16.7313303 C19.6554399,16.8959366 17.1085253,19.4748943 16.8335479,23.2836468 C16.6881532,25.2969369 16.8080942,27.3288545 16.8080942,29.3524088 M29.6953899,0.109902222 C45.9965695,0.104199928 59.261043,13.1259596 59.3042372,29.176398 C59.3482028,45.4990258 46.160476,58.5607016 29.6541241,58.5435947 C13.2368601,58.5264878 -0.103974591,45.3823189 0.0005399274,29.3273187 C0.10582577,13.097068 13.2993375,0.11598467 29.6953899,0.109902222" id="Fill-4" fill="#FFFFFF" mask="url(#mask-4)"></path>
                    </g>
                    <path d="M29.8309889,19.2941696 L29.8309889,19.2664184 C28.031488,19.2664184 26.2319871,19.2656581 24.4324862,19.267939 C24.2400406,19.2683192 24.0468237,19.2793436 23.8551495,19.2998719 C21.0972775,19.596011 19.4358438,20.9044975 19.2981623,23.572411 C19.0902902,27.6126767 19.0895189,31.6803135 19.3108891,35.7194387 C19.4539699,38.3390728 21.0560116,39.7376556 23.7398365,39.8300327 C27.7140878,39.9661275 31.7014516,39.964987 35.674546,39.8136862 C38.3745686,39.7110449 39.8628399,38.342114 40.0063064,35.6464494 C40.2176494,31.6723303 40.2292193,27.6727409 40.0321457,23.6982417 C39.8929216,20.880928 38.2978218,19.5180797 35.4196231,19.3181192 C33.5653581,19.1896275 31.6945097,19.2941696 29.8309889,19.2941696 Z M16.80794,29.6225455 C16.80794,27.5993714 16.6883846,25.5670736 16.8337793,23.5537835 C17.1087567,19.745031 19.6552857,17.1664534 23.5115243,17.001467 C27.544782,16.8288776 31.5965514,16.8288776 35.6309661,16.98398 C39.6931485,17.1398427 42.3630895,19.7279241 42.5493644,23.7267531 C42.7310114,27.6408081 42.7279261,31.5753913 42.5512927,35.4898263 C42.3704171,39.5137455 39.6854352,42.1044879 35.456261,42.3135721 C31.6154489,42.5036485 27.7499544,42.494905 23.9079853,42.3173736 C19.5526995,42.1166528 17.0011568,39.4377149 16.7832576,35.1248795 C16.6906986,33.2952033 16.7678311,31.4571637 16.7678311,29.6225455 L16.80794,29.6225455 Z" id="Fill-7" fill="#000000"></path>
                    <path d="M29.6841286,36.125214 C33.3124407,36.1210323 36.319065,33.1946148 36.3398908,29.6466472 C36.3607166,26.1230093 33.345222,23.1140986 29.7585614,23.080265 C26.0619871,23.0452909 22.9921141,26.047739 23.0229671,29.6679357 C23.0530488,33.225027 26.0492602,36.1293957 29.6841286,36.125214 Z M29.831066,19.2943216 C31.6945868,19.2943216 33.5650496,19.1893994 35.4197002,19.3182713 C38.2978989,19.5182317 39.8929987,20.8810801 40.0322229,23.6983937 C40.2292964,27.672893 40.2173408,31.6724823 40.0063835,35.6462213 C39.8629171,38.3422661 38.3746458,39.7108168 35.6746231,39.8138382 C31.7011431,39.9651391 27.7141649,39.9662796 23.7399136,39.8298047 C21.0560887,39.7378076 19.454047,38.3392249 19.3109663,35.7195908 C19.089596,31.6800854 19.0903673,27.6128288 19.2982394,23.5725631 C19.4359209,20.9042694 21.096969,19.5961631 23.8552267,19.3000239 C24.0469009,19.2794957 24.2401178,19.2680911 24.4325633,19.2677109 C26.2320642,19.26543 28.0315651,19.2665705 29.831066,19.2665705 L29.831066,19.2943216 Z" id="Fill-9" fill="#FFFFFF"></path>
                    <path d="M33.8608913,29.554232 C33.8373659,27.2687524 32.0232098,25.4622655 29.7127062,25.4231097 C27.4114585,25.3843341 25.4179694,27.3626501 25.4395665,29.6640962 C25.4607779,31.9222048 27.3108006,33.7256505 29.6274748,33.7461787 C32.0467352,33.7678475 33.885188,31.9472949 33.8608913,29.554232 M29.6841672,36.125176 C26.0492988,36.1293577 23.0530874,33.224989 23.02262,29.6678977 C22.9921527,26.047701 26.0620256,23.0452529 29.7586,23.080227 C33.3452606,23.1144408 36.3607551,26.1229713 36.3399294,29.6466092 C36.3191036,33.1945768 33.3124793,36.1209943 29.6841672,36.125176" id="Fill-11" fill="#000000"></path>
                    <path d="M33.8608913,29.554232 C33.885188,31.9472949 32.0467352,33.7678475 29.6274748,33.7461787 C27.3108006,33.7256505 25.4607779,31.9222048 25.4395665,29.6640962 C25.4179694,27.3626501 27.4114585,25.3843341 29.7127062,25.4231097 C32.0232098,25.4622655 33.8373659,27.2687524 33.8608913,29.554232" id="Fill-13" fill="#FFFFFF"></path>
                    <path d="M35.6182007,23.1434084 C35.6182007,22.4481086 36.1901381,21.8843418 36.8959003,21.8843418 C37.6012769,21.8843418 38.1732143,22.4481086 38.1732143,23.1434084 C38.1732143,23.8387082 37.6012769,24.402475 36.8959003,24.402475 C36.1901381,24.402475 35.6182007,23.8387082 35.6182007,23.1434084" id="Fill-15" fill="#000000"></path>
                </g>
            </g>
        </g>
    </g>
</svg>