<svg width="1305px" height="316px" viewBox="0 0 1305 316" version="1.1" xmlns="http://www.w3.org/2000/svg" xmlns:xlink="http://www.w3.org/1999/xlink">
    <g id="desktop" stroke="none" stroke-width="1" fill="none" fill-rule="evenodd">
        <g id="Artboard" transform="translate(-274.000000, -797.000000)">
            <g id="title" transform="translate(268.000000, 790.000000)">
                <g id="logo" transform="translate(489.467627, 6.833281)" fill="#FD4635" fill-rule="nonzero">
                    <path d="M52.8510292,0.189244268 C81.9926928,0.189244268 93.2330488,17.3199056 93.2330488,53.7916361 L93.2330488,104.631018 L59.0956714,104.631018 L59.0956714,60.1465588 C59.0956714,49.6471212 57.4304335,41.9106935 49.1042439,41.9106935 C40.5698995,41.9106935 38.6965068,49.0945192 38.6965068,63.4621707 L38.6965068,69.2644914 C38.6965068,86.6714537 41.1943637,96.3419883 53.0591839,116.788261 L75.7480506,155.4704 C91.7759657,182.824198 96.7716794,198.849655 96.7716794,233.66358 L96.7716794,243.610415 C96.7716794,288.923777 81.9926928,316.001274 50.9776365,316.001274 L44.1085301,316.001274 C15.7994854,316.001274 0.812344067,295.555001 0.812344067,257.425465 L0.812344067,195.257742 L35.9904952,195.257742 L35.9904952,249.412736 C35.9904952,263.504086 39.5291258,270.964213 47.6471607,270.964213 C56.181505,270.964213 59.3038261,263.504086 59.3038261,244.439318 L59.3038261,237.255492 C59.3038261,215.151413 57.6385882,207.138685 44.941149,185.310907 L22.2522823,147.18137 C7.26514102,121.485378 2.89389147,101.315406 2.89389147,70.6459964 L2.89389147,60.6991608 C2.89389147,19.5303135 18.505497,0.189244268 46.3982322,0.189244268 L52.8510292,0.189244268 Z" id="Shape"></path>
                    <polygon id="Shape" points="197.310419 2.95225415 197.310419 47.9893153 167.544291 47.9893153 167.544291 312.685662 132.36614 312.685662 132.36614 47.9893153 102.600012 47.9893153 102.600012 2.95225415"></polygon>
                    <polygon id="Shape" points="314.917847 2.95225415 314.917847 77.5535211 268.707495 77.5535211 268.707495 114.577854 306.591658 114.577854 306.591658 190.836926 268.707495 190.836926 268.707495 237.531793 316.374931 237.531793 316.374931 312.961963 207.510001 312.961963 207.510001 2.95225415"></polygon>
                    <polygon id="Shape" points="389.853554 312.685662 327.198977 312.685662 327.198977 2.95225415 389.853554 2.95225415 389.853554 108.775533 403.383612 108.775533 403.383612 2.95225415 466.038189 2.95225415 466.038189 312.685662 403.383612 312.685662 403.383612 194.152538 389.853554 194.152538"></polygon>
                    <polygon id="Shape" points="472.907295 2.95225415 539.724967 2.95225415 552.630561 184.482004 565.536155 2.95225415 626.733649 2.95225415 593.220735 312.685662 509.750685 312.685662"></polygon>
                    <polygon id="Shape" points="713.74233 2.95225415 713.74233 47.9893153 668.572751 47.9893153 668.572751 129.221806 703.959057 129.221806 703.959057 176.192974 668.572751 176.192974 668.572751 265.714494 715.615723 265.714494 715.615723 312.685662 633.186446 312.685662 633.186446 2.95225415"></polygon>
                    <polygon id="Shape" points="758.495599 2.95225415 788.886191 169.009148 788.886191 2.95225415 821.150176 2.95225415 821.150176 312.685662 792.216667 312.685662 758.287445 134.471525 758.287445 312.685662 726.231615 312.685662 726.231615 2.95225415"></polygon>
                </g>
                <path d="M6.12580146,182.794721 L52.1908015,182.794721 L52.1908015,258.739721 C52.1908015,269.529721 54.6808015,275.754721 63.3958015,275.754721 L65.0558015,275.754721 C73.7708015,275.754721 75.8458015,268.284721 75.8458015,258.739721 L75.8458015,10.1547211 L123.570801,10.1547211 L123.570801,262.474721 C123.570801,302.729721 102.820801,321.404721 70.4508015,321.404721 L57.5858015,321.404721 C27.2908015,321.404721 6.12580146,307.709721 6.12580146,265.379721 L6.12580146,182.794721 Z M267.160801,77.7997211 L267.160801,250.024721 C267.160801,293.184721 252.635801,322.649721 207.400801,322.649721 L199.515801,322.649721 C154.695801,322.649721 138.925801,293.184721 138.925801,250.024721 L138.925801,78.2147211 C138.925801,35.4697211 155.110801,7.24972106 199.100801,7.24972106 L206.985801,7.24972106 C252.635801,7.24972106 267.160801,35.4697211 267.160801,77.7997211 Z M219.435801,253.344721 L219.435801,75.7247211 C219.435801,59.5397211 214.040801,52.0697211 203.250801,52.0697211 C191.215801,52.0697211 186.650801,59.9547211 186.650801,75.7247211 L186.650801,253.344721 C186.650801,266.624721 190.385801,276.999721 203.665801,276.999721 C216.115801,276.999721 219.435801,266.624721 219.435801,253.344721 Z M330.240801,10.1547211 L330.240801,318.914721 L283.345801,318.914721 L283.345801,10.1547211 L330.240801,10.1547211 Z M347.670801,10.1547211 L390.000801,10.1547211 L430.255801,175.739721 L430.255801,10.1547211 L473.000801,10.1547211 L473.000801,318.914721 L434.820801,318.914721 L390.000801,141.294721 L390.000801,318.914721 L347.670801,318.914721 L347.670801,10.1547211 Z" id="join" fill="#14B978"></path>
            </g>
        </g>
    </g>
</svg>