<svg width="256px" height="153px" viewBox="0 0 256 153" version="1.1" xmlns="http://www.w3.org/2000/svg" xmlns:xlink="http://www.w3.org/1999/xlink">
    <g id="desktop" stroke="none" stroke-width="1" fill="none" fill-rule="evenodd">
        <g id="Artboard" transform="translate(-419.000000, -881.000000)" fill="#FD4635">
            <path d="M419.6,966.4 L441.8,966.4 L441.8,1003 C441.8,1008.2 443,1011.2 447.2,1011.2 L448,1011.2 C452.2,1011.2 453.2,1007.6 453.2,1003 L453.2,883.2 L476.2,883.2 L476.2,1004.8 C476.2,1024.2 466.2,1033.2 450.6,1033.2 L444.4,1033.2 C429.8,1033.2 419.6,1026.6 419.6,1006.2 L419.6,966.4 Z M483.8,999.6 L483.8,883.2 L506.8,883.2 L506.8,1001 C506.8,1007.4 509,1011.6 514,1011.6 C519.4,1011.6 521.4,1007.6 521.4,1001 L521.4,883.2 L544.4,883.2 L544.4,999.6 C544.4,1020.6 536,1033.8 516,1033.8 L512,1033.8 C492,1033.8 483.8,1021 483.8,999.6 Z M579.6,881.8 L583.8,881.8 C602.4,881.8 609.6,890 609.6,907.6 L609.6,932 L587.8,932 L587.8,910.6 C587.8,905.6 586.8,901.8 581.4,901.8 C576,901.8 574.8,905.2 574.8,912.2 L574.8,915 C574.8,923.4 576.4,928 584,937.8 L598.4,956.4 C608.6,969.6 611.8,977.2 611.8,994 L611.8,998.8 C611.8,1020.6 602.4,1033.6 582.6,1033.6 L578.2,1033.6 C560.2,1033.6 550.6,1023.8 550.6,1005.4 L550.6,975.6 L573,975.6 L573,1001.6 C573,1008.4 575.2,1012 580.4,1012 C585.8,1012 587.8,1008.4 587.8,999.2 L587.8,995.8 C587.8,985.2 586.8,981.4 578.6,970.8 L564.2,952.4 C554.6,940 551.8,930.4 551.8,915.6 L551.8,910.8 C551.8,891 561.8,881.8 579.6,881.8 Z M614,883.2 L674.4,883.2 L674.4,904.8 L655.4,904.8 L655.4,1032 L633,1032 L633,904.8 L614,904.8 L614,883.2 Z" id="txt"></path>
        </g>
    </g>
</svg>