<svg width="1222px" height="356px" viewBox="0 0 1222 356" version="1.1" xmlns="http://www.w3.org/2000/svg" xmlns:xlink="http://www.w3.org/1999/xlink">
    <g id="desktop" stroke="none" stroke-width="1" fill="none" fill-rule="evenodd">
        <g id="HOMEPAGE_header_2" transform="translate(-54.000000, -515.000000)" fill="#FFFFFF" fill-rule="nonzero">
            <g id="Component_1" transform="translate(-0.500000, 101.000000)">
                <g id="title" transform="translate(54.000000, 38.000000)">
                    <g id="logo" transform="translate(0.514060, 376.755077)">
                        <path d="M77.6449337,0.21232778 C121.045416,0.21232778 137.785603,19.4325415 137.785603,60.3529966 L137.785603,117.393631 L86.9450372,117.393631 L86.9450372,67.4830759 C86.9450372,55.7029449 84.4650096,47.0228484 72.0648717,47.0228484 C59.3547303,47.0228484 56.5646993,55.082938 56.5646993,71.2031173 L56.5646993,77.7131897 C56.5646993,97.2434069 60.2847407,108.093528 77.9549372,131.033783 L111.745313,174.434265 C135.615578,205.124607 143.055661,223.104807 143.055661,262.165241 L143.055661,273.325365 C143.055661,324.165931 121.045416,354.546268 74.8549027,354.546268 L64.6247889,354.546268 C22.4643201,354.546268 0.144071848,331.606013 0.144071848,288.825537 L0.144071848,219.074762 L52.5346545,219.074762 L52.5346545,279.835438 C52.5346545,295.645613 57.8047131,304.015706 69.8948476,304.015706 C82.6049889,304.015706 87.2550406,295.645613 87.2550406,274.255375 L87.2550406,266.195286 C87.2550406,241.39501 84.775013,232.40491 65.8648027,207.914638 L32.074427,165.134162 C9.75417872,136.303841 3.24410632,113.67359 3.24410632,79.2632069 L3.24410632,68.1030828 C3.24410632,21.9125691 26.4943649,0.21232778 68.0348269,0.21232778 L77.6449337,0.21232778 Z" id="Shape"></path>
                        <polygon id="Shape" points="292.787326 3.31236226 292.787326 53.8429242 248.456833 53.8429242 248.456833 350.826227 196.066251 350.826227 196.066251 53.8429242 151.735758 53.8429242 151.735758 3.31236226"></polygon>
                        <polygon id="Shape" points="467.939274 3.31236226 467.939274 87.0132931 399.118509 87.0132931 399.118509 128.553755 455.539136 128.553755 455.539136 214.114707 399.118509 214.114707 399.118509 266.505289 470.109298 266.505289 470.109298 351.13623 307.977495 351.13623 307.977495 3.31236226"></polygon>
                        <polygon id="Shape" points="579.540515 350.826227 486.229478 350.826227 486.229478 3.31236226 579.540515 3.31236226 579.540515 122.043683 599.69074 122.043683 599.69074 3.31236226 693.001777 3.31236226 693.001777 350.826227 599.69074 350.826227 599.69074 217.834748 579.540515 217.834748"></polygon>
                        <polygon id="Shape" points="703.231891 3.31236226 802.742998 3.31236226 821.963211 206.984627 841.183425 3.31236226 932.324439 3.31236226 882.413884 350.826227 758.102501 350.826227"></polygon>
                        <polygon id="Shape" points="1061.90588 3.31236226 1061.90588 53.8429242 994.635132 53.8429242 994.635132 144.983938 1047.33572 144.983938 1047.33572 197.684524 994.635132 197.684524 994.635132 298.125641 1064.69591 298.125641 1064.69591 350.826227 941.934546 350.826227 941.934546 3.31236226"></polygon>
                        <polygon id="Shape" points="1128.55662 3.31236226 1173.81712 189.624434 1173.81712 3.31236226 1221.86766 3.31236226 1221.86766 350.826227 1178.77718 350.826227 1128.24662 150.874003 1128.24662 350.826227 1080.50609 350.826227 1080.50609 3.31236226"></polygon>
                    </g>
                </g>
            </g>
        </g>
    </g>
</svg>