<svg width="1162px" height="229px" viewBox="0 0 1162 229" version="1.1" xmlns="http://www.w3.org/2000/svg" xmlns:xlink="http://www.w3.org/1999/xlink">
    <g id="desktop" stroke="none" stroke-width="1" fill="none" fill-rule="evenodd">
        <g id="Artboard" transform="translate(-139.000000, -163.000000)">
            <g id="Group" transform="translate(139.000000, 163.000000)">
                <path d="M522.35,51.1748079 L522.35,175.674808 C522.35,206.874808 511.85,228.174808 479.15,228.174808 L473.45,228.174808 C441.05,228.174808 429.65,206.874808 429.65,175.674808 L429.65,51.4748079 C429.65,20.5748079 441.35,0.174807883 473.15,0.174807883 L478.85,0.174807883 C511.85,0.174807883 522.35,20.5748079 522.35,51.1748079 Z M487.85,178.074808 L487.85,49.6748079 C487.85,37.9748079 483.95,32.5748079 476.15,32.5748079 C467.45,32.5748079 464.15,38.2748079 464.15,49.6748079 L464.15,178.074808 C464.15,187.674808 466.85,195.174808 476.45,195.174808 C485.45,195.174808 487.85,187.674808 487.85,178.074808 Z M533.45,176.874808 L533.45,2.27480788 L567.95,2.27480788 L567.95,178.974808 C567.95,188.574808 571.25,194.874808 578.75,194.874808 C586.85,194.874808 589.85,188.874808 589.85,178.974808 L589.85,2.27480788 L624.35,2.27480788 L624.35,176.874808 C624.35,208.374808 611.75,228.174808 581.75,228.174808 L575.75,228.174808 C545.75,228.174808 533.45,208.974808 533.45,176.874808 Z M670.25,32.5748079 L670.25,94.0748079 L679.25,94.0748079 C688.55,94.0748079 691.55,88.0748079 691.55,78.1748079 L691.55,46.9748079 C691.55,37.3748079 689.45,32.5748079 679.25,32.5748079 L670.25,32.5748079 Z M670.25,125.874808 L670.25,225.474808 L636.35,225.474808 L636.35,2.27480788 L691.25,2.27480788 C713.75,2.27480788 725.15,11.8748079 725.15,36.7748079 L725.15,76.3748079 C725.15,94.9748079 716.45,102.174808 710.45,104.874808 C717.95,108.174808 725.15,114.174808 725.15,129.174808 L725.15,207.474808 C725.15,216.474808 726.95,220.674808 728.45,223.974808 L728.45,225.474808 L694.85,225.474808 C693.35,223.074808 691.55,219.174808 691.55,207.174808 L691.55,139.974808 C691.55,130.074808 689.75,125.874808 678.95,125.874808 L670.25,125.874808 Z M763.25,2.27480788 L853.85,2.27480788 L853.85,34.6748079 L825.35,34.6748079 L825.35,225.474808 L791.75,225.474808 L791.75,34.6748079 L763.25,34.6748079 L763.25,2.27480788 Z M862.25,2.27480788 L939.35,2.27480788 L939.35,34.6748079 L896.15,34.6748079 L896.15,93.1748079 L930.05,93.1748079 L930.05,127.074808 L896.15,127.074808 L896.15,191.574808 L941.15,191.574808 L941.15,225.474808 L862.25,225.474808 L862.25,2.27480788 Z M1006.55,225.474808 L1002.05,183.474808 L977.15,183.474808 L972.95,225.474808 L942.65,225.474808 L969.95,2.27480788 L1010.15,2.27480788 L1039.25,225.474808 L1006.55,225.474808 Z M989.45,67.6748079 L980.75,150.174808 L998.45,150.174808 L989.45,67.6748079 Z M1044.65,225.474808 L1044.65,2.27480788 L1088.15,2.27480788 L1104.35,120.174808 L1120.85,2.27480788 L1161.35,2.27480788 L1161.35,225.474808 L1129.55,225.474808 L1129.55,81.1748079 L1109.15,225.474808 L1095.65,225.474808 L1074.95,81.1748079 L1074.95,225.474808 L1044.65,225.474808 Z" id="title" fill="#FFFFFF"></path>
                <path d="M0.65,225.474808 L0.65,2.27480788 L44.15,2.27480788 L60.35,120.174808 L76.85,2.27480788 L117.35,2.27480788 L117.35,225.474808 L85.55,225.474808 L85.55,81.1748079 L65.15,225.474808 L51.65,225.474808 L30.95,81.1748079 L30.95,225.474808 L0.65,225.474808 Z M129.95,2.27480788 L207.05,2.27480788 L207.05,34.6748079 L163.85,34.6748079 L163.85,93.1748079 L197.75,93.1748079 L197.75,127.074808 L163.85,127.074808 L163.85,191.574808 L208.85,191.574808 L208.85,225.474808 L129.95,225.474808 L129.95,2.27480788 Z M217.55,2.27480788 L294.65,2.27480788 L294.65,34.6748079 L251.45,34.6748079 L251.45,93.1748079 L285.35,93.1748079 L285.35,127.074808 L251.45,127.074808 L251.45,191.574808 L296.45,191.574808 L296.45,225.474808 L217.55,225.474808 L217.55,2.27480788 Z M300.95,2.27480788 L391.55,2.27480788 L391.55,34.6748079 L363.05,34.6748079 L363.05,225.474808 L329.45,225.474808 L329.45,34.6748079 L300.95,34.6748079 L300.95,2.27480788 Z" id="title" fill="#FD4635"></path>
            </g>
        </g>
    </g>
</svg>