<svg width="1335px" height="229px" viewBox="0 0 1335 229" version="1.1" xmlns="http://www.w3.org/2000/svg" xmlns:xlink="http://www.w3.org/1999/xlink">
    <g id="desktop" stroke="none" stroke-width="1" fill="none" fill-rule="evenodd">
        <g id="Artboard" transform="translate(-571.000000, -208.000000)">
            <g id="Group-2" transform="translate(571.000000, 208.000000)">
                <path d="M775.769649,2.8 L852.869649,2.8 L852.869649,35.2 L809.669649,35.2 L809.669649,93.7 L843.569649,93.7 L843.569649,127.6 L809.669649,127.6 L809.669649,192.1 L854.669649,192.1 L854.669649,226 L775.769649,226 L775.769649,2.8 Z M884.969649,226 L856.769649,2.8 L891.269649,2.8 L906.569649,156.4 L922.169649,2.8 L954.269649,2.8 L926.069649,226 L884.969649,226 Z M960.269649,2.8 L1037.36965,2.8 L1037.36965,35.2 L994.169649,35.2 L994.169649,93.7 L1028.06965,93.7 L1028.06965,127.6 L994.169649,127.6 L994.169649,192.1 L1039.16965,192.1 L1039.16965,226 L960.269649,226 L960.269649,2.8 Z M1047.86965,2.8 L1078.46965,2.8 L1107.56965,122.5 L1107.56965,2.8 L1138.46965,2.8 L1138.46965,226 L1110.86965,226 L1078.46965,97.6 L1078.46965,226 L1047.86965,226 L1047.86965,2.8 Z M1146.86965,2.8 L1237.46965,2.8 L1237.46965,35.2 L1208.96965,35.2 L1208.96965,226 L1175.36965,226 L1175.36965,35.2 L1146.86965,35.2 L1146.86965,2.8 Z M1286.66965,0.7 L1292.96965,0.7 C1320.86965,0.7 1331.66965,13 1331.66965,39.4 L1331.66965,76 L1298.96965,76 L1298.96965,43.9 C1298.96965,36.4 1297.46965,30.7 1289.36965,30.7 C1281.26965,30.7 1279.46965,35.8 1279.46965,46.3 L1279.46965,50.5 C1279.46965,63.1 1281.86965,70 1293.26965,84.7 L1314.86965,112.6 C1330.16965,132.4 1334.96965,143.8 1334.96965,169 L1334.96965,176.2 C1334.96965,208.9 1320.86965,228.4 1291.16965,228.4 L1284.56965,228.4 C1257.56965,228.4 1243.16965,213.7 1243.16965,186.1 L1243.16965,141.4 L1276.76965,141.4 L1276.76965,180.4 C1276.76965,190.6 1280.06965,196 1287.86965,196 C1295.96965,196 1298.96965,190.6 1298.96965,176.8 L1298.96965,171.7 C1298.96965,155.8 1297.46965,150.1 1285.16965,134.2 L1263.56965,106.6 C1249.16965,88 1244.96965,73.6 1244.96965,51.4 L1244.96965,44.2 C1244.96965,14.5 1259.96965,0.7 1286.66965,0.7 Z" id="title" fill="#FFFFFF"></path>
                <path d="M44.0696495,0.7 L50.3696495,0.7 C78.2696495,0.7 89.0696495,13 89.0696495,39.4 L89.0696495,76 L56.3696495,76 L56.3696495,43.9 C56.3696495,36.4 54.8696495,30.7 46.7696495,30.7 C38.6696495,30.7 36.8696495,35.8 36.8696495,46.3 L36.8696495,50.5 C36.8696495,63.1 39.2696495,70 50.6696495,84.7 L72.2696495,112.6 C87.5696495,132.4 92.3696495,143.8 92.3696495,169 L92.3696495,176.2 C92.3696495,208.9 78.2696495,228.4 48.5696495,228.4 L41.9696495,228.4 C14.9696495,228.4 0.569649486,213.7 0.569649486,186.1 L0.569649486,141.4 L34.1696495,141.4 L34.1696495,180.4 C34.1696495,190.6 37.4696495,196 45.2696495,196 C53.3696495,196 56.3696495,190.6 56.3696495,176.8 L56.3696495,171.7 C56.3696495,155.8 54.8696495,150.1 42.5696495,134.2 L20.9696495,106.6 C6.56964949,88 2.36964949,73.6 2.36964949,51.4 L2.36964949,44.2 C2.36964949,14.5 17.3696495,0.7 44.0696495,0.7 Z M101.969649,2.8 L179.069649,2.8 L179.069649,35.2 L135.869649,35.2 L135.869649,93.7 L169.769649,93.7 L169.769649,127.6 L135.869649,127.6 L135.869649,192.1 L180.869649,192.1 L180.869649,226 L101.969649,226 L101.969649,2.8 Z M189.569649,2.8 L223.469649,2.8 L223.469649,191.5 L264.869649,191.5 L264.869649,226 L189.569649,226 L189.569649,2.8 Z M273.569649,2.8 L350.669649,2.8 L350.669649,35.2 L307.469649,35.2 L307.469649,93.7 L341.369649,93.7 L341.369649,127.6 L307.469649,127.6 L307.469649,192.1 L352.469649,192.1 L352.469649,226 L273.569649,226 L273.569649,2.8 Z M416.669649,180.7 L416.669649,128.8 L449.969649,128.8 L449.969649,180.4 C449.969649,204.4 442.169649,228.7 409.469649,228.7 L401.969649,228.7 C367.769649,228.7 360.269649,204.1 360.269649,181.6 L360.269649,45.4 C360.269649,22.6 370.169649,0.7 400.769649,0.7 L408.569649,0.7 C445.769649,0.7 449.969649,25.3 449.969649,47.2 L449.969649,87.1 L416.669649,87.1 L416.669649,47.8 C416.669649,38.2 413.669649,33.1 405.269649,33.1 C396.869649,33.1 394.769649,37.9 394.769649,47.8 L394.769649,180.4 C394.769649,190.3 398.069649,195.7 405.569649,195.7 C413.669649,195.7 416.669649,189.7 416.669649,180.7 Z M456.569649,2.8 L547.169649,2.8 L547.169649,35.2 L518.669649,35.2 L518.669649,226 L485.069649,226 L485.069649,35.2 L456.569649,35.2 L456.569649,2.8 Z M555.569649,2.8 L632.669649,2.8 L632.669649,35.2 L589.469649,35.2 L589.469649,93.7 L623.369649,93.7 L623.369649,127.6 L589.469649,127.6 L589.469649,192.1 L634.469649,192.1 L634.469649,226 L555.569649,226 L555.569649,2.8 Z M643.169649,226 L643.169649,2.8 L695.069649,2.8 C724.169649,2.8 733.169649,19.3 733.169649,45.7 L733.169649,181.6 C733.169649,208.9 722.969649,226 695.069649,226 L643.169649,226 Z M677.069649,33.1 L677.069649,193.6 L685.169649,193.6 C695.369649,193.6 698.369649,188.2 698.369649,176.2 L698.369649,50.5 C698.369649,37.6 695.069649,33.1 686.669649,33.1 L677.069649,33.1 Z" id="title" fill="#FD4635"></path>
            </g>
        </g>
    </g>
</svg>