<svg width="100px" height="101px" viewBox="0 0 100 101" version="1.1" xmlns="http://www.w3.org/2000/svg" xmlns:xlink="http://www.w3.org/1999/xlink">
    <g id="desktop" stroke="none" stroke-width="1" fill="none" fill-rule="evenodd">
        <g id="MEET_STEHVEN_uneven_picture" transform="translate(-1340.000000, -2962.000000)">
            <g id="Component_2" transform="translate(-1.000000, 899.141504)">
                <g id="uneven-picture" transform="translate(721.000000, 1442.000000)">
                    <g id="CTA_simple_arrow" transform="translate(620.000000, 621.072577)">
                        <polygon id="bg" fill="#000000" fill-rule="nonzero" transform="translate(50.000000, 50.000000) rotate(-270.000000) translate(-50.000000, -50.000000) " points="0 0 100 0 100 100 0 100"></polygon>
                        <path d="M31.7367702,23.1262677 C31.8257068,23.113657 31.8672619,23.1025683 31.9088171,23.1025683 C36.9346784,23.1015899 41.960454,23.0984372 46.9862296,23.1146354 C47.1540782,23.115179 47.3583411,23.2649854 47.4837777,23.4238149 C54.3653982,32.1394368 61.2393076,40.8647342 68.1202427,49.581117 C68.3598061,49.8845347 68.4053882,50.0626065 68.1378929,50.4012472 C61.2445341,59.1280665 54.3611999,67.8676052 47.467841,76.5944245 C47.3367495,76.7604291 47.1062683,76.885449 46.9218833,76.8859925 C41.9674798,76.9016472 37.0130763,76.8987119 32.0585871,76.8967551 C31.9589403,76.8967551 31.8592936,76.8713163 31.6800495,76.8468559 C38.7751008,67.8452103 45.8093188,58.920751 52.8788373,49.9515019 C45.8387073,41.0188891 38.8046607,32.0939948 31.7367702,23.1262677 Z" id="arrow" fill="#FFFFFF" fill-rule="evenodd" transform="translate(50.000000, 50.000000) rotate(-270.000000) translate(-50.000000, -50.000000) "></path>
                    </g>
                </g>
            </g>
        </g>
    </g>
</svg>