
<svg width="987px" height="229px" viewBox="0 0 987 229" version="1.1" xmlns="http://www.w3.org/2000/svg" xmlns:xlink="http://www.w3.org/1999/xlink">
    <g id="desktop" stroke="none" stroke-width="1" fill="none" fill-rule="evenodd">
        <g id="Artboard" transform="translate(-227.000000, -165.000000)">
            <g id="Group" transform="translate(227.000000, 165.000000)">
                <path d="M349.046442,2.27480788 L349.046442,225.474808 L315.146442,225.474808 L315.146442,2.27480788 L349.046442,2.27480788 Z M361.646442,2.27480788 L392.246442,2.27480788 L421.346442,121.974808 L421.346442,2.27480788 L452.246442,2.27480788 L452.246442,225.474808 L424.646442,225.474808 L392.246442,97.0748079 L392.246442,225.474808 L361.646442,225.474808 L361.646442,2.27480788 Z M491.246442,2.27480788 L581.846442,2.27480788 L581.846442,34.6748079 L553.346442,34.6748079 L553.346442,225.474808 L519.746442,225.474808 L519.746442,34.6748079 L491.246442,34.6748079 L491.246442,2.27480788 Z M682.046442,51.1748079 L682.046442,175.674808 C682.046442,206.874808 671.546442,228.174808 638.846442,228.174808 L633.146442,228.174808 C600.746442,228.174808 589.346442,206.874808 589.346442,175.674808 L589.346442,51.4748079 C589.346442,20.5748079 601.046442,0.174807883 632.846442,0.174807883 L638.546442,0.174807883 C671.546442,0.174807883 682.046442,20.5748079 682.046442,51.1748079 Z M647.546442,178.074808 L647.546442,49.6748079 C647.546442,37.9748079 643.646442,32.5748079 635.846442,32.5748079 C627.146442,32.5748079 623.846442,38.2748079 623.846442,49.6748079 L623.846442,178.074808 C623.846442,187.674808 626.546442,195.174808 636.146442,195.174808 C645.146442,195.174808 647.546442,187.674808 647.546442,178.074808 Z M693.146442,176.874808 L693.146442,2.27480788 L727.646442,2.27480788 L727.646442,178.974808 C727.646442,188.574808 730.946442,194.874808 738.446442,194.874808 C746.546442,194.874808 749.546442,188.874808 749.546442,178.974808 L749.546442,2.27480788 L784.046442,2.27480788 L784.046442,176.874808 C784.046442,208.374808 771.446442,228.174808 741.446442,228.174808 L735.446442,228.174808 C705.446442,228.174808 693.146442,208.974808 693.146442,176.874808 Z M851.546442,180.174808 L851.546442,128.274808 L884.846442,128.274808 L884.846442,179.874808 C884.846442,203.874808 877.046442,228.174808 844.346442,228.174808 L836.846442,228.174808 C802.646442,228.174808 795.146442,203.574808 795.146442,181.074808 L795.146442,44.8748079 C795.146442,22.0748079 805.046442,0.174807883 835.646442,0.174807883 L843.446442,0.174807883 C880.646442,0.174807883 884.846442,24.7748079 884.846442,46.6748079 L884.846442,86.5748079 L851.546442,86.5748079 L851.546442,47.2748079 C851.546442,37.6748079 848.546442,32.5748079 840.146442,32.5748079 C831.746442,32.5748079 829.646442,37.3748079 829.646442,47.2748079 L829.646442,179.874808 C829.646442,189.774808 832.946442,195.174808 840.446442,195.174808 C848.546442,195.174808 851.546442,189.174808 851.546442,180.174808 Z M929.546442,127.374808 L929.546442,225.474808 L895.646442,225.474808 L895.646442,2.27480788 L929.546442,2.27480788 L929.546442,91.6748079 L952.646442,91.6748079 L952.646442,2.27480788 L986.546442,2.27480788 L986.546442,225.474808 L952.646442,225.474808 L952.646442,127.374808 L929.546442,127.374808 Z" id="title" fill="#FD4635"></path>
                <path d="M34.6464417,228.474808 L32.5464417,228.474808 C12.7464417,228.474808 0.146441682,210.774808 0.146441682,187.674808 L0.146441682,48.1748079 C0.146441682,23.2748079 9.74644168,0.174807883 41.8464417,0.174807883 L48.4464417,0.174807883 C84.7464417,0.174807883 88.9464417,23.8748079 88.9464417,50.2748079 L88.9464417,73.0748079 L55.9464417,73.0748079 L55.9464417,47.8748079 C55.9464417,37.9748079 53.5464417,32.5748079 45.1464417,32.5748079 C37.9464417,32.5748079 34.6464417,37.9748079 34.6464417,47.8748079 L34.6464417,178.374808 C34.6464417,188.874808 38.8464417,194.274808 45.7464417,194.274808 C54.4464417,194.274808 58.3464417,188.274808 58.3464417,179.874808 L58.3464417,124.074808 L43.0464417,124.074808 L43.0464417,89.8748079 L90.4464417,89.8748079 L90.4464417,225.474808 L71.2464417,225.474808 C70.9464417,224.274808 68.2464417,213.174808 65.5464417,203.574808 C63.1464417,211.074808 51.7464417,228.474808 34.6464417,228.474808 Z M102.146442,2.27480788 L179.246442,2.27480788 L179.246442,34.6748079 L136.046442,34.6748079 L136.046442,93.1748079 L169.946442,93.1748079 L169.946442,127.074808 L136.046442,127.074808 L136.046442,191.574808 L181.046442,191.574808 L181.046442,225.474808 L102.146442,225.474808 L102.146442,2.27480788 Z M185.546442,2.27480788 L276.146442,2.27480788 L276.146442,34.6748079 L247.646442,34.6748079 L247.646442,225.474808 L214.046442,225.474808 L214.046442,34.6748079 L185.546442,34.6748079 L185.546442,2.27480788 Z" id="title" fill="#9854FC"></path>
            </g>
        </g>
    </g>
</svg>