<svg width="469px" height="359px" viewBox="0 0 469 359" version="1.1" xmlns="http://www.w3.org/2000/svg" xmlns:xlink="http://www.w3.org/1999/xlink">
    <g id="desktop" stroke="none" stroke-width="1" fill="none" fill-rule="evenodd">
        <g id="HOMEPAGE" transform="translate(-53.000000, -136.000000)" fill="#FD4635">
            <g id="Component_1" transform="translate(0.000000, 101.000000)">
                <g id="title" transform="translate(52.000000, 35.000000)">
                    <path d="M101.831537,355.028107 L94.7515367,288.948107 L55.5755367,288.948107 L48.9675367,355.028107 L1.29553675,355.028107 L44.2475367,3.86010694 L107.495537,3.86010694 L153.279537,355.028107 L101.831537,355.028107 Z M74.9275367,106.756107 L61.2395367,236.556107 L89.0875367,236.556107 L74.9275367,106.756107 Z M225.967537,0.556106944 L235.879537,0.556106944 C279.775537,0.556106944 296.767537,19.9081069 296.767537,61.4441069 L296.767537,119.028107 L245.319537,119.028107 L245.319537,68.5241069 C245.319537,56.7241069 242.959537,47.7561069 230.215537,47.7561069 C217.471537,47.7561069 214.639537,55.7801069 214.639537,72.3001069 L214.639537,78.9081069 C214.639537,98.7321069 218.415537,109.588107 236.351537,132.716107 L270.335537,176.612107 C294.407537,207.764107 301.959537,225.700107 301.959537,265.348107 L301.959537,276.676107 C301.959537,328.124107 279.775537,358.804107 233.047537,358.804107 L222.663537,358.804107 C180.183537,358.804107 157.527537,335.676107 157.527537,292.252107 L157.527537,221.924107 L210.391537,221.924107 L210.391537,283.284107 C210.391537,299.332107 215.583537,307.828107 227.855537,307.828107 C240.599537,307.828107 245.319537,299.332107 245.319537,277.620107 L245.319537,269.596107 C245.319537,244.580107 242.959537,235.612107 223.607537,210.596107 L189.623537,167.172107 C166.967537,137.908107 160.359537,115.252107 160.359537,80.3241069 L160.359537,68.9961069 C160.359537,22.2681069 183.959537,0.556106944 225.967537,0.556106944 Z M370.399537,202.572107 L370.399537,355.028107 L317.063537,355.028107 L317.063537,3.86010694 L370.399537,3.86010694 L370.399537,144.516107 L412.407537,3.86010694 L464.327537,3.86010694 L414.767537,167.172107 L469.519537,355.028107 L414.767537,355.028107 L370.399537,202.572107 Z" id="ask"></path>
                </g>
            </g>
        </g>
    </g>
</svg>