<svg width="616px" height="353px" viewBox="0 0 616 353" version="1.1" xmlns="http://www.w3.org/2000/svg" xmlns:xlink="http://www.w3.org/1999/xlink">
    <g id="desktop" stroke="none" stroke-width="1" fill="none" fill-rule="evenodd">
        <g id="HOMEPAGE_header_2" transform="translate(-65.000000, -139.000000)" fill="#FD4635">
            <g id="Component_1" transform="translate(-0.500000, 101.000000)">
                <g id="title" transform="translate(54.000000, 136.000000)">
                    <path d="M12.3908168,254.028107 L12.3908168,-97.1398931 L80.8308168,-97.1398931 L106.318817,88.3561069 L132.278817,-97.1398931 L195.998817,-97.1398931 L195.998817,254.028107 L145.966817,254.028107 L145.966817,26.9961069 L113.870817,254.028107 L92.6308168,254.028107 L60.0628168,26.9961069 L60.0628168,254.028107 L12.3908168,254.028107 Z M215.822817,-97.1398931 L337.126817,-97.1398931 L337.126817,-46.1638931 L269.158817,-46.1638931 L269.158817,45.8761069 L322.494817,45.8761069 L322.494817,99.2121069 L269.158817,99.2121069 L269.158817,200.692107 L339.958817,200.692107 L339.958817,254.028107 L215.822817,254.028107 L215.822817,-97.1398931 Z M353.646817,-97.1398931 L474.950817,-97.1398931 L474.950817,-46.1638931 L406.982817,-46.1638931 L406.982817,45.8761069 L460.318817,45.8761069 L460.318817,99.2121069 L406.982817,99.2121069 L406.982817,200.692107 L477.782817,200.692107 L477.782817,254.028107 L353.646817,254.028107 L353.646817,-97.1398931 Z M484.862817,-97.1398931 L627.406817,-97.1398931 L627.406817,-46.1638931 L582.566817,-46.1638931 L582.566817,254.028107 L529.702817,254.028107 L529.702817,-46.1638931 L484.862817,-46.1638931 L484.862817,-97.1398931 Z" id="meet"></path>
                </g>
            </g>
        </g>
    </g>
</svg>