<svg width="61px" height="60px" viewBox="0 0 61 60" version="1.1" xmlns="http://www.w3.org/2000/svg" xmlns:xlink="http://www.w3.org/1999/xlink">
    <g id="Symbols" stroke="none" stroke-width="1" fill="none" fill-rule="evenodd">
        <g id="footer/black" transform="translate(-1328.000000, -25.000000)">
            <g id="footer">
                <g id="facebook_icon" transform="translate(1328.500000, 25.000000)">
                    <g id="Group-3" transform="translate(0.000000, 0.299421)">
                        <g id="Group-5">
                            <path d="M32.1424552,43.4842215 L32.1424552,29.4195292 C33.5460414,29.3356589 34.7568,29.2627281 36.1856276,29.176832 C36.3151448,27.625028 36.4396966,26.1384565 36.5841103,24.4091877 L31.9686621,24.4091877 C32.1519724,22.9894694 31.8825931,21.315709 32.5603862,20.7691337 C33.4475586,20.0544125 35.0836966,20.2302566 36.4686621,20.0114644 L36.4686621,15.3114837 C33.5580414,15.4346556 30.6350069,14.6401158 28.1435586,16.4034189 C25.3293517,18.3944279 26.514869,21.5839321 26.0820414,24.3585414 C25.1563862,24.4424117 24.2919724,24.5210149 23.3762483,24.6040749 L23.3762483,29.297978 C24.3221793,29.3749604 25.1340414,29.4414085 26.2293517,29.530546 L26.2293517,43.4842215 L32.1424552,43.4842215 Z M59.8790069,29.5147444 C59.5136276,46.2195292 46.0438345,59.1197608 29.3605241,58.7417364 C12.5278345,58.3600656 -0.368027586,45.0356203 0.00811034483,28.4134903 C0.368110345,12.5093228 14.174731,-0.26652132 30.590731,0.113934015 C46.9636966,0.493173838 60.2220414,13.8026278 59.8790069,29.5147444 Z" id="Fill-1" fill="#FFFFFF"></path>
                            <path d="M32.1424552,43.4842215 L26.2293517,43.4842215 L26.2293517,29.530546 C25.1340414,29.4414085 24.3221793,29.3749604 23.3762483,29.297978 L23.3762483,24.6040749 C24.2919724,24.5210149 25.1563862,24.4424117 26.0820414,24.3585414 C26.514869,21.5839321 25.3293517,18.3944279 28.1435586,16.4034189 C30.6350069,14.6401158 33.5580414,15.4346556 36.4686621,15.3114837 L36.4686621,20.0114644 C35.0836966,20.2302566 33.4475586,20.0544125 32.5603862,20.7691337 C31.8825931,21.315709 32.1519724,22.9894694 31.9686621,24.4091877 L36.5841103,24.4091877 C36.4396966,26.1384565 36.3151448,27.625028 36.1856276,29.176832 C34.7568,29.2627281 33.5460414,29.3356589 32.1424552,29.4195292 L32.1424552,43.4842215 Z" id="Fill-4" fill="#000000"></path>
                        </g>
                    </g>
                </g>
            </g>
        </g>
    </g>
</svg>