<svg width="1262px" height="229px" viewBox="0 0 1262 229" version="1.1" xmlns="http://www.w3.org/2000/svg" xmlns:xlink="http://www.w3.org/1999/xlink">
    <g id="desktop" stroke="none" stroke-width="1" fill="none" fill-rule="evenodd">
        <g id="Artboard" transform="translate(-487.000000, -295.000000)">
            <g id="Group" transform="translate(487.000000, 295.000000)">
                <path d="M-3.41060513e-13,127.6 L33.3,127.6 L33.3,182.5 C33.3,190.3 35.1,194.8 41.4,194.8 L42.6,194.8 C48.9,194.8 50.4,189.4 50.4,182.5 L50.4,2.8 L84.9,2.8 L84.9,185.2 C84.9,214.3 69.9,227.8 46.5,227.8 L37.2,227.8 C15.3,227.8 -3.41060513e-13,217.9 -3.41060513e-13,187.3 L-3.41060513e-13,127.6 Z M96.3,177.4 L96.3,2.8 L130.8,2.8 L130.8,179.5 C130.8,189.1 134.1,195.4 141.6,195.4 C149.7,195.4 152.7,189.4 152.7,179.5 L152.7,2.8 L187.2,2.8 L187.2,177.4 C187.2,208.9 174.6,228.7 144.6,228.7 L138.6,228.7 C108.6,228.7 96.3,209.5 96.3,177.4 Z M240,0.7 L246.3,0.7 C274.2,0.7 285,13 285,39.4 L285,76 L252.3,76 L252.3,43.9 C252.3,36.4 250.8,30.7 242.7,30.7 C234.6,30.7 232.8,35.8 232.8,46.3 L232.8,50.5 C232.8,63.1 235.2,70 246.6,84.7 L268.2,112.6 C283.5,132.4 288.3,143.8 288.3,169 L288.3,176.2 C288.3,208.9 274.2,228.4 244.5,228.4 L237.9,228.4 C210.9,228.4 196.5,213.7 196.5,186.1 L196.5,141.4 L230.1,141.4 L230.1,180.4 C230.1,190.6 233.4,196 241.2,196 C249.3,196 252.3,190.6 252.3,176.8 L252.3,171.7 C252.3,155.8 250.8,150.1 238.5,134.2 L216.9,106.6 C202.5,88 198.3,73.6 198.3,51.4 L198.3,44.2 C198.3,14.5 213.3,0.7 240,0.7 Z M293.7,2.8 L384.3,2.8 L384.3,35.2 L355.8,35.2 L355.8,226 L322.2,226 L322.2,35.2 L293.7,35.2 L293.7,2.8 Z M748.2,177.4 L748.2,2.8 L782.7,2.8 L782.7,179.5 C782.7,189.1 786,195.4 793.5,195.4 C801.6,195.4 804.6,189.4 804.6,179.5 L804.6,2.8 L839.1,2.8 L839.1,177.4 C839.1,208.9 826.5,228.7 796.5,228.7 L790.5,228.7 C760.5,228.7 748.2,209.5 748.2,177.4 Z M891.9,0.7 L898.2,0.7 C926.1,0.7 936.9,13 936.9,39.4 L936.9,76 L904.2,76 L904.2,43.9 C904.2,36.4 902.7,30.7 894.6,30.7 C886.5,30.7 884.7,35.8 884.7,46.3 L884.7,50.5 C884.7,63.1 887.1,70 898.5,84.7 L920.1,112.6 C935.4,132.4 940.2,143.8 940.2,169 L940.2,176.2 C940.2,208.9 926.1,228.4 896.4,228.4 L889.8,228.4 C862.8,228.4 848.4,213.7 848.4,186.1 L848.4,141.4 L882,141.4 L882,180.4 C882,190.6 885.3,196 893.1,196 C901.2,196 904.2,190.6 904.2,176.8 L904.2,171.7 C904.2,155.8 902.7,150.1 890.4,134.2 L868.8,106.6 C854.4,88 850.2,73.6 850.2,51.4 L850.2,44.2 C850.2,14.5 865.2,0.7 891.9,0.7 Z M980.4,226 L980.4,2.8 L1057.5,2.8 L1057.5,35.2 L1014.3,35.2 L1014.3,94 L1048.5,94 L1048.5,127.9 L1014.3,127.9 L1014.3,226 L980.4,226 Z M1158,51.7 L1158,176.2 C1158,207.4 1147.5,228.7 1114.8,228.7 L1109.1,228.7 C1076.7,228.7 1065.3,207.4 1065.3,176.2 L1065.3,52 C1065.3,21.1 1077,0.7 1108.8,0.7 L1114.5,0.7 C1147.5,0.7 1158,21.1 1158,51.7 Z M1123.5,178.6 L1123.5,50.2 C1123.5,38.5 1119.6,33.1 1111.8,33.1 C1103.1,33.1 1099.8,38.8 1099.8,50.2 L1099.8,178.6 C1099.8,188.2 1102.5,195.7 1112.1,195.7 C1121.1,195.7 1123.5,188.2 1123.5,178.6 Z M1203.6,33.1 L1203.6,94.6 L1212.6,94.6 C1221.9,94.6 1224.9,88.6 1224.9,78.7 L1224.9,47.5 C1224.9,37.9 1222.8,33.1 1212.6,33.1 L1203.6,33.1 Z M1203.6,126.4 L1203.6,226 L1169.7,226 L1169.7,2.8 L1224.6,2.8 C1247.1,2.8 1258.5,12.4 1258.5,37.3 L1258.5,76.9 C1258.5,95.5 1249.8,102.7 1243.8,105.4 C1251.3,108.7 1258.5,114.7 1258.5,129.7 L1258.5,208 C1258.5,217 1260.3,221.2 1261.8,224.5 L1261.8,226 L1228.2,226 C1226.7,223.6 1224.9,219.7 1224.9,207.7 L1224.9,140.5 C1224.9,130.6 1223.1,126.4 1212.3,126.4 L1203.6,126.4 Z" id="title" fill="#FFFFFF"></path>
                <path d="M480,226 L475.5,184 L450.6,184 L446.4,226 L416.1,226 L443.4,2.8 L483.6,2.8 L512.7,226 L480,226 Z M462.9,68.2 L454.2,150.7 L471.9,150.7 L462.9,68.2 Z M558.9,0.7 L565.2,0.7 C593.1,0.7 603.9,13 603.9,39.4 L603.9,76 L571.2,76 L571.2,43.9 C571.2,36.4 569.7,30.7 561.6,30.7 C553.5,30.7 551.7,35.8 551.7,46.3 L551.7,50.5 C551.7,63.1 554.1,70 565.5,84.7 L587.1,112.6 C602.4,132.4 607.2,143.8 607.2,169 L607.2,176.2 C607.2,208.9 593.1,228.4 563.4,228.4 L556.8,228.4 C529.8,228.4 515.4,213.7 515.4,186.1 L515.4,141.4 L549,141.4 L549,180.4 C549,190.6 552.3,196 560.1,196 C568.2,196 571.2,190.6 571.2,176.8 L571.2,171.7 C571.2,155.8 569.7,150.1 557.4,134.2 L535.8,106.6 C521.4,88 517.2,73.6 517.2,51.4 L517.2,44.2 C517.2,14.5 532.2,0.7 558.9,0.7 Z M650.7,129.1 L650.7,226 L616.8,226 L616.8,2.8 L650.7,2.8 L650.7,92.2 L677.4,2.8 L710.4,2.8 L678.9,106.6 L713.7,226 L678.9,226 L650.7,129.1 Z" id="title" fill="#9854FC"></path>
            </g>
        </g>
    </g>
</svg>