<svg width="195px" height="153px" viewBox="0 0 195 153" version="1.1" xmlns="http://www.w3.org/2000/svg" xmlns:xlink="http://www.w3.org/1999/xlink">
    <g id="desktop" stroke="none" stroke-width="1" fill="none" fill-rule="evenodd">
        <g id="Artboard" transform="translate(-421.000000, -672.000000)" fill="#FD4635">
            <path d="M421.2,674.2 L441.6,674.2 L461,754 L461,674.2 L481.6,674.2 L481.6,823 L463.2,823 L441.6,737.4 L441.6,823 L421.2,823 L421.2,674.2 Z M551.2,706.8 L551.2,789.8 C551.2,810.6 544.2,824.8 522.4,824.8 L518.6,824.8 C497,824.8 489.4,810.6 489.4,789.8 L489.4,707 C489.4,686.4 497.2,672.8 518.4,672.8 L522.2,672.8 C544.2,672.8 551.2,686.4 551.2,706.8 Z M528.2,791.4 L528.2,705.8 C528.2,698 525.6,694.4 520.4,694.4 C514.6,694.4 512.4,698.2 512.4,705.8 L512.4,791.4 C512.4,797.8 514.2,802.8 520.6,802.8 C526.6,802.8 528.2,797.8 528.2,791.4 Z M555.2,674.2 L615.6,674.2 L615.6,695.8 L596.6,695.8 L596.6,823 L574.2,823 L574.2,695.8 L555.2,695.8 L555.2,674.2 Z" id="NOT"></path>
        </g>
    </g>
</svg>