
<svg width="534px" height="537px" viewBox="0 0 534 537" version="1.1" xmlns="http://www.w3.org/2000/svg" xmlns:xlink="http://www.w3.org/1999/xlink">
    <g id="desktop" stroke="none" stroke-width="1" fill="none" fill-rule="evenodd">
        <g id="ASK_STEHVEN" transform="translate(-813.000000, -1984.000000)">
            <g id="Component_3" transform="translate(-0.004565, 1798.835813)">
                <g id="right" transform="translate(720.000000, 0.000000)">
                    <g id="button" transform="translate(93.004565, 185.000000)">
                        <ellipse id="Oval-3" fill="#000000" fill-rule="nonzero" cx="267" cy="268.519712" rx="266.810031" ry="267.761583"></ellipse>
                        <path d="M147.075,89.9252218 L150.225,89.9252218 C164.175,89.9252218 169.575,96.0752218 169.575,109.275222 L169.575,127.575222 L153.225,127.575222 L153.225,111.525222 C153.225,107.775222 152.475,104.925222 148.425,104.925222 C144.375,104.925222 143.475,107.475222 143.475,112.725222 L143.475,114.825222 C143.475,121.125222 144.675,124.575222 150.375,131.925222 L161.175,145.875222 C168.825,155.775222 171.225,161.475222 171.225,174.075222 L171.225,177.675222 C171.225,194.025222 164.175,203.775222 149.325,203.775222 L146.025,203.775222 C132.525,203.775222 125.325,196.425222 125.325,182.625222 L125.325,160.275222 L142.125,160.275222 L142.125,179.775222 C142.125,184.875222 143.775,187.575222 147.675,187.575222 C151.725,187.575222 153.225,184.875222 153.225,177.975222 L153.225,175.425222 C153.225,167.475222 152.475,164.625222 146.325,156.675222 L135.525,142.875222 C128.325,133.575222 126.225,126.375222 126.225,115.275222 L126.225,111.675222 C126.225,96.8252218 133.725,89.9252218 147.075,89.9252218 Z M175.725,178.275222 L175.725,90.9752218 L192.975,90.9752218 L192.975,179.325222 C192.975,184.125222 194.625,187.275222 198.375,187.275222 C202.425,187.275222 203.925,184.275222 203.925,179.325222 L203.925,90.9752218 L221.175,90.9752218 L221.175,178.275222 C221.175,194.025222 214.875,203.925222 199.875,203.925222 L196.875,203.925222 C181.875,203.925222 175.725,194.325222 175.725,178.275222 Z M227.175,202.575222 L227.175,90.9752218 L253.875,90.9752218 C267.975,90.9752218 271.725,98.3252218 271.725,109.125222 L271.725,126.225222 C271.725,135.525222 267.675,140.025222 263.325,141.675222 C267.825,143.175222 273.075,146.925222 273.075,158.025222 L273.075,182.175222 C273.075,194.025222 267.825,202.575222 255.075,202.575222 L227.175,202.575222 Z M249.225,151.725222 L244.125,151.725222 L244.125,186.825222 L249.225,186.825222 C254.625,186.825222 255.825,184.275222 255.825,179.325222 L255.825,158.925222 C255.825,154.275222 254.625,151.725222 249.225,151.725222 Z M249.225,106.125222 L244.125,106.125222 L244.125,135.075222 L249.225,135.075222 C253.725,135.075222 255.075,131.925222 255.075,127.275222 L255.075,113.175222 C255.075,108.675222 253.875,106.125222 249.225,106.125222 Z M278.325,202.575222 L278.325,90.9752218 L300.075,90.9752218 L308.175,149.925222 L316.425,90.9752218 L336.675,90.9752218 L336.675,202.575222 L320.775,202.575222 L320.775,130.425222 L310.575,202.575222 L303.825,202.575222 L293.475,130.425222 L293.475,202.575222 L278.325,202.575222 Z M359.925,90.9752218 L359.925,202.575222 L342.975,202.575222 L342.975,90.9752218 L359.925,90.9752218 Z M364.125,90.9752218 L409.425,90.9752218 L409.425,107.175222 L395.175,107.175222 L395.175,202.575222 L378.375,202.575222 L378.375,107.175222 L364.125,107.175222 L364.125,90.9752218 Z M88.8,215.975222 L73.95,281.225222 L73.95,327.575222 L57,327.575222 L57,281.075222 L41.7,215.975222 L58.2,215.975222 L66,257.675222 L73.5,215.975222 L88.8,215.975222 Z M136.95,240.425222 L136.95,302.675222 C136.95,318.275222 131.7,328.925222 115.35,328.925222 L112.5,328.925222 C96.3,328.925222 90.6,318.275222 90.6,302.675222 L90.6,240.575222 C90.6,225.125222 96.45,214.925222 112.35,214.925222 L115.2,214.925222 C131.7,214.925222 136.95,225.125222 136.95,240.425222 Z M119.7,303.875222 L119.7,239.675222 C119.7,233.825222 117.75,231.125222 113.85,231.125222 C109.5,231.125222 107.85,233.975222 107.85,239.675222 L107.85,303.875222 C107.85,308.675222 109.2,312.425222 114,312.425222 C118.5,312.425222 119.7,308.675222 119.7,303.875222 Z M142.5,303.275222 L142.5,215.975222 L159.75,215.975222 L159.75,304.325222 C159.75,309.125222 161.4,312.275222 165.15,312.275222 C169.2,312.275222 170.7,309.275222 170.7,304.325222 L170.7,215.975222 L187.95,215.975222 L187.95,303.275222 C187.95,319.025222 181.65,328.925222 166.65,328.925222 L163.65,328.925222 C148.65,328.925222 142.5,319.325222 142.5,303.275222 Z M210.9,231.125222 L210.9,261.875222 L215.4,261.875222 C220.05,261.875222 221.55,258.875222 221.55,253.925222 L221.55,238.325222 C221.55,233.525222 220.5,231.125222 215.4,231.125222 L210.9,231.125222 Z M210.9,277.775222 L210.9,327.575222 L193.95,327.575222 L193.95,215.975222 L221.4,215.975222 C232.65,215.975222 238.35,220.775222 238.35,233.225222 L238.35,253.025222 C238.35,262.325222 234,265.925222 231,267.275222 C234.75,268.925222 238.35,271.925222 238.35,279.425222 L238.35,318.575222 C238.35,323.075222 239.25,325.175222 240,326.825222 L240,327.575222 L223.2,327.575222 C222.45,326.375222 221.55,324.425222 221.55,318.425222 L221.55,284.825222 C221.55,279.875222 220.65,277.775222 215.25,277.775222 L210.9,277.775222 Z M259.5,215.975222 L298.05,215.975222 L298.05,232.175222 L276.45,232.175222 L276.45,261.425222 L293.4,261.425222 L293.4,278.375222 L276.45,278.375222 L276.45,310.625222 L298.95,310.625222 L298.95,327.575222 L259.5,327.575222 L259.5,215.975222 Z M314.1,327.575222 L300,215.975222 L317.25,215.975222 L324.9,292.775222 L332.7,215.975222 L348.75,215.975222 L334.65,327.575222 L314.1,327.575222 Z M351.75,215.975222 L390.3,215.975222 L390.3,232.175222 L368.7,232.175222 L368.7,261.425222 L385.65,261.425222 L385.65,278.375222 L368.7,278.375222 L368.7,310.625222 L391.2,310.625222 L391.2,327.575222 L351.75,327.575222 L351.75,215.975222 Z M395.55,215.975222 L410.85,215.975222 L425.4,275.825222 L425.4,215.975222 L440.85,215.975222 L440.85,327.575222 L427.05,327.575222 L410.85,263.375222 L410.85,327.575222 L395.55,327.575222 L395.55,215.975222 Z M445.05,215.975222 L490.35,215.975222 L490.35,232.175222 L476.1,232.175222 L476.1,327.575222 L459.3,327.575222 L459.3,232.175222 L445.05,232.175222 L445.05,215.975222 Z M192.3,403.525222 L192.3,452.575222 L175.35,452.575222 L175.35,340.975222 L192.3,340.975222 L192.3,385.675222 L203.85,385.675222 L203.85,340.975222 L220.8,340.975222 L220.8,452.575222 L203.85,452.575222 L203.85,403.525222 L192.3,403.525222 Z M227.1,340.975222 L265.65,340.975222 L265.65,357.175222 L244.05,357.175222 L244.05,386.425222 L261,386.425222 L261,403.375222 L244.05,403.375222 L244.05,435.625222 L266.55,435.625222 L266.55,452.575222 L227.1,452.575222 L227.1,340.975222 Z M287.85,356.125222 L287.85,386.875222 L292.35,386.875222 C297,386.875222 298.5,383.875222 298.5,378.925222 L298.5,363.325222 C298.5,358.525222 297.45,356.125222 292.35,356.125222 L287.85,356.125222 Z M287.85,402.775222 L287.85,452.575222 L270.9,452.575222 L270.9,340.975222 L298.35,340.975222 C309.6,340.975222 315.3,345.775222 315.3,358.225222 L315.3,378.025222 C315.3,387.325222 310.95,390.925222 307.95,392.275222 C311.7,393.925222 315.3,396.925222 315.3,404.425222 L315.3,443.575222 C315.3,448.075222 316.2,450.175222 316.95,451.825222 L316.95,452.575222 L300.15,452.575222 C299.4,451.375222 298.5,449.425222 298.5,443.425222 L298.5,409.825222 C298.5,404.875222 297.6,402.775222 292.2,402.775222 L287.85,402.775222 Z M321.15,340.975222 L359.7,340.975222 L359.7,357.175222 L338.1,357.175222 L338.1,386.425222 L355.05,386.425222 L355.05,403.375222 L338.1,403.375222 L338.1,435.625222 L360.6,435.625222 L360.6,452.575222 L321.15,452.575222 L321.15,340.975222 Z" id="submit-your-event-he" fill="#FFFFFF"></path>
                    </g>
                </g>
            </g>
        </g>
    </g>
</svg>