<?xml version="1.0" standalone="no"?>
<!DOCTYPE svg PUBLIC "-//W3C//DTD SVG 1.1//EN" "http://www.w3.org/Graphics/SVG/1.1/DTD/svg11.dtd" >
<svg xmlns="http://www.w3.org/2000/svg" xmlns:xlink="http://www.w3.org/1999/xlink" version="1.1">
<metadata>
Created by FontForge 20181003 at Fri Sep 13 20:00:49 2013
 By Mark Brand
Copyright (c) 2011-2013 by Josh Finklea. All rights reserved.
</metadata>
<defs>
<font id="PostGrotesk-Medium" horiz-adv-x="600" >
  <font-face 
    font-family="Post Grotesk"
    font-weight="680"
    font-stretch="normal"
    units-per-em="1000"
    panose-1="2 0 0 0 0 0 0 0 0 0"
    ascent="750"
    descent="-250"
    x-height="474"
    cap-height="700"
    bbox="-130 -262 1354 948"
    underline-thickness="40"
    underline-position="-100"
    unicode-range="U+0020-F301"
  />
<missing-glyph horiz-adv-x="829" 
d="M65 0v700h700v-700h-700zM135 630v-560h560v560h-560zM415 301l-187 -188l-50 50l188 187l-188 187l50 50l187 -188l187 188l50 -50l-188 -187l188 -187l-50 -50z" />
    <glyph glyph-name="interrobang" unicode="&#x21;&#x3f;" horiz-adv-x="527" 
d="M417 366q-14 -13 -39.5 -32.5t-38 -30.5t-23 -29t-10.5 -38v-31h-83l-5 410q-67 -31 -79 -138l-111 19q17 99 76.5 158t164.5 59q108 0 166.5 -60t58.5 -140q0 -78 -77 -147zM380 514q0 35 -17 63t-49 40l-5 -219q25 21 36.5 32t23 34t11.5 50zM195 62q0 31 19.5 50
t50.5 19q32 0 51.5 -19t19.5 -50q0 -30 -20 -50t-51 -20t-50.5 20t-19.5 50z" />
    <glyph glyph-name="f_b" unicode="fb" horiz-adv-x="929" 
d="M676 487q93 0 153.5 -68.5t60.5 -181.5t-60.5 -181.5t-153.5 -68.5q-104 0 -154 83v-70h-109v700h114v-287q52 74 149 74zM526 260v-46q0 -68 38.5 -102.5t87.5 -34.5q55 0 88.5 45t33.5 115t-33.5 115t-88.5 45q-49 0 -87.5 -34.5t-38.5 -102.5zM17 390v84h80v67
q0 86 44 129t114 43q71 0 112 -30l-42 -87q-25 22 -59 22q-56 0 -56 -77v-67h101v-84h-101v-390h-113v390h-80z" />
    <glyph glyph-name="f_h" unicode="fh" horiz-adv-x="907" 
d="M17 390v84h80v67q0 86 44 129t114 43q71 0 112 -30l-42 -87q-25 22 -59 22q-56 0 -56 -77v-67h101v-84h-101v-390h-113v390h-80zM414 0v700h114v-291q45 78 144 78q73 0 120.5 -41.5t47.5 -118.5v-327h-114v300q0 48 -25.5 71t-62.5 23q-46 0 -78 -38t-32 -105v-251h-114
z" />
    <glyph glyph-name="f_k" unicode="fk" horiz-adv-x="875" 
d="M17 390v84h80v67q0 86 44 129t114 43q71 0 112 -30l-42 -87q-25 22 -59 22q-56 0 -56 -77v-67h101v-84h-101v-390h-113v390h-80zM736 0l-161 230l-48 -44v-186h-114v700h114v-396l184 170h133l-187 -174l213 -300h-134z" />
    <glyph glyph-name="fi" unicode="fi" 
d="M401 643q0 31 19.5 50t50.5 19t50.5 -19t19.5 -50q0 -29 -19.5 -49t-50.5 -20t-50.5 20t-19.5 49zM414 0v474h114v-474h-114zM17 390v84h80v67q0 86 44 129t114 43q68 0 107 -30l-39 -87q-25 22 -57 22q-56 0 -56 -77v-67h101v-84h-101v-390h-113v390h-80z" />
    <glyph glyph-name="fl" unicode="fl" horiz-adv-x="599" 
d="M17 390v84h80v67q0 86 44 129t114 43q71 0 112 -30l-42 -87q-25 22 -59 22q-56 0 -56 -77v-67h101v-84h-101v-390h-113v390h-80zM413 0v700h114v-700h-114z" />
    <glyph glyph-name="interrobangdown" unicode="&#xa1;&#xbf;" horiz-adv-x="520" 
d="M110 134q14 13 39.5 32.5t38 30.5t23 29t10.5 38v31h83l5 -410q67 31 79 138l111 -19q-17 -99 -76.5 -158t-164.5 -59q-108 0 -166.5 60t-58.5 140q0 78 77 147zM147 -14q0 -35 17 -63t49 -40l5 219q-25 -21 -36.5 -32t-23 -34t-11.5 -50zM332 438q0 -31 -19.5 -50
t-50.5 -19q-32 0 -51.5 19t-19.5 50q0 30 20 50t51 20t50.5 -20t19.5 -50z" />
    <glyph glyph-name="interrobangdown.cap" unicode="&#xe441;&#xe444;" horiz-adv-x="527" 
d="M110 334q14 13 39.5 32.5t38 30.5t23 29t10.5 38v31h83l5 -410q67 31 79 138l111 -19q-17 -99 -76.5 -158t-164.5 -59q-108 0 -166.5 60t-58.5 140q0 78 77 147zM147 186q0 -35 17 -63t49 -40l5 219q-25 -21 -36.5 -32t-23 -34t-11.5 -50zM332 638q0 -31 -19.5 -50
t-50.5 -19q-32 0 -51.5 19t-19.5 50q0 30 20 50t51 20t50.5 -20t19.5 -50z" />
    <glyph glyph-name="fj" unicode="fj" horiz-adv-x="603" 
d="M17 390v84h80v67q0 86 44 129t114 43q68 0 107 -30l-39 -87q-25 22 -57 22q-56 0 -56 -77v-67h101v-84h-101v-390h-113v390h-80zM531 474v-521q0 -85 -50 -125.5t-117 -40.5q-61 0 -115 33l46 85q33 -24 63 -24q59 0 59 79v514h114zM404 643q0 31 19.5 50t50.5 19
t50.5 -19t19.5 -50q0 -29 -19.5 -49t-50.5 -20t-50.5 20t-19.5 49z" />
    <glyph glyph-name=".notdef" horiz-adv-x="829" 
d="M65 0v700h700v-700h-700zM135 630v-560h560v560h-560zM415 301l-187 -188l-50 50l188 187l-188 187l50 50l187 -188l187 188l50 -50l-188 -187l188 -187l-50 -50z" />
    <glyph glyph-name=".null" horiz-adv-x="0" 
 />
    <glyph glyph-name="nonmarkingreturn" horiz-adv-x="333" 
 />
    <glyph glyph-name="space" unicode=" " horiz-adv-x="225" 
 />
    <glyph glyph-name="exclam" unicode="!" horiz-adv-x="265" 
d="M193 700l-13 -491h-95l-13 491h121zM62 62q0 31 19.5 50t50.5 19q32 0 51.5 -19t19.5 -50q0 -30 -20 -50t-51 -20t-50.5 20t-19.5 50z" />
    <glyph glyph-name="quotedbl" unicode="&#x22;" horiz-adv-x="370" 
d="M297 462h-62l-23 238h108zM135 462h-62l-23 238h107z" />
    <glyph glyph-name="numbersign" unicode="#" horiz-adv-x="640" 
d="M321 0l35 199h-131l-35 -199h-87l35 199h-105v85h120l25 139h-107v80h121l35 197h87l-35 -197h131l35 197h87l-35 -197h110v-80h-125l-24 -139h112v-85h-127l-36 -199h-86zM264 423l-24 -139h131l24 139h-131z" />
    <glyph glyph-name="dollar" unicode="$" horiz-adv-x="602" 
d="M339 798v-102q89 -9 143 -54t68 -117l-100 -25q-14 93 -111 110v-214q110 -24 163.5 -70t53.5 -132q0 -85 -56.5 -140t-160.5 -63v-96h-68v95q-103 7 -162 61t-62 134l97 16q1 -11 3.5 -23t11 -29.5t21.5 -31.5t36.5 -25.5t54.5 -15.5v233q-112 25 -160.5 71.5
t-48.5 126.5t53.5 131.5t155.5 58.5v101h68zM166 513q0 -39 24.5 -64t80.5 -39v202q-58 -6 -81.5 -34.5t-23.5 -64.5zM451 191q0 42 -25.5 65.5t-86.5 38.5v-219q52 8 82 38.5t30 76.5z" />
    <glyph glyph-name="percent" unicode="%" horiz-adv-x="880" 
d="M273 -13h-95l437 726h96zM370 515q0 -74 -40 -129.5t-126 -55.5q-36 0 -65 11.5t-47.5 29.5t-30.5 42.5t-17 49.5t-5 52q0 33 8.5 64t26.5 59t51.5 44.5t78.5 16.5q86 0 126 -55t40 -129zM127 515q0 -52 19.5 -82.5t57.5 -30.5q39 0 58.5 30.5t19.5 82.5q0 51 -19.5 81.5
t-58.5 30.5q-38 0 -57.5 -30.5t-19.5 -81.5zM841 171q0 -74 -40 -129t-126 -55q-45 0 -78.5 16.5t-52 44.5t-27 59t-8.5 64q0 34 8.5 65t27 59t52 44.5t78.5 16.5q86 0 126 -55.5t40 -129.5zM598 171q0 -51 19.5 -81.5t57.5 -30.5q39 0 58.5 30.5t19.5 81.5q0 52 -19.5 82.5
t-58.5 30.5q-38 0 -57.5 -30.5t-19.5 -82.5z" />
    <glyph glyph-name="ampersand" unicode="&#x26;" horiz-adv-x="652" 
d="M33 196q0 130 146 213q-61 83 -61 144q0 65 43.5 112.5t130.5 47.5q83 0 128 -44.5t45 -112.5q0 -55 -32.5 -95.5t-106.5 -82.5l142 -169q23 41 26 116l87 -39q-12 -94 -48 -153l116 -133h-128l-50 57q-75 -70 -191 -70q-118 0 -182.5 55t-64.5 154zM219 554
q0 -44 50 -107q44 22 69 46.5t25 61.5q0 31 -19 52.5t-53 21.5q-33 0 -52.5 -20.5t-19.5 -54.5zM279 73q45 0 80 16.5t51 38.5l-174 208q-37 -18 -64 -53t-27 -84q0 -54 35.5 -90t98.5 -36z" />
    <glyph glyph-name="quotesingle" unicode="'" horiz-adv-x="207" 
d="M135 462h-62l-23 238h107z" />
    <glyph glyph-name="parenleft" unicode="(" horiz-adv-x="363" 
d="M68 307q0 152 65.5 287t168.5 198l61 -45q-180 -156 -180 -440t180 -440l-61 -45q-103 63 -168.5 198t-65.5 287z" />
    <glyph glyph-name="parenright" unicode=")" horiz-adv-x="363" 
d="M295 307q0 -151 -66 -286.5t-169 -198.5l-60 45q179 156 179 440t-179 440l60 45q103 -63 169 -198.5t66 -286.5z" />
    <glyph glyph-name="asterisk" unicode="*" horiz-adv-x="395" 
d="M161 700h73v-119l110 41l23 -72l-116 -34l75 -94l-62 -46l-67 99l-66 -99l-62 46l75 94l-116 34l23 72l110 -41v119z" />
    <glyph glyph-name="plus" unicode="+" 
d="M52 279v91h202v203h91v-203h203v-91h-203v-208h-91v208h-202z" />
    <glyph glyph-name="comma" unicode="," horiz-adv-x="281" 
d="M219 32q0 -52 -28.5 -97.5t-97.5 -56.5l-19 51q24 0 47 18.5t23 43.5v6q-6 -2 -15 -2q-26 0 -46.5 20.5t-20.5 49.5q0 28 19 49.5t54 21.5q42 0 63 -30t21 -74z" />
    <glyph glyph-name="hyphen" unicode="-" horiz-adv-x="379" 
d="M57 245v86h265v-86h-265z" />
    <glyph glyph-name="period" unicode="." horiz-adv-x="274" 
d="M62 64q0 32 21 52t54 20t54 -20t21 -52t-21 -52t-54 -20t-54 20t-21 52z" />
    <glyph glyph-name="slash" unicode="/" horiz-adv-x="403" 
d="M102 -115h-93l292 869h93z" />
    <glyph glyph-name="zero" unicode="0" 
d="M300 699q129 0 189.5 -98.5t60.5 -257.5t-60.5 -257.5t-189.5 -98.5t-189.5 98.5t-60.5 257.5t60.5 257.5t189.5 98.5zM300 78q68 0 100.5 74.5t32.5 190.5t-32.5 190.5t-100.5 74.5t-100.5 -74.5t-32.5 -190.5t32.5 -190.5t100.5 -74.5z" />
    <glyph glyph-name="one" unicode="1" 
d="M96 0v90h165v476q-49 -39 -137 -42l-19 89q117 13 171 76h101v-599h151v-90h-432z" />
    <glyph glyph-name="two" unicode="2" 
d="M73 0v87q173 153 236 217q100 100 100 186q0 53 -29 85.5t-76 32.5q-55 0 -86 -43t-37 -102l-111 19q18 99 77 158t160 59q104 0 161 -61.5t57 -145.5q0 -65 -34 -123.5t-98 -122.5q-70 -71 -171 -153h309v-93h-458z" />
    <glyph glyph-name="three" unicode="3" 
d="M182 506l-106 25q15 66 69 117t152 51q101 0 161 -55t60 -136q0 -55 -28.5 -94.5t-77.5 -58.5q54 -11 88.5 -58.5t34.5 -107.5q0 -82 -63 -142t-177 -60q-60 0 -107 18.5t-73 47t-39 57t-14 54.5l108 30q16 -117 126 -117q62 0 92.5 33t30.5 80q0 53 -38 84.5t-107 31.5
l-34 -1v95q18 -1 33 -1q63 0 97 30t34 79q0 47 -31.5 74t-77.5 27q-48 0 -78 -30.5t-35 -72.5z" />
    <glyph glyph-name="four" unicode="4" 
d="M316 686h146v-445h108l-16 -88h-92v-153h-109v153h-316v86zM137 241h216v347h-2z" />
    <glyph glyph-name="five" unicode="5" 
d="M66 163l105 28q4 -48 36.5 -80.5t85.5 -32.5q58 0 94 40t36 104q0 60 -31 101t-92 41q-37 0 -69 -17.5t-48 -52.5l-97 17l41 375h375l-16 -93h-276l-22 -190q46 52 133 52q103 0 160 -69t57 -162q0 -101 -67 -169t-180 -68q-102 0 -162 55.5t-63 120.5z" />
    <glyph glyph-name="six" unicode="6" 
d="M321 609q-76 0 -114.5 -68t-44.5 -177q46 86 165 86q106 0 165.5 -68.5t59.5 -161.5q0 -99 -63.5 -166t-175.5 -67q-254 0 -254 343q0 179 68 274t194 95q93 0 145.5 -46t68.5 -115l-108 -16q-27 87 -106 87zM311 362q-59 0 -94 -39t-35 -100q0 -65 35 -106t94 -41
q56 0 91.5 38.5t35.5 104.5q0 63 -34.5 103t-92.5 40z" />
    <glyph glyph-name="seven" unicode="7" 
d="M65 593l17 93h455v-79q-31 -37 -59 -76.5t-63 -101.5t-60.5 -124.5t-43 -143.5t-17.5 -161h-115q0 94 24 189t62 172t74.5 133t73.5 99h-348z" />
    <glyph glyph-name="eight" unicode="8" 
d="M300 -13q-117 0 -182 59t-65 139q0 64 37 111.5t93 60.5q-48 19 -78.5 59.5t-30.5 94.5q0 76 60.5 132t165.5 56t165.5 -56t60.5 -132q0 -54 -30.5 -94.5t-78.5 -59.5q55 -13 92.5 -60.5t37.5 -111.5q0 -80 -65 -139t-182 -59zM415 506q0 48 -32 76t-83 28t-83 -28
t-32 -76t31.5 -77.5t83.5 -29.5t83.5 29.5t31.5 77.5zM300 77q66 0 99 33.5t33 81.5q0 51 -35 83.5t-97 32.5t-97 -32.5t-35 -83.5q0 -48 33 -81.5t99 -33.5z" />
    <glyph glyph-name="nine" unicode="9" 
d="M279 77q77 0 115.5 68t43.5 177q-46 -86 -165 -86q-106 0 -165 68.5t-59 161.5q0 99 63 166t175 67q255 0 255 -343q0 -179 -68.5 -274t-194.5 -95q-92 0 -144.5 45.5t-69.5 115.5l109 16q5 -17 11 -29t17.5 -27t31 -23t45.5 -8zM289 324q60 0 95 39t35 100
q0 65 -35.5 106t-94.5 41q-55 0 -91 -39t-36 -104q0 -63 34.5 -103t92.5 -40z" />
    <glyph glyph-name="colon" unicode=":" horiz-adv-x="274" 
d="M62 410q0 32 21 52t54 20t54 -20t21 -52t-21 -52t-54 -20t-54 20t-21 52zM62 64q0 32 21 52t54 20t54 -20t21 -52t-21 -52t-54 -20t-54 20t-21 52z" />
    <glyph glyph-name="semicolon" unicode=";" horiz-adv-x="281" 
d="M64 410q0 32 21 52t54 20t54 -20t21 -52t-21 -52t-54 -20t-54 20t-21 52zM219 32q0 -52 -28.5 -97.5t-97.5 -56.5l-19 51q24 0 47 18.5t23 43.5v6q-6 -2 -15 -2q-26 0 -46.5 20.5t-20.5 49.5q0 28 19 49.5t54 21.5q42 0 63 -30t21 -74z" />
    <glyph glyph-name="less" unicode="&#x3c;" 
d="M544 54l-494 223v95l494 224v-107l-379 -164l379 -164v-107z" />
    <glyph glyph-name="equal" unicode="=" 
d="M52 372v91h496v-91h-496zM52 183v91h496v-91h-496z" />
    <glyph glyph-name="greater" unicode="&#x3e;" 
d="M56 596l494 -223v-96l-494 -223v106l379 164l-379 165v107z" />
    <glyph glyph-name="question" unicode="?" horiz-adv-x="527" 
d="M321 205h-114v35q0 85 102 166q23 18 34 29t23 33.5t12 48.5q0 45 -30 75t-79 30q-58 0 -89.5 -42.5t-38.5 -103.5l-114 19q17 99 77 158.5t165 59.5q108 0 166.5 -60t58.5 -140q0 -50 -21.5 -85t-58.5 -69q-5 -4 -22.5 -20.5t-23 -22t-18 -19t-16.5 -21.5t-8.5 -20
t-4.5 -23v-28zM195 62q0 31 19.5 50t50.5 19q32 0 51.5 -19t19.5 -50q0 -30 -20 -50t-51 -20t-50.5 20t-19.5 50z" />
    <glyph glyph-name="at" unicode="@" horiz-adv-x="964" 
d="M599 415l10 56h87l-53 -268q-2 -14 -2 -21q0 -48 48 -48q54 0 95.5 58.5t41.5 153.5q0 132 -82.5 209.5t-220.5 77.5q-162 0 -270 -108t-108 -283q0 -161 96.5 -250.5t247.5 -89.5q152 0 278 93l51 -74q-135 -102 -332 -102q-204 0 -322.5 115.5t-118.5 306.5
q0 142 65.5 251.5t173 166t236.5 56.5q172 0 287.5 -97.5t115.5 -264.5q0 -125 -68 -212.5t-174 -87.5q-94 0 -113 76q-22 -39 -59.5 -57.5t-76.5 -18.5q-69 0 -112 49.5t-43 134.5q0 103 60 173t145 70q40 0 72 -17.5t45 -47.5zM563 246l6 32q12 56 -12 88.5t-64 32.5
q-49 0 -84 -47.5t-35 -112.5q0 -47 19.5 -75.5t54.5 -28.5q42 0 72.5 28.5t42.5 82.5z" />
    <glyph glyph-name="A" unicode="A" horiz-adv-x="661" 
d="M391 700l253 -700h-123l-62 176h-264l-62 -176h-116l254 700h120zM327 562h-2l-98 -293h200q-84 242 -100 293z" />
    <glyph glyph-name="B" unicode="B" horiz-adv-x="640" 
d="M81 0v700h274q100 0 154.5 -48t54.5 -130q0 -116 -109 -157q58 -9 98.5 -48.5t40.5 -112.5q0 -89 -63.5 -146.5t-162.5 -57.5h-287zM324 605h-127v-200h118q129 0 129 105q0 49 -29 72t-91 23zM197 312v-217h130q147 0 147 109q0 58 -38 83t-111 25h-128z" />
    <glyph glyph-name="C" unicode="C" horiz-adv-x="688" 
d="M48 350q0 167 88 265t240 98q210 0 281 -189l-113 -40q-45 131 -171 131q-96 0 -149.5 -72t-53.5 -193q0 -120 53 -192.5t150 -72.5q124 0 170 128l112 -41q-76 -185 -281 -185q-151 0 -238.5 98t-87.5 265z" />
    <glyph glyph-name="D" unicode="D" horiz-adv-x="707" 
d="M81 0v700h248q154 0 242 -92.5t88 -257.5t-88 -257.5t-242 -92.5h-248zM537 350q0 119 -53.5 186t-163.5 67h-120v-506h120q110 0 163.5 67t53.5 186z" />
    <glyph glyph-name="E" unicode="E" horiz-adv-x="575" 
d="M530 0h-449v700h443v-97h-326v-194h304v-97h-304v-215h332v-97z" />
    <glyph glyph-name="F" unicode="F" horiz-adv-x="561" 
d="M198 0h-117v700h445v-97h-328v-194h304v-97h-304v-312z" />
    <glyph glyph-name="G" unicode="G" horiz-adv-x="733" 
d="M354 273v93h304v-366h-107v73q-59 -86 -190 -86q-148 0 -230.5 102t-82.5 260q0 162 90 263t244 101q99 0 170.5 -47t109.5 -135l-109 -43q-49 128 -177 128q-94 0 -150 -71t-56 -201q0 -126 53 -193t152 -67q71 0 120.5 37.5t49.5 109.5v42h-191z" />
    <glyph glyph-name="H" unicode="H" horiz-adv-x="701" 
d="M81 0v700h118v-290h303v290h118v-700h-118v312h-303v-312h-118z" />
    <glyph glyph-name="I" unicode="I" horiz-adv-x="280" 
d="M81 0v700h118v-700h-118z" />
    <glyph glyph-name="J" unicode="J" horiz-adv-x="465" 
d="M183 84q48 0 67.5 35.5t19.5 111.5v469h119v-469q0 -56 -8.5 -97.5t-30 -76t-62.5 -52.5t-101 -18q-116 0 -182 80l78 77q27 -32 48.5 -46t51.5 -14z" />
    <glyph glyph-name="K" unicode="K" horiz-adv-x="644" 
d="M490 0l-223 334l-68 -74v-260h-118v700h118v-295l270 295h138l-258 -282l283 -418h-142z" />
    <glyph glyph-name="L" unicode="L" horiz-adv-x="527" 
d="M81 0v700h118v-603h308v-97h-426z" />
    <glyph glyph-name="M" unicode="M" horiz-adv-x="877" 
d="M492 0h-107q-132 343 -193 542h-3v-542h-108v700h162l199 -558l193 558h161v-700h-109v542h-2q-66 -201 -193 -542z" />
    <glyph glyph-name="N" unicode="N" horiz-adv-x="726" 
d="M81 0v700h124l326 -515h3v515h111v-700h-124l-326 515h-3v-515h-111z" />
    <glyph glyph-name="O" unicode="O" horiz-adv-x="749" 
d="M48 350q0 167 89.5 265t236.5 98q148 0 237.5 -98t89.5 -265t-89.5 -265t-237.5 -98q-147 0 -236.5 98t-89.5 265zM170 350q0 -120 52.5 -193t151.5 -73q100 0 152.5 73t52.5 193t-52.5 193t-152.5 73q-99 0 -151.5 -73t-52.5 -193z" />
    <glyph glyph-name="P" unicode="P" horiz-adv-x="622" 
d="M335 266h-136v-266h-118v700h254q122 0 189.5 -52.5t67.5 -161.5t-69.5 -164.5t-187.5 -55.5zM472 486q0 64 -37 90.5t-118 26.5h-118v-241h118q79 0 117 30t38 94z" />
    <glyph glyph-name="Q" unicode="Q" horiz-adv-x="749" 
d="M48 350q0 167 89.5 265t236.5 98q148 0 237.5 -98t89.5 -265q0 -184 -109 -285l70 -75l-68 -59l-78 84q-65 -28 -142 -28q-147 0 -236.5 98t-89.5 265zM170 350q0 -120 52.5 -193t151.5 -73q37 0 68 11l-68 74l66 60l77 -83q62 73 62 204q0 120 -52.5 193t-152.5 73
q-99 0 -151.5 -73t-52.5 -193z" />
    <glyph glyph-name="R" unicode="R" horiz-adv-x="645" 
d="M582 500q0 -76 -39 -127t-108 -72l175 -301h-135l-162 287h-115v-287h-117v700h251q49 0 91 -10t79 -32t58.5 -62.5t21.5 -95.5zM462 497q0 56 -37 81t-112 25h-115v-221h123q141 0 141 115z" />
    <glyph glyph-name="S" unicode="S" horiz-adv-x="638" 
d="M183 519q0 -48 35.5 -71t128.5 -38q126 -21 185.5 -68t59.5 -140q0 -97 -74 -156t-195 -59q-125 0 -199 60.5t-78 150.5l117 18q5 -58 44.5 -96t115.5 -38q68 0 107.5 29.5t39.5 83.5q0 48 -36 74t-126 39q-121 18 -183.5 64t-62.5 137q0 96 70 150t184 54q107 0 177 -50
t86 -138l-119 -27q-18 120 -147 120q-64 0 -97 -26.5t-33 -72.5z" />
    <glyph glyph-name="T" unicode="T" horiz-adv-x="570" 
d="M21 603v97h528v-97h-205v-603h-118v603h-205z" />
    <glyph glyph-name="U" unicode="U" horiz-adv-x="688" 
d="M344 -13q-267 0 -267 266v447h118v-448q0 -74 36 -121t113 -47t113 47t36 121v448h118v-447q0 -266 -267 -266z" />
    <glyph glyph-name="V" unicode="V" horiz-adv-x="661" 
d="M16 700h126q139 -390 190 -554h2q23 73 70.5 211.5t83.5 240.5l37 102h121l-259 -700h-116z" />
    <glyph glyph-name="W" unicode="W" horiz-adv-x="926" 
d="M801 700h110l-186 -700h-130q-98 386 -128 519h-3q-13 -59 -46.5 -189t-59.5 -230l-27 -100h-130l-185 700h120q107 -419 134 -555h2q13 60 48 199t64 248l28 108h111q111 -428 137 -555h3q12 56 46.5 195t62.5 250z" />
    <glyph glyph-name="X" unicode="X" horiz-adv-x="683" 
d="M643 700l-235 -332l259 -368h-141l-189 270l-188 -270h-133l256 363l-235 337h142l165 -240l166 240h133z" />
    <glyph glyph-name="Y" unicode="Y" horiz-adv-x="658" 
d="M269 0v300l-259 400h136l186 -292l186 292h130l-260 -400v-300h-119z" />
    <glyph glyph-name="Z" unicode="Z" horiz-adv-x="620" 
d="M52 603v97h528v-87l-392 -516h389v-97h-536v85l393 518h-382z" />
    <glyph glyph-name="bracketleft" unicode="[" horiz-adv-x="324" 
d="M80 -147v909h214v-80h-111v-749h111v-80h-214z" />
    <glyph glyph-name="backslash" unicode="\" horiz-adv-x="403" 
d="M394 -115h-92l-293 869h94z" />
    <glyph glyph-name="bracketright" unicode="]" horiz-adv-x="324" 
d="M244 -147h-214v80h111v749h-111v80h214v-909z" />
    <glyph glyph-name="asciicircum" unicode="^" horiz-adv-x="549" 
d="M323 700l181 -347h-112l-119 241l-122 -241h-106l182 347h96z" />
    <glyph glyph-name="underscore" unicode="_" horiz-adv-x="484" 
d="M9 -131v75h466v-75h-466z" />
    <glyph glyph-name="grave" unicode="`" 
d="M385 532l-202 109l50 82l189 -131z" />
    <glyph glyph-name="a" unicode="a" horiz-adv-x="518" 
d="M356 0q-10 18 -10 61q-52 -74 -151 -74q-72 0 -115.5 36.5t-43.5 98.5q0 46 24.5 79t69 51.5t97.5 26.5t117 8v30q0 39 -22 62t-65 23t-66 -21t-24 -53l-110 16q7 67 64.5 105t139.5 38q88 0 141 -44.5t53 -127.5v-250q0 -32 11 -65h-110zM226 71q48 0 83 28.5t35 75.5
v39q-196 0 -196 -85q0 -28 21.5 -43t56.5 -15z" />
    <glyph glyph-name="b" unicode="b" horiz-adv-x="588" 
d="M335 487q93 0 153.5 -68.5t60.5 -181.5t-60.5 -181.5t-153.5 -68.5q-104 0 -154 83v-70h-109v700h114v-287q52 74 149 74zM185 260v-46q0 -68 38.5 -102.5t87.5 -34.5q55 0 88.5 45t33.5 115t-33.5 115t-88.5 45q-49 0 -87.5 -34.5t-38.5 -102.5z" />
    <glyph glyph-name="c" unicode="c" horiz-adv-x="503" 
d="M39 237q0 113 63.5 181.5t172.5 68.5q142 0 197 -131l-103 -39q-21 81 -99 81q-56 0 -85 -46.5t-29 -114.5t28.5 -114t86.5 -46q68 0 98 76l105 -40q-68 -126 -201 -126q-107 0 -170.5 68t-63.5 182z" />
    <glyph glyph-name="d" unicode="d" horiz-adv-x="588" 
d="M256 487q96 0 147 -73v286h113v-700h-108v70q-50 -83 -156 -83q-93 0 -153 68.5t-60 181.5t61.5 181.5t155.5 68.5zM403 212v50q0 68 -38 101.5t-86 33.5q-56 0 -89.5 -45t-33.5 -115t32.5 -115t87.5 -45q49 0 88 33.5t39 101.5z" />
    <glyph glyph-name="e" unicode="e" horiz-adv-x="525" 
d="M378 143l98 -39q-61 -117 -202 -117q-108 0 -171.5 68.5t-63.5 182.5q0 112 63.5 180.5t167.5 68.5q108 0 165.5 -70t57.5 -174v-32h-338q3 -60 31 -99.5t87 -39.5q72 0 105 71zM269 404q-49 0 -78 -32.5t-34 -85.5h222q-2 55 -32 86.5t-78 31.5z" />
    <glyph glyph-name="f" unicode="f" horiz-adv-x="342" 
d="M17 390v84h80v62q0 92 49.5 134.5t119.5 42.5q83 0 126 -35l-47 -86q-29 27 -68 27q-67 0 -67 -82v-63h107v-84h-107v-390h-113v390h-80z" />
    <glyph glyph-name="g" unicode="g" horiz-adv-x="534" 
d="M524 486l-21 -74q-12 12 -35 12t-37 -12q35 -37 35 -98q0 -78 -59.5 -123.5t-143.5 -45.5q-22 0 -45.5 4t-26.5 4q-14 0 -27 -9t-13 -27q0 -24 44 -31q12 -2 107 -10q98 -8 149.5 -35t51.5 -96q0 -80 -68.5 -119t-178.5 -39q-102 0 -163 33t-61 99q0 35 19 64t49 41
q-51 24 -51 79q0 58 67 88q-57 44 -57 121q0 81 59.5 128t139.5 47q55 0 109 -25q42 35 98 35q31 0 59 -11zM170 314q0 -46 25.5 -70t66.5 -24q42 0 67.5 24t25.5 70t-26 71.5t-67 25.5t-66.5 -25.5t-25.5 -71.5zM275 -12q-77 5 -105 11q-38 -17 -38 -69q0 -67 128 -67
q62 0 100 18t38 54q0 29 -27 39.5t-96 13.5z" />
    <glyph glyph-name="h" unicode="h" horiz-adv-x="565" 
d="M72 0v700h114v-291q45 78 144 78q73 0 120.5 -41.5t47.5 -118.5v-327h-114v300q0 48 -25.5 71t-62.5 23q-46 0 -78 -38t-32 -105v-251h-114z" />
    <glyph glyph-name="i" unicode="i" horiz-adv-x="258" 
d="M59 643q0 31 19.5 50t50.5 19t50.5 -19t19.5 -50q0 -29 -19.5 -49t-50.5 -20t-50.5 20t-19.5 49zM72 0v474h114v-474h-114z" />
    <glyph glyph-name="j" unicode="j" horiz-adv-x="261" 
d="M189 474v-521q0 -85 -50 -125.5t-117 -40.5q-61 0 -115 33l46 85q33 -24 63 -24q59 0 59 79v514h114zM62 643q0 31 19.5 50t50.5 19t50.5 -19t19.5 -50q0 -29 -19.5 -49t-50.5 -20t-50.5 20t-19.5 49z" />
    <glyph glyph-name="k" unicode="k" horiz-adv-x="534" 
d="M395 0l-161 230l-48 -44v-186h-114v700h114v-396l184 170h133l-187 -174l213 -300h-134z" />
    <glyph glyph-name="l" unicode="l" horiz-adv-x="258" 
d="M72 0v700h114v-700h-114z" />
    <glyph glyph-name="m" unicode="m" horiz-adv-x="843" 
d="M72 0v474h109v-72q47 85 141 85q50 0 87.5 -22.5t56.5 -62.5q23 35 63 60t89 25q68 0 113 -41.5t45 -117.5v-328h-114v300q0 48 -22.5 71t-56.5 23q-42 0 -72 -38t-30 -105v-251h-114v300q0 48 -23 71t-57 23q-42 0 -71.5 -38t-29.5 -105v-251h-114z" />
    <glyph glyph-name="n" unicode="n" horiz-adv-x="565" 
d="M72 0v474h109v-72q49 85 149 85q73 0 120.5 -41.5t47.5 -118.5v-327h-114v300q0 48 -25.5 71t-62.5 23q-46 0 -78 -38t-32 -105v-251h-114z" />
    <glyph glyph-name="o" unicode="o" horiz-adv-x="553" 
d="M276 487q109 0 173.5 -68.5t64.5 -181.5t-64.5 -181.5t-173.5 -68.5t-173 68.5t-64 181.5t64 181.5t173 68.5zM276 74q60 0 91 45.5t31 117.5t-31 117.5t-91 45.5q-59 0 -90 -46t-31 -117t31 -117t90 -46z" />
    <glyph glyph-name="p" unicode="p" horiz-adv-x="588" 
d="M335 -13q-96 0 -149 72v-259h-114v674h109v-70q49 83 154 83q93 0 153.5 -68.5t60.5 -181.5t-60.5 -181.5t-153.5 -68.5zM185 260v-46q0 -68 38.5 -102.5t87.5 -34.5q55 0 88.5 45t33.5 115t-33.5 115t-88.5 45q-49 0 -87.5 -34.5t-38.5 -102.5z" />
    <glyph glyph-name="q" unicode="q" horiz-adv-x="588" 
d="M252 -13q-93 0 -153 68.5t-60 181.5t61.5 181.5t155.5 68.5q106 0 152 -81v68h108v-674h-113v260q-54 -73 -151 -73zM403 212v49q0 69 -38.5 102.5t-85.5 33.5q-56 0 -89.5 -45t-33.5 -115t32.5 -115t87.5 -45q49 0 88 33t39 102z" />
    <glyph glyph-name="r" unicode="r" horiz-adv-x="384" 
d="M379 476l-23 -105q-21 18 -55 18q-46 0 -80.5 -39t-34.5 -111v-239h-114v474h107v-77q39 90 140 90q34 0 60 -11z" />
    <glyph glyph-name="s" unicode="s" horiz-adv-x="478" 
d="M158 348q0 -29 24 -42t74 -21q41 -6 71.5 -15t58.5 -25t42.5 -42.5t14.5 -62.5q0 -71 -55.5 -112t-148.5 -41q-89 0 -144.5 37t-63.5 106l110 16q7 -76 99 -76q41 0 65 15.5t24 46.5q0 28 -22.5 41.5t-82.5 22.5q-88 13 -134 46t-46 98q0 71 56.5 109t138.5 38
q79 0 133 -35t64 -95l-110 -23q-9 71 -89 71q-34 0 -56.5 -15t-22.5 -42z" />
    <glyph glyph-name="t" unicode="t" horiz-adv-x="358" 
d="M305 96l31 -89q-40 -20 -97 -20q-67 0 -104.5 35t-37.5 100v268h-80v84h80v135l113 52v-187h107v-84h-107v-254q0 -56 45 -56q20 0 50 16z" />
    <glyph glyph-name="u" unicode="u" horiz-adv-x="560" 
d="M488 474v-474h-108v71q-50 -84 -147 -84q-71 0 -118 41.5t-47 117.5v328h113v-300q0 -48 24.5 -71t61.5 -23q44 0 76 38t32 105v251h113z" />
    <glyph glyph-name="v" unicode="v" horiz-adv-x="497" 
d="M187 0l-175 474h120q97 -290 119 -367h2l120 367h112l-173 -474h-125z" />
    <glyph glyph-name="w" unicode="w" horiz-adv-x="743" 
d="M325 474h101q86 -294 100 -359h2q7 34 31.5 124t45.5 163l21 72h105l-145 -474h-118q-90 321 -97 350l-96 -350h-118l-145 474h112q85 -285 98 -359h2q7 31 32 120.5t46.5 164t22.5 74.5z" />
    <glyph glyph-name="x" unicode="x" horiz-adv-x="493" 
d="M136 0h-123l173 243l-161 231h127l98 -145l97 145h120l-159 -226l172 -248h-126l-110 161z" />
    <glyph glyph-name="y" unicode="y" horiz-adv-x="498" 
d="M231 -200h-111l78 199l-186 475h116q106 -289 125 -346h2l123 346h108z" />
    <glyph glyph-name="z" unicode="z" horiz-adv-x="458" 
d="M44 388v86h377v-70l-247 -318h248v-86h-386v73l247 315h-239z" />
    <glyph glyph-name="braceleft" unicode="{" horiz-adv-x="351" 
d="M229 540v-57q0 -83 -26 -122.5t-80 -50.5q53 -10 79.5 -49.5t26.5 -122.5v-57q0 -30 1.5 -49t7 -41.5t16 -36t30 -24t47.5 -13.5v-75q-36 1 -65.5 7t-50 18t-36 25t-25 34.5t-15.5 39.5t-9 47t-3.5 51t-0.5 56v17q0 64 -16.5 96.5t-71.5 41.5v71q54 8 71 41t17 97v17
q0 34 0.5 56t3.5 51t9 47t15.5 39.5t25 34.5t36 25t50 18t65.5 7v-76q-28 -3 -47.5 -13.5t-30 -24t-16 -36t-7 -41t-1.5 -48.5z" />
    <glyph glyph-name="bar" unicode="|" horiz-adv-x="270" 
d="M87 -169v966h96v-966h-96z" />
    <glyph glyph-name="braceright" unicode="}" horiz-adv-x="351" 
d="M122 483v57q0 30 -1.5 48.5t-7 41t-16 36t-30 24t-47.5 13.5v76q37 -1 66 -7t50 -18t36.5 -25t25 -34.5t15.5 -39.5t9 -47t3.5 -51t0.5 -56v-17q0 -64 17 -97t71 -41v-71q-55 -9 -71.5 -41.5t-16.5 -96.5v-17q0 -34 -0.5 -56t-3.5 -51t-9 -47t-15.5 -39.5t-25 -34.5
t-36.5 -25t-50 -18t-66 -7v75q28 3 47.5 13.5t30 24t16 36t7 41.5t1.5 49v57q0 83 26.5 122.5t79.5 49.5q-54 11 -80 50.5t-26 122.5z" />
    <glyph glyph-name="asciitilde" unicode="~" horiz-adv-x="604" 
d="M391 227q-51 0 -105 30t-78 30q-25 0 -45.5 -14.5t-28.5 -28.5l-7 -15l-73 58q2 4 5.5 10t17 22t30 28t44.5 22t60 10q51 0 105.5 -30.5t79.5 -30.5t45 14.5t27 29.5l8 14l73 -56q-2 -4 -5.5 -10t-17.5 -22t-30.5 -28.5t-44.5 -22.5t-60 -10z" />
    <glyph glyph-name="exclamdown" unicode="&#xa1;" horiz-adv-x="265" 
d="M62 438q0 30 19.5 50t50.5 20t51 -20t20 -50q0 -31 -19.5 -50t-51.5 -19q-31 0 -50.5 19t-19.5 50zM180 291l13 -491h-121l13 491h95z" />
    <glyph glyph-name="cent" unicode="&#xa2;" horiz-adv-x="514" 
d="M44 344q0 100 52.5 167t146.5 79v100h66v-98q128 -14 172 -129l-92 -38q-19 65 -80 80v-321q52 11 81 76l93 -39q-61 -113 -174 -124v-97h-66v97q-93 12 -146 79t-53 168zM151 345q0 -58 21.5 -103.5t70.5 -57.5v320q-47 -12 -69.5 -56t-22.5 -103z" />
    <glyph glyph-name="sterling" unicode="&#xa3;" horiz-adv-x="571" 
d="M103 192v119h-57v84h57v88q0 93 52.5 154.5t160.5 61.5q151 0 201 -136l-101 -37q-29 85 -100 85q-49 0 -74 -33.5t-25 -85.5v-97h162v-84h-162v-117q0 -83 -42 -106l1 -2q28 5 55 5q34 0 74 -7.5t60 -7.5q38 0 58 16.5t33 56.5l97 -31q-23 -68 -65.5 -99t-111.5 -31
q-26 0 -74 7.5t-93 7.5q-78 0 -143 -18l-24 83q38 20 49.5 51t11.5 73z" />
    <glyph glyph-name="currency" unicode="&#xa4;" horiz-adv-x="618" 
d="M309 590q72 0 133 -41l69 73l69 -67l-73 -68q44 -62 44 -136q0 -73 -44 -137l73 -67l-69 -67l-69 72q-62 -40 -133 -40q-72 0 -134 40l-69 -72l-68 67l73 67q-44 64 -44 137q0 74 44 136l-73 68l68 67l69 -73q62 41 134 41zM309 204q60 0 103 43t43 104t-43 104t-103 43
t-103 -43t-43 -104t43 -104t103 -43z" />
    <glyph glyph-name="yen" unicode="&#xa5;" horiz-adv-x="632" 
d="M542 212h-169v-212h-115v212h-168v73h168v15l-32 49h-136v73h89l-170 264h131l178 -286l182 286h123l-171 -264h90v-73h-138l-31 -49v-15h169v-73z" />
    <glyph glyph-name="brokenbar" unicode="&#xa6;" horiz-adv-x="270" 
d="M87 412v385h96v-385h-96zM87 -169v385h96v-385h-96z" />
    <glyph glyph-name="section" unicode="&#xa7;" horiz-adv-x="548" 
d="M512 238q0 -45 -22 -76.5t-68 -57.5q52 -44 52 -119q0 -83 -56.5 -129.5t-150.5 -46.5q-79 0 -133.5 36t-72.5 97l104 34q24 -80 104 -80q47 0 71 22t24 60q0 45 -34 70.5t-114 52.5q-39 13 -66.5 26.5t-55.5 35t-43 52t-15 69.5q0 45 22 76.5t68 57.5q-52 44 -52 119
q0 83 56.5 129.5t149.5 46.5q80 0 134 -36t72 -97l-103 -34q-24 80 -105 80q-46 0 -70 -22t-24 -60q0 -45 34 -70.5t114 -52.5q39 -13 66.5 -26.5t55.5 -35t43 -52t15 -69.5zM343 150q58 24 58 82q0 36 -19.5 56t-62.5 37l-115 47q-57 -23 -57 -82q0 -36 19.5 -56.5
t62.5 -36.5z" />
    <glyph glyph-name="dieresis" unicode="&#xa8;" 
d="M337 607q0 28 18 45.5t47 17.5t47 -17.5t18 -45.5q0 -27 -18.5 -45t-46.5 -18t-46.5 18t-18.5 45zM133 607q0 28 18 45.5t47 17.5t47 -17.5t18 -45.5q0 -27 -18.5 -45t-46.5 -18t-46.5 18t-18.5 45z" />
    <glyph glyph-name="copyright" unicode="&#xa9;" horiz-adv-x="817" 
d="M409 -13q-154 0 -259.5 103.5t-105.5 260.5q0 156 105.5 259t259.5 103q153 0 258.5 -103t105.5 -259q0 -157 -105.5 -260.5t-258.5 -103.5zM409 56q120 0 204 84t84 211q0 126 -84 209.5t-204 83.5q-121 0 -204.5 -83.5t-83.5 -209.5q0 -127 83.5 -211t204.5 -84z
M226 351q0 92 51.5 146t136.5 54q117 0 159 -106l-73 -25q-23 67 -87 67q-50 0 -78.5 -37t-28.5 -98t28.5 -98t77.5 -37q65 0 88 66l72 -26q-44 -105 -159 -105q-85 0 -136 54t-51 145z" />
    <glyph glyph-name="ordfeminine" unicode="&#xaa;" horiz-adv-x="416" 
d="M283 325q-8 12 -8 47q-40 -58 -113 -58q-56 0 -92 28t-36 79q0 66 67 96t172 30v23q0 31 -17 49t-50 18t-51.5 -17t-19.5 -42l-85 13q6 53 50 82t109 29q69 0 110 -34t41 -99v-194q0 -26 8 -50h-85zM183 378q36 0 63 22.5t27 59.5v30q-152 0 -152 -66q0 -22 17.5 -34
t44.5 -12z" />
    <glyph glyph-name="guillemotleft" unicode="&#xab;" horiz-adv-x="526" 
d="M425 32l-179 224l179 224l67 -50l-129 -174l129 -173zM209 32l-179 224l179 224l67 -50l-129 -174l129 -173z" />
    <glyph glyph-name="logicalnot" unicode="&#xac;" 
d="M52 278v93h496v-244h-97v151h-399z" />
    <glyph glyph-name="uni00AD" unicode="&#xad;" horiz-adv-x="379" 
d="M57 245v86h265v-86h-265z" />
    <glyph glyph-name="registered" unicode="&#xae;" horiz-adv-x="817" 
d="M409 -13q-154 0 -259.5 103.5t-105.5 260.5q0 156 105.5 259t259.5 103q153 0 258.5 -103t105.5 -259q0 -157 -105.5 -260.5t-258.5 -103.5zM409 56q120 0 204 84t84 211q0 126 -84 209.5t-204 83.5q-121 0 -204.5 -83.5t-83.5 -209.5q0 -127 83.5 -211t204.5 -84z
M563 429q0 -81 -74 -111l90 -155h-87l-81 147h-58v-147h-72v380h143q139 0 139 -114zM484 429q0 52 -69 52h-62v-107h66q65 0 65 55z" />
    <glyph glyph-name="macron" unicode="&#xaf;" 
d="M163 556v74h273v-74h-273z" />
    <glyph glyph-name="degree" unicode="&#xb0;" horiz-adv-x="413" 
d="M369 555q0 -68 -46.5 -113t-116.5 -45t-116 45t-46 113t46 113t116 45t116.5 -45t46.5 -113zM287 555q0 37 -22.5 61.5t-58.5 24.5t-58.5 -24.5t-22.5 -61.5t22.5 -61.5t58.5 -24.5t58.5 24.5t22.5 61.5z" />
    <glyph glyph-name="plusminus" unicode="&#xb1;" 
d="M52 354v92h202v190h91v-190h203v-92h-203v-197h-91v197h-202zM52 0v91h496v-91h-496z" />
    <glyph glyph-name="twosuperior" unicode="&#xb2;" horiz-adv-x="372" 
d="M47 324v65q90 67 124 96q67 55 67 102q0 23 -14 37t-38 14q-28 0 -44 -20t-19 -48l-83 14q11 57 48 91t100 34q65 0 101 -35t36 -85q0 -72 -85 -140q-35 -29 -78 -55h166v-70h-281z" />
    <glyph glyph-name="threesuperior" unicode="&#xb3;" horiz-adv-x="366" 
d="M123 591l-80 19q29 99 136 99q61 0 98.5 -31t37.5 -80q0 -62 -57 -81q28 -5 47.5 -29t19.5 -56q0 -49 -39 -82.5t-106 -33.5q-68 0 -104.5 31.5t-39.5 72.5q67 17 81 22q6 -56 62 -56q29 0 43 14t14 34q0 23 -17.5 36t-47.5 13l-18 -1v68q7 -1 16 -1q58 0 58 46
q0 21 -14 32.5t-35 11.5q-23 0 -38 -13.5t-17 -34.5z" />
    <glyph glyph-name="acute" unicode="&#xb4;" 
d="M367 723l50 -82l-202 -109l-37 60z" />
    <glyph glyph-name="mu" unicode="&#xb5;" horiz-adv-x="565" 
d="M493 474v-474h-109v71q-48 -84 -143 -84q-28 0 -55 12v-198h-114v673h114v-300q0 -48 23.5 -71t61.5 -23q45 0 76.5 38t31.5 105v251h114z" />
    <glyph glyph-name="mu" unicode="&#x3bc;" horiz-adv-x="565" 
d="M493 474v-474h-109v71q-48 -84 -143 -84q-28 0 -55 12v-198h-114v673h114v-300q0 -48 23.5 -71t61.5 -23q45 0 76.5 38t31.5 105v251h114z" />
    <glyph glyph-name="paragraph" unicode="&#xb6;" horiz-adv-x="625" 
d="M241 -138v433q-84 4 -142.5 62t-58.5 142q0 85 61.5 143t148.5 58h356v-74h-71v-764h-87v764h-120v-764h-87z" />
    <glyph glyph-name="periodcentered" unicode="&#xb7;" horiz-adv-x="277" 
d="M65 287q0 32 20.5 52t52.5 20q33 0 53.5 -20t20.5 -52q0 -30 -20.5 -50t-53.5 -20q-32 0 -52.5 20t-20.5 50z" />
    <glyph glyph-name="cedilla" unicode="&#xb8;" 
d="M201 -199l33 45q20 -20 53 -20q19 0 30 11t11 29q0 36 -39 36q-25 0 -39 -14l-30 32l35 80h55l-23 -53q12 6 29 6q35 0 58.5 -22.5t23.5 -62.5q0 -45 -31.5 -71.5t-79.5 -26.5q-55 0 -86 31z" />
    <glyph glyph-name="onesuperior" unicode="&#xb9;" horiz-adv-x="269" 
d="M125 700h77v-376h-88v286q-30 -22 -78 -24l-17 68q74 8 106 46z" />
    <glyph glyph-name="ordmasculine" unicode="&#xba;" horiz-adv-x="444" 
d="M222 702q84 0 135 -52.5t51 -141.5t-51 -142t-135 -53q-83 0 -134.5 53t-51.5 142t51.5 141.5t134.5 52.5zM222 381q47 0 71.5 35.5t24.5 91.5t-24.5 91t-71.5 35t-71 -35t-24 -91t24 -91.5t71 -35.5z" />
    <glyph glyph-name="guillemotright" unicode="&#xbb;" horiz-adv-x="526" 
d="M317 480l180 -224l-180 -224l-67 51l129 173l-129 174zM101 480l179 -224l-179 -224l-67 51l129 173l-129 174z" />
    <glyph glyph-name="onequarter" unicode="&#xbc;" horiz-adv-x="780" 
d="M431 75v61l154 238h108v-233h62l-10 -66h-52v-75h-82v75h-180zM507 141h105v161h-2zM125 700h77v-376h-88v286q-30 -22 -78 -24l-17 68q74 8 106 46zM194 -13h-94l437 726h96z" />
    <glyph glyph-name="onehalf" unicode="&#xbd;" horiz-adv-x="802" 
d="M477 0v65q90 67 124 96q67 55 67 102q0 23 -14 37t-38 14q-28 0 -44 -20t-19 -48l-83 14q11 57 48 91t100 34q65 0 101 -35t36 -85q0 -72 -85 -140q-35 -29 -78 -55h166v-70h-281zM125 700h77v-376h-88v286q-30 -22 -78 -24l-17 68q74 8 106 46zM194 -13h-94l437 726h96z
" />
    <glyph glyph-name="threequarters" unicode="&#xbe;" horiz-adv-x="854" 
d="M505 75v61l154 238h108v-233h62l-10 -66h-52v-75h-82v75h-180zM581 141h105v161h-2zM123 591l-80 19q29 99 136 99q61 0 98.5 -31t37.5 -80q0 -62 -57 -81q28 -5 47.5 -29t19.5 -56q0 -49 -39 -82.5t-106 -33.5q-68 0 -104.5 31.5t-39.5 72.5q67 17 81 22q6 -56 62 -56
q29 0 43 14t14 34q0 23 -17.5 36t-47.5 13l-18 -1v68q7 -1 16 -1q58 0 58 46q0 21 -14 32.5t-35 11.5q-23 0 -38 -13.5t-17 -34.5zM268 -13h-94l437 726h96z" />
    <glyph glyph-name="questiondown" unicode="&#xbf;" horiz-adv-x="520" 
d="M206 295h114v-35q0 -85 -102 -166q-23 -18 -34 -29t-23 -33.5t-12 -48.5q0 -45 30 -75t79 -30q58 0 89.5 42.5t38.5 103.5l114 -19q-17 -99 -77 -158.5t-165 -59.5q-108 0 -166.5 60t-58.5 140q0 50 21.5 85t58.5 69q5 4 22.5 20.5t23 22t18 19t16.5 21.5t8.5 20t4.5 23
v28zM332 438q0 -31 -19.5 -50t-50.5 -19q-32 0 -51.5 19t-19.5 50q0 30 20 50t51 20t50.5 -20t19.5 -50z" />
    <glyph glyph-name="Agrave" unicode="&#xc0;" horiz-adv-x="661" 
d="M391 700l253 -700h-123l-62 176h-264l-62 -176h-116l254 700h120zM327 562h-2l-98 -293h200q-84 242 -100 293zM405 748l-202 109l50 82l189 -131z" />
    <glyph glyph-name="Aacute" unicode="&#xc1;" horiz-adv-x="661" 
d="M391 700l253 -700h-123l-62 176h-264l-62 -176h-116l254 700h120zM327 562h-2l-98 -293h200q-84 242 -100 293zM406 939l50 -82l-202 -109l-37 60z" />
    <glyph glyph-name="Acircumflex" unicode="&#xc2;" horiz-adv-x="661" 
d="M391 700l253 -700h-123l-62 176h-264l-62 -176h-116l254 700h120zM327 562h-2l-98 -293h200q-84 242 -100 293zM173 797l113 115h85l115 -115l-54 -52l-104 101l-101 -101z" />
    <glyph glyph-name="Atilde" unicode="&#xc3;" horiz-adv-x="661" 
d="M391 700l253 -700h-123l-62 176h-264l-62 -176h-116l254 700h120zM327 562h-2l-98 -293h200q-84 242 -100 293zM257 892q39 0 81 -26.5t61 -26.5t33.5 12.5t19.5 24.5l6 12l56 -49q-1 -3 -4 -8t-13.5 -18t-23 -22.5t-33.5 -17.5t-45 -8q-38 0 -79.5 26t-61.5 26
q-19 0 -34 -11.5t-20 -23.5l-5 -12l-56 49q1 3 4 8t13 17.5t22.5 22t33.5 17.5t45 8z" />
    <glyph glyph-name="Adieresis" unicode="&#xc4;" horiz-adv-x="661" 
d="M391 700l253 -700h-123l-62 176h-264l-62 -176h-116l254 700h120zM327 562h-2l-98 -293h200q-84 242 -100 293zM367 830q0 27 18.5 45t46.5 18t46.5 -18t18.5 -45t-18.5 -45t-46.5 -18t-46.5 18t-18.5 45zM163 830q0 27 18.5 45t46.5 18t46.5 -18t18.5 -45t-18.5 -45
t-46.5 -18t-46.5 18t-18.5 45z" />
    <glyph glyph-name="Aring" unicode="&#xc5;" horiz-adv-x="661" 
d="M391 700l253 -700h-123l-62 176h-264l-62 -176h-116l254 700h120zM327 562h-2l-98 -293h200q-84 242 -100 293zM224 848q0 44 29.5 71.5t76.5 27.5t76.5 -27.5t29.5 -71.5q0 -43 -29.5 -72t-76.5 -29t-76.5 29t-29.5 72zM284 848q0 -19 13 -32.5t33 -13.5t33 13.5
t13 32.5t-13 32t-33 13t-33 -13t-13 -32z" />
    <glyph glyph-name="AE" unicode="&#xc6;" horiz-adv-x="953" 
d="M908 0h-446v177h-227l-96 -177h-124l390 700h497v-97h-324v-194h302v-97h-302v-215h330v-97zM458 589l-172 -320h176v320h-4z" />
    <glyph glyph-name="Ccedilla" unicode="&#xc7;" horiz-adv-x="688" 
d="M276 -199l33 45q20 -20 53 -20q19 0 30 11t11 29q0 36 -39 36q-25 0 -39 -14l-30 32l30 70q-130 16 -203.5 111.5t-73.5 248.5q0 167 88 265t240 98q210 0 281 -189l-113 -40q-45 131 -171 131q-96 0 -149.5 -72t-53.5 -193q0 -120 53 -192.5t150 -72.5q124 0 170 128
l112 -41q-76 -182 -276 -185l-17 -40q12 6 29 6q35 0 58.5 -22.5t23.5 -62.5q0 -45 -31.5 -71.5t-79.5 -26.5q-55 0 -86 31z" />
    <glyph glyph-name="Egrave" unicode="&#xc8;" horiz-adv-x="575" 
d="M380 748l-202 109l50 82l189 -131zM530 0h-449v700h443v-97h-326v-194h304v-97h-304v-215h332v-97z" />
    <glyph glyph-name="Eacute" unicode="&#xc9;" horiz-adv-x="575" 
d="M386 939l50 -82l-202 -109l-37 60zM530 0h-449v700h443v-97h-326v-194h304v-97h-304v-215h332v-97z" />
    <glyph glyph-name="Ecircumflex" unicode="&#xca;" horiz-adv-x="575" 
d="M530 0h-449v700h443v-97h-326v-194h304v-97h-304v-215h332v-97zM148 797l113 115h85l115 -115l-54 -52l-104 101l-101 -101z" />
    <glyph glyph-name="Edieresis" unicode="&#xcb;" horiz-adv-x="575" 
d="M343 830q0 27 18.5 45t46.5 18t46.5 -18t18.5 -45t-18.5 -45t-46.5 -18t-46.5 18t-18.5 45zM139 830q0 27 18.5 45t46.5 18t46.5 -18t18.5 -45t-18.5 -45t-46.5 -18t-46.5 18t-18.5 45zM530 0h-449v700h443v-97h-326v-194h304v-97h-304v-215h332v-97z" />
    <glyph glyph-name="Igrave" unicode="&#xcc;" horiz-adv-x="281" 
d="M81 0v700h118v-700h-118zM227 748l-202 109l50 82l189 -131z" />
    <glyph glyph-name="Iacute" unicode="&#xcd;" horiz-adv-x="281" 
d="M81 0v700h118v-700h-118zM205 939l50 -82l-202 -109l-37 60z" />
    <glyph glyph-name="Icircumflex" unicode="&#xce;" horiz-adv-x="281" 
d="M81 0v700h118v-700h-118zM-16 797l113 115h85l115 -115l-54 -52l-104 101l-101 -101z" />
    <glyph glyph-name="Idieresis" unicode="&#xcf;" horiz-adv-x="281" 
d="M81 0v700h118v-700h-118zM177 830q0 27 18.5 45t46.5 18t46.5 -18t18.5 -45t-18.5 -45t-46.5 -18t-46.5 18t-18.5 45zM-27 830q0 27 18.5 45t46.5 18t46.5 -18t18.5 -45t-18.5 -45t-46.5 -18t-46.5 18t-18.5 45z" />
    <glyph glyph-name="Eth" unicode="&#xd0;" horiz-adv-x="726" 
d="M100 0v321h-81v85h81v294h248q154 0 242 -92.5t88 -257.5t-88 -257.5t-242 -92.5h-248zM556 350q0 119 -53.5 186t-163.5 67h-120v-197h165v-85h-165v-224h120q110 0 163.5 67t53.5 186z" />
    <glyph glyph-name="Ntilde" unicode="&#xd1;" horiz-adv-x="726" 
d="M289 892q39 0 81 -26.5t61 -26.5t33.5 12.5t19.5 24.5l6 12l56 -49q-1 -3 -4 -8t-13.5 -18t-23 -22.5t-33.5 -17.5t-45 -8q-38 0 -79.5 26t-61.5 26q-19 0 -34 -11.5t-20 -23.5l-5 -12l-56 49q1 3 4 8t13 17.5t22.5 22t33.5 17.5t45 8zM81 0v700h124l326 -515h3v515h111
v-700h-124l-326 515h-3v-515h-111z" />
    <glyph glyph-name="Ograve" unicode="&#xd2;" horiz-adv-x="749" 
d="M459 748l-202 109l50 82l189 -131zM48 350q0 167 89.5 265t236.5 98q148 0 237.5 -98t89.5 -265t-89.5 -265t-237.5 -98q-147 0 -236.5 98t-89.5 265zM170 350q0 -120 52.5 -193t151.5 -73q100 0 152.5 73t52.5 193t-52.5 193t-152.5 73q-99 0 -151.5 -73t-52.5 -193z
" />
    <glyph glyph-name="Oacute" unicode="&#xd3;" horiz-adv-x="749" 
d="M442 939l50 -82l-202 -109l-37 60zM48 350q0 167 89.5 265t236.5 98q148 0 237.5 -98t89.5 -265t-89.5 -265t-237.5 -98q-147 0 -236.5 98t-89.5 265zM170 350q0 -120 52.5 -193t151.5 -73q100 0 152.5 73t52.5 193t-52.5 193t-152.5 73q-99 0 -151.5 -73t-52.5 -193z
" />
    <glyph glyph-name="Ocircumflex" unicode="&#xd4;" horiz-adv-x="749" 
d="M48 350q0 167 89.5 265t236.5 98q148 0 237.5 -98t89.5 -265t-89.5 -265t-237.5 -98q-147 0 -236.5 98t-89.5 265zM170 350q0 -120 52.5 -193t151.5 -73q100 0 152.5 73t52.5 193t-52.5 193t-152.5 73q-99 0 -151.5 -73t-52.5 -193zM219 797l113 115h85l115 -115l-54 -52
l-104 101l-101 -101z" />
    <glyph glyph-name="Otilde" unicode="&#xd5;" horiz-adv-x="749" 
d="M305 892q39 0 81 -26.5t61 -26.5t33.5 12.5t19.5 24.5l6 12l56 -49q-1 -3 -4 -8t-13.5 -18t-23 -22.5t-33.5 -17.5t-45 -8q-38 0 -79.5 26t-61.5 26q-19 0 -34 -11.5t-20 -23.5l-5 -12l-56 49q1 3 4 8t13 17.5t22.5 22t33.5 17.5t45 8zM48 350q0 167 89.5 265t236.5 98
q148 0 237.5 -98t89.5 -265t-89.5 -265t-237.5 -98q-147 0 -236.5 98t-89.5 265zM170 350q0 -120 52.5 -193t151.5 -73q100 0 152.5 73t52.5 193t-52.5 193t-152.5 73q-99 0 -151.5 -73t-52.5 -193z" />
    <glyph glyph-name="Odieresis" unicode="&#xd6;" horiz-adv-x="749" 
d="M412 830q0 27 18.5 45t46.5 18t46.5 -18t18.5 -45t-18.5 -45t-46.5 -18t-46.5 18t-18.5 45zM208 830q0 27 18.5 45t46.5 18t46.5 -18t18.5 -45t-18.5 -45t-46.5 -18t-46.5 18t-18.5 45zM48 350q0 167 89.5 265t236.5 98q148 0 237.5 -98t89.5 -265t-89.5 -265t-237.5 -98
q-147 0 -236.5 98t-89.5 265zM170 350q0 -120 52.5 -193t151.5 -73q100 0 152.5 73t52.5 193t-52.5 193t-152.5 73q-99 0 -151.5 -73t-52.5 -193z" />
    <glyph glyph-name="multiply" unicode="&#xd7;" 
d="M529 158l-64 -64l-166 165l-164 -165l-65 64l165 165l-165 166l64 65l165 -166l166 166l65 -65l-166 -166z" />
    <glyph glyph-name="Oslash" unicode="&#xd8;" horiz-adv-x="749" 
d="M48 350q0 167 89.5 265t236.5 98q88 0 161 -39l53 85l66 -39l-57 -91q104 -99 104 -279q0 -167 -89.5 -265t-237.5 -98q-89 0 -158 37l-55 -87l-66 39l58 92q-105 100 -105 282zM170 350q0 -113 45 -183l265 420q-47 29 -106 29q-99 0 -151.5 -73t-52.5 -193zM579 350
q0 110 -44 180l-264 -419q42 -27 103 -27q100 0 152.5 73t52.5 193z" />
    <glyph glyph-name="Ugrave" unicode="&#xd9;" horiz-adv-x="688" 
d="M417 748l-202 109l50 82l189 -131zM344 -13q-267 0 -267 266v447h118v-448q0 -74 36 -121t113 -47t113 47t36 121v448h118v-447q0 -266 -267 -266z" />
    <glyph glyph-name="Uacute" unicode="&#xda;" horiz-adv-x="688" 
d="M422 939l50 -82l-202 -109l-37 60zM344 -13q-267 0 -267 266v447h118v-448q0 -74 36 -121t113 -47t113 47t36 121v448h118v-447q0 -266 -267 -266z" />
    <glyph glyph-name="Ucircumflex" unicode="&#xdb;" horiz-adv-x="688" 
d="M344 -13q-267 0 -267 266v447h118v-448q0 -74 36 -121t113 -47t113 47t36 121v448h118v-447q0 -266 -267 -266zM188 797l113 115h85l115 -115l-54 -52l-104 101l-101 -101z" />
    <glyph glyph-name="Udieresis" unicode="&#xdc;" horiz-adv-x="688" 
d="M381 830q0 27 18.5 45t46.5 18t46.5 -18t18.5 -45t-18.5 -45t-46.5 -18t-46.5 18t-18.5 45zM177 830q0 27 18.5 45t46.5 18t46.5 -18t18.5 -45t-18.5 -45t-46.5 -18t-46.5 18t-18.5 45zM344 -13q-267 0 -267 266v447h118v-448q0 -74 36 -121t113 -47t113 47t36 121v448
h118v-447q0 -266 -267 -266z" />
    <glyph glyph-name="Yacute" unicode="&#xdd;" horiz-adv-x="658" 
d="M269 0v300l-259 400h136l186 -292l186 292h130l-260 -400v-300h-119zM424 939l50 -82l-202 -109l-37 60z" />
    <glyph glyph-name="Thorn" unicode="&#xde;" horiz-adv-x="622" 
d="M199 0h-118v700h118v-120h136q122 0 189.5 -52.5t67.5 -161.5t-69.5 -164.5t-187.5 -55.5h-136v-146zM472 366q0 64 -37 91t-118 27h-118v-241h118q79 0 117 29.5t38 93.5z" />
    <glyph glyph-name="germandbls" unicode="&#xdf;" horiz-adv-x="575" 
d="M72 0v484q0 100 51.5 164.5t163.5 64.5q102 0 158.5 -54t56.5 -134q0 -54 -27 -94.5t-73 -57.5q59 -14 96.5 -60.5t37.5 -116.5q0 -95 -60.5 -152t-153.5 -57q-44 0 -83 16v90q31 -17 75 -17q49 0 78 33t29 89q0 58 -36 93.5t-99 35.5l-26 -1v86q12 -1 25 -1
q50 0 77 31.5t27 79.5q0 49 -27.5 76t-73.5 27q-54 0 -78.5 -38.5t-24.5 -102.5v-484h-113z" />
    <glyph glyph-name="agrave" unicode="&#xe0;" horiz-adv-x="518" 
d="M356 0q-10 18 -10 61q-52 -74 -151 -74q-72 0 -115.5 36.5t-43.5 98.5q0 46 24.5 79t69 51.5t97.5 26.5t117 8v30q0 39 -22 62t-65 23t-66 -21t-24 -53l-110 16q7 67 64.5 105t139.5 38q88 0 141 -44.5t53 -127.5v-250q0 -32 11 -65h-110zM226 71q48 0 83 28.5t35 75.5
v39q-196 0 -196 -85q0 -28 21.5 -43t56.5 -15zM344 532l-202 109l50 82l189 -131z" />
    <glyph glyph-name="aacute" unicode="&#xe1;" horiz-adv-x="518" 
d="M356 0q-10 18 -10 61q-52 -74 -151 -74q-72 0 -115.5 36.5t-43.5 98.5q0 46 24.5 79t69 51.5t97.5 26.5t117 8v30q0 39 -22 62t-65 23t-66 -21t-24 -53l-110 16q7 67 64.5 105t139.5 38q88 0 141 -44.5t53 -127.5v-250q0 -32 11 -65h-110zM226 71q48 0 83 28.5t35 75.5
v39q-196 0 -196 -85q0 -28 21.5 -43t56.5 -15zM327 723l50 -82l-202 -109l-37 60z" />
    <glyph glyph-name="acircumflex" unicode="&#xe2;" horiz-adv-x="518" 
d="M356 0q-10 18 -10 61q-52 -74 -151 -74q-72 0 -115.5 36.5t-43.5 98.5q0 46 24.5 79t69 51.5t97.5 26.5t117 8v30q0 39 -22 62t-65 23t-66 -21t-24 -53l-110 16q7 67 64.5 105t139.5 38q88 0 141 -44.5t53 -127.5v-250q0 -32 11 -65h-110zM226 71q48 0 83 28.5t35 75.5
v39q-196 0 -196 -85q0 -28 21.5 -43t56.5 -15zM104 578l115 128h74l115 -128l-55 -50l-98 106l-98 -106z" />
    <glyph glyph-name="atilde" unicode="&#xe3;" horiz-adv-x="518" 
d="M356 0q-10 18 -10 61q-52 -74 -151 -74q-72 0 -115.5 36.5t-43.5 98.5q0 46 24.5 79t69 51.5t97.5 26.5t117 8v30q0 39 -22 62t-65 23t-66 -21t-24 -53l-110 16q7 67 64.5 105t139.5 38q88 0 141 -44.5t53 -127.5v-250q0 -32 11 -65h-110zM226 71q48 0 83 28.5t35 75.5
v39q-196 0 -196 -85q0 -28 21.5 -43t56.5 -15zM191 675q39 0 81 -26.5t61 -26.5t33.5 12t19.5 24l6 13l56 -49q-1 -3 -4 -8t-13.5 -18t-23 -22.5t-33.5 -17.5t-45 -8q-38 0 -79.5 26.5t-61.5 26.5q-19 0 -34 -12t-20 -24l-5 -12l-56 49q1 3 4 8t13 17.5t22.5 22t33.5 17.5
t45 8z" />
    <glyph glyph-name="adieresis" unicode="&#xe4;" horiz-adv-x="518" 
d="M356 0q-10 18 -10 61q-52 -74 -151 -74q-72 0 -115.5 36.5t-43.5 98.5q0 46 24.5 79t69 51.5t97.5 26.5t117 8v30q0 39 -22 62t-65 23t-66 -21t-24 -53l-110 16q7 67 64.5 105t139.5 38q88 0 141 -44.5t53 -127.5v-250q0 -32 11 -65h-110zM226 71q48 0 83 28.5t35 75.5
v39q-196 0 -196 -85q0 -28 21.5 -43t56.5 -15zM294 607q0 28 18 45.5t47 17.5t47 -17.5t18 -45.5q0 -27 -18.5 -45t-46.5 -18t-46.5 18t-18.5 45zM90 607q0 28 18 45.5t47 17.5t47 -17.5t18 -45.5q0 -27 -18.5 -45t-46.5 -18t-46.5 18t-18.5 45z" />
    <glyph glyph-name="aring" unicode="&#xe5;" horiz-adv-x="518" 
d="M356 0q-10 18 -10 61q-52 -74 -151 -74q-72 0 -115.5 36.5t-43.5 98.5q0 46 24.5 79t69 51.5t97.5 26.5t117 8v30q0 39 -22 62t-65 23t-66 -21t-24 -53l-110 16q7 67 64.5 105t139.5 38q88 0 141 -44.5t53 -127.5v-250q0 -32 11 -65h-110zM226 71q48 0 83 28.5t35 75.5
v39q-196 0 -196 -85q0 -28 21.5 -43t56.5 -15zM154 629q0 44 29.5 72t76.5 28t76.5 -28t29.5 -72q0 -43 -29.5 -71.5t-76.5 -28.5t-76.5 28.5t-29.5 71.5zM214 629q0 -19 13 -32.5t33 -13.5t33 13.5t13 32.5q0 20 -13 32.5t-33 12.5t-33 -12.5t-13 -32.5z" />
    <glyph glyph-name="ae" unicode="&#xe6;" horiz-adv-x="820" 
d="M673 143l98 -39q-61 -117 -201 -117q-119 0 -179 87q-65 -87 -184 -87q-80 0 -125.5 36.5t-45.5 99.5q0 59 44.5 97t110.5 52.5t153 14.5v30q0 39 -22 62t-65 23t-66 -21t-24 -53l-110 16q7 67 64.5 105t138.5 38q104 0 151 -64q62 64 155 64q107 0 164.5 -70t57.5 -174
v-30h-339q3 -61 32 -101t88 -40q71 0 104 71zM565 404q-50 0 -79.5 -32.5t-34.5 -85.5h223q-2 55 -32 86.5t-77 31.5zM226 71q48 0 83 28t35 75v39q-196 0 -196 -84q0 -28 21.5 -43t56.5 -15z" />
    <glyph glyph-name="ccedilla" unicode="&#xe7;" horiz-adv-x="503" 
d="M166 -199l33 45q20 -20 53 -20q19 0 30 11t11 29q0 36 -39 36q-25 0 -39 -14l-30 32l32 73q-83 17 -130.5 82t-47.5 162q0 113 63.5 181.5t172.5 68.5q142 0 197 -131l-103 -39q-21 81 -99 81q-56 0 -85 -46.5t-29 -114.5t28.5 -114t86.5 -46q68 0 98 76l105 -40
q-68 -126 -201 -126h-4l-17 -40q12 6 29 6q35 0 58.5 -22.5t23.5 -62.5q0 -45 -31.5 -71.5t-79.5 -26.5q-55 0 -86 31z" />
    <glyph glyph-name="egrave" unicode="&#xe8;" horiz-adv-x="525" 
d="M378 143l98 -39q-61 -117 -202 -117q-108 0 -171.5 68.5t-63.5 182.5q0 112 63.5 180.5t167.5 68.5q108 0 165.5 -70t57.5 -174v-32h-338q3 -60 31 -99.5t87 -39.5q72 0 105 71zM269 404q-49 0 -78 -32.5t-34 -85.5h222q-2 55 -32 86.5t-78 31.5zM345 532l-202 109l50 82
l189 -131z" />
    <glyph glyph-name="eacute" unicode="&#xe9;" horiz-adv-x="525" 
d="M336 723l50 -82l-202 -109l-37 60zM378 143l98 -39q-61 -117 -202 -117q-108 0 -171.5 68.5t-63.5 182.5q0 112 63.5 180.5t167.5 68.5q108 0 165.5 -70t57.5 -174v-32h-338q3 -60 31 -99.5t87 -39.5q72 0 105 71zM269 404q-49 0 -78 -32.5t-34 -85.5h222q-2 55 -32 86.5
t-78 31.5z" />
    <glyph glyph-name="ecircumflex" unicode="&#xea;" horiz-adv-x="525" 
d="M115 578l115 128h74l115 -128l-55 -50l-98 106l-98 -106zM378 143l98 -39q-61 -117 -202 -117q-108 0 -171.5 68.5t-63.5 182.5q0 112 63.5 180.5t167.5 68.5q108 0 165.5 -70t57.5 -174v-32h-338q3 -60 31 -99.5t87 -39.5q72 0 105 71zM269 404q-49 0 -78 -32.5
t-34 -85.5h222q-2 55 -32 86.5t-78 31.5z" />
    <glyph glyph-name="edieresis" unicode="&#xeb;" horiz-adv-x="525" 
d="M304 607q0 28 18 45.5t47 17.5t47 -17.5t18 -45.5q0 -27 -18.5 -45t-46.5 -18t-46.5 18t-18.5 45zM100 607q0 28 18 45.5t47 17.5t47 -17.5t18 -45.5q0 -27 -18.5 -45t-46.5 -18t-46.5 18t-18.5 45zM378 143l98 -39q-61 -117 -202 -117q-108 0 -171.5 68.5t-63.5 182.5
q0 112 63.5 180.5t167.5 68.5q108 0 165.5 -70t57.5 -174v-32h-338q3 -60 31 -99.5t87 -39.5q72 0 105 71zM269 404q-49 0 -78 -32.5t-34 -85.5h222q-2 55 -32 86.5t-78 31.5z" />
    <glyph glyph-name="igrave" unicode="&#xec;" horiz-adv-x="258" 
d="M72 0v474h114v-474h-114zM213 532l-202 109l50 82l189 -131z" />
    <glyph glyph-name="iacute" unicode="&#xed;" horiz-adv-x="258" 
d="M197 723l50 -82l-202 -109l-37 60zM72 0v474h114v-474h-114z" />
    <glyph glyph-name="icircumflex" unicode="&#xee;" horiz-adv-x="258" 
d="M-24 578l115 128h74l115 -128l-55 -50l-98 106l-98 -106zM72 0v474h114v-474h-114z" />
    <glyph glyph-name="idieresis" unicode="&#xef;" horiz-adv-x="258" 
d="M166 607q0 28 18 45.5t47 17.5t47 -17.5t18 -45.5q0 -27 -18.5 -45t-46.5 -18t-46.5 18t-18.5 45zM-38 607q0 28 18 45.5t47 17.5t47 -17.5t18 -45.5q0 -27 -18.5 -45t-46.5 -18t-46.5 18t-18.5 45zM72 0v474h114v-474h-114z" />
    <glyph glyph-name="eth" unicode="&#xf0;" horiz-adv-x="554" 
d="M200 523l-35 62l73 40q-45 34 -102 52l59 61q69 -19 128 -65l79 44l34 -61l-59 -33q64 -70 101 -165t37 -201q0 -129 -61.5 -199.5t-174.5 -70.5q-111 0 -175.5 66.5t-64.5 182.5q0 111 61.5 178.5t155.5 67.5q83 0 125 -53q-32 86 -88 146zM156 235q0 -71 31 -116
t89 -45q60 0 92 45t32 116q0 74 -32 117t-92 43q-58 0 -89 -45t-31 -115z" />
    <glyph glyph-name="ntilde" unicode="&#xf1;" horiz-adv-x="565" 
d="M72 0v474h109v-72q49 85 149 85q73 0 120.5 -41.5t47.5 -118.5v-327h-114v300q0 48 -25.5 71t-62.5 23q-46 0 -78 -38t-32 -105v-251h-114zM222 675q39 0 81 -26.5t61 -26.5t33.5 12t20.5 24l5 13l56 -49q-1 -3 -4 -8t-13.5 -18t-23 -22.5t-33.5 -17.5t-45 -8
q-38 0 -79.5 26.5t-61.5 26.5q-19 0 -34 -12t-20 -24l-5 -12l-56 49q1 3 4 8t13 17.5t22.5 22t33.5 17.5t45 8z" />
    <glyph glyph-name="ograve" unicode="&#xf2;" horiz-adv-x="553" 
d="M276 487q109 0 173.5 -68.5t64.5 -181.5t-64.5 -181.5t-173.5 -68.5t-173 68.5t-64 181.5t64 181.5t173 68.5zM276 74q60 0 91 45.5t31 117.5t-31 117.5t-91 45.5q-59 0 -90 -46t-31 -117t31 -117t90 -46zM362 532l-202 109l50 82l189 -131z" />
    <glyph glyph-name="oacute" unicode="&#xf3;" horiz-adv-x="553" 
d="M347 723l50 -82l-202 -109l-37 60zM276 487q109 0 173.5 -68.5t64.5 -181.5t-64.5 -181.5t-173.5 -68.5t-173 68.5t-64 181.5t64 181.5t173 68.5zM276 74q60 0 91 45.5t31 117.5t-31 117.5t-91 45.5q-59 0 -90 -46t-31 -117t31 -117t90 -46z" />
    <glyph glyph-name="ocircumflex" unicode="&#xf4;" horiz-adv-x="553" 
d="M125 578l115 128h74l115 -128l-55 -50l-98 106l-98 -106zM276 487q109 0 173.5 -68.5t64.5 -181.5t-64.5 -181.5t-173.5 -68.5t-173 68.5t-64 181.5t64 181.5t173 68.5zM276 74q60 0 91 45.5t31 117.5t-31 117.5t-91 45.5q-59 0 -90 -46t-31 -117t31 -117t90 -46z" />
    <glyph glyph-name="otilde" unicode="&#xf5;" horiz-adv-x="553" 
d="M276 487q109 0 173.5 -68.5t64.5 -181.5t-64.5 -181.5t-173.5 -68.5t-173 68.5t-64 181.5t64 181.5t173 68.5zM276 74q60 0 91 45.5t31 117.5t-31 117.5t-91 45.5q-59 0 -90 -46t-31 -117t31 -117t90 -46zM207 675q39 0 81 -26.5t61 -26.5t33.5 12t19.5 24l6 13l56 -49
q-1 -3 -4 -8t-13.5 -18t-23 -22.5t-33.5 -17.5t-45 -8q-38 0 -79.5 26.5t-61.5 26.5q-19 0 -34 -12t-20 -24l-5 -12l-56 49q1 3 4 8t13 17.5t22.5 22t33.5 17.5t45 8z" />
    <glyph glyph-name="odieresis" unicode="&#xf6;" horiz-adv-x="553" 
d="M313 607q0 28 18 45.5t47 17.5t47 -17.5t18 -45.5q0 -27 -18.5 -45t-46.5 -18t-46.5 18t-18.5 45zM109 607q0 28 18 45.5t47 17.5t47 -17.5t18 -45.5q0 -27 -18.5 -45t-46.5 -18t-46.5 18t-18.5 45zM276 487q109 0 173.5 -68.5t64.5 -181.5t-64.5 -181.5t-173.5 -68.5
t-173 68.5t-64 181.5t64 181.5t173 68.5zM276 74q60 0 91 45.5t31 117.5t-31 117.5t-91 45.5q-59 0 -90 -46t-31 -117t31 -117t90 -46z" />
    <glyph glyph-name="divide" unicode="&#xf7;" 
d="M228 517q0 31 20 50.5t52 19.5t52 -19.5t20 -50.5t-20 -50.5t-52 -19.5t-52 19.5t-20 50.5zM52 279v91h496v-91h-496zM228 131q0 31 20 50.5t52 19.5t52 -19.5t20 -50.5t-20 -50.5t-52 -19.5t-52 19.5t-20 50.5z" />
    <glyph glyph-name="oslash" unicode="&#xf8;" horiz-adv-x="553" 
d="M276 487q61 0 110 -23l45 71l58 -35l-47 -74q72 -69 72 -189q0 -113 -64.5 -181.5t-173.5 -68.5q-56 0 -102 20l-48 -75l-58 34l49 76q-78 69 -78 195q0 113 64 181.5t173 68.5zM155 237q0 -59 21 -101l159 248q-27 16 -59 16q-59 0 -90 -46t-31 -117zM276 74
q60 0 91 45.5t31 117.5q0 53 -18 93l-156 -244q22 -12 52 -12z" />
    <glyph glyph-name="ugrave" unicode="&#xf9;" horiz-adv-x="560" 
d="M488 474v-474h-108v71q-50 -84 -147 -84q-71 0 -118 41.5t-47 117.5v328h113v-300q0 -48 24.5 -71t61.5 -23q44 0 76 38t32 105v251h113zM350 532l-202 109l50 82l189 -131z" />
    <glyph glyph-name="uacute" unicode="&#xfa;" horiz-adv-x="560" 
d="M350 723l50 -82l-202 -109l-37 60zM488 474v-474h-108v71q-50 -84 -147 -84q-71 0 -118 41.5t-47 117.5v328h113v-300q0 -48 24.5 -71t61.5 -23q44 0 76 38t32 105v251h113z" />
    <glyph glyph-name="ucircumflex" unicode="&#xfb;" horiz-adv-x="560" 
d="M125 578l115 128h74l115 -128l-55 -50l-98 106l-98 -106zM488 474v-474h-108v71q-50 -84 -147 -84q-71 0 -118 41.5t-47 117.5v328h113v-300q0 -48 24.5 -71t61.5 -23q44 0 76 38t32 105v251h113z" />
    <glyph glyph-name="udieresis" unicode="&#xfc;" horiz-adv-x="560" 
d="M314 607q0 28 18 45.5t47 17.5t47 -17.5t18 -45.5q0 -27 -18.5 -45t-46.5 -18t-46.5 18t-18.5 45zM110 607q0 28 18 45.5t47 17.5t47 -17.5t18 -45.5q0 -27 -18.5 -45t-46.5 -18t-46.5 18t-18.5 45zM488 474v-474h-108v71q-50 -84 -147 -84q-71 0 -118 41.5t-47 117.5
v328h113v-300q0 -48 24.5 -71t61.5 -23q44 0 76 38t32 105v251h113z" />
    <glyph glyph-name="yacute" unicode="&#xfd;" horiz-adv-x="498" 
d="M231 -200h-111l78 199l-186 475h116q106 -289 125 -346h2l123 346h108zM338 723l50 -82l-202 -109l-37 60z" />
    <glyph glyph-name="thorn" unicode="&#xfe;" horiz-adv-x="588" 
d="M549 237q0 -113 -60.5 -181.5t-153.5 -68.5q-96 0 -149 72v-259h-114v900h114v-287q52 74 149 74q93 0 153.5 -68.5t60.5 -181.5zM433 237q0 70 -33.5 115t-88.5 45q-49 0 -87.5 -34.5t-38.5 -102.5v-46q0 -68 38.5 -102.5t87.5 -34.5q55 0 88.5 45t33.5 115z" />
    <glyph glyph-name="ydieresis" unicode="&#xff;" horiz-adv-x="498" 
d="M231 -200h-111l78 199l-186 475h116q106 -289 125 -346h2l123 346h108zM289 607q0 28 18 45.5t47 17.5t47 -17.5t18 -45.5q0 -27 -18.5 -45t-46.5 -18t-46.5 18t-18.5 45zM85 607q0 28 18 45.5t47 17.5t47 -17.5t18 -45.5q0 -27 -18.5 -45t-46.5 -18t-46.5 18t-18.5 45z
" />
    <glyph glyph-name="Amacron" unicode="&#x100;" horiz-adv-x="661" 
d="M391 700l253 -700h-123l-62 176h-264l-62 -176h-116l254 700h120zM327 562h-2l-98 -293h200q-84 242 -100 293zM194 775v75h273v-75h-273z" />
    <glyph glyph-name="amacron" unicode="&#x101;" horiz-adv-x="518" 
d="M356 0q-10 18 -10 61q-52 -74 -151 -74q-72 0 -115.5 36.5t-43.5 98.5q0 46 24.5 79t69 51.5t97.5 26.5t117 8v30q0 39 -22 62t-65 23t-66 -21t-24 -53l-110 16q7 67 64.5 105t139.5 38q88 0 141 -44.5t53 -127.5v-250q0 -32 11 -65h-110zM226 71q48 0 83 28.5t35 75.5
v39q-196 0 -196 -85q0 -28 21.5 -43t56.5 -15zM122 556v74h273v-74h-273z" />
    <glyph glyph-name="Abreve" unicode="&#x102;" horiz-adv-x="661" 
d="M391 700l253 -700h-123l-62 176h-264l-62 -176h-116l254 700h120zM327 562h-2l-98 -293h200q-84 242 -100 293zM168 877l83 24q5 -30 26.5 -50t52.5 -20t52.5 20t26.5 50l83 -24q-12 -54 -56 -86.5t-106 -32.5t-106 32.5t-56 86.5z" />
    <glyph glyph-name="abreve" unicode="&#x103;" horiz-adv-x="518" 
d="M356 0q-10 18 -10 61q-52 -74 -151 -74q-72 0 -115.5 36.5t-43.5 98.5q0 46 24.5 79t69 51.5t97.5 26.5t117 8v30q0 39 -22 62t-65 23t-66 -21t-24 -53l-110 16q7 67 64.5 105t139.5 38q88 0 141 -44.5t53 -127.5v-250q0 -32 11 -65h-110zM226 71q48 0 83 28.5t35 75.5
v39q-196 0 -196 -85q0 -28 21.5 -43t56.5 -15zM94 664l83 24q5 -29 26.5 -49.5t52.5 -20.5t52.5 20.5t26.5 49.5l83 -24q-12 -53 -56 -86t-106 -33t-106 33t-56 86z" />
    <glyph glyph-name="Aogonek" unicode="&#x104;" horiz-adv-x="661" 
d="M391 700l253 -700q-107 -44 -107 -99q0 -36 44 -36q32 0 58 39l46 -42q-48 -64 -119 -64q-47 0 -79 23t-32 70q0 60 66 109l-62 176h-264l-62 -176h-116l254 700h120zM327 562h-2l-98 -293h200q-84 242 -100 293z" />
    <glyph glyph-name="aogonek" unicode="&#x105;" horiz-adv-x="518" 
d="M466 0q-101 -53 -101 -99q0 -36 43 -36q33 0 59 39l46 -42q-50 -64 -119 -64q-47 0 -79 23t-32 70q0 59 73 109q-10 18 -10 61q-52 -74 -151 -74q-72 0 -115.5 36.5t-43.5 98.5q0 46 24.5 79t69 51.5t97.5 26.5t117 8v30q0 39 -22 62t-65 23t-66 -21t-24 -53l-110 16
q7 67 64.5 105t139.5 38q88 0 141 -44.5t53 -127.5v-250q0 -32 11 -65zM226 71q48 0 83 28.5t35 75.5v39q-196 0 -196 -85q0 -28 21.5 -43t56.5 -15z" />
    <glyph glyph-name="Cacute" unicode="&#x106;" horiz-adv-x="688" 
d="M48 350q0 167 88 265t240 98q210 0 281 -189l-113 -40q-45 131 -171 131q-96 0 -149.5 -72t-53.5 -193q0 -120 53 -192.5t150 -72.5q124 0 170 128l112 -41q-76 -185 -281 -185q-151 0 -238.5 98t-87.5 265zM439 939l50 -82l-202 -109l-37 60z" />
    <glyph glyph-name="cacute" unicode="&#x107;" horiz-adv-x="503" 
d="M335 723l50 -82l-202 -109l-37 60zM39 237q0 113 63.5 181.5t172.5 68.5q142 0 197 -131l-103 -39q-21 81 -99 81q-56 0 -85 -46.5t-29 -114.5t28.5 -114t86.5 -46q68 0 98 76l105 -40q-68 -126 -201 -126q-107 0 -170.5 68t-63.5 182z" />
    <glyph glyph-name="Ccircumflex" unicode="&#x108;" horiz-adv-x="688" 
d="M48 350q0 167 88 265t240 98q210 0 281 -189l-113 -40q-45 131 -171 131q-96 0 -149.5 -72t-53.5 -193q0 -120 53 -192.5t150 -72.5q124 0 170 128l112 -41q-76 -185 -281 -185q-151 0 -238.5 98t-87.5 265zM222 797l113 115h85l115 -115l-54 -52l-104 101l-101 -101z
" />
    <glyph glyph-name="ccircumflex" unicode="&#x109;" horiz-adv-x="503" 
d="M116 578l115 128h74l115 -128l-55 -50l-98 106l-98 -106zM39 237q0 113 63.5 181.5t172.5 68.5q142 0 197 -131l-103 -39q-21 81 -99 81q-56 0 -85 -46.5t-29 -114.5t28.5 -114t86.5 -46q68 0 98 76l105 -40q-68 -126 -201 -126q-107 0 -170.5 68t-63.5 182z" />
    <glyph glyph-name="Cdotaccent" unicode="&#x10a;" horiz-adv-x="688" 
d="M309 832q0 31 20 50.5t51 19.5t51 -19.5t20 -50.5q0 -30 -20 -49t-51 -19t-51 19t-20 49zM48 350q0 167 88 265t240 98q210 0 281 -189l-113 -40q-45 131 -171 131q-96 0 -149.5 -72t-53.5 -193q0 -120 53 -192.5t150 -72.5q124 0 170 128l112 -41q-76 -185 -281 -185
q-151 0 -238.5 98t-87.5 265z" />
    <glyph glyph-name="cdotaccent" unicode="&#x10b;" horiz-adv-x="503" 
d="M39 237q0 113 63.5 181.5t172.5 68.5q142 0 197 -131l-103 -39q-21 81 -99 81q-56 0 -85 -46.5t-29 -114.5t28.5 -114t86.5 -46q68 0 98 76l105 -40q-68 -126 -201 -126q-107 0 -170.5 68t-63.5 182zM201 612q0 31 19.5 50.5t50.5 19.5t50.5 -19.5t19.5 -50.5
q0 -29 -19.5 -48.5t-50.5 -19.5t-50.5 19.5t-19.5 48.5z" />
    <glyph glyph-name="Ccaron" unicode="&#x10c;" horiz-adv-x="688" 
d="M48 350q0 167 88 265t240 98q210 0 281 -189l-113 -40q-45 131 -171 131q-96 0 -149.5 -72t-53.5 -193q0 -120 53 -192.5t150 -72.5q124 0 170 128l112 -41q-76 -185 -281 -185q-151 0 -238.5 98t-87.5 265zM335 751l-113 116l54 51l102 -101l102 101l54 -51l-114 -116
h-85z" />
    <glyph glyph-name="ccaron" unicode="&#x10d;" horiz-adv-x="503" 
d="M422 662l-116 -128h-73l-116 128l55 50l98 -106l98 106zM39 237q0 113 63.5 181.5t172.5 68.5q142 0 197 -131l-103 -39q-21 81 -99 81q-56 0 -85 -46.5t-29 -114.5t28.5 -114t86.5 -46q68 0 98 76l105 -40q-68 -126 -201 -126q-107 0 -170.5 68t-63.5 182z" />
    <glyph glyph-name="Dcaron" unicode="&#x10e;" horiz-adv-x="707" 
d="M281 751l-113 116l54 51l102 -101l102 101l54 -51l-114 -116h-85zM81 0v700h248q154 0 242 -92.5t88 -257.5t-88 -257.5t-242 -92.5h-248zM537 350q0 119 -53.5 186t-163.5 67h-120v-506h120q110 0 163.5 67t53.5 186z" />
    <glyph glyph-name="dcaron" unicode="&#x10f;" horiz-adv-x="588" 
d="M611 731l87 -23l-64 -177l-64 17zM256 487q96 0 147 -73v286h113v-700h-108v70q-50 -83 -156 -83q-93 0 -153 68.5t-60 181.5t61.5 181.5t155.5 68.5zM403 212v50q0 68 -38 101.5t-86 33.5q-56 0 -89.5 -45t-33.5 -115t32.5 -115t87.5 -45q49 0 88 33.5t39 101.5z" />
    <glyph glyph-name="Dcroat" unicode="&#x110;" horiz-adv-x="726" 
d="M100 0v321h-81v85h81v294h248q154 0 242 -92.5t88 -257.5t-88 -257.5t-242 -92.5h-248zM556 350q0 119 -53.5 186t-163.5 67h-120v-197h165v-85h-165v-224h120q110 0 163.5 67t53.5 186z" />
    <glyph glyph-name="dcroat" unicode="&#x111;" horiz-adv-x="588" 
d="M251 547v82h152v71h113v-71h61v-82h-61v-547h-108v70q-50 -83 -156 -83q-93 0 -153 68.5t-60 181.5t61.5 181.5t155.5 68.5q96 0 147 -73v133h-152zM403 212v50q0 68 -38 101.5t-86 33.5q-56 0 -89.5 -45t-33.5 -115t32.5 -115t87.5 -45q49 0 88 33.5t39 101.5z" />
    <glyph glyph-name="Emacron" unicode="&#x112;" horiz-adv-x="575" 
d="M169 775v75h273v-75h-273zM530 0h-449v700h443v-97h-326v-194h304v-97h-304v-215h332v-97z" />
    <glyph glyph-name="emacron" unicode="&#x113;" horiz-adv-x="525" 
d="M378 143l98 -39q-61 -117 -202 -117q-108 0 -171.5 68.5t-63.5 182.5q0 112 63.5 180.5t167.5 68.5q108 0 165.5 -70t57.5 -174v-32h-338q3 -60 31 -99.5t87 -39.5q72 0 105 71zM269 404q-49 0 -78 -32.5t-34 -85.5h222q-2 55 -32 86.5t-78 31.5zM131 556v74h273v-74
h-273z" />
    <glyph glyph-name="Ebreve" unicode="&#x114;" horiz-adv-x="575" 
d="M142 877l83 24q5 -30 26.5 -50t52.5 -20t52.5 20t26.5 50l83 -24q-12 -54 -56 -86.5t-106 -32.5t-106 32.5t-56 86.5zM530 0h-449v700h443v-97h-326v-194h304v-97h-304v-215h332v-97z" />
    <glyph glyph-name="ebreve" unicode="&#x115;" horiz-adv-x="525" 
d="M378 143l98 -39q-61 -117 -202 -117q-108 0 -171.5 68.5t-63.5 182.5q0 112 63.5 180.5t167.5 68.5q108 0 165.5 -70t57.5 -174v-32h-338q3 -60 31 -99.5t87 -39.5q72 0 105 71zM269 404q-49 0 -78 -32.5t-34 -85.5h222q-2 55 -32 86.5t-78 31.5zM106 664l83 24
q5 -29 26.5 -49.5t52.5 -20.5t52.5 20.5t26.5 49.5l83 -24q-12 -53 -56 -86t-106 -33t-106 33t-56 86z" />
    <glyph glyph-name="Edotaccent" unicode="&#x116;" horiz-adv-x="575" 
d="M234 832q0 31 20 50.5t51 19.5t51 -19.5t20 -50.5q0 -30 -20 -49t-51 -19t-51 19t-20 49zM530 0h-449v700h443v-97h-326v-194h304v-97h-304v-215h332v-97z" />
    <glyph glyph-name="edotaccent" unicode="&#x117;" horiz-adv-x="525" 
d="M378 143l98 -39q-61 -117 -202 -117q-108 0 -171.5 68.5t-63.5 182.5q0 112 63.5 180.5t167.5 68.5q108 0 165.5 -70t57.5 -174v-32h-338q3 -60 31 -99.5t87 -39.5q72 0 105 71zM269 404q-49 0 -78 -32.5t-34 -85.5h222q-2 55 -32 86.5t-78 31.5zM198 612q0 31 19.5 50.5
t50.5 19.5t50.5 -19.5t19.5 -50.5q0 -29 -19.5 -48.5t-50.5 -19.5t-50.5 19.5t-19.5 48.5z" />
    <glyph glyph-name="Eogonek" unicode="&#x118;" horiz-adv-x="575" 
d="M530 0h-58q-101 -53 -101 -99q0 -36 43 -36q33 0 59 39l46 -42q-50 -64 -119 -64q-47 0 -79 23t-32 70q0 35 18 60t53 49h-279v700h443v-97h-326v-194h304v-97h-304v-215h332v-97z" />
    <glyph glyph-name="eogonek" unicode="&#x119;" horiz-adv-x="525" 
d="M282 -99q0 -36 43 -36q33 0 59 39l46 -42q-50 -64 -119 -64q-47 0 -79 23t-32 70q0 57 53 97q-99 7 -156.5 74.5t-57.5 175.5q0 112 63.5 180.5t167.5 68.5q108 0 165.5 -70t57.5 -174v-32h-338q3 -60 31 -99.5t87 -39.5q72 0 105 71l98 -39q-32 -59 -92 -96
q-55 -34 -78.5 -58t-23.5 -49zM269 404q-49 0 -78 -32.5t-34 -85.5h222q-2 55 -32 86.5t-78 31.5z" />
    <glyph glyph-name="Ecaron" unicode="&#x11a;" horiz-adv-x="575" 
d="M262 751l-113 116l54 51l102 -101l102 101l54 -51l-114 -116h-85zM530 0h-449v700h443v-97h-326v-194h304v-97h-304v-215h332v-97z" />
    <glyph glyph-name="ecaron" unicode="&#x11b;" horiz-adv-x="525" 
d="M420 662l-116 -128h-73l-116 128l55 50l98 -106l98 106zM378 143l98 -39q-61 -117 -202 -117q-108 0 -171.5 68.5t-63.5 182.5q0 112 63.5 180.5t167.5 68.5q108 0 165.5 -70t57.5 -174v-32h-338q3 -60 31 -99.5t87 -39.5q72 0 105 71zM269 404q-49 0 -78 -32.5
t-34 -85.5h222q-2 55 -32 86.5t-78 31.5z" />
    <glyph glyph-name="Gcircumflex" unicode="&#x11c;" horiz-adv-x="733" 
d="M354 273v93h304v-366h-107v73q-59 -86 -190 -86q-148 0 -230.5 102t-82.5 260q0 162 90 263t244 101q99 0 170.5 -47t109.5 -135l-109 -43q-49 128 -177 128q-94 0 -150 -71t-56 -201q0 -126 53 -193t152 -67q71 0 120.5 37.5t49.5 109.5v42h-191zM224 797l113 115h85
l115 -115l-54 -52l-104 101l-101 -101z" />
    <glyph glyph-name="gcircumflex" unicode="&#x11d;" horiz-adv-x="534" 
d="M110 578l115 128h74l115 -128l-55 -50l-98 106l-98 -106zM524 486l-21 -74q-12 12 -35 12t-37 -12q35 -37 35 -98q0 -78 -59.5 -123.5t-143.5 -45.5q-22 0 -45.5 4t-26.5 4q-14 0 -27 -9t-13 -27q0 -24 44 -31q12 -2 107 -10q98 -8 149.5 -35t51.5 -96q0 -80 -68.5 -119
t-178.5 -39q-102 0 -163 33t-61 99q0 35 19 64t49 41q-51 24 -51 79q0 58 67 88q-57 44 -57 121q0 81 59.5 128t139.5 47q55 0 109 -25q42 35 98 35q31 0 59 -11zM170 314q0 -46 25.5 -70t66.5 -24q42 0 67.5 24t25.5 70t-26 71.5t-67 25.5t-66.5 -25.5t-25.5 -71.5z
M275 -12q-77 5 -105 11q-38 -17 -38 -69q0 -67 128 -67q62 0 100 18t38 54q0 29 -27 39.5t-96 13.5z" />
    <glyph glyph-name="Gbreve" unicode="&#x11e;" horiz-adv-x="733" 
d="M220 877l83 24q5 -30 26.5 -50t52.5 -20t52.5 20t26.5 50l83 -24q-12 -54 -56 -86.5t-106 -32.5t-106 32.5t-56 86.5zM354 273v93h304v-366h-107v73q-59 -86 -190 -86q-148 0 -230.5 102t-82.5 260q0 162 90 263t244 101q99 0 170.5 -47t109.5 -135l-109 -43
q-49 128 -177 128q-94 0 -150 -71t-56 -201q0 -126 53 -193t152 -67q71 0 120.5 37.5t49.5 109.5v42h-191z" />
    <glyph glyph-name="gbreve" unicode="&#x11f;" horiz-adv-x="534" 
d="M524 486l-21 -74q-12 12 -35 12t-37 -12q35 -37 35 -98q0 -78 -59.5 -123.5t-143.5 -45.5q-22 0 -45.5 4t-26.5 4q-14 0 -27 -9t-13 -27q0 -24 44 -31q12 -2 107 -10q98 -8 149.5 -35t51.5 -96q0 -80 -68.5 -119t-178.5 -39q-102 0 -163 33t-61 99q0 35 19 64t49 41
q-51 24 -51 79q0 58 67 88q-57 44 -57 121q0 81 59.5 128t139.5 47q55 0 109 -25q42 35 98 35q31 0 59 -11zM170 314q0 -46 25.5 -70t66.5 -24q42 0 67.5 24t25.5 70t-26 71.5t-67 25.5t-66.5 -25.5t-25.5 -71.5zM275 -12q-77 5 -105 11q-38 -17 -38 -69q0 -67 128 -67
q62 0 100 18t38 54q0 29 -27 39.5t-96 13.5zM100 664l83 24q5 -29 26.5 -49.5t52.5 -20.5t52.5 20.5t26.5 49.5l83 -24q-12 -53 -56 -86t-106 -33t-106 33t-56 86z" />
    <glyph glyph-name="Gdotaccent" unicode="&#x120;" horiz-adv-x="733" 
d="M309 832q0 31 20 50.5t51 19.5t51 -19.5t20 -50.5q0 -30 -20 -49t-51 -19t-51 19t-20 49zM354 273v93h304v-366h-107v73q-59 -86 -190 -86q-148 0 -230.5 102t-82.5 260q0 162 90 263t244 101q99 0 170.5 -47t109.5 -135l-109 -43q-49 128 -177 128q-94 0 -150 -71
t-56 -201q0 -126 53 -193t152 -67q71 0 120.5 37.5t49.5 109.5v42h-191z" />
    <glyph glyph-name="gdotaccent" unicode="&#x121;" horiz-adv-x="534" 
d="M524 486l-21 -74q-12 12 -35 12t-37 -12q35 -37 35 -98q0 -78 -59.5 -123.5t-143.5 -45.5q-22 0 -45.5 4t-26.5 4q-14 0 -27 -9t-13 -27q0 -24 44 -31q12 -2 107 -10q98 -8 149.5 -35t51.5 -96q0 -80 -68.5 -119t-178.5 -39q-102 0 -163 33t-61 99q0 35 19 64t49 41
q-51 24 -51 79q0 58 67 88q-57 44 -57 121q0 81 59.5 128t139.5 47q55 0 109 -25q42 35 98 35q31 0 59 -11zM170 314q0 -46 25.5 -70t66.5 -24q42 0 67.5 24t25.5 70t-26 71.5t-67 25.5t-66.5 -25.5t-25.5 -71.5zM275 -12q-77 5 -105 11q-38 -17 -38 -69q0 -67 128 -67
q62 0 100 18t38 54q0 29 -27 39.5t-96 13.5zM191 612q0 31 19.5 50.5t50.5 19.5t50.5 -19.5t19.5 -50.5q0 -29 -19.5 -48.5t-50.5 -19.5t-50.5 19.5t-19.5 48.5z" />
    <glyph glyph-name="Gcommaaccent" unicode="&#x122;" horiz-adv-x="733" 
d="M433 -140q0 -17 -4.5 -34.5t-15 -36.5t-33 -33t-53.5 -18l-16 43q19 0 38.5 13.5t19.5 31.5v3q-2 -1 -12 -1q-22 0 -39.5 17t-17.5 42q0 23 16.5 41.5t45.5 18.5q35 0 53 -25.5t18 -61.5zM354 273v93h304v-366h-107v73q-59 -86 -190 -86q-148 0 -230.5 102t-82.5 260
q0 162 90 263t244 101q99 0 170.5 -47t109.5 -135l-109 -43q-49 128 -177 128q-94 0 -150 -71t-56 -201q0 -126 53 -193t152 -67q71 0 120.5 37.5t49.5 109.5v42h-191z" />
    <glyph glyph-name="gcommaaccent" unicode="&#x123;" horiz-adv-x="534" 
d="M194 616q0 17 4.5 34.5t15 36.5t33 33t53.5 18l16 -43q-20 0 -39.5 -13.5t-19.5 -31.5v-3q1 0 5 0.5t7 0.5q23 0 40 -17t17 -42q0 -24 -16 -42t-46 -18q-34 0 -52 25.5t-18 61.5zM524 486l-21 -74q-12 12 -35 12t-37 -12q35 -37 35 -98q0 -78 -59.5 -123.5t-143.5 -45.5
q-22 0 -45.5 4t-26.5 4q-14 0 -27 -9t-13 -27q0 -24 44 -31q12 -2 107 -10q98 -8 149.5 -35t51.5 -96q0 -80 -68.5 -119t-178.5 -39q-102 0 -163 33t-61 99q0 35 19 64t49 41q-51 24 -51 79q0 58 67 88q-57 44 -57 121q0 81 59.5 128t139.5 47q55 0 109 -25q42 35 98 35
q31 0 59 -11zM170 314q0 -46 25.5 -70t66.5 -24q42 0 67.5 24t25.5 70t-26 71.5t-67 25.5t-66.5 -25.5t-25.5 -71.5zM275 -12q-77 5 -105 11q-38 -17 -38 -69q0 -67 128 -67q62 0 100 18t38 54q0 29 -27 39.5t-96 13.5z" />
    <glyph glyph-name="Hcircumflex" unicode="&#x124;" horiz-adv-x="701" 
d="M81 0v700h118v-290h303v290h118v-700h-118v312h-303v-312h-118zM194 797l113 115h85l115 -115l-54 -52l-104 101l-101 -101z" />
    <glyph glyph-name="hcircumflex" unicode="&#x125;" horiz-adv-x="565" 
d="M72 0v700h114v-291q45 78 144 78q73 0 120.5 -41.5t47.5 -118.5v-327h-114v300q0 48 -25.5 71t-62.5 23q-46 0 -78 -38t-32 -105v-251h-114zM-28 797l113 115h85l115 -115l-54 -52l-104 101l-101 -101z" />
    <glyph glyph-name="Hbar" unicode="&#x126;" horiz-adv-x="701" 
d="M81 0v499h-73v89h73v112h118v-112h303v112h118v-112h73v-89h-73v-499h-118v312h-303v-312h-118zM199 410h303v89h-303v-89z" />
    <glyph glyph-name="hbar" unicode="&#x127;" horiz-adv-x="565" 
d="M72 0v547h-61v82h61v71h114v-71h151v-82h-151v-138q45 78 144 78q73 0 120.5 -41.5t47.5 -118.5v-327h-114v300q0 48 -25.5 71t-62.5 23q-46 0 -78 -38t-32 -105v-251h-114z" />
    <glyph glyph-name="Itilde" unicode="&#x128;" horiz-adv-x="281" 
d="M81 0v700h118v-700h-118zM69 892q39 0 81 -26.5t61 -26.5t33.5 12.5t19.5 24.5l6 12l56 -49q-1 -3 -4 -8t-13.5 -18t-23 -22.5t-33.5 -17.5t-45 -8q-38 0 -79.5 26t-61.5 26q-19 0 -34 -11.5t-20 -23.5l-5 -12l-56 49q1 3 4 8t13 17.5t22.5 22t33.5 17.5t45 8z" />
    <glyph glyph-name="itilde" unicode="&#x129;" horiz-adv-x="258" 
d="M72 0v474h114v-474h-114zM57 675q39 0 81 -26.5t61 -26.5t33.5 12t19.5 24l6 13l56 -49q-1 -3 -4 -8t-13.5 -18t-23 -22.5t-33.5 -17.5t-45 -8q-38 0 -79.5 26.5t-61.5 26.5q-19 0 -34 -12t-20 -24l-5 -12l-56 49q1 3 4 8t13 17.5t22.5 22t33.5 17.5t45 8z" />
    <glyph glyph-name="Imacron" unicode="&#x12a;" horiz-adv-x="281" 
d="M81 0v700h118v-700h-118zM4 775v75h273v-75h-273z" />
    <glyph glyph-name="imacron" unicode="&#x12b;" horiz-adv-x="258" 
d="M72 0v474h114v-474h-114zM-7 556v74h273v-74h-273z" />
    <glyph glyph-name="Ibreve" unicode="&#x12c;" horiz-adv-x="281" 
d="M81 0v700h118v-700h-118zM-22 877l83 24q5 -30 26.5 -50t52.5 -20t52.5 20t26.5 50l83 -24q-12 -54 -56 -86.5t-106 -32.5t-106 32.5t-56 86.5z" />
    <glyph glyph-name="ibreve" unicode="&#x12d;" horiz-adv-x="258" 
d="M72 0v474h114v-474h-114zM-33 664l83 24q5 -29 26.5 -49.5t52.5 -20.5t52.5 20.5t26.5 49.5l83 -24q-12 -53 -56 -86t-106 -33t-106 33t-56 86z" />
    <glyph glyph-name="Iogonek" unicode="&#x12e;" horiz-adv-x="281" 
d="M81 0v700h118v-700q-101 -49 -101 -99q0 -36 43 -36q33 0 59 39l46 -42q-50 -64 -119 -64q-47 0 -79 23t-32 70q0 35 16.5 59.5t48.5 49.5z" />
    <glyph glyph-name="iogonek" unicode="&#x12f;" horiz-adv-x="258" 
d="M72 0v474h114v-474q-101 -48 -101 -99q0 -36 43 -36q33 0 59 39l46 -42q-50 -64 -119 -64q-47 0 -79 23t-32 70q0 35 17.5 59.5t51.5 49.5zM59 643q0 31 19.5 50t50.5 19t50.5 -19t19.5 -50q0 -29 -19.5 -49t-50.5 -20t-50.5 20t-19.5 49z" />
    <glyph glyph-name="Idotaccent" unicode="&#x130;" horiz-adv-x="281" 
d="M81 0v700h118v-700h-118zM69 832q0 31 20 50.5t51 19.5t51 -19.5t20 -50.5q0 -30 -20 -49t-51 -19t-51 19t-20 49z" />
    <glyph glyph-name="dotlessi" unicode="&#x131;" horiz-adv-x="258" 
d="M72 0v474h114v-474h-114z" />
    <glyph glyph-name="IJ" unicode="&#x132;" horiz-adv-x="724" 
d="M81 0v700h118v-700h-118zM442 84q48 0 67.5 35.5t19.5 111.5v469h119v-469q0 -56 -8.5 -97.5t-30 -76t-62.5 -52.5t-101 -18q-116 0 -182 80l78 77q27 -32 48.5 -46t51.5 -14z" />
    <glyph glyph-name="ij" unicode="&#x133;" horiz-adv-x="519" 
d="M59 643q0 31 19.5 50t50.5 19t50.5 -19t19.5 -50q0 -29 -19.5 -49t-50.5 -20t-50.5 20t-19.5 49zM72 0v474h114v-474h-114zM447 474v-521q0 -85 -50 -125.5t-117 -40.5q-61 0 -115 33l46 85q33 -24 63 -24q59 0 59 79v514h114zM320 643q0 31 19.5 50t50.5 19t50.5 -19
t19.5 -50q0 -29 -19.5 -49t-50.5 -20t-50.5 20t-19.5 49z" />
    <glyph glyph-name="Jcircumflex" unicode="&#x134;" horiz-adv-x="465" 
d="M183 84q48 0 67.5 35.5t19.5 111.5v469h119v-469q0 -56 -8.5 -97.5t-30 -76t-62.5 -52.5t-101 -18q-116 0 -182 80l78 77q27 -32 48.5 -46t51.5 -14zM172 797l113 115h85l115 -115l-54 -52l-104 101l-101 -101z" />
    <glyph glyph-name="jcircumflex" unicode="&#x135;" horiz-adv-x="261" 
d="M189 474v-522q0 -85 -50 -125.5t-117 -40.5q-62 0 -116 32l47 88q33 -24 63 -24q60 0 60 77v515h113zM-21 578l115 128h74l115 -128l-55 -50l-98 106l-98 -106z" />
    <glyph glyph-name="Kcommaaccent" unicode="&#x136;" horiz-adv-x="644" 
d="M399 -140q0 -17 -4.5 -34.5t-15 -36.5t-33 -33t-53.5 -18l-16 43q19 0 38.5 13.5t19.5 31.5v3q-2 -1 -12 -1q-22 0 -39.5 17t-17.5 42q0 23 16.5 41.5t45.5 18.5q35 0 53 -25.5t18 -61.5zM490 0l-223 334l-68 -74v-260h-118v700h118v-295l270 295h138l-258 -282l283 -418
h-142z" />
    <glyph glyph-name="kcommaaccent" unicode="&#x137;" horiz-adv-x="534" 
d="M350 -140q0 -17 -4.5 -34.5t-15 -36.5t-33 -33t-53.5 -18l-16 43q19 0 38.5 13.5t19.5 31.5v3q-2 -1 -12 -1q-22 0 -39.5 17t-17.5 42q0 23 16.5 41.5t45.5 18.5q35 0 53 -25.5t18 -61.5zM395 0l-161 230l-48 -44v-186h-114v700h114v-396l184 170h133l-187 -174l213 -300
h-134z" />
    <glyph glyph-name="kgreenlandic" unicode="&#x138;" horiz-adv-x="534" 
d="M395 0l-160 229l-49 -45v-184h-114v474h114v-170l184 170h133l-187 -174l213 -300h-134z" />
    <glyph glyph-name="Lacute" unicode="&#x139;" horiz-adv-x="527" 
d="M258 939l50 -82l-202 -109l-37 60zM81 0v700h118v-603h308v-97h-426z" />
    <glyph glyph-name="lacute" unicode="&#x13a;" horiz-adv-x="258" 
d="M196 939l50 -82l-202 -109l-37 60zM72 0v700h114v-700h-114z" />
    <glyph glyph-name="Lcommaaccent" unicode="&#x13b;" horiz-adv-x="527" 
d="M351 -140q0 -17 -4.5 -34.5t-15 -36.5t-33 -33t-53.5 -18l-16 43q19 0 38.5 13.5t19.5 31.5v3q-2 -1 -12 -1q-22 0 -39.5 17t-17.5 42q0 23 16.5 41.5t45.5 18.5q35 0 53 -25.5t18 -61.5zM81 0v700h118v-603h308v-97h-426z" />
    <glyph glyph-name="lcommaaccent" unicode="&#x13c;" horiz-adv-x="258" 
d="M198 -140q0 -17 -4.5 -34.5t-15 -36.5t-33 -33t-53.5 -18l-16 43q19 0 38.5 13.5t19.5 31.5v3q-2 -1 -12 -1q-22 0 -39.5 17t-17.5 42q0 23 16.5 41.5t45.5 18.5q35 0 53 -25.5t18 -61.5zM72 0v700h114v-700h-114z" />
    <glyph glyph-name="Lcaron" unicode="&#x13d;" horiz-adv-x="527" 
d="M319 731l87 -23l-64 -177l-64 17zM81 0v700h118v-603h308v-97h-426z" />
    <glyph glyph-name="lcaron" unicode="&#x13e;" horiz-adv-x="258" 
d="M281 731l87 -23l-64 -177l-64 17zM72 0v700h114v-700h-114z" />
    <glyph glyph-name="Ldot" unicode="&#x13f;" horiz-adv-x="527" 
d="M81 0v700h118v-603h308v-97h-426zM310 359q0 31 19.5 50.5t50.5 19.5t50.5 -19.5t19.5 -50.5q0 -29 -19.5 -48.5t-50.5 -19.5t-50.5 19.5t-19.5 48.5z" />
    <glyph glyph-name="ldot" unicode="&#x140;" horiz-adv-x="386" 
d="M72 0v700h114v-700h-114zM234 349q0 31 19.5 50.5t50.5 19.5t50.5 -19.5t19.5 -50.5q0 -29 -19.5 -48.5t-50.5 -19.5t-50.5 19.5t-19.5 48.5z" />
    <glyph glyph-name="Lslash" unicode="&#x141;" horiz-adv-x="553" 
d="M106 0v242l-58 -34l-45 76l103 61v355h118v-286l131 78l44 -77l-175 -104v-214h308v-97h-426z" />
    <glyph glyph-name="lslash" unicode="&#x142;" horiz-adv-x="318" 
d="M102 0v282l-60 -35l-43 74l103 61v318h114v-250l74 44l43 -75l-117 -69v-350h-114z" />
    <glyph glyph-name="Nacute" unicode="&#x143;" horiz-adv-x="726" 
d="M455 939l50 -82l-202 -109l-37 60zM81 0v700h124l326 -515h3v515h111v-700h-124l-326 515h-3v-515h-111z" />
    <glyph glyph-name="nacute" unicode="&#x144;" horiz-adv-x="565" 
d="M378 723l50 -82l-202 -109l-37 60zM72 0v474h109v-72q49 85 149 85q73 0 120.5 -41.5t47.5 -118.5v-327h-114v300q0 48 -25.5 71t-62.5 23q-46 0 -78 -38t-32 -105v-251h-114z" />
    <glyph glyph-name="Ncommaaccent" unicode="&#x145;" horiz-adv-x="726" 
d="M438 -140q0 -17 -4.5 -34.5t-15 -36.5t-33 -33t-53.5 -18l-16 43q19 0 38.5 13.5t19.5 31.5v3q-2 -1 -12 -1q-22 0 -39.5 17t-17.5 42q0 23 16.5 41.5t45.5 18.5q35 0 53 -25.5t18 -61.5zM81 0v700h124l326 -515h3v515h111v-700h-124l-326 515h-3v-515h-111z" />
    <glyph glyph-name="ncommaaccent" unicode="&#x146;" horiz-adv-x="565" 
d="M355 -140q0 -17 -4.5 -34.5t-15 -36.5t-33 -33t-53.5 -18l-16 43q19 0 38.5 13.5t19.5 31.5v3q-2 -1 -12 -1q-22 0 -39.5 17t-17.5 42q0 23 16.5 41.5t45.5 18.5q35 0 53 -25.5t18 -61.5zM72 0v474h109v-72q49 85 149 85q73 0 120.5 -41.5t47.5 -118.5v-327h-114v300
q0 48 -25.5 71t-62.5 23q-46 0 -78 -38t-32 -105v-251h-114z" />
    <glyph glyph-name="Ncaron" unicode="&#x147;" horiz-adv-x="726" 
d="M318 751l-113 116l54 51l102 -101l102 101l54 -51l-114 -116h-85zM81 0v700h124l326 -515h3v515h111v-700h-124l-326 515h-3v-515h-111z" />
    <glyph glyph-name="ncaron" unicode="&#x148;" horiz-adv-x="565" 
d="M441 662l-116 -128h-73l-116 128l55 50l98 -106l98 106zM72 0v474h109v-72q49 85 149 85q73 0 120.5 -41.5t47.5 -118.5v-327h-114v300q0 48 -25.5 71t-62.5 23q-46 0 -78 -38t-32 -105v-251h-114z" />
    <glyph glyph-name="Eng" unicode="&#x14a;" horiz-adv-x="726" 
d="M81 0v700h124l326 -511h3v511h111v-721q0 -192 -187 -192q-103 0 -163 69l76 76q24 -26 42 -38t42 -12q73 0 73 102v12l-333 518h-3v-514h-111z" />
    <glyph glyph-name="eng" unicode="&#x14b;" horiz-adv-x="565" 
d="M384 300q0 48 -25.5 71t-62.5 23q-46 0 -78 -38t-32 -105v-251h-114v474h109v-72q49 85 149 85q73 0 120.5 -41.5t47.5 -118.5v-375q0 -85 -50 -125.5t-118 -40.5q-61 0 -115 32l46 88q33 -24 64 -24q59 0 59 77v341z" />
    <glyph glyph-name="Omacron" unicode="&#x14c;" horiz-adv-x="749" 
d="M238 775v75h273v-75h-273zM48 350q0 167 89.5 265t236.5 98q148 0 237.5 -98t89.5 -265t-89.5 -265t-237.5 -98q-147 0 -236.5 98t-89.5 265zM170 350q0 -120 52.5 -193t151.5 -73q100 0 152.5 73t52.5 193t-52.5 193t-152.5 73q-99 0 -151.5 -73t-52.5 -193z" />
    <glyph glyph-name="omacron" unicode="&#x14d;" horiz-adv-x="553" 
d="M140 556v74h273v-74h-273zM276 487q109 0 173.5 -68.5t64.5 -181.5t-64.5 -181.5t-173.5 -68.5t-173 68.5t-64 181.5t64 181.5t173 68.5zM276 74q60 0 91 45.5t31 117.5t-31 117.5t-91 45.5q-59 0 -90 -46t-31 -117t31 -117t90 -46z" />
    <glyph glyph-name="Obreve" unicode="&#x14e;" horiz-adv-x="749" 
d="M212 877l83 24q5 -30 26.5 -50t52.5 -20t52.5 20t26.5 50l83 -24q-12 -54 -56 -86.5t-106 -32.5t-106 32.5t-56 86.5zM48 350q0 167 89.5 265t236.5 98q148 0 237.5 -98t89.5 -265t-89.5 -265t-237.5 -98q-147 0 -236.5 98t-89.5 265zM170 350q0 -120 52.5 -193
t151.5 -73q100 0 152.5 73t52.5 193t-52.5 193t-152.5 73q-99 0 -151.5 -73t-52.5 -193z" />
    <glyph glyph-name="obreve" unicode="&#x14f;" horiz-adv-x="553" 
d="M276 487q109 0 173.5 -68.5t64.5 -181.5t-64.5 -181.5t-173.5 -68.5t-173 68.5t-64 181.5t64 181.5t173 68.5zM276 74q60 0 91 45.5t31 117.5t-31 117.5t-91 45.5q-59 0 -90 -46t-31 -117t31 -117t90 -46zM114 664l83 24q5 -29 26.5 -49.5t52.5 -20.5t52.5 20.5
t26.5 49.5l83 -24q-12 -53 -56 -86t-106 -33t-106 33t-56 86z" />
    <glyph glyph-name="Ohungarumlaut" unicode="&#x150;" horiz-adv-x="749" 
d="M48 350q0 167 89.5 265t236.5 98q148 0 237.5 -98t89.5 -265t-89.5 -265t-237.5 -98q-147 0 -236.5 98t-89.5 265zM170 350q0 -120 52.5 -193t151.5 -73q100 0 152.5 73t52.5 193t-52.5 193t-152.5 73q-99 0 -151.5 -73t-52.5 -193zM598 948l56 -78l-192 -121l-40 56z
M364 948l57 -78l-192 -121l-41 56z" />
    <glyph glyph-name="ohungarumlaut" unicode="&#x151;" horiz-adv-x="553" 
d="M503 732l56 -78l-192 -121l-40 56zM269 732l57 -78l-192 -121l-41 56zM276 487q109 0 173.5 -68.5t64.5 -181.5t-64.5 -181.5t-173.5 -68.5t-173 68.5t-64 181.5t64 181.5t173 68.5zM276 74q60 0 91 45.5t31 117.5t-31 117.5t-91 45.5q-59 0 -90 -46t-31 -117t31 -117
t90 -46z" />
    <glyph glyph-name="OE" unicode="&#x152;" horiz-adv-x="1058" 
d="M48 350q0 165 89.5 264t228.5 99q138 0 200 -96v83h441v-97h-324v-194h302v-97h-302v-215h330v-97h-447v82q-63 -95 -196 -95q-143 0 -232.5 99t-89.5 264zM170 350q0 -118 53 -192t149 -74q93 0 143.5 71t50.5 183v21q0 117 -53 186.5t-143 69.5q-94 0 -147 -73.5
t-53 -191.5z" />
    <glyph glyph-name="oe" unicode="&#x153;" horiz-adv-x="875" 
d="M727 143l99 -39q-61 -117 -202 -117q-113 0 -173 82q-61 -82 -175 -82q-109 0 -173 68.5t-64 181.5t64 181.5t173 68.5q113 0 175 -83q61 83 169 83q107 0 165 -70.5t58 -173.5v-32h-340q3 -60 32.5 -99.5t88.5 -39.5q70 0 103 71zM619 404q-49 0 -79 -32.5t-35 -85.5
h223q-2 55 -32 86.5t-77 31.5zM276 74q60 0 91.5 45.5t31.5 117.5t-31.5 117.5t-91.5 45.5q-59 0 -90 -46t-31 -117t31 -117t90 -46z" />
    <glyph glyph-name="Racute" unicode="&#x154;" horiz-adv-x="645" 
d="M582 500q0 -76 -39 -127t-108 -72l175 -301h-135l-162 287h-115v-287h-117v700h251q49 0 91 -10t79 -32t58.5 -62.5t21.5 -95.5zM462 497q0 56 -37 81t-112 25h-115v-221h123q141 0 141 115zM396 939l50 -82l-202 -109l-37 60z" />
    <glyph glyph-name="racute" unicode="&#x155;" horiz-adv-x="384" 
d="M326 723l50 -82l-202 -109l-37 60zM379 476l-23 -105q-21 18 -55 18q-46 0 -80.5 -39t-34.5 -111v-239h-114v474h107v-77q39 90 140 90q34 0 60 -11z" />
    <glyph glyph-name="Rcommaaccent" unicode="&#x156;" horiz-adv-x="645" 
d="M390 -140q0 -17 -4.5 -34.5t-15 -36.5t-33 -33t-53.5 -18l-16 43q19 0 38.5 13.5t19.5 31.5v3q-2 -1 -12 -1q-22 0 -39.5 17t-17.5 42q0 23 16.5 41.5t45.5 18.5q35 0 53 -25.5t18 -61.5zM582 500q0 -76 -39 -127t-108 -72l175 -301h-135l-162 287h-115v-287h-117v700
h251q49 0 91 -10t79 -32t58.5 -62.5t21.5 -95.5zM462 497q0 56 -37 81t-112 25h-115v-221h123q141 0 141 115z" />
    <glyph glyph-name="rcommaaccent" unicode="&#x157;" horiz-adv-x="384" 
d="M198 -140q0 -17 -4.5 -34.5t-15 -36.5t-33 -33t-53.5 -18l-16 43q19 0 38.5 13.5t19.5 31.5v3q-2 -1 -12 -1q-22 0 -39.5 17t-17.5 42q0 23 16.5 41.5t45.5 18.5q35 0 53 -25.5t18 -61.5zM379 476l-23 -105q-21 18 -55 18q-46 0 -80.5 -39t-34.5 -111v-239h-114v474h107
v-77q39 90 140 90q34 0 60 -11z" />
    <glyph glyph-name="Rcaron" unicode="&#x158;" horiz-adv-x="645" 
d="M269 751l-113 116l54 51l102 -101l102 101l54 -51l-114 -116h-85zM582 500q0 -76 -39 -127t-108 -72l175 -301h-135l-162 287h-115v-287h-117v700h251q49 0 91 -10t79 -32t58.5 -62.5t21.5 -95.5zM462 497q0 56 -37 81t-112 25h-115v-221h123q141 0 141 115z" />
    <glyph glyph-name="rcaron" unicode="&#x159;" horiz-adv-x="384" 
d="M377 662l-116 -128h-73l-116 128l55 50l98 -106l98 106zM379 476l-23 -105q-21 18 -55 18q-46 0 -80.5 -39t-34.5 -111v-239h-114v474h107v-77q39 90 140 90q34 0 60 -11z" />
    <glyph glyph-name="Sacute" unicode="&#x15a;" horiz-adv-x="638" 
d="M183 519q0 -48 35.5 -71t128.5 -38q126 -21 185.5 -68t59.5 -140q0 -97 -74 -156t-195 -59q-125 0 -199 60.5t-78 150.5l117 18q5 -58 44.5 -96t115.5 -38q68 0 107.5 29.5t39.5 83.5q0 48 -36 74t-126 39q-121 18 -183.5 64t-62.5 137q0 96 70 150t184 54q107 0 177 -50
t86 -138l-119 -27q-18 120 -147 120q-64 0 -97 -26.5t-33 -72.5zM397 939l50 -82l-202 -109l-37 60z" />
    <glyph glyph-name="sacute" unicode="&#x15b;" horiz-adv-x="478" 
d="M312 723l50 -82l-202 -109l-37 60zM158 348q0 -29 24 -42t74 -21q41 -6 71.5 -15t58.5 -25t42.5 -42.5t14.5 -62.5q0 -71 -55.5 -112t-148.5 -41q-89 0 -144.5 37t-63.5 106l110 16q7 -76 99 -76q41 0 65 15.5t24 46.5q0 28 -22.5 41.5t-82.5 22.5q-88 13 -134 46t-46 98
q0 71 56.5 109t138.5 38q79 0 133 -35t64 -95l-110 -23q-9 71 -89 71q-34 0 -56.5 -15t-22.5 -42z" />
    <glyph glyph-name="Scircumflex" unicode="&#x15c;" horiz-adv-x="638" 
d="M183 519q0 -48 35.5 -71t128.5 -38q126 -21 185.5 -68t59.5 -140q0 -97 -74 -156t-195 -59q-125 0 -199 60.5t-78 150.5l117 18q5 -58 44.5 -96t115.5 -38q68 0 107.5 29.5t39.5 83.5q0 48 -36 74t-126 39q-121 18 -183.5 64t-62.5 137q0 96 70 150t184 54q107 0 177 -50
t86 -138l-119 -27q-18 120 -147 120q-64 0 -97 -26.5t-33 -72.5zM161 797l113 115h85l115 -115l-54 -52l-104 101l-101 -101z" />
    <glyph glyph-name="scircumflex" unicode="&#x15d;" horiz-adv-x="478" 
d="M88 578l115 128h74l115 -128l-55 -50l-98 106l-98 -106zM158 348q0 -29 24 -42t74 -21q41 -6 71.5 -15t58.5 -25t42.5 -42.5t14.5 -62.5q0 -71 -55.5 -112t-148.5 -41q-89 0 -144.5 37t-63.5 106l110 16q7 -76 99 -76q41 0 65 15.5t24 46.5q0 28 -22.5 41.5t-82.5 22.5
q-88 13 -134 46t-46 98q0 71 56.5 109t138.5 38q79 0 133 -35t64 -95l-110 -23q-9 71 -89 71q-34 0 -56.5 -15t-22.5 -42z" />
    <glyph glyph-name="Scedilla" unicode="&#x15e;" horiz-adv-x="638" 
d="M225 -199l33 45q20 -20 53 -20q19 0 30 11t11 29q0 36 -39 36q-25 0 -39 -14l-30 32l30 70q-104 12 -164.5 69.5t-63.5 138.5l117 18q5 -58 44.5 -96t115.5 -38q68 0 107.5 29.5t39.5 83.5q0 48 -36 74t-126 39q-121 18 -183.5 64t-62.5 137q0 96 70 150t184 54
q107 0 177 -50t86 -138l-119 -27q-18 120 -147 120q-64 0 -97 -26.5t-33 -72.5q0 -48 35.5 -71t128.5 -38q126 -21 185.5 -68t59.5 -140q0 -96 -72.5 -154.5t-191.5 -60.5l-17 -40q12 6 29 6q35 0 58.5 -22.5t23.5 -62.5q0 -45 -31.5 -71.5t-79.5 -26.5q-55 0 -86 31z" />
    <glyph glyph-name="scedilla" unicode="&#x15f;" horiz-adv-x="478" 
d="M142 -199l33 45q20 -20 53 -20q19 0 30 11t11 29q0 36 -39 36q-25 0 -39 -14l-30 32l30 70q-69 9 -111 45t-49 95l110 16q7 -76 99 -76q41 0 65 15.5t24 46.5q0 28 -22.5 41.5t-82.5 22.5q-88 13 -134 46t-46 98q0 71 56.5 109t138.5 38q79 0 133 -35t64 -95l-110 -23
q-9 71 -89 71q-34 0 -56.5 -15t-22.5 -42q0 -29 24 -42t74 -21q41 -6 71.5 -15t58.5 -25t42.5 -42.5t14.5 -62.5q0 -70 -53.5 -110.5t-144.5 -42.5l-17 -40q12 6 29 6q35 0 58.5 -22.5t23.5 -62.5q0 -45 -31.5 -71.5t-79.5 -26.5q-55 0 -86 31z" />
    <glyph glyph-name="Scaron" unicode="&#x160;" horiz-adv-x="638" 
d="M183 519q0 -48 35.5 -71t128.5 -38q126 -21 185.5 -68t59.5 -140q0 -97 -74 -156t-195 -59q-125 0 -199 60.5t-78 150.5l117 18q5 -58 44.5 -96t115.5 -38q68 0 107.5 29.5t39.5 83.5q0 48 -36 74t-126 39q-121 18 -183.5 64t-62.5 137q0 96 70 150t184 54q107 0 177 -50
t86 -138l-119 -27q-18 120 -147 120q-64 0 -97 -26.5t-33 -72.5zM274 751l-113 116l54 51l102 -101l102 101l54 -51l-114 -116h-85z" />
    <glyph glyph-name="scaron" unicode="&#x161;" horiz-adv-x="478" 
d="M390 662l-116 -128h-73l-116 128l55 50l98 -106l98 106zM158 348q0 -29 24 -42t74 -21q41 -6 71.5 -15t58.5 -25t42.5 -42.5t14.5 -62.5q0 -71 -55.5 -112t-148.5 -41q-89 0 -144.5 37t-63.5 106l110 16q7 -76 99 -76q41 0 65 15.5t24 46.5q0 28 -22.5 41.5t-82.5 22.5
q-88 13 -134 46t-46 98q0 71 56.5 109t138.5 38q79 0 133 -35t64 -95l-110 -23q-9 71 -89 71q-34 0 -56.5 -15t-22.5 -42z" />
    <glyph glyph-name="Tcommaaccent" unicode="&#x162;" horiz-adv-x="570" 
d="M355 -140q0 -17 -4.5 -34.5t-15 -36.5t-33 -33t-53.5 -18l-16 43q19 0 38.5 13.5t19.5 31.5v3q-2 -1 -12 -1q-22 0 -39.5 17t-17.5 42q0 23 16.5 41.5t45.5 18.5q35 0 53 -25.5t18 -61.5zM21 603v97h528v-97h-205v-603h-118v603h-205z" />
    <glyph glyph-name="tcommaaccent" unicode="&#x163;" horiz-adv-x="358" 
d="M264 -140q0 -17 -4.5 -34.5t-15 -36.5t-33 -33t-53.5 -18l-16 43q19 0 38.5 13.5t19.5 31.5v3q-2 -1 -12 -1q-22 0 -39.5 17t-17.5 42q0 23 16.5 41.5t45.5 18.5q35 0 53 -25.5t18 -61.5zM305 96l31 -89q-40 -20 -97 -20q-67 0 -104.5 35t-37.5 100v268h-80v84h80v135
l113 52v-187h107v-84h-107v-254q0 -56 45 -56q20 0 50 16z" />
    <glyph glyph-name="Tcaron" unicode="&#x164;" horiz-adv-x="570" 
d="M242 751l-113 116l54 51l102 -101l102 101l54 -51l-114 -116h-85zM21 603v97h528v-97h-205v-603h-118v603h-205z" />
    <glyph glyph-name="tcaron" unicode="&#x165;" horiz-adv-x="358" 
d="M301 731l87 -23l-64 -177l-64 17zM305 96l31 -89q-40 -20 -97 -20q-67 0 -104.5 35t-37.5 100v268h-80v84h80v135l113 52v-187h107v-84h-107v-254q0 -56 45 -56q20 0 50 16z" />
    <glyph glyph-name="Tbar" unicode="&#x166;" horiz-adv-x="570" 
d="M21 603v97h528v-97h-205v-173h132v-90h-132v-340h-118v340h-132v90h132v173h-205z" />
    <glyph glyph-name="tbar" unicode="&#x167;" horiz-adv-x="358" 
d="M305 96l31 -89q-40 -20 -97 -20q-67 0 -104.5 35t-37.5 100v102h-80v81h80v85h-80v84h80v135l113 52v-187h107v-84h-107v-85h102v-81h-102v-88q0 -56 45 -56q20 0 50 16z" />
    <glyph glyph-name="Utilde" unicode="&#x168;" horiz-adv-x="688" 
d="M272 892q39 0 81 -26.5t61 -26.5t33.5 12.5t20.5 24.5l5 12l56 -49q-1 -3 -4 -8t-13.5 -18t-23 -22.5t-33.5 -17.5t-45 -8q-38 0 -79.5 26t-61.5 26q-19 0 -34 -11.5t-20 -23.5l-5 -12l-56 49q1 3 4 8t13 17.5t22.5 22t33.5 17.5t45 8zM344 -13q-267 0 -267 266v447h118
v-448q0 -74 36 -121t113 -47t113 47t36 121v448h118v-447q0 -266 -267 -266z" />
    <glyph glyph-name="utilde" unicode="&#x169;" horiz-adv-x="560" 
d="M488 474v-474h-108v71q-50 -84 -147 -84q-71 0 -118 41.5t-47 117.5v328h113v-300q0 -48 24.5 -71t61.5 -23q44 0 76 38t32 105v251h113zM207 675q39 0 81 -26.5t61 -26.5t33.5 12t19.5 24l6 13l56 -49q-1 -3 -4 -8t-13.5 -18t-23 -22.5t-33.5 -17.5t-45 -8
q-38 0 -79.5 26.5t-61.5 26.5q-19 0 -34 -12t-20 -24l-5 -12l-56 49q1 3 4 8t13 17.5t22.5 22t33.5 17.5t45 8z" />
    <glyph glyph-name="Umacron" unicode="&#x16a;" horiz-adv-x="688" 
d="M208 775v75h273v-75h-273zM344 -13q-267 0 -267 266v447h118v-448q0 -74 36 -121t113 -47t113 47t36 121v448h118v-447q0 -266 -267 -266z" />
    <glyph glyph-name="umacron" unicode="&#x16b;" horiz-adv-x="560" 
d="M488 474v-474h-108v71q-50 -84 -147 -84q-71 0 -118 41.5t-47 117.5v328h113v-300q0 -48 24.5 -71t61.5 -23q44 0 76 38t32 105v251h113zM141 556v74h273v-74h-273z" />
    <glyph glyph-name="Ubreve" unicode="&#x16c;" horiz-adv-x="688" 
d="M182 877l83 24q5 -30 26.5 -50t52.5 -20t52.5 20t26.5 50l83 -24q-12 -54 -56 -86.5t-106 -32.5t-106 32.5t-56 86.5zM344 -13q-267 0 -267 266v447h118v-448q0 -74 36 -121t113 -47t113 47t36 121v448h118v-447q0 -266 -267 -266z" />
    <glyph glyph-name="ubreve" unicode="&#x16d;" horiz-adv-x="560" 
d="M488 474v-474h-108v71q-50 -84 -147 -84q-71 0 -118 41.5t-47 117.5v328h113v-300q0 -48 24.5 -71t61.5 -23q44 0 76 38t32 105v251h113zM115 664l83 24q5 -29 26.5 -49.5t52.5 -20.5t52.5 20.5t26.5 49.5l83 -24q-12 -53 -56 -86t-106 -33t-106 33t-56 86z" />
    <glyph glyph-name="Uring" unicode="&#x16e;" horiz-adv-x="688" 
d="M344 -13q-267 0 -267 266v447h118v-448q0 -74 36 -121t113 -47t113 47t36 121v448h118v-447q0 -266 -267 -266zM238 848q0 44 29.5 71.5t76.5 27.5t76.5 -27.5t29.5 -71.5q0 -43 -29.5 -72t-76.5 -29t-76.5 29t-29.5 72zM298 848q0 -19 13 -32.5t33 -13.5t33 13.5
t13 32.5t-13 32t-33 13t-33 -13t-13 -32z" />
    <glyph glyph-name="uring" unicode="&#x16f;" horiz-adv-x="560" 
d="M173 629q0 44 29.5 72t76.5 28t76.5 -28t29.5 -72q0 -43 -29.5 -71.5t-76.5 -28.5t-76.5 28.5t-29.5 71.5zM233 629q0 -19 13 -32.5t33 -13.5t33 13.5t13 32.5q0 20 -13 32.5t-33 12.5t-33 -12.5t-13 -32.5zM488 474v-474h-108v71q-50 -84 -147 -84q-71 0 -118 41.5
t-47 117.5v328h113v-300q0 -48 24.5 -71t61.5 -23q44 0 76 38t32 105v251h113z" />
    <glyph glyph-name="Uhungarumlaut" unicode="&#x170;" horiz-adv-x="688" 
d="M344 -13q-267 0 -267 266v447h118v-448q0 -74 36 -121t113 -47t113 47t36 121v448h118v-447q0 -266 -267 -266zM564 948l56 -78l-192 -121l-40 56zM330 948l57 -78l-192 -121l-41 56z" />
    <glyph glyph-name="uhungarumlaut" unicode="&#x171;" horiz-adv-x="560" 
d="M488 474v-474h-108v71q-50 -84 -147 -84q-71 0 -118 41.5t-47 117.5v328h113v-300q0 -48 24.5 -71t61.5 -23q44 0 76 38t32 105v251h113zM485 732l56 -78l-192 -121l-40 56zM251 732l57 -78l-192 -121l-41 56z" />
    <glyph glyph-name="Uogonek" unicode="&#x172;" horiz-adv-x="688" 
d="M344 -13q-267 0 -267 266v447h118v-448q0 -74 36 -121t113 -47t113 47t36 121v448h118v-447q0 -175 -126 -242q-106 -57 -106 -110q0 -36 43 -36q33 0 59 39l46 -42q-50 -64 -119 -64q-47 0 -79 23t-32 70q0 57 52 96h-5z" />
    <glyph glyph-name="uogonek" unicode="&#x173;" horiz-adv-x="560" 
d="M488 474v-474q-101 -58 -101 -99q0 -36 44 -36q32 0 58 39l46 -42q-48 -64 -119 -64q-46 0 -78.5 23t-32.5 70q0 34 18.5 58.5t56.5 50.5v71q-50 -84 -147 -84q-71 0 -118 41.5t-47 117.5v328h113v-300q0 -48 24.5 -71t61.5 -23q44 0 76 38t32 105v251h113z" />
    <glyph glyph-name="Wcircumflex" unicode="&#x174;" horiz-adv-x="926" 
d="M801 700h110l-186 -700h-130q-98 386 -128 519h-3q-13 -59 -46.5 -189t-59.5 -230l-27 -100h-130l-185 700h120q107 -419 134 -555h2q13 60 48 199t64 248l28 108h111q111 -428 137 -555h3q12 56 46.5 195t62.5 250zM309 797l113 115h85l115 -115l-54 -52l-104 101
l-101 -101z" />
    <glyph glyph-name="wcircumflex" unicode="&#x175;" horiz-adv-x="743" 
d="M223 578l115 128h74l115 -128l-55 -50l-98 106l-98 -106zM325 474h101q86 -294 100 -359h2q7 34 31.5 124t45.5 163l21 72h105l-145 -474h-118q-90 321 -97 350l-96 -350h-118l-145 474h112q85 -285 98 -359h2q7 31 32 120.5t46.5 164t22.5 74.5z" />
    <glyph glyph-name="Ycircumflex" unicode="&#x176;" horiz-adv-x="658" 
d="M269 0v300l-259 400h136l186 -292l186 292h130l-260 -400v-300h-119zM174 797l113 115h85l115 -115l-54 -52l-104 101l-101 -101z" />
    <glyph glyph-name="ycircumflex" unicode="&#x177;" horiz-adv-x="498" 
d="M231 -200h-111l78 199l-186 475h116q106 -289 125 -346h2l123 346h108zM100 578l115 128h74l115 -128l-55 -50l-98 106l-98 -106z" />
    <glyph glyph-name="Ydieresis" unicode="&#x178;" horiz-adv-x="658" 
d="M269 0v300l-259 400h136l186 -292l186 292h130l-260 -400v-300h-119zM368 830q0 27 18.5 45t46.5 18t46.5 -18t18.5 -45t-18.5 -45t-46.5 -18t-46.5 18t-18.5 45zM164 830q0 27 18.5 45t46.5 18t46.5 -18t18.5 -45t-18.5 -45t-46.5 -18t-46.5 18t-18.5 45z" />
    <glyph glyph-name="Zacute" unicode="&#x179;" horiz-adv-x="620" 
d="M52 603v97h528v-87l-392 -516h389v-97h-536v85l393 518h-382zM403 939l50 -82l-202 -109l-37 60z" />
    <glyph glyph-name="zacute" unicode="&#x17a;" horiz-adv-x="458" 
d="M316 723l50 -82l-202 -109l-37 60zM44 388v86h377v-70l-247 -318h248v-86h-386v73l247 315h-239z" />
    <glyph glyph-name="Zdotaccent" unicode="&#x17b;" horiz-adv-x="620" 
d="M248 832q0 31 20 50.5t51 19.5t51 -19.5t20 -50.5q0 -30 -20 -49t-51 -19t-51 19t-20 49zM52 603v97h528v-87l-392 -516h389v-97h-536v85l393 518h-382z" />
    <glyph glyph-name="zdotaccent" unicode="&#x17c;" horiz-adv-x="458" 
d="M44 388v86h377v-70l-247 -318h248v-86h-386v73l247 315h-239zM163 612q0 31 19.5 50.5t50.5 19.5t50.5 -19.5t19.5 -50.5q0 -29 -19.5 -48.5t-50.5 -19.5t-50.5 19.5t-19.5 48.5z" />
    <glyph glyph-name="Zcaron" unicode="&#x17d;" horiz-adv-x="620" 
d="M274 751l-113 116l54 51l102 -101l102 101l54 -51l-114 -116h-85zM52 603v97h528v-87l-392 -516h389v-97h-536v85l393 518h-382z" />
    <glyph glyph-name="zcaron" unicode="&#x17e;" horiz-adv-x="458" 
d="M387 662l-116 -128h-73l-116 128l55 50l98 -106l98 106zM44 388v86h377v-70l-247 -318h248v-86h-386v73l247 315h-239z" />
    <glyph glyph-name="florin" unicode="&#x192;" horiz-adv-x="545" 
d="M134 340v84h90l13 123q9 85 59 126t119 41q67 0 115 -33l-56 -88q-28 26 -60 26q-59 0 -67 -82l-12 -113h110v-84h-118l-34 -325q-9 -86 -59.5 -126.5t-118.5 -40.5q-71 0 -115 33l55 88q28 -26 60 -26q59 0 67 79l33 318h-81z" />
    <glyph glyph-name="Scommaaccent" unicode="&#x218;" horiz-adv-x="638" 
d="M397 -140q0 -17 -4.5 -34.5t-15 -36.5t-33 -33t-53.5 -18l-16 43q19 0 38.5 13.5t19.5 31.5v3q-2 -1 -12 -1q-22 0 -39.5 17t-17.5 42q0 23 16.5 41.5t45.5 18.5q35 0 53 -25.5t18 -61.5zM183 519q0 -48 35.5 -71t128.5 -38q126 -21 185.5 -68t59.5 -140q0 -97 -74 -156
t-195 -59q-125 0 -199 60.5t-78 150.5l117 18q5 -58 44.5 -96t115.5 -38q68 0 107.5 29.5t39.5 83.5q0 48 -36 74t-126 39q-121 18 -183.5 64t-62.5 137q0 96 70 150t184 54q107 0 177 -50t86 -138l-119 -27q-18 120 -147 120q-64 0 -97 -26.5t-33 -72.5z" />
    <glyph glyph-name="scommaaccent" unicode="&#x219;" horiz-adv-x="478" 
d="M311 -140q0 -17 -4.5 -34.5t-15 -36.5t-33 -33t-53.5 -18l-16 43q19 0 38.5 13.5t19.5 31.5v3q-2 -1 -12 -1q-22 0 -39.5 17t-17.5 42q0 23 16.5 41.5t45.5 18.5q35 0 53 -25.5t18 -61.5zM158 348q0 -29 24 -42t74 -21q41 -6 71.5 -15t58.5 -25t42.5 -42.5t14.5 -62.5
q0 -71 -55.5 -112t-148.5 -41q-89 0 -144.5 37t-63.5 106l110 16q7 -76 99 -76q41 0 65 15.5t24 46.5q0 28 -22.5 41.5t-82.5 22.5q-88 13 -134 46t-46 98q0 71 56.5 109t138.5 38q79 0 133 -35t64 -95l-110 -23q-9 71 -89 71q-34 0 -56.5 -15t-22.5 -42z" />
    <glyph glyph-name="dotlessj" unicode="&#x237;" horiz-adv-x="261" 
d="M189 474v-522q0 -85 -50 -125.5t-117 -40.5q-62 0 -116 32l47 88q33 -24 63 -24q60 0 60 77v515h113z" />
    <glyph glyph-name="circumflex" unicode="&#x2c6;" 
d="M148 578l115 128h74l115 -128l-55 -50l-98 106l-98 -106z" />
    <glyph glyph-name="caron" unicode="&#x2c7;" 
d="M452 662l-116 -128h-73l-116 128l55 50l98 -106l98 106z" />
    <glyph glyph-name="breve" unicode="&#x2d8;" 
d="M138 664l83 24q5 -29 26.5 -49.5t52.5 -20.5t52.5 20.5t26.5 49.5l83 -24q-12 -53 -56 -86t-106 -33t-106 33t-56 86z" />
    <glyph glyph-name="dotaccent" unicode="&#x2d9;" 
d="M230 612q0 31 19.5 50.5t50.5 19.5t50.5 -19.5t19.5 -50.5q0 -29 -19.5 -48.5t-50.5 -19.5t-50.5 19.5t-19.5 48.5z" />
    <glyph glyph-name="ring" unicode="&#x2da;" 
d="M194 629q0 44 29.5 72t76.5 28t76.5 -28t29.5 -72q0 -43 -29.5 -71.5t-76.5 -28.5t-76.5 28.5t-29.5 71.5zM254 629q0 -19 13 -32.5t33 -13.5t33 13.5t13 32.5q0 20 -13 32.5t-33 12.5t-33 -12.5t-13 -32.5z" />
    <glyph glyph-name="ogonek" unicode="&#x2db;" 
d="M269 -99q0 -36 43 -36q33 0 59 39l46 -42q-50 -64 -119 -64q-47 0 -79 23t-32 70q0 35 18 60t53 49h112q-101 -53 -101 -99z" />
    <glyph glyph-name="tilde" unicode="&#x2dc;" 
d="M231 675q39 0 81 -26.5t61 -26.5t33.5 12t19.5 24l6 13l56 -49q-1 -3 -4 -8t-13.5 -18t-23 -22.5t-33.5 -17.5t-45 -8q-38 0 -79.5 26.5t-61.5 26.5q-19 0 -34 -12t-20 -24l-5 -12l-56 49q1 3 4 8t13 17.5t22.5 22t33.5 17.5t45 8z" />
    <glyph glyph-name="hungarumlaut" unicode="&#x2dd;" 
d="M474 732l56 -78l-192 -121l-40 56zM240 732l57 -78l-192 -121l-41 56z" />
    <glyph glyph-name="uni0312" unicode="&#x312;" 
d="M241 616q0 17 4.5 34.5t15 36.5t33 33t53.5 18l16 -43q-20 0 -39.5 -13.5t-19.5 -31.5v-3q1 0 5 0.5t7 0.5q23 0 40 -17t17 -42q0 -24 -16 -42t-46 -18q-34 0 -52 25.5t-18 61.5z" />
    <glyph glyph-name="pi" unicode="&#x3c0;" horiz-adv-x="592" 
d="M526 474v-86h-69v-260q0 -52 39 -52q21 0 45 15l26 -85q-38 -19 -90 -19q-123 0 -123 136v265h-143v-388h-103v388h-69v86h487z" />
    <glyph glyph-name="pi" unicode="&#x3d6;" horiz-adv-x="592" 
d="M526 474v-86h-69v-260q0 -52 39 -52q21 0 45 15l26 -85q-38 -19 -90 -19q-123 0 -123 136v265h-143v-388h-103v388h-69v86h487z" />
    <glyph glyph-name="Wgrave" unicode="&#x1e80;" horiz-adv-x="926" 
d="M541 748l-202 109l50 82l189 -131zM801 700h110l-186 -700h-130q-98 386 -128 519h-3q-13 -59 -46.5 -189t-59.5 -230l-27 -100h-130l-185 700h120q107 -419 134 -555h2q13 60 48 199t64 248l28 108h111q111 -428 137 -555h3q12 56 46.5 195t62.5 250z" />
    <glyph glyph-name="wgrave" unicode="&#x1e81;" horiz-adv-x="743" 
d="M325 474h101q86 -294 100 -359h2q7 34 31.5 124t45.5 163l21 72h105l-145 -474h-118q-90 321 -97 350l-96 -350h-118l-145 474h112q85 -285 98 -359h2q7 31 32 120.5t46.5 164t22.5 74.5zM448 532l-202 109l50 82l189 -131z" />
    <glyph glyph-name="Wacute" unicode="&#x1e82;" horiz-adv-x="926" 
d="M541 939l50 -82l-202 -109l-37 60zM801 700h110l-186 -700h-130q-98 386 -128 519h-3q-13 -59 -46.5 -189t-59.5 -230l-27 -100h-130l-185 700h120q107 -419 134 -555h2q13 60 48 199t64 248l28 108h111q111 -428 137 -555h3q12 56 46.5 195t62.5 250z" />
    <glyph glyph-name="wacute" unicode="&#x1e83;" horiz-adv-x="743" 
d="M452 723l50 -82l-202 -109l-37 60zM325 474h101q86 -294 100 -359h2q7 34 31.5 124t45.5 163l21 72h105l-145 -474h-118q-90 321 -97 350l-96 -350h-118l-145 474h112q85 -285 98 -359h2q7 31 32 120.5t46.5 164t22.5 74.5z" />
    <glyph glyph-name="Wdieresis" unicode="&#x1e84;" horiz-adv-x="926" 
d="M502 830q0 27 18.5 45t46.5 18t46.5 -18t18.5 -45t-18.5 -45t-46.5 -18t-46.5 18t-18.5 45zM298 830q0 27 18.5 45t46.5 18t46.5 -18t18.5 -45t-18.5 -45t-46.5 -18t-46.5 18t-18.5 45zM801 700h110l-186 -700h-130q-98 386 -128 519h-3q-13 -59 -46.5 -189t-59.5 -230
l-27 -100h-130l-185 700h120q107 -419 134 -555h2q13 60 48 199t64 248l28 108h111q111 -428 137 -555h3q12 56 46.5 195t62.5 250z" />
    <glyph glyph-name="wdieresis" unicode="&#x1e85;" horiz-adv-x="743" 
d="M413 607q0 28 18 45.5t47 17.5t47 -17.5t18 -45.5q0 -27 -18.5 -45t-46.5 -18t-46.5 18t-18.5 45zM209 607q0 28 18 45.5t47 17.5t47 -17.5t18 -45.5q0 -27 -18.5 -45t-46.5 -18t-46.5 18t-18.5 45zM325 474h101q86 -294 100 -359h2q7 34 31.5 124t45.5 163l21 72h105
l-145 -474h-118q-90 321 -97 350l-96 -350h-118l-145 474h112q85 -285 98 -359h2q7 31 32 120.5t46.5 164t22.5 74.5z" />
    <glyph glyph-name="figuredash" unicode="&#x2012;" 
d="M57 245v86h486v-86h-486z" />
    <glyph glyph-name="endash" unicode="&#x2013;" horiz-adv-x="500" 
d="M57 245v86h386v-86h-386z" />
    <glyph glyph-name="emdash" unicode="&#x2014;" horiz-adv-x="870" 
d="M57 245v86h756v-86h-756z" />
    <glyph glyph-name="uni2015" unicode="&#x2015;" horiz-adv-x="1200" 
d="M57 331h1086v-86h-1086v86z" />
    <glyph glyph-name="doublebar" unicode="&#x2016;" horiz-adv-x="444" 
d="M260 -169v966h97v-966h-97zM87 -169v966h96v-966h-96z" />
    <glyph glyph-name="quoteleft" unicode="&#x2018;" horiz-adv-x="237" 
d="M42 559q0 52 28 98t97 57l19 -51q-23 0 -46.5 -19t-23.5 -43v-6q5 1 15 1q27 0 47 -20t20 -50q0 -28 -19 -49.5t-54 -21.5q-41 0 -62 30t-21 74z" />
    <glyph glyph-name="quoteright" unicode="&#x2019;" horiz-adv-x="238" 
d="M196 609q0 -52 -28 -98t-98 -57l-18 51q23 1 46 19.5t23 43.5v6q-5 -2 -15 -2q-26 0 -46 20.5t-20 49.5q0 28 18.5 49.5t53.5 21.5q42 0 63 -30t21 -74z" />
    <glyph glyph-name="quotesinglbase" unicode="&#x201a;" horiz-adv-x="238" 
d="M196 32q0 -52 -28.5 -97.5t-97.5 -56.5l-19 51q24 0 47 18.5t23 43.5v6q-6 -2 -15 -2q-26 0 -46.5 20.5t-20.5 49.5q0 28 19 49.5t54 21.5q42 0 63 -30t21 -74z" />
    <glyph glyph-name="reversequoteleft" unicode="&#x201b;" horiz-adv-x="237" 
d="M42 609q0 44 20.5 74t62.5 30q35 0 54 -21.5t19 -49.5q0 -29 -20 -49.5t-47 -20.5q-10 0 -15 2v-6q0 -25 23.5 -43.5t46.5 -19.5l-19 -51q-69 11 -97 57t-28 98z" />
    <glyph glyph-name="quotedblleft" unicode="&#x201c;" horiz-adv-x="429" 
d="M42 559q0 52 28 98t97 57l19 -51q-23 0 -46.5 -19t-23.5 -43v-6q5 1 15 1q27 0 47 -20t20 -50q0 -28 -19 -49.5t-54 -21.5q-41 0 -62 30t-21 74zM233 559q0 52 28 98t97 57l19 -51q-23 0 -46.5 -19t-23.5 -43v-6q5 1 15 1q27 0 47 -20t20 -50q0 -28 -19 -49.5t-54 -21.5
q-41 0 -62 30t-21 74z" />
    <glyph glyph-name="quotedblright" unicode="&#x201d;" horiz-adv-x="429" 
d="M196 609q0 -52 -28 -98t-98 -57l-18 51q23 1 46 19.5t23 43.5v6q-5 -2 -15 -2q-26 0 -46 20.5t-20 49.5q0 28 18.5 49.5t53.5 21.5q42 0 63 -30t21 -74zM387 609q0 -52 -28 -98t-98 -57l-18 51q23 1 46 19.5t23 43.5v6q-5 -2 -15 -2q-26 0 -46 20.5t-20 49.5
q0 28 18.5 49.5t53.5 21.5q42 0 63 -30t21 -74z" />
    <glyph glyph-name="quotedblbase" unicode="&#x201e;" horiz-adv-x="429" 
d="M196 32q0 -52 -28.5 -97.5t-97.5 -56.5l-19 51q24 0 47 18.5t23 43.5v6q-6 -2 -15 -2q-26 0 -46.5 20.5t-20.5 49.5q0 28 19 49.5t54 21.5q42 0 63 -30t21 -74zM388 32q0 -52 -28.5 -97.5t-97.5 -56.5l-19 51q24 0 47 18.5t23 43.5v6q-6 -2 -15 -2q-26 0 -46.5 20.5
t-20.5 49.5q0 28 19 49.5t54 21.5q42 0 63 -30t21 -74z" />
    <glyph glyph-name="reversequotedblleft" unicode="&#x201f;" horiz-adv-x="429" 
d="M42 609q0 44 20.5 74t62.5 30q35 0 54 -21.5t19 -49.5q0 -29 -20 -49.5t-47 -20.5q-10 0 -15 2v-6q0 -25 23.5 -43.5t46.5 -19.5l-19 -51q-69 11 -97 57t-28 98zM233 609q0 44 20.5 74t62.5 30q35 0 54 -21.5t19 -49.5q0 -29 -20 -49.5t-47 -20.5q-10 0 -15 2v-6
q0 -25 23.5 -43.5t46.5 -19.5l-19 -51q-69 11 -97 57t-28 98z" />
    <glyph glyph-name="dagger" unicode="&#x2020;" horiz-adv-x="490" 
d="M28 386v95h163v219h108v-219h163v-95h-163v-508h-108v508h-163z" />
    <glyph glyph-name="daggerdbl" unicode="&#x2021;" horiz-adv-x="490" 
d="M28 105v95h163v197h-163v95h163v208h108v-208h163v-95h-163v-197h163v-95h-163v-227h-108v227h-163z" />
    <glyph glyph-name="bullet" unicode="&#x2022;" horiz-adv-x="371" 
d="M58 326q0 54 36 89t91 35q56 0 92 -35t36 -89q0 -53 -36 -87.5t-92 -34.5q-55 0 -91 34.5t-36 87.5z" />
    <glyph glyph-name="ellipsis" unicode="&#x2026;" horiz-adv-x="808" 
d="M604 60q0 30 20 50t51 20t51 -20t20 -50q0 -29 -20 -48.5t-51 -19.5t-51 19.5t-20 48.5zM333 60q0 30 20 50t51 20t51 -20t20 -50q0 -29 -20 -48.5t-51 -19.5t-51 19.5t-20 48.5zM62 60q0 30 20 50t51 20t51 -20t20 -50q0 -29 -20 -48.5t-51 -19.5t-51 19.5t-20 48.5z
" />
    <glyph glyph-name="perthousand" unicode="&#x2030;" horiz-adv-x="1275" 
d="M1236 171q0 -74 -40 -129t-126 -55q-45 0 -78.5 16.5t-52 44.5t-27 59t-8.5 64q0 34 8.5 65t27 59t52 44.5t78.5 16.5q86 0 126 -55.5t40 -129.5zM993 171q0 -51 19.5 -81.5t57.5 -30.5q39 0 58.5 30.5t19.5 81.5q0 52 -19.5 82.5t-58.5 30.5q-38 0 -57.5 -30.5
t-19.5 -82.5zM273 -13h-95l437 726h96zM370 515q0 -74 -40 -129.5t-126 -55.5q-36 0 -65 11.5t-47.5 29.5t-30.5 42.5t-17 49.5t-5 52q0 33 8.5 64t26.5 59t51.5 44.5t78.5 16.5q86 0 126 -55t40 -129zM127 515q0 -52 19.5 -82.5t57.5 -30.5q39 0 58.5 30.5t19.5 82.5
q0 51 -19.5 81.5t-58.5 30.5q-38 0 -57.5 -30.5t-19.5 -81.5zM841 171q0 -74 -40 -129t-126 -55q-45 0 -78.5 16.5t-52 44.5t-27 59t-8.5 64q0 34 8.5 65t27 59t52 44.5t78.5 16.5q86 0 126 -55.5t40 -129.5zM598 171q0 -51 19.5 -81.5t57.5 -30.5q39 0 58.5 30.5t19.5 81.5
q0 52 -19.5 82.5t-58.5 30.5q-38 0 -57.5 -30.5t-19.5 -82.5z" />
    <glyph glyph-name="guilsinglleft" unicode="&#x2039;" horiz-adv-x="310" 
d="M209 32l-179 224l179 224l67 -50l-129 -174l129 -173z" />
    <glyph glyph-name="guilsinglright" unicode="&#x203a;" horiz-adv-x="310" 
d="M101 480l179 -224l-179 -224l-67 51l129 173l-129 174z" />
    <glyph glyph-name="fraction" unicode="&#x2044;" horiz-adv-x="273" 
d="M-36 -13h-94l437 726h96z" />
    <glyph glyph-name="uni2070" unicode="&#x2070;" horiz-adv-x="396" 
d="M44 512q0 88 37.5 142.5t116.5 54.5t116.5 -54.5t37.5 -142.5t-37.5 -142.5t-116.5 -54.5t-116.5 54.5t-37.5 142.5zM264 512q0 125 -66 125t-66 -125t66 -125t66 125z" />
    <glyph glyph-name="uni2074" unicode="&#x2074;" horiz-adv-x="376" 
d="M27 399v61l154 238h108v-233h62l-10 -66h-52v-75h-82v75h-180zM103 465h105v161h-2z" />
    <glyph glyph-name="uni2075" unicode="&#x2075;" horiz-adv-x="361" 
d="M41 412l78 20q2 -21 17.5 -34t40.5 -13q28 0 45.5 17.5t17.5 44.5t-15.5 43.5t-43.5 16.5q-35 0 -57 -31l-72 13l24 209h228l-12 -70h-155l-11 -83q26 30 74 30q58 0 91.5 -37t33.5 -90q0 -57 -41 -95t-107 -38q-60 0 -96 28.5t-40 68.5z" />
    <glyph glyph-name="uni2076" unicode="&#x2076;" horiz-adv-x="376" 
d="M200 641q-37 0 -56.5 -31t-21.5 -82q27 44 90 44q61 0 95 -38t34 -89q0 -54 -38.5 -92t-105.5 -38q-153 0 -153 192q0 98 41 150t116 52q55 0 87.5 -26.5t43.5 -68.5l-80 -9q-10 36 -52 36zM198 507q-29 0 -46 -17.5t-17 -44.5t17 -44.5t45 -17.5q26 0 44 16.5t18 45.5
q0 27 -16.5 44.5t-44.5 17.5z" />
    <glyph glyph-name="uni2077" unicode="&#x2077;" horiz-adv-x="330" 
d="M24 628l13 70h270v-62q-128 -145 -129 -312h-87q0 158 120 304h-187z" />
    <glyph glyph-name="uni2078" unicode="&#x2078;" horiz-adv-x="371" 
d="M185 315q-67 0 -105.5 33t-38.5 78q0 37 21 62t52 32q-61 26 -61 85q0 42 35.5 73t96.5 31q62 0 97.5 -31t35.5 -73q0 -59 -61 -85q30 -7 51.5 -32t21.5 -62q0 -45 -38.5 -78t-106.5 -33zM132 600q0 -22 15 -34.5t38 -12.5q24 0 39 12.5t15 34.5q0 21 -15.5 33t-38.5 12
t-38 -12t-15 -33zM185 379q30 0 47 14.5t17 37.5q0 25 -17.5 39.5t-46.5 14.5q-28 0 -45.5 -14.5t-17.5 -39.5q0 -23 17 -37.5t46 -14.5z" />
    <glyph glyph-name="uni2079" unicode="&#x2079;" horiz-adv-x="376" 
d="M176 383q37 0 56.5 31t21.5 82q-27 -44 -90 -44q-61 0 -95 38t-34 89q0 54 38.5 92t105.5 38q153 0 153 -192q0 -98 -41 -150t-116 -52q-55 0 -87.5 26.5t-43.5 68.5l80 9q10 -36 52 -36zM178 517q29 0 46 17.5t17 44.5t-17 44.5t-45 17.5q-26 0 -44 -16.5t-18 -45.5
q0 -27 16.5 -44.5t44.5 -17.5z" />
    <glyph glyph-name="uni207A" unicode="&#x207a;" horiz-adv-x="366" 
d="M36 483v77h108v108h78v-108h108v-77h-108v-111h-78v111h-108z" />
    <glyph glyph-name="uni207B" unicode="&#x207b;" horiz-adv-x="373" 
d="M45 483v77h283v-77h-283z" />
    <glyph glyph-name="uni207C" unicode="&#x207c;" horiz-adv-x="373" 
d="M45 553v77h283v-77h-283zM45 412v77h283v-77h-283z" />
    <glyph glyph-name="uni207D" unicode="&#x207d;" horiz-adv-x="228" 
d="M45 501q0 71 33 134.5t86 94.5l46 -36q-85 -72 -85 -193t85 -193l-46 -36q-53 31 -86 95t-33 134z" />
    <glyph glyph-name="uni207E" unicode="&#x207e;" horiz-adv-x="228" 
d="M183 501q0 -70 -33 -134t-86 -95l-46 36q86 72 86 193t-86 193l46 36q53 -31 86 -94.5t33 -134.5z" />
    <glyph glyph-name="n.superior" unicode="&#x207f;" horiz-adv-x="393" 
d="M57 288v301h79v-46q30 55 95 55q47 0 77 -26.5t30 -75.5v-208h-82v186q0 29 -15 43t-37 14q-27 0 -46 -22.5t-19 -62.5v-158h-82z" />
    <glyph glyph-name="uni2080" unicode="&#x2080;" horiz-adv-x="396" 
d="M44 188q0 88 37.5 142.5t116.5 54.5t116.5 -54.5t37.5 -142.5t-37.5 -142.5t-116.5 -54.5t-116.5 54.5t-37.5 142.5zM264 188q0 125 -66 125t-66 -125t66 -125t66 125z" />
    <glyph glyph-name="uni2081" unicode="&#x2081;" horiz-adv-x="269" 
d="M125 376h77v-376h-88v286q-30 -22 -78 -24l-17 68q74 8 106 46z" />
    <glyph glyph-name="uni2082" unicode="&#x2082;" horiz-adv-x="372" 
d="M47 0v65q90 67 124 96q67 55 67 102q0 23 -14 37t-38 14q-28 0 -44 -20t-19 -48l-83 14q11 57 48 91t100 34q65 0 101 -35t36 -85q0 -72 -85 -140q-35 -29 -78 -55h166v-70h-281z" />
    <glyph glyph-name="uni2083" unicode="&#x2083;" horiz-adv-x="366" 
d="M123 267l-80 19q29 99 136 99q61 0 98.5 -31t37.5 -80q0 -62 -57 -81q28 -5 47.5 -29t19.5 -56q0 -49 -39 -82.5t-106 -33.5q-68 0 -104.5 31.5t-39.5 72.5q67 17 81 22q6 -56 62 -56q29 0 43 14t14 34q0 23 -17.5 36t-47.5 13l-18 -1v68q7 -1 16 -1q58 0 58 46
q0 21 -14 32.5t-35 11.5q-23 0 -38 -13.5t-17 -34.5z" />
    <glyph glyph-name="uni2084" unicode="&#x2084;" horiz-adv-x="376" 
d="M27 75v61l154 238h108v-233h62l-10 -66h-52v-75h-82v75h-180zM103 141h105v161h-2z" />
    <glyph glyph-name="uni2085" unicode="&#x2085;" horiz-adv-x="361" 
d="M41 88l78 20q2 -21 17.5 -34t40.5 -13q28 0 45.5 17.5t17.5 44.5t-15.5 43.5t-43.5 16.5q-35 0 -57 -31l-72 13l24 209h228l-12 -70h-155l-11 -83q26 30 74 30q58 0 91.5 -37t33.5 -90q0 -57 -41 -95t-107 -38q-60 0 -96 28.5t-40 68.5z" />
    <glyph glyph-name="uni2086" unicode="&#x2086;" horiz-adv-x="376" 
d="M200 317q-37 0 -56.5 -31t-21.5 -82q27 44 90 44q61 0 95 -38t34 -89q0 -54 -38.5 -92t-105.5 -38q-153 0 -153 192q0 98 41 150t116 52q55 0 87.5 -26.5t43.5 -68.5l-80 -9q-10 36 -52 36zM198 183q-29 0 -46 -17.5t-17 -44.5t17 -44.5t45 -17.5q26 0 44 16.5t18 45.5
q0 27 -16.5 44.5t-44.5 17.5z" />
    <glyph glyph-name="uni2087" unicode="&#x2087;" horiz-adv-x="330" 
d="M24 304l13 70h270v-62q-128 -145 -129 -312h-87q0 158 120 304h-187z" />
    <glyph glyph-name="uni2088" unicode="&#x2088;" horiz-adv-x="371" 
d="M185 -9q-67 0 -105.5 33t-38.5 78q0 37 21 62t52 32q-61 26 -61 85q0 42 35.5 73t96.5 31q62 0 97.5 -31t35.5 -73q0 -59 -61 -85q30 -7 51.5 -32t21.5 -62q0 -45 -38.5 -78t-106.5 -33zM132 276q0 -22 15 -34.5t38 -12.5q24 0 39 12.5t15 34.5q0 21 -15.5 33t-38.5 12
t-38 -12t-15 -33zM185 55q30 0 47 14.5t17 37.5q0 25 -17.5 39.5t-46.5 14.5q-28 0 -45.5 -14.5t-17.5 -39.5q0 -23 17 -37.5t46 -14.5z" />
    <glyph glyph-name="uni2089" unicode="&#x2089;" horiz-adv-x="376" 
d="M176 59q37 0 56.5 31t21.5 82q-27 -44 -90 -44q-61 0 -95 38t-34 89q0 54 38.5 92t105.5 38q153 0 153 -192q0 -98 -41 -150t-116 -52q-55 0 -87.5 26.5t-43.5 68.5l80 9q10 -36 52 -36zM178 193q29 0 46 17.5t17 44.5t-17 44.5t-45 17.5q-26 0 -44 -16.5t-18 -45.5
q0 -27 16.5 -44.5t44.5 -17.5z" />
    <glyph glyph-name="uni208A" unicode="&#x208a;" horiz-adv-x="366" 
d="M36 159v77h108v108h78v-108h108v-77h-108v-111h-78v111h-108z" />
    <glyph glyph-name="uni208B" unicode="&#x208b;" horiz-adv-x="373" 
d="M45 159v77h283v-77h-283z" />
    <glyph glyph-name="uni208C" unicode="&#x208c;" horiz-adv-x="373" 
d="M45 229v77h283v-77h-283zM45 88v77h283v-77h-283z" />
    <glyph glyph-name="uni208D" unicode="&#x208d;" horiz-adv-x="228" 
d="M45 177q0 71 33 134.5t86 94.5l46 -36q-85 -72 -85 -193t85 -193l-46 -36q-53 31 -86 95t-33 134z" />
    <glyph glyph-name="uni208E" unicode="&#x208e;" horiz-adv-x="228" 
d="M183 177q0 -70 -33 -134t-86 -95l-46 36q86 72 86 193t-86 193l46 36q53 -31 86 -94.5t33 -134.5z" />
    <glyph glyph-name="Euro" unicode="&#x20ac;" horiz-adv-x="642" 
d="M91 340q0 25 1 37h-65v73h76q25 114 102.5 181t192.5 67q139 0 217 -100l-78 -63q-53 72 -141 72q-62 0 -110.5 -40t-68.5 -117h227v-73h-238q-1 -11 -1 -32q0 -22 1 -33h238v-73h-226q19 -74 64 -117.5t114 -43.5q84 0 142 71l77 -63q-84 -99 -219 -99q-121 0 -196 68.5
t-99 183.5h-74v73h64v28z" />
    <glyph glyph-name="servicemark" unicode="&#x2120;" horiz-adv-x="716" 
d="M120 624q0 -17 15 -25t51 -16q46 -9 72.5 -27.5t26.5 -56.5q0 -46 -33.5 -69.5t-84.5 -23.5q-54 0 -87.5 23t-36.5 60l68 11q5 -41 57 -41q48 0 48 35q0 17 -15.5 25t-56.5 15q-93 16 -93 84q0 43 31 65t81 22q46 0 77.5 -19t40.5 -57l-66 -15q-9 39 -54 39
q-41 0 -41 -29zM528 411h-60q-4 13 -19.5 57.5t-29 84.5t-19.5 63h-1v-205h-61v289h90q65 -187 72 -215l67 215h90v-289h-59v205h-1q-6 -22 -20.5 -64.5t-30 -87t-18.5 -53.5z" />
    <glyph glyph-name="trademark" unicode="&#x2122;" horiz-adv-x="689" 
d="M501 411h-60q-4 13 -19.5 57.5t-29 84.5t-19.5 63h-1v-205h-61v289h90q65 -187 72 -215l67 215h90v-289h-59v205h-1q-6 -22 -20.5 -64.5t-30 -87t-18.5 -53.5zM28 644v56h233v-56h-83v-233h-68v233h-82z" />
    <glyph glyph-name="estimated" unicode="&#x212e;" horiz-adv-x="770" 
d="M617 194l77 -30q-42 -88 -115.5 -133t-190.5 -45q-163 0 -250.5 98.5t-87.5 266.5q0 175 91 269t246 94q163 0 248 -101.5t85 -261.5v-28h-553q5 -130 62 -203.5t160 -73.5q173 0 228 148zM388 654q-202 0 -221 -270h435q-9 127 -62 198.5t-152 71.5z" />
    <glyph glyph-name="uni2153" unicode="&#x2153;" horiz-adv-x="802" 
d="M559 267l-80 19q29 99 136 99q61 0 98.5 -31t37.5 -80q0 -62 -57 -81q28 -5 47.5 -29t19.5 -56q0 -49 -39 -82.5t-106 -33.5q-68 0 -104.5 31.5t-39.5 72.5q67 17 81 22q6 -56 62 -56q29 0 43 14t14 34q0 23 -17.5 36t-47.5 13l-18 -1v68q7 -1 16 -1q58 0 58 46
q0 21 -14 32.5t-35 11.5q-23 0 -38 -13.5t-17 -34.5zM125 700h77v-376h-88v286q-30 -22 -78 -24l-17 68q74 8 106 46zM194 -13h-94l437 726h96z" />
    <glyph glyph-name="uni2154" unicode="&#x2154;" horiz-adv-x="895" 
d="M47 324v65q90 67 124 96q67 55 67 102q0 23 -14 37t-38 14q-28 0 -44 -20t-19 -48l-83 14q11 57 48 91t100 34q65 0 101 -35t36 -85q0 -72 -85 -140q-35 -29 -78 -55h166v-70h-281zM652 267l-80 19q29 99 136 99q61 0 98.5 -31t37.5 -80q0 -62 -57 -81q28 -5 47.5 -29
t19.5 -56q0 -49 -39 -82.5t-106 -33.5q-68 0 -104.5 31.5t-39.5 72.5q67 17 81 22q6 -56 62 -56q29 0 43 14t14 34q0 23 -17.5 36t-47.5 13l-18 -1v68q7 -1 16 -1q58 0 58 46q0 21 -14 32.5t-35 11.5q-23 0 -38 -13.5t-17 -34.5zM287 -13h-94l437 726h96z" />
    <glyph glyph-name="uni2155" unicode="&#x2155;" horiz-adv-x="797" 
d="M478 88l78 20q2 -21 17.5 -34t40.5 -13q28 0 45.5 17.5t17.5 44.5t-15.5 43.5t-43.5 16.5q-35 0 -57 -31l-72 13l24 209h228l-12 -70h-155l-11 -83q26 30 74 30q58 0 91.5 -37t33.5 -90q0 -57 -41 -95t-107 -38q-60 0 -96 28.5t-40 68.5zM125 700h77v-376h-88v286
q-30 -22 -78 -24l-17 68q74 8 106 46zM194 -13h-94l437 726h96z" />
    <glyph glyph-name="uni2156" unicode="&#x2156;" horiz-adv-x="890" 
d="M571 88l78 20q2 -21 17.5 -34t40.5 -13q28 0 45.5 17.5t17.5 44.5t-15.5 43.5t-43.5 16.5q-35 0 -57 -31l-72 13l24 209h228l-12 -70h-155l-11 -83q26 30 74 30q58 0 91.5 -37t33.5 -90q0 -57 -41 -95t-107 -38q-60 0 -96 28.5t-40 68.5zM47 324v65q90 67 124 96
q67 55 67 102q0 23 -14 37t-38 14q-28 0 -44 -20t-19 -48l-83 14q11 57 48 91t100 34q65 0 101 -35t36 -85q0 -72 -85 -140q-35 -29 -78 -55h166v-70h-281zM287 -13h-94l437 726h96z" />
    <glyph glyph-name="uni2157" unicode="&#x2157;" horiz-adv-x="871" 
d="M552 88l78 20q2 -21 17.5 -34t40.5 -13q28 0 45.5 17.5t17.5 44.5t-15.5 43.5t-43.5 16.5q-35 0 -57 -31l-72 13l24 209h228l-12 -70h-155l-11 -83q26 30 74 30q58 0 91.5 -37t33.5 -90q0 -57 -41 -95t-107 -38q-60 0 -96 28.5t-40 68.5zM123 591l-80 19q29 99 136 99
q61 0 98.5 -31t37.5 -80q0 -62 -57 -81q28 -5 47.5 -29t19.5 -56q0 -49 -39 -82.5t-106 -33.5q-68 0 -104.5 31.5t-39.5 72.5q67 17 81 22q6 -56 62 -56q29 0 43 14t14 34q0 23 -17.5 36t-47.5 13l-18 -1v68q7 -1 16 -1q58 0 58 46q0 21 -14 32.5t-35 11.5q-23 0 -38 -13.5
t-17 -34.5zM268 -13h-94l437 726h96z" />
    <glyph glyph-name="uni2158" unicode="&#x2158;" horiz-adv-x="897" 
d="M27 399v61l154 238h108v-233h62l-10 -66h-52v-75h-82v75h-180zM103 465h105v161h-2zM578 88l78 20q2 -21 17.5 -34t40.5 -13q28 0 45.5 17.5t17.5 44.5t-15.5 43.5t-43.5 16.5q-35 0 -57 -31l-72 13l24 209h228l-12 -70h-155l-11 -83q26 30 74 30q58 0 91.5 -37t33.5 -90
q0 -57 -41 -95t-107 -38q-60 0 -96 28.5t-40 68.5zM294 -13h-94l437 726h96z" />
    <glyph glyph-name="uni2159" unicode="&#x2159;" horiz-adv-x="799" 
d="M623 317q-37 0 -56.5 -31t-21.5 -82q27 44 90 44q61 0 95 -38t34 -89q0 -54 -38.5 -92t-105.5 -38q-153 0 -153 192q0 98 41 150t116 52q55 0 87.5 -26.5t43.5 -68.5l-80 -9q-10 36 -52 36zM621 183q-29 0 -46 -17.5t-17 -44.5t17 -44.5t45 -17.5q26 0 44 16.5t18 45.5
q0 27 -16.5 44.5t-44.5 17.5zM125 700h77v-376h-88v286q-30 -22 -78 -24l-17 68q74 8 106 46zM194 -13h-94l437 726h96z" />
    <glyph glyph-name="uni215A" unicode="&#x215a;" horiz-adv-x="865" 
d="M689 317q-37 0 -56.5 -31t-21.5 -82q27 44 90 44q61 0 95 -38t34 -89q0 -54 -38.5 -92t-105.5 -38q-153 0 -153 192q0 98 41 150t116 52q55 0 87.5 -26.5t43.5 -68.5l-80 -9q-10 36 -52 36zM687 183q-29 0 -46 -17.5t-17 -44.5t17 -44.5t45 -17.5q26 0 44 16.5t18 45.5
q0 27 -16.5 44.5t-44.5 17.5zM41 412l78 20q2 -21 17.5 -34t40.5 -13q28 0 45.5 17.5t17.5 44.5t-15.5 43.5t-43.5 16.5q-35 0 -57 -31l-72 13l24 209h228l-12 -70h-155l-11 -83q26 30 74 30q58 0 91.5 -37t33.5 -90q0 -57 -41 -95t-107 -38q-60 0 -96 28.5t-40 68.5z
M260 -13h-94l437 726h96z" />
    <glyph glyph-name="uni215B" unicode="&#x215b;" horiz-adv-x="803" 
d="M125 700h77v-376h-88v286q-30 -22 -78 -24l-17 68q74 8 106 46zM617 -9q-67 0 -105.5 33t-38.5 78q0 37 21 62t52 32q-61 26 -61 85q0 42 35.5 73t96.5 31q62 0 97.5 -31t35.5 -73q0 -59 -61 -85q30 -7 51.5 -32t21.5 -62q0 -45 -38.5 -78t-106.5 -33zM564 276
q0 -22 15 -34.5t38 -12.5q24 0 39 12.5t15 34.5q0 21 -15.5 33t-38.5 12t-38 -12t-15 -33zM617 55q30 0 47 14.5t17 37.5q0 25 -17.5 39.5t-46.5 14.5q-28 0 -45.5 -14.5t-17.5 -39.5q0 -23 17 -37.5t46 -14.5zM194 -13h-94l437 726h96z" />
    <glyph glyph-name="uni215C" unicode="&#x215c;" horiz-adv-x="877" 
d="M123 591l-80 19q29 99 136 99q61 0 98.5 -31t37.5 -80q0 -62 -57 -81q28 -5 47.5 -29t19.5 -56q0 -49 -39 -82.5t-106 -33.5q-68 0 -104.5 31.5t-39.5 72.5q67 17 81 22q6 -56 62 -56q29 0 43 14t14 34q0 23 -17.5 36t-47.5 13l-18 -1v68q7 -1 16 -1q58 0 58 46
q0 21 -14 32.5t-35 11.5q-23 0 -38 -13.5t-17 -34.5zM691 -9q-67 0 -105.5 33t-38.5 78q0 37 21 62t52 32q-61 26 -61 85q0 42 35.5 73t96.5 31q62 0 97.5 -31t35.5 -73q0 -59 -61 -85q30 -7 51.5 -32t21.5 -62q0 -45 -38.5 -78t-106.5 -33zM638 276q0 -22 15 -34.5
t38 -12.5q24 0 39 12.5t15 34.5q0 21 -15.5 33t-38.5 12t-38 -12t-15 -33zM691 55q30 0 47 14.5t17 37.5q0 25 -17.5 39.5t-46.5 14.5q-28 0 -45.5 -14.5t-17.5 -39.5q0 -23 17 -37.5t46 -14.5zM268 -13h-94l437 726h96z" />
    <glyph glyph-name="uni215D" unicode="&#x215d;" horiz-adv-x="869" 
d="M41 412l78 20q2 -21 17.5 -34t40.5 -13q28 0 45.5 17.5t17.5 44.5t-15.5 43.5t-43.5 16.5q-35 0 -57 -31l-72 13l24 209h228l-12 -70h-155l-11 -83q26 30 74 30q58 0 91.5 -37t33.5 -90q0 -57 -41 -95t-107 -38q-60 0 -96 28.5t-40 68.5zM683 -9q-67 0 -105.5 33
t-38.5 78q0 37 21 62t52 32q-61 26 -61 85q0 42 35.5 73t96.5 31q62 0 97.5 -31t35.5 -73q0 -59 -61 -85q30 -7 51.5 -32t21.5 -62q0 -45 -38.5 -78t-106.5 -33zM630 276q0 -22 15 -34.5t38 -12.5q24 0 39 12.5t15 34.5q0 21 -15.5 33t-38.5 12t-38 -12t-15 -33zM683 55
q30 0 47 14.5t17 37.5q0 25 -17.5 39.5t-46.5 14.5q-28 0 -45.5 -14.5t-17.5 -39.5q0 -23 17 -37.5t46 -14.5zM260 -13h-94l437 726h96z" />
    <glyph glyph-name="uni215E" unicode="&#x215e;" horiz-adv-x="800" 
d="M24 628l13 70h270v-62q-128 -145 -129 -312h-87q0 158 120 304h-187zM614 -9q-67 0 -105.5 33t-38.5 78q0 37 21 62t52 32q-61 26 -61 85q0 42 35.5 73t96.5 31q62 0 97.5 -31t35.5 -73q0 -59 -61 -85q30 -7 51.5 -32t21.5 -62q0 -45 -38.5 -78t-106.5 -33zM561 276
q0 -22 15 -34.5t38 -12.5q24 0 39 12.5t15 34.5q0 21 -15.5 33t-38.5 12t-38 -12t-15 -33zM614 55q30 0 47 14.5t17 37.5q0 25 -17.5 39.5t-46.5 14.5q-28 0 -45.5 -14.5t-17.5 -39.5q0 -23 17 -37.5t46 -14.5zM191 -13h-94l437 726h96z" />
    <glyph glyph-name="uni215F" unicode="&#x215f;" horiz-adv-x="627" 
d="M125 700h77v-376h-88v286q-30 -22 -78 -24l-17 68q74 8 106 46zM194 -13h-94l437 726h96z" />
    <glyph glyph-name="arrowleft" unicode="&#x2190;" horiz-adv-x="850" 
d="M238 395h539v-92h-539l183 -184l-64 -64l-294 294l294 294l64 -64z" />
    <glyph glyph-name="arrowup" unicode="&#x2191;" horiz-adv-x="775" 
d="M434 539v-539h-93v539l-184 -182l-63 64l293 294l294 -294l-64 -64z" />
    <glyph glyph-name="arrowright" unicode="&#x2192;" horiz-adv-x="850" 
d="M73 395h539l-183 184l64 64l294 -294l-294 -294l-64 64l183 184h-539v92z" />
    <glyph glyph-name="arrowdown" unicode="&#x2193;" horiz-adv-x="775" 
d="M434 700v-539l183 182l64 -64l-294 -294l-293 294l63 64l184 -182v539h93z" />
    <glyph glyph-name="uni2196" unicode="&#x2196;" horiz-adv-x="750" 
d="M287 609l381 -382l-65 -65l-382 381v-259h-90v416h415v-91h-259z" />
    <glyph glyph-name="uni2197" unicode="&#x2197;" horiz-adv-x="750" 
d="M82 227l381 382h-259v91h415v-416h-90v259l-382 -381z" />
    <glyph glyph-name="uni2198" unicode="&#x2198;" horiz-adv-x="750" 
d="M463 91l-381 382l65 65l382 -381v259h90v-416h-415v91h259z" />
    <glyph glyph-name="uni2199" unicode="&#x2199;" horiz-adv-x="750" 
d="M668 473l-381 -382h259v-91h-415v416h90v-259l382 381z" />
    <glyph glyph-name="partialdiff" unicode="&#x2202;" horiz-adv-x="571" 
d="M164 563l-73 61q62 89 183 89t183.5 -89.5t62.5 -263.5q0 -187 -66.5 -279.5t-189.5 -92.5q-105 0 -162.5 62t-57.5 155t56 160.5t163 67.5q53 0 92.5 -19.5t59.5 -45.5q0 256 -144 256q-68 0 -107 -61zM267 345q-54 0 -81 -40t-27 -98q0 -60 28 -95t75 -35
q64 0 102.5 55t38.5 131q-14 34 -53.5 58t-82.5 24z" />
    <glyph glyph-name="increment" unicode="&#x2206;" horiz-adv-x="719" 
d="M426 700l251 -700h-634l253 700h130zM358 580l-170 -490h341z" />
    <glyph glyph-name="product" unicode="&#x220f;" horiz-adv-x="668" 
d="M75 0v700h518v-700h-114v606h-290v-606h-114z" />
    <glyph glyph-name="summation" unicode="&#x2211;" horiz-adv-x="555" 
d="M507 94v-94h-459v85l178 265l-178 265v85h459v-94h-328l172 -256l-172 -256h328z" />
    <glyph glyph-name="minus" unicode="&#x2212;" 
d="M52 279v91h496v-91h-496z" />
    <glyph glyph-name="radical" unicode="&#x221a;" horiz-adv-x="630" 
d="M51 305l-25 77l173 56l106 -316l205 578h105l-259 -700h-107l-116 332z" />
    <glyph glyph-name="infinity" unicode="&#x221e;" horiz-adv-x="791" 
d="M565 139q-51 0 -90 25t-80 81q-40 -55 -79.5 -80.5t-90.5 -25.5q-76 0 -128 48.5t-52 137.5t52 138t128 49q51 0 90.5 -25.5t79.5 -80.5q41 56 80 81t90 25q76 0 128.5 -49t52.5 -138t-52.5 -137.5t-128.5 -48.5zM445 325q53 -98 117 -98q38 0 61.5 25.5t23.5 72.5
q0 48 -23.5 73.5t-61.5 25.5q-64 0 -117 -99zM346 325q-53 99 -118 99q-37 0 -60.5 -25.5t-23.5 -73.5q0 -47 23.5 -72.5t60.5 -25.5q65 0 118 98z" />
    <glyph glyph-name="integral" unicode="&#x222b;" horiz-adv-x="362" 
d="M124 26v520q0 86 46 126.5t112 40.5q63 0 112 -34l-46 -86q-24 26 -56 26q-55 0 -55 -83v-520q0 -86 -46 -126.5t-112 -40.5t-111 34l45 86q26 -26 56 -26q55 0 55 83z" />
    <glyph glyph-name="approxequal" unicode="&#x2248;" 
d="M389 348q-50 0 -104.5 30t-78.5 30q-25 0 -45.5 -14t-28.5 -28l-7 -15l-73 57q2 4 5.5 10t17.5 22t30.5 28t44.5 22t59 10q51 0 105.5 -30t79.5 -30t45 14.5t27 29.5l8 14l73 -57q-2 -4 -5.5 -10t-17.5 -22t-30.5 -28.5t-44.5 -22.5t-60 -10zM389 152q-50 0 -104.5 30
t-78.5 30q-25 0 -45.5 -14t-28.5 -28l-7 -15l-73 57q2 4 5.5 10t17.5 22t30.5 28t44.5 22t59 10q51 0 105.5 -30t79.5 -30t45 14.5t27 29.5l8 14l73 -57q-2 -4 -5.5 -10t-17.5 -22t-30.5 -28.5t-44.5 -22.5t-60 -10z" />
    <glyph glyph-name="notequal" unicode="&#x2260;" 
d="M52 372v91h286l98 159l69 -42l-72 -117h115v-91h-171l-61 -98h232v-91h-288l-96 -157l-70 42l71 115h-113v91h169l61 98h-230z" />
    <glyph glyph-name="equivalence" unicode="&#x2261;" 
d="M52 479v90h496v-90h-496zM52 280v90h496v-90h-496zM52 81v90h496v-90h-496z" />
    <glyph glyph-name="lessequal" unicode="&#x2264;" 
d="M547 142l-494 195v102l494 197v-103l-383 -144l383 -143v-104zM547 91v-91h-494v91h494z" />
    <glyph glyph-name="greaterequal" unicode="&#x2265;" 
d="M53 636l494 -195v-101l-494 -198v103l383 144l-383 144v103zM53 0v91h494v-91h-494z" />
    <glyph glyph-name="squaremultiply" unicode="&#x22a0;" horiz-adv-x="850" 
d="M75 0v700h700v-700h-700zM162 620v-540h526v540h-526zM581 133l-156 156l-156 -156l-62 61l157 156l-157 157l62 61l156 -156l156 156l62 -61l-156 -157l156 -156z" />
    <glyph glyph-name="blacksquare" unicode="&#x25a0;" horiz-adv-x="850" 
d="M75 0v700h700v-700h-700z" />
    <glyph glyph-name="blacksquare" unicode="&#xe740;" horiz-adv-x="850" 
d="M75 0v700h700v-700h-700z" />
    <glyph glyph-name="whitesquare" unicode="&#x25a1;" horiz-adv-x="850" 
d="M75 0v700h700v-700h-700zM162 620v-540h526v540h-526z" />
    <glyph glyph-name="blacksmallsquare" unicode="&#x25aa;" 
d="M63 0v474h474v-474h-474z" />
    <glyph glyph-name="whitesmallsquare" unicode="&#x25ab;" 
d="M63 0v474h474v-474h-474zM143 401v-328h314v328h-314z" />
    <glyph glyph-name="triagup" unicode="&#x25b2;" horiz-adv-x="800" 
d="M750 0h-700l350 716z" />
    <glyph glyph-name="triagrt" unicode="&#x25ba;" horiz-adv-x="785" 
d="M50 0v700l685 -350z" />
    <glyph glyph-name="triagdn" unicode="&#x25bc;" horiz-adv-x="800" 
d="M50 700h700l-350 -716z" />
    <glyph glyph-name="triaglf" unicode="&#x25c4;" horiz-adv-x="785" 
d="M735 700v-700l-685 350z" />
    <glyph glyph-name="lozenge" unicode="&#x25ca;" horiz-adv-x="587" 
d="M353 700l179 -350l-179 -350h-119l-179 350l179 350h119zM294 587l-120 -237l120 -237l119 237z" />
    <glyph glyph-name="whitecircle" unicode="&#x25cb;" horiz-adv-x="850" 
d="M62 350q0 151 106.5 257t256.5 106t256.5 -106t106.5 -257t-106.5 -257t-256.5 -106t-256.5 106t-106.5 257zM700 350q0 117 -80 200t-195 83t-195 -83t-80 -200t80 -200t195 -83t195 83t80 200z" />
    <glyph glyph-name="whitecircle" unicode="&#x25ef;" horiz-adv-x="850" 
d="M62 350q0 151 106.5 257t256.5 106t256.5 -106t106.5 -257t-106.5 -257t-256.5 -106t-256.5 106t-106.5 257zM700 350q0 117 -80 200t-195 83t-195 -83t-80 -200t80 -200t195 -83t195 83t80 200z" />
    <glyph glyph-name="blackcircle" unicode="&#x25cf;" horiz-adv-x="850" 
d="M788 350q0 -149 -107 -256t-256 -107t-256 107t-107 256t107 256t256 107t256 -107t107 -256z" />
    <glyph glyph-name="uni25E2" unicode="&#x25e2;" horiz-adv-x="800" 
d="M43 204l496 496l221 -716z" />
    <glyph glyph-name="uni25E3" unicode="&#x25e3;" horiz-adv-x="800" 
d="M261 700l496 -496l-717 -220z" />
    <glyph glyph-name="uni25E4" unicode="&#x25e4;" horiz-adv-x="800" 
d="M757 480l-496 -496l-221 716z" />
    <glyph glyph-name="uni25E5" unicode="&#x25e5;" horiz-adv-x="800" 
d="M539 -16l-496 496l717 220z" />
    <glyph glyph-name="ballotboxwithx" unicode="&#x2612;" 
d="M63 0v474h474v-474h-474zM143 401v-328h314v328h-314zM365 117l-65 65l-64 -65l-56 55l65 65l-65 65l56 56l64 -66l65 65l56 -55l-66 -65l66 -64z" />
    <glyph glyph-name="mediumwhitecircle" unicode="&#x26aa;" 
d="M50 237q0 104 73 177t177 73t177 -73t73 -177t-73 -177t-177 -73t-177 73.5t-73 176.5zM468 237q0 73 -49 124.5t-119 51.5t-119 -51.5t-49 -124.5t49 -124.5t119 -51.5t119 51.5t49 124.5z" />
    <glyph glyph-name="mediumblackcircle" unicode="&#x26ab;" 
d="M49 237q0 103 73.5 176.5t176.5 73.5q104 0 178 -73.5t74 -176.5t-74 -176.5t-178 -73.5q-103 0 -176.5 73.5t-73.5 176.5z" />
    <glyph glyph-name="anglebracketleft" unicode="&#x3008;" horiz-adv-x="335" 
d="M48 307l185 485l87 -32l-157 -453l157 -453l-87 -32z" />
    <glyph glyph-name="anglebracketright" unicode="&#x3009;" horiz-adv-x="335" 
d="M102 792l185 -485l-185 -485l-87 32l156 453l-156 453z" />
    <glyph glyph-name="aogonek.school" unicode="&#xe150;" horiz-adv-x="579" 
d="M39 237q0 113 60 181.5t152 68.5q52 0 90 -22.5t57 -58.5v68h109v-474q-101 -58 -101 -99q0 -36 44 -36q32 0 58 39l46 -42q-48 -64 -119 -64q-46 0 -78.5 23t-32.5 70q0 34 18 58.5t56 50.5v70q-48 -83 -151 -83q-90 0 -149 68.5t-59 181.5zM274 397q-54 0 -86 -45
t-32 -115t31.5 -115t83.5 -45q47 0 85 34.5t38 103.5v44q0 69 -37 103.5t-83 34.5z" />
    <glyph glyph-name="a.school" unicode="&#xe151;" horiz-adv-x="579" 
d="M39 237q0 113 60 181.5t152 68.5q52 0 90 -22.5t57 -58.5v68h109v-474h-109v70q-48 -83 -151 -83q-90 0 -149 68.5t-59 181.5zM274 397q-54 0 -86 -45t-32 -115t31.5 -115t83.5 -45q47 0 85 34.5t38 103.5v44q0 69 -37 103.5t-83 34.5z" />
    <glyph glyph-name="agrave.school" unicode="&#xe152;" horiz-adv-x="579" 
d="M39 237q0 113 60 181.5t152 68.5q52 0 90 -22.5t57 -58.5v68h109v-474h-109v70q-48 -83 -151 -83q-90 0 -149 68.5t-59 181.5zM274 397q-54 0 -86 -45t-32 -115t31.5 -115t83.5 -45q47 0 85 34.5t38 103.5v44q0 69 -37 103.5t-83 34.5zM353 532l-202 109l50 82l189 -131z
" />
    <glyph glyph-name="aacute.school" unicode="&#xe153;" horiz-adv-x="579" 
d="M39 237q0 113 60 181.5t152 68.5q52 0 90 -22.5t57 -58.5v68h109v-474h-109v70q-48 -83 -151 -83q-90 0 -149 68.5t-59 181.5zM274 397q-54 0 -86 -45t-32 -115t31.5 -115t83.5 -45q47 0 85 34.5t38 103.5v44q0 69 -37 103.5t-83 34.5zM340 723l50 -82l-202 -109l-37 60z
" />
    <glyph glyph-name="acircumflex.school" unicode="&#xe154;" horiz-adv-x="579" 
d="M120 578l115 128h74l115 -128l-55 -50l-98 106l-98 -106zM39 237q0 113 60 181.5t152 68.5q52 0 90 -22.5t57 -58.5v68h109v-474h-109v70q-48 -83 -151 -83q-90 0 -149 68.5t-59 181.5zM274 397q-54 0 -86 -45t-32 -115t31.5 -115t83.5 -45q47 0 85 34.5t38 103.5v44
q0 69 -37 103.5t-83 34.5z" />
    <glyph glyph-name="adieresis.school" unicode="&#xe155;" horiz-adv-x="579" 
d="M309 607q0 28 18 45.5t47 17.5t47 -17.5t18 -45.5q0 -27 -18.5 -45t-46.5 -18t-46.5 18t-18.5 45zM105 607q0 28 18 45.5t47 17.5t47 -17.5t18 -45.5q0 -27 -18.5 -45t-46.5 -18t-46.5 18t-18.5 45zM39 237q0 113 60 181.5t152 68.5q52 0 90 -22.5t57 -58.5v68h109v-474
h-109v70q-48 -83 -151 -83q-90 0 -149 68.5t-59 181.5zM274 397q-54 0 -86 -45t-32 -115t31.5 -115t83.5 -45q47 0 85 34.5t38 103.5v44q0 69 -37 103.5t-83 34.5z" />
    <glyph glyph-name="atilde.school" unicode="&#xe156;" horiz-adv-x="579" 
d="M39 237q0 113 60 181.5t152 68.5q52 0 90 -22.5t57 -58.5v68h109v-474h-109v70q-48 -83 -151 -83q-90 0 -149 68.5t-59 181.5zM274 397q-54 0 -86 -45t-32 -115t31.5 -115t83.5 -45q47 0 85 34.5t38 103.5v44q0 69 -37 103.5t-83 34.5zM199 675q39 0 81 -26.5t61 -26.5
t33.5 12t19.5 24l6 13l56 -49q-1 -3 -4 -8t-13.5 -18t-23 -22.5t-33.5 -17.5t-45 -8q-38 0 -79.5 26.5t-61.5 26.5q-19 0 -34 -12t-20 -24l-5 -12l-56 49q1 3 4 8t13 17.5t22.5 22t33.5 17.5t45 8z" />
    <glyph glyph-name="aring.school" unicode="&#xe157;" horiz-adv-x="579" 
d="M39 237q0 113 60 181.5t152 68.5q52 0 90 -22.5t57 -58.5v68h109v-474h-109v70q-48 -83 -151 -83q-90 0 -149 68.5t-59 181.5zM274 397q-54 0 -86 -45t-32 -115t31.5 -115t83.5 -45q47 0 85 34.5t38 103.5v44q0 69 -37 103.5t-83 34.5zM165 629q0 44 29.5 72t76.5 28
t76.5 -28t29.5 -72q0 -43 -29.5 -71.5t-76.5 -28.5t-76.5 28.5t-29.5 71.5zM225 629q0 -19 13 -32.5t33 -13.5t33 13.5t13 32.5q0 20 -13 32.5t-33 12.5t-33 -12.5t-13 -32.5z" />
    <glyph glyph-name="amacron.school" unicode="&#xe159;" horiz-adv-x="579" 
d="M39 237q0 113 60 181.5t152 68.5q52 0 90 -22.5t57 -58.5v68h109v-474h-109v70q-48 -83 -151 -83q-90 0 -149 68.5t-59 181.5zM274 397q-54 0 -86 -45t-32 -115t31.5 -115t83.5 -45q47 0 85 34.5t38 103.5v44q0 69 -37 103.5t-83 34.5zM135 556v74h273v-74h-273z" />
    <glyph glyph-name="abreve.school" unicode="&#xe15a;" horiz-adv-x="579" 
d="M39 237q0 113 60 181.5t152 68.5q52 0 90 -22.5t57 -58.5v68h109v-474h-109v70q-48 -83 -151 -83q-90 0 -149 68.5t-59 181.5zM274 397q-54 0 -86 -45t-32 -115t31.5 -115t83.5 -45q47 0 85 34.5t38 103.5v44q0 69 -37 103.5t-83 34.5zM104 664l83 24q5 -29 26.5 -49.5
t52.5 -20.5t52.5 20.5t26.5 49.5l83 -24q-12 -53 -56 -86t-106 -33t-106 33t-56 86z" />
    <glyph glyph-name="g.school" unicode="&#xe161;" horiz-adv-x="588" 
d="M403 80q-53 -72 -151 -72q-93 0 -153 64.5t-60 172.5q0 110 61.5 176t155.5 66q106 0 152 -81v68h108v-439q0 -248 -246 -248q-162 0 -212 122l104 38q28 -73 112 -73q129 0 129 159v47zM403 233v27q0 70 -38 103.5t-86 33.5q-56 0 -89.5 -43t-33.5 -109q0 -64 33 -106
t87 -42q49 0 88 33.5t39 102.5z" />
    <glyph glyph-name="gcircumflex.school" unicode="&#xe163;" horiz-adv-x="588" 
d="M123 578l115 128h74l115 -128l-55 -50l-98 106l-98 -106zM403 80q-53 -72 -151 -72q-93 0 -153 64.5t-60 172.5q0 110 61.5 176t155.5 66q106 0 152 -81v68h108v-439q0 -248 -246 -248q-162 0 -212 122l104 38q28 -73 112 -73q129 0 129 159v47zM403 233v27
q0 70 -38 103.5t-86 33.5q-56 0 -89.5 -43t-33.5 -109q0 -64 33 -106t87 -42q49 0 88 33.5t39 102.5z" />
    <glyph glyph-name="gbreve.school" unicode="&#xe166;" horiz-adv-x="588" 
d="M403 80q-53 -72 -151 -72q-93 0 -153 64.5t-60 172.5q0 110 61.5 176t155.5 66q106 0 152 -81v68h108v-439q0 -248 -246 -248q-162 0 -212 122l104 38q28 -73 112 -73q129 0 129 159v47zM403 233v27q0 70 -38 103.5t-86 33.5q-56 0 -89.5 -43t-33.5 -109q0 -64 33 -106
t87 -42q49 0 88 33.5t39 102.5zM108 664l83 24q5 -29 26.5 -49.5t52.5 -20.5t52.5 20.5t26.5 49.5l83 -24q-12 -53 -56 -86t-106 -33t-106 33t-56 86z" />
    <glyph glyph-name="gdotaccent.school" unicode="&#xe167;" horiz-adv-x="588" 
d="M205 612q0 31 19.5 50.5t50.5 19.5t50.5 -19.5t19.5 -50.5q0 -29 -19.5 -48.5t-50.5 -19.5t-50.5 19.5t-19.5 48.5zM403 80q-53 -72 -151 -72q-93 0 -153 64.5t-60 172.5q0 110 61.5 176t155.5 66q106 0 152 -81v68h108v-439q0 -248 -246 -248q-162 0 -212 122l104 38
q28 -73 112 -73q129 0 129 159v47zM403 233v27q0 70 -38 103.5t-86 33.5q-56 0 -89.5 -43t-33.5 -109q0 -64 33 -106t87 -42q49 0 88 33.5t39 102.5z" />
    <glyph glyph-name="gcommaaccent.school" unicode="&#xe168;" horiz-adv-x="588" 
d="M210 616q0 17 4.5 34.5t15 36.5t33 33t53.5 18l16 -43q-20 0 -39.5 -13.5t-19.5 -31.5v-3q1 0 5 0.5t7 0.5q23 0 40 -17t17 -42q0 -24 -16 -42t-46 -18q-34 0 -52 25.5t-18 61.5zM403 80q-53 -72 -151 -72q-93 0 -153 64.5t-60 172.5q0 110 61.5 176t155.5 66
q106 0 152 -81v68h108v-439q0 -248 -246 -248q-162 0 -212 122l104 38q28 -73 112 -73q129 0 129 159v47zM403 233v27q0 70 -38 103.5t-86 33.5q-56 0 -89.5 -43t-33.5 -109q0 -64 33 -106t87 -42q49 0 88 33.5t39 102.5z" />
    <glyph glyph-name="y.school" unicode="&#xe16b;" horiz-adv-x="498" 
d="M486 474l-209 -550q-52 -137 -159 -137q-54 0 -89 20l32 86q20 -15 46 -15q44 0 71 69l20 51l-186 476h116q106 -289 125 -346h2l123 346h108z" />
    <glyph glyph-name="yacute.school" unicode="&#xe16d;" horiz-adv-x="498" 
d="M486 474l-209 -550q-52 -137 -159 -137q-54 0 -89 20l32 86q20 -15 46 -15q44 0 71 69l20 51l-186 476h116q106 -289 125 -346h2l123 346h108zM339 723l50 -82l-202 -109l-37 60z" />
    <glyph glyph-name="ycircumflex.school" unicode="&#xe16e;" horiz-adv-x="498" 
d="M101 578l115 128h74l115 -128l-55 -50l-98 106l-98 -106zM486 474l-209 -550q-52 -137 -159 -137q-54 0 -89 20l32 86q20 -15 46 -15q44 0 71 69l20 51l-186 476h116q106 -289 125 -346h2l123 346h108z" />
    <glyph glyph-name="ydieresis.school" unicode="&#xe16f;" horiz-adv-x="498" 
d="M290 607q0 28 18 45.5t47 17.5t47 -17.5t18 -45.5q0 -27 -18.5 -45t-46.5 -18t-46.5 18t-18.5 45zM86 607q0 28 18 45.5t47 17.5t47 -17.5t18 -45.5q0 -27 -18.5 -45t-46.5 -18t-46.5 18t-18.5 45zM486 474l-209 -550q-52 -137 -159 -137q-54 0 -89 20l32 86
q20 -15 46 -15q44 0 71 69l20 51l-186 476h116q106 -289 125 -346h2l123 346h108z" />
    <glyph glyph-name="ordfeminine.school" unicode="&#xe182;" horiz-adv-x="456" 
d="M36 508q0 88 46.5 141t118.5 53q81 0 114 -63v52h85v-366h-85v54q-36 -65 -117 -65q-70 0 -116 53t-46 141zM312 494v27q0 53 -28 82.5t-66 29.5q-41 0 -66 -35.5t-25 -89.5t24.5 -89.5t65.5 -35.5q38 0 66.5 29t28.5 82z" />
    <glyph glyph-name="p.smcp" unicode="&#xe200;" horiz-adv-x="544" 
d="M292 204h-100v-204h-111v564h211q103 0 161 -43.5t58 -133.5q0 -91 -59.5 -137t-159.5 -46zM396 387q0 46 -28.5 65t-89.5 19h-86v-175h86q60 0 89 22t29 69z" />
    <glyph glyph-name="p.smcp" unicode="&#xf770;" horiz-adv-x="544" 
d="M292 204h-100v-204h-111v564h211q103 0 161 -43.5t58 -133.5q0 -91 -59.5 -137t-159.5 -46zM396 387q0 46 -28.5 65t-89.5 19h-86v-175h86q60 0 89 22t29 69z" />
    <glyph glyph-name="a.smcp" unicode="&#xe201;" horiz-adv-x="557" 
d="M337 564l203 -564h-115l-47 136h-204l-47 -136h-110l203 564h117zM277 449h-3q-3 -15 -20.5 -71.5t-33.5 -105.5l-15 -48h143q-63 191 -71 225z" />
    <glyph glyph-name="a.smcp" unicode="&#xf761;" horiz-adv-x="557" 
d="M337 564l203 -564h-115l-47 136h-204l-47 -136h-110l203 564h117zM277 449h-3q-3 -15 -20.5 -71.5t-33.5 -105.5l-15 -48h143q-63 191 -71 225z" />
    <glyph glyph-name="b.smcp" unicode="&#xe202;" horiz-adv-x="558" 
d="M81 0v564h236q80 0 124.5 -40t44.5 -105q0 -50 -25 -81t-62 -44q45 -6 78.5 -37t33.5 -90q0 -73 -51.5 -120t-131.5 -47h-247zM286 474h-96v-142h88q48 0 71 17t23 56q0 69 -86 69zM190 243v-153h100q107 0 107 77q0 42 -27 59t-82 17h-98z" />
    <glyph glyph-name="b.smcp" unicode="&#xf762;" horiz-adv-x="558" 
d="M81 0v564h236q80 0 124.5 -40t44.5 -105q0 -50 -25 -81t-62 -44q45 -6 78.5 -37t33.5 -90q0 -73 -51.5 -120t-131.5 -47h-247zM286 474h-96v-142h88q48 0 71 17t23 56q0 69 -86 69zM190 243v-153h100q107 0 107 77q0 42 -27 59t-82 17h-98z" />
    <glyph glyph-name="c.smcp" unicode="&#xe203;" horiz-adv-x="589" 
d="M51 281q0 137 73 216t199 79q182 0 234 -156l-109 -38q-32 100 -128 100q-73 0 -112.5 -54.5t-39.5 -146.5q0 -90 39.5 -145t113.5 -55q94 0 126 96l108 -38q-61 -152 -235 -152q-124 0 -196.5 78.5t-72.5 215.5z" />
    <glyph glyph-name="c.smcp" unicode="&#xf763;" horiz-adv-x="589" 
d="M51 281q0 137 73 216t199 79q182 0 234 -156l-109 -38q-32 100 -128 100q-73 0 -112.5 -54.5t-39.5 -146.5q0 -90 39.5 -145t113.5 -55q94 0 126 96l108 -38q-61 -152 -235 -152q-124 0 -196.5 78.5t-72.5 215.5z" />
    <glyph glyph-name="d.smcp" unicode="&#xe204;" horiz-adv-x="615" 
d="M81 0v564h207q129 0 202 -74.5t73 -207.5q0 -134 -73 -208t-202 -74h-207zM446 282q0 88 -40.5 138.5t-122.5 50.5h-90v-378h90q82 0 122.5 50t40.5 139z" />
    <glyph glyph-name="d.smcp" unicode="&#xf764;" horiz-adv-x="615" 
d="M81 0v564h207q129 0 202 -74.5t73 -207.5q0 -134 -73 -208t-202 -74h-207zM446 282q0 88 -40.5 138.5t-122.5 50.5h-90v-378h90q82 0 122.5 50t40.5 139z" />
    <glyph glyph-name="e.smcp" unicode="&#xe205;" horiz-adv-x="505" 
d="M461 0h-380v564h375v-93h-263v-135h245v-92h-245v-151h268v-93z" />
    <glyph glyph-name="e.smcp" unicode="&#xf765;" horiz-adv-x="505" 
d="M461 0h-380v564h375v-93h-263v-135h245v-92h-245v-151h268v-93z" />
    <glyph glyph-name="f.smcp" unicode="&#xe206;" horiz-adv-x="500" 
d="M193 0h-112v564h377v-93h-265v-135h245v-92h-245v-244z" />
    <glyph glyph-name="f.smcp" unicode="&#xf766;" horiz-adv-x="500" 
d="M193 0h-112v564h377v-93h-265v-135h245v-92h-245v-244z" />
    <glyph glyph-name="g.smcp" unicode="&#xe207;" horiz-adv-x="632" 
d="M305 216v88h254v-304h-100v61q-18 -31 -58.5 -52.5t-96.5 -21.5q-116 0 -184 84t-68 212q0 131 74.5 212t203.5 81q82 0 142.5 -37.5t89.5 -107.5l-102 -42q-37 94 -135 94q-72 0 -114 -53.5t-42 -153.5q0 -95 39 -145.5t112 -50.5q54 0 93.5 28t39.5 79v29h-148z" />
    <glyph glyph-name="g.smcp" unicode="&#xf767;" horiz-adv-x="632" 
d="M305 216v88h254v-304h-100v61q-18 -31 -58.5 -52.5t-96.5 -21.5q-116 0 -184 84t-68 212q0 131 74.5 212t203.5 81q82 0 142.5 -37.5t89.5 -107.5l-102 -42q-37 94 -135 94q-72 0 -114 -53.5t-42 -153.5q0 -95 39 -145.5t112 -50.5q54 0 93.5 28t39.5 79v29h-148z" />
    <glyph glyph-name="h.smcp" unicode="&#xe208;" horiz-adv-x="613" 
d="M81 0v564h112v-227h227v227h112v-564h-112v244h-227v-244h-112z" />
    <glyph glyph-name="h.smcp" unicode="&#xf768;" horiz-adv-x="613" 
d="M81 0v564h112v-227h227v227h112v-564h-112v244h-227v-244h-112z" />
    <glyph glyph-name="i.smcp" unicode="&#xe209;" horiz-adv-x="274" 
d="M81 0v564h112v-564h-112z" />
    <glyph glyph-name="i.smcp" unicode="&#xf769;" horiz-adv-x="274" 
d="M81 0v564h112v-564h-112z" />
    <glyph glyph-name="j.smcp" unicode="&#xe20a;" horiz-adv-x="410" 
d="M159 80q34 0 48.5 25t14.5 79v380h113v-380q0 -96 -38 -146.5t-135 -50.5q-102 0 -157 66l76 73q21 -24 38 -35t40 -11z" />
    <glyph glyph-name="j.smcp" unicode="&#xf76a;" horiz-adv-x="410" 
d="M159 80q34 0 48.5 25t14.5 79v380h113v-380q0 -96 -38 -146.5t-135 -50.5q-102 0 -157 66l76 73q21 -24 38 -35t40 -11z" />
    <glyph glyph-name="k.smcp" unicode="&#xe20b;" horiz-adv-x="557" 
d="M410 0l-167 252l-50 -52v-200h-112v564h112v-223l201 223h130l-204 -228l225 -336h-135z" />
    <glyph glyph-name="k.smcp" unicode="&#xf76b;" horiz-adv-x="557" 
d="M410 0l-167 252l-50 -52v-200h-112v564h112v-223l201 223h130l-204 -228l225 -336h-135z" />
    <glyph glyph-name="l.smcp" unicode="&#xe20c;" horiz-adv-x="461" 
d="M81 0v564h112v-471h248v-93h-360z" />
    <glyph glyph-name="l.smcp" unicode="&#xf76c;" horiz-adv-x="461" 
d="M81 0v564h112v-471h248v-93h-360z" />
    <glyph glyph-name="m.smcp" unicode="&#xe20d;" horiz-adv-x="761" 
d="M431 0h-100q-118 319 -147 420h-2v-420h-101v564h154q131 -378 149 -435l144 435h152v-564h-101v420h-2q-33 -106 -146 -420z" />
    <glyph glyph-name="m.smcp" unicode="&#xf76d;" horiz-adv-x="761" 
d="M431 0h-100q-118 319 -147 420h-2v-420h-101v564h154q131 -378 149 -435l144 435h152v-564h-101v420h-2q-33 -106 -146 -420z" />
    <glyph glyph-name="n.smcp" unicode="&#xe20e;" horiz-adv-x="629" 
d="M81 0v564h114q192 -300 248 -394h2v394h103v-564h-114l-248 393h-2v-393h-103z" />
    <glyph glyph-name="n.smcp" unicode="&#xf76e;" horiz-adv-x="629" 
d="M81 0v564h114q192 -300 248 -394h2v394h103v-564h-114l-248 393h-2v-393h-103z" />
    <glyph glyph-name="o.smcp" unicode="&#xe20f;" horiz-adv-x="646" 
d="M52 282q0 136 74 215t197 79t197 -79t74 -215q0 -137 -74 -216t-197 -79t-197 79t-74 216zM169 282q0 -93 39 -147.5t115 -54.5t115 54.5t39 147.5q0 92 -39 146.5t-115 54.5t-115 -54.5t-39 -146.5z" />
    <glyph glyph-name="o.smcp" unicode="&#xf76f;" horiz-adv-x="646" 
d="M52 282q0 136 74 215t197 79t197 -79t74 -215q0 -137 -74 -216t-197 -79t-197 79t-74 216zM169 282q0 -93 39 -147.5t115 -54.5t115 54.5t39 147.5q0 92 -39 146.5t-115 54.5t-115 -54.5t-39 -146.5z" />
    <glyph glyph-name="q.smcp" unicode="&#xe211;" horiz-adv-x="644" 
d="M51 282q0 136 74 215t197 79t197 -79t74 -215q0 -149 -88 -229l54 -57l-61 -55l-62 67q-55 -21 -114 -21q-123 0 -197 79t-74 216zM168 282q0 -93 39 -147.5t115 -54.5q21 0 43 5l-55 60l59 55l64 -70q43 53 43 152q0 92 -39 146.5t-115 54.5t-115 -54.5t-39 -146.5z" />
    <glyph glyph-name="q.smcp" unicode="&#xf771;" horiz-adv-x="644" 
d="M51 282q0 136 74 215t197 79t197 -79t74 -215q0 -149 -88 -229l54 -57l-61 -55l-62 67q-55 -21 -114 -21q-123 0 -197 79t-74 216zM168 282q0 -93 39 -147.5t115 -54.5q21 0 43 5l-55 60l59 55l64 -70q43 53 43 152q0 92 -39 146.5t-115 54.5t-115 -54.5t-39 -146.5z" />
    <glyph glyph-name="r.smcp" unicode="&#xe212;" horiz-adv-x="561" 
d="M502 396q0 -122 -109 -161l134 -235h-127l-122 220h-87v-220h-110v564h210q96 0 153.5 -41t57.5 -127zM388 394q0 42 -27.5 60t-83.5 18h-86v-162h89q108 0 108 84z" />
    <glyph glyph-name="r.smcp" unicode="&#xf772;" horiz-adv-x="561" 
d="M502 396q0 -122 -109 -161l134 -235h-127l-122 220h-87v-220h-110v564h210q96 0 153.5 -41t57.5 -127zM388 394q0 42 -27.5 60t-83.5 18h-86v-162h89q108 0 108 84z" />
    <glyph glyph-name="s.smcp" unicode="&#xe213;" horiz-adv-x="549" 
d="M172 415q0 -36 28.5 -52t104.5 -29q94 -17 145.5 -52.5t51.5 -113.5q0 -83 -62 -132t-162 -49q-103 0 -165.5 49.5t-65.5 121.5l111 18q4 -44 34 -71.5t87 -27.5q48 0 78.5 21t30.5 61q0 35 -29 52.5t-95 28.5q-99 16 -152 52.5t-53 114.5q0 82 57.5 125.5t152.5 43.5
q91 0 150 -39.5t73 -113.5l-112 -25q-14 89 -116 89q-92 0 -92 -72z" />
    <glyph glyph-name="s.smcp" unicode="&#xf773;" horiz-adv-x="549" 
d="M172 415q0 -36 28.5 -52t104.5 -29q94 -17 145.5 -52.5t51.5 -113.5q0 -83 -62 -132t-162 -49q-103 0 -165.5 49.5t-65.5 121.5l111 18q4 -44 34 -71.5t87 -27.5q48 0 78.5 21t30.5 61q0 35 -29 52.5t-95 28.5q-99 16 -152 52.5t-53 114.5q0 82 57.5 125.5t152.5 43.5
q91 0 150 -39.5t73 -113.5l-112 -25q-14 89 -116 89q-92 0 -92 -72z" />
    <glyph glyph-name="t.smcp" unicode="&#xe214;" horiz-adv-x="482" 
d="M21 470v94h440v-94h-164v-470h-112v470h-164z" />
    <glyph glyph-name="t.smcp" unicode="&#xf774;" horiz-adv-x="482" 
d="M21 470v94h440v-94h-164v-470h-112v470h-164z" />
    <glyph glyph-name="u.smcp" unicode="&#xe215;" horiz-adv-x="598" 
d="M298 -13q-222 0 -222 213v364h112v-365q0 -52 26 -85t84 -33q60 0 86 33t26 85v365h112v-364q0 -213 -224 -213z" />
    <glyph glyph-name="u.smcp" unicode="&#xf775;" horiz-adv-x="598" 
d="M298 -13q-222 0 -222 213v364h112v-365q0 -52 26 -85t84 -33q60 0 86 33t26 85v365h112v-364q0 -213 -224 -213z" />
    <glyph glyph-name="v.smcp" unicode="&#xe216;" horiz-adv-x="558" 
d="M16 564h120q107 -301 145 -427h2q17 56 53 162.5t64 185.5l28 79h115l-209 -564h-112z" />
    <glyph glyph-name="v.smcp" unicode="&#xf776;" horiz-adv-x="558" 
d="M16 564h120q107 -301 145 -427h2q17 56 53 162.5t64 185.5l28 79h115l-209 -564h-112z" />
    <glyph glyph-name="w.smcp" unicode="&#xe217;" horiz-adv-x="767" 
d="M648 564h103l-145 -564h-124q-74 293 -97 396h-2l-97 -396h-124l-146 564h113q78 -328 98 -434h1q10 47 37 155.5t49 193.5l22 85h104q84 -330 104 -434h2q9 46 34.5 154.5t46.5 193.5z" />
    <glyph glyph-name="w.smcp" unicode="&#xf777;" horiz-adv-x="767" 
d="M648 564h103l-145 -564h-124q-74 293 -97 396h-2l-97 -396h-124l-146 564h113q78 -328 98 -434h1q10 47 37 155.5t49 193.5l22 85h104q84 -330 104 -434h2q9 46 34.5 154.5t46.5 193.5z" />
    <glyph glyph-name="x.smcp" unicode="&#xe218;" horiz-adv-x="576" 
d="M539 564l-187 -267l208 -297h-132l-143 203l-143 -203h-126l206 291l-188 273h132l124 -180l123 180h126z" />
    <glyph glyph-name="x.smcp" unicode="&#xf778;" horiz-adv-x="576" 
d="M539 564l-187 -267l208 -297h-132l-143 203l-143 -203h-126l206 291l-188 273h132l124 -180l123 180h126z" />
    <glyph glyph-name="y.smcp" unicode="&#xe219;" horiz-adv-x="557" 
d="M221 0v237l-211 327h128l143 -223l142 223h124l-213 -327v-237h-113z" />
    <glyph glyph-name="y.smcp" unicode="&#xf779;" horiz-adv-x="557" 
d="M221 0v237l-211 327h128l143 -223l142 223h124l-213 -327v-237h-113z" />
    <glyph glyph-name="z.smcp" unicode="&#xe21a;" horiz-adv-x="526" 
d="M50 471v93h435v-84l-303 -387h301v-93h-442v83l305 388h-296z" />
    <glyph glyph-name="z.smcp" unicode="&#xf77a;" horiz-adv-x="526" 
d="M50 471v93h435v-84l-303 -387h301v-93h-442v83l305 388h-296z" />
    <glyph glyph-name="anocross.smcp" unicode="&#xe220;" horiz-adv-x="557" 
d="M425 0l-148 443h-3l-147 -443h-110l203 564h117l203 -564h-115z" />
    <glyph glyph-name="aacute.smcp" unicode="&#xe221;" horiz-adv-x="557" 
d="M355 801l50 -82l-202 -109l-37 60zM337 564l203 -564h-115l-47 136h-204l-47 -136h-110l203 564h117zM277 449h-3q-3 -15 -20.5 -71.5t-33.5 -105.5l-15 -48h143q-63 191 -71 225z" />
    <glyph glyph-name="aacute.smcp" unicode="&#xf7e1;" horiz-adv-x="557" 
d="M355 801l50 -82l-202 -109l-37 60zM337 564l203 -564h-115l-47 136h-204l-47 -136h-110l203 564h117zM277 449h-3q-3 -15 -20.5 -71.5t-33.5 -105.5l-15 -48h143q-63 191 -71 225z" />
    <glyph glyph-name="agrave.smcp" unicode="&#xe222;" horiz-adv-x="557" 
d="M337 564l203 -564h-115l-47 136h-204l-47 -136h-110l203 564h117zM277 449h-3q-3 -15 -20.5 -71.5t-33.5 -105.5l-15 -48h143q-63 191 -71 225zM354 610l-202 109l50 82l189 -131z" />
    <glyph glyph-name="agrave.smcp" unicode="&#xf7e0;" horiz-adv-x="557" 
d="M337 564l203 -564h-115l-47 136h-204l-47 -136h-110l203 564h117zM277 449h-3q-3 -15 -20.5 -71.5t-33.5 -105.5l-15 -48h143q-63 191 -71 225zM354 610l-202 109l50 82l189 -131z" />
    <glyph glyph-name="acircumflex.smcp" unicode="&#xe223;" horiz-adv-x="557" 
d="M126 658l115 128h74l115 -128l-55 -50l-98 106l-98 -106zM337 564l203 -564h-115l-47 136h-204l-47 -136h-110l203 564h117zM277 449h-3q-3 -15 -20.5 -71.5t-33.5 -105.5l-15 -48h143q-63 191 -71 225z" />
    <glyph glyph-name="acircumflex.smcp" unicode="&#xf7e2;" horiz-adv-x="557" 
d="M126 658l115 128h74l115 -128l-55 -50l-98 106l-98 -106zM337 564l203 -564h-115l-47 136h-204l-47 -136h-110l203 564h117zM277 449h-3q-3 -15 -20.5 -71.5t-33.5 -105.5l-15 -48h143q-63 191 -71 225z" />
    <glyph glyph-name="adieresis.smcp" unicode="&#xe224;" horiz-adv-x="557" 
d="M316 686q0 28 18 45.5t47 17.5t47 -17.5t18 -45.5q0 -27 -18.5 -45t-46.5 -18t-46.5 18t-18.5 45zM112 686q0 28 18 45.5t47 17.5t47 -17.5t18 -45.5q0 -27 -18.5 -45t-46.5 -18t-46.5 18t-18.5 45zM337 564l203 -564h-115l-47 136h-204l-47 -136h-110l203 564h117z
M277 449h-3q-3 -15 -20.5 -71.5t-33.5 -105.5l-15 -48h143q-63 191 -71 225z" />
    <glyph glyph-name="adieresis.smcp" unicode="&#xf7e4;" horiz-adv-x="557" 
d="M316 686q0 28 18 45.5t47 17.5t47 -17.5t18 -45.5q0 -27 -18.5 -45t-46.5 -18t-46.5 18t-18.5 45zM112 686q0 28 18 45.5t47 17.5t47 -17.5t18 -45.5q0 -27 -18.5 -45t-46.5 -18t-46.5 18t-18.5 45zM337 564l203 -564h-115l-47 136h-204l-47 -136h-110l203 564h117z
M277 449h-3q-3 -15 -20.5 -71.5t-33.5 -105.5l-15 -48h143q-63 191 -71 225z" />
    <glyph glyph-name="atilde.smcp" unicode="&#xe225;" horiz-adv-x="557" 
d="M337 564l203 -564h-115l-47 136h-204l-47 -136h-110l203 564h117zM277 449h-3q-3 -15 -20.5 -71.5t-33.5 -105.5l-15 -48h143q-63 191 -71 225zM209 748q39 0 81 -26.5t61 -26.5t33.5 12.5t19.5 24.5l6 12l56 -49q-1 -3 -4 -8t-13.5 -18t-23 -22.5t-33.5 -17.5t-45 -8
q-38 0 -79.5 26.5t-61.5 26.5q-19 0 -34 -12t-20 -24l-5 -12l-56 49q1 3 4 8t13 17.5t22.5 22t33.5 17.5t45 8z" />
    <glyph glyph-name="atilde.smcp" unicode="&#xf7e3;" horiz-adv-x="557" 
d="M337 564l203 -564h-115l-47 136h-204l-47 -136h-110l203 564h117zM277 449h-3q-3 -15 -20.5 -71.5t-33.5 -105.5l-15 -48h143q-63 191 -71 225zM209 748q39 0 81 -26.5t61 -26.5t33.5 12.5t19.5 24.5l6 12l56 -49q-1 -3 -4 -8t-13.5 -18t-23 -22.5t-33.5 -17.5t-45 -8
q-38 0 -79.5 26.5t-61.5 26.5q-19 0 -34 -12t-20 -24l-5 -12l-56 49q1 3 4 8t13 17.5t22.5 22t33.5 17.5t45 8z" />
    <glyph glyph-name="aring.smcp" unicode="&#xe226;" horiz-adv-x="557" 
d="M172 711q0 44 29.5 72t76.5 28t76.5 -28t29.5 -72q0 -43 -29.5 -71.5t-76.5 -28.5t-76.5 28.5t-29.5 71.5zM232 711q0 -19 13 -32.5t33 -13.5t33 13.5t13 32.5q0 20 -13 32.5t-33 12.5t-33 -12.5t-13 -32.5zM337 564l203 -564h-115l-47 136h-204l-47 -136h-110l203 564
h117zM277 449h-3q-3 -15 -20.5 -71.5t-33.5 -105.5l-15 -48h143q-63 191 -71 225z" />
    <glyph glyph-name="aring.smcp" unicode="&#xf7e5;" horiz-adv-x="557" 
d="M172 711q0 44 29.5 72t76.5 28t76.5 -28t29.5 -72q0 -43 -29.5 -71.5t-76.5 -28.5t-76.5 28.5t-29.5 71.5zM232 711q0 -19 13 -32.5t33 -13.5t33 13.5t13 32.5q0 20 -13 32.5t-33 12.5t-33 -12.5t-13 -32.5zM337 564l203 -564h-115l-47 136h-204l-47 -136h-110l203 564
h117zM277 449h-3q-3 -15 -20.5 -71.5t-33.5 -105.5l-15 -48h143q-63 191 -71 225z" />
    <glyph glyph-name="amacron.smcp" unicode="&#xe228;" horiz-adv-x="557" 
d="M142 625v74h273v-74h-273zM337 564l203 -564h-115l-47 136h-204l-47 -136h-110l203 564h117zM277 449h-3q-3 -15 -20.5 -71.5t-33.5 -105.5l-15 -48h143q-63 191 -71 225z" />
    <glyph glyph-name="amacron.smcp" unicode="&#xf641;" horiz-adv-x="557" 
d="M142 625v74h273v-74h-273zM337 564l203 -564h-115l-47 136h-204l-47 -136h-110l203 564h117zM277 449h-3q-3 -15 -20.5 -71.5t-33.5 -105.5l-15 -48h143q-63 191 -71 225z" />
    <glyph glyph-name="abreve.smcp" unicode="&#xe229;" horiz-adv-x="557" 
d="M337 564l203 -564h-115l-47 136h-204l-47 -136h-110l203 564h117zM277 449h-3q-3 -15 -20.5 -71.5t-33.5 -105.5l-15 -48h143q-63 191 -71 225zM116 736l83 24q5 -29 26.5 -49.5t52.5 -20.5t52.5 20.5t26.5 49.5l83 -24q-12 -53 -56 -86t-106 -33t-106 33t-56 86z" />
    <glyph glyph-name="abreve.smcp" unicode="&#xf640;" horiz-adv-x="557" 
d="M337 564l203 -564h-115l-47 136h-204l-47 -136h-110l203 564h117zM277 449h-3q-3 -15 -20.5 -71.5t-33.5 -105.5l-15 -48h143q-63 191 -71 225zM116 736l83 24q5 -29 26.5 -49.5t52.5 -20.5t52.5 20.5t26.5 49.5l83 -24q-12 -53 -56 -86t-106 -33t-106 33t-56 86z" />
    <glyph glyph-name="f_f_j" unicode="&#xe22a;" horiz-adv-x="884" 
d="M698 390h-180v-390h-113v390h-195v-390h-113v390h-80v84h80v57q0 92 49 134.5t119 42.5q82 0 125 -35l-47 -86q-29 27 -67 27q-66 0 -66 -82v-58h195v39q0 98 58.5 149t143.5 51q54 0 100 -21.5t72 -59.5l-79 -68q-40 55 -89 55q-43 0 -68 -29.5t-25 -79.5v-36h294v-521
q0 -85 -50 -125.5t-118 -40.5q-62 0 -116 32l47 88q33 -24 64 -24q59 0 59 77v430z" />
    <glyph glyph-name="f_f_j" unicode="&#xe384;" horiz-adv-x="884" 
d="M698 390h-180v-390h-113v390h-195v-390h-113v390h-80v84h80v57q0 92 49 134.5t119 42.5q82 0 125 -35l-47 -86q-29 27 -67 27q-66 0 -66 -82v-58h195v39q0 98 58.5 149t143.5 51q54 0 100 -21.5t72 -59.5l-79 -68q-40 55 -89 55q-43 0 -68 -29.5t-25 -79.5v-36h294v-521
q0 -85 -50 -125.5t-118 -40.5q-62 0 -116 32l47 88q33 -24 64 -24q59 0 59 77v430z" />
    <glyph glyph-name="f_f_k" unicode="&#xe22b;" horiz-adv-x="1183" 
d="M17 390v84h80v59q0 91 48.5 133t117.5 42q78 0 124 -34l-46 -87q-31 27 -66 27q-65 0 -65 -80v-60h194v67q0 86 44.5 129t114.5 43q71 0 112 -30l-42 -87q-25 22 -59 22q-56 0 -56 -77v-67h101v-84h-101v-390h-114v390h-194v-390h-113v390h-80zM1044 0l-161 230l-48 -44
v-186h-114v700h114v-396l184 170h133l-187 -174l213 -300h-134z" />
    <glyph glyph-name="f_f_k" unicode="&#xe385;" horiz-adv-x="1183" 
d="M17 390v84h80v59q0 91 48.5 133t117.5 42q78 0 124 -34l-46 -87q-31 27 -66 27q-65 0 -65 -80v-60h194v67q0 86 44.5 129t114.5 43q71 0 112 -30l-42 -87q-25 22 -59 22q-56 0 -56 -77v-67h101v-84h-101v-390h-114v390h-194v-390h-113v390h-80zM1044 0l-161 230l-48 -44
v-186h-114v700h114v-396l184 170h133l-187 -174l213 -300h-134z" />
    <glyph glyph-name="aogonek.smcp" unicode="&#xe22f;" horiz-adv-x="557" 
d="M337 564l203 -564q-103 -52 -103 -99q0 -36 43 -36q33 0 59 39l46 -42q-50 -64 -119 -64q-47 0 -79 23t-32 70q0 35 17.5 60t52.5 49l-47 136h-204l-47 -136h-110l203 564h117zM277 449h-3q-3 -15 -20.5 -71.5t-33.5 -105.5l-15 -48h143q-63 191 -71 225z" />
    <glyph glyph-name="aogonek.smcp" unicode="&#xf642;" horiz-adv-x="557" 
d="M337 564l203 -564q-103 -52 -103 -99q0 -36 43 -36q33 0 59 39l46 -42q-50 -64 -119 -64q-47 0 -79 23t-32 70q0 35 17.5 60t52.5 49l-47 136h-204l-47 -136h-110l203 564h117zM277 449h-3q-3 -15 -20.5 -71.5t-33.5 -105.5l-15 -48h143q-63 191 -71 225z" />
    <glyph glyph-name="edieresis.smcp" unicode="&#xe230;" horiz-adv-x="505" 
d="M306 686q0 28 18 45.5t47 17.5t47 -17.5t18 -45.5q0 -27 -18.5 -45t-46.5 -18t-46.5 18t-18.5 45zM102 686q0 28 18 45.5t47 17.5t47 -17.5t18 -45.5q0 -27 -18.5 -45t-46.5 -18t-46.5 18t-18.5 45zM461 0h-380v564h375v-93h-263v-135h245v-92h-245v-151h268v-93z" />
    <glyph glyph-name="edieresis.smcp" unicode="&#xf7eb;" horiz-adv-x="505" 
d="M306 686q0 28 18 45.5t47 17.5t47 -17.5t18 -45.5q0 -27 -18.5 -45t-46.5 -18t-46.5 18t-18.5 45zM102 686q0 28 18 45.5t47 17.5t47 -17.5t18 -45.5q0 -27 -18.5 -45t-46.5 -18t-46.5 18t-18.5 45zM461 0h-380v564h375v-93h-263v-135h245v-92h-245v-151h268v-93z" />
    <glyph glyph-name="ae.smcp" unicode="&#xe231;" horiz-adv-x="801" 
d="M757 0h-377v136h-174l-73 -136h-120l308 564h431v-93h-263v-135h245v-92h-245v-151h268v-93zM377 459l-124 -235h127v235h-3z" />
    <glyph glyph-name="ae.smcp" unicode="&#xf7e6;" horiz-adv-x="801" 
d="M757 0h-377v136h-174l-73 -136h-120l308 564h431v-93h-263v-135h245v-92h-245v-151h268v-93zM377 459l-124 -235h127v235h-3z" />
    <glyph glyph-name="cacute.smcp" unicode="&#xe234;" horiz-adv-x="589" 
d="M386 801l50 -82l-202 -109l-37 60zM51 281q0 137 73 216t199 79q182 0 234 -156l-109 -38q-32 100 -128 100q-73 0 -112.5 -54.5t-39.5 -146.5q0 -90 39.5 -145t113.5 -55q94 0 126 96l108 -38q-61 -152 -235 -152q-124 0 -196.5 78.5t-72.5 215.5z" />
    <glyph glyph-name="cacute.smcp" unicode="&#xf643;" horiz-adv-x="589" 
d="M386 801l50 -82l-202 -109l-37 60zM51 281q0 137 73 216t199 79q182 0 234 -156l-109 -38q-32 100 -128 100q-73 0 -112.5 -54.5t-39.5 -146.5q0 -90 39.5 -145t113.5 -55q94 0 126 96l108 -38q-61 -152 -235 -152q-124 0 -196.5 78.5t-72.5 215.5z" />
    <glyph glyph-name="ccircumflex.smcp" unicode="&#xe235;" horiz-adv-x="589" 
d="M167 658l115 128h74l115 -128l-55 -50l-98 106l-98 -106zM51 281q0 137 73 216t199 79q182 0 234 -156l-109 -38q-32 100 -128 100q-73 0 -112.5 -54.5t-39.5 -146.5q0 -90 39.5 -145t113.5 -55q94 0 126 96l108 -38q-61 -152 -235 -152q-124 0 -196.5 78.5t-72.5 215.5z
" />
    <glyph glyph-name="ccircumflex.smcp" unicode="&#xf628;" horiz-adv-x="589" 
d="M167 658l115 128h74l115 -128l-55 -50l-98 106l-98 -106zM51 281q0 137 73 216t199 79q182 0 234 -156l-109 -38q-32 100 -128 100q-73 0 -112.5 -54.5t-39.5 -146.5q0 -90 39.5 -145t113.5 -55q94 0 126 96l108 -38q-61 -152 -235 -152q-124 0 -196.5 78.5t-72.5 215.5z
" />
    <glyph glyph-name="ccaron.smcp" unicode="&#xe236;" horiz-adv-x="589" 
d="M474 740l-116 -128h-73l-116 128l55 50l98 -106l98 106zM51 281q0 137 73 216t199 79q182 0 234 -156l-109 -38q-32 100 -128 100q-73 0 -112.5 -54.5t-39.5 -146.5q0 -90 39.5 -145t113.5 -55q94 0 126 96l108 -38q-61 -152 -235 -152q-124 0 -196.5 78.5t-72.5 215.5z
" />
    <glyph glyph-name="ccaron.smcp" unicode="&#xf644;" horiz-adv-x="589" 
d="M474 740l-116 -128h-73l-116 128l55 50l98 -106l98 106zM51 281q0 137 73 216t199 79q182 0 234 -156l-109 -38q-32 100 -128 100q-73 0 -112.5 -54.5t-39.5 -146.5q0 -90 39.5 -145t113.5 -55q94 0 126 96l108 -38q-61 -152 -235 -152q-124 0 -196.5 78.5t-72.5 215.5z
" />
    <glyph glyph-name="cdotaccent.smcp" unicode="&#xe237;" horiz-adv-x="589" 
d="M51 281q0 137 73 216t199 79q182 0 234 -156l-109 -38q-32 100 -128 100q-73 0 -112.5 -54.5t-39.5 -146.5q0 -90 39.5 -145t113.5 -55q94 0 126 96l108 -38q-61 -152 -235 -152q-124 0 -196.5 78.5t-72.5 215.5zM253 688q0 31 19.5 50.5t50.5 19.5t50.5 -19.5
t19.5 -50.5q0 -29 -19.5 -48.5t-50.5 -19.5t-50.5 19.5t-19.5 48.5z" />
    <glyph glyph-name="cdotaccent.smcp" unicode="&#xf629;" horiz-adv-x="589" 
d="M51 281q0 137 73 216t199 79q182 0 234 -156l-109 -38q-32 100 -128 100q-73 0 -112.5 -54.5t-39.5 -146.5q0 -90 39.5 -145t113.5 -55q94 0 126 96l108 -38q-61 -152 -235 -152q-124 0 -196.5 78.5t-72.5 215.5zM253 688q0 31 19.5 50.5t50.5 19.5t50.5 -19.5
t19.5 -50.5q0 -29 -19.5 -48.5t-50.5 -19.5t-50.5 19.5t-19.5 48.5z" />
    <glyph glyph-name="ccedilla.smcp" unicode="&#xe238;" horiz-adv-x="589" 
d="M227 -199l33 45q20 -20 53 -20q19 0 30 11t11 29q0 36 -39 36q-25 0 -39 -14l-30 32l30 70q-105 14 -165 90.5t-60 200.5q0 137 73 216t199 79q182 0 234 -156l-109 -38q-32 100 -128 100q-73 0 -112.5 -54.5t-39.5 -146.5q0 -90 39.5 -145t113.5 -55q94 0 126 96
l108 -38q-59 -146 -225 -152l-17 -40q12 6 29 6q35 0 58.5 -22.5t23.5 -62.5q0 -45 -31.5 -71.5t-79.5 -26.5q-55 0 -86 31z" />
    <glyph glyph-name="ccedilla.smcp" unicode="&#xf7e7;" horiz-adv-x="589" 
d="M227 -199l33 45q20 -20 53 -20q19 0 30 11t11 29q0 36 -39 36q-25 0 -39 -14l-30 32l30 70q-105 14 -165 90.5t-60 200.5q0 137 73 216t199 79q182 0 234 -156l-109 -38q-32 100 -128 100q-73 0 -112.5 -54.5t-39.5 -146.5q0 -90 39.5 -145t113.5 -55q94 0 126 96
l108 -38q-59 -146 -225 -152l-17 -40q12 6 29 6q35 0 58.5 -22.5t23.5 -62.5q0 -45 -31.5 -71.5t-79.5 -26.5q-55 0 -86 31z" />
    <glyph glyph-name="dcaron.smcp" unicode="&#xe239;" horiz-adv-x="615" 
d="M439 740l-116 -128h-73l-116 128l55 50l98 -106l98 106zM81 0v564h207q129 0 202 -74.5t73 -207.5q0 -134 -73 -208t-202 -74h-207zM446 282q0 88 -40.5 138.5t-122.5 50.5h-90v-378h90q82 0 122.5 50t40.5 139z" />
    <glyph glyph-name="dcaron.smcp" unicode="&#xf645;" horiz-adv-x="615" 
d="M439 740l-116 -128h-73l-116 128l55 50l98 -106l98 106zM81 0v564h207q129 0 202 -74.5t73 -207.5q0 -134 -73 -208t-202 -74h-207zM446 282q0 88 -40.5 138.5t-122.5 50.5h-90v-378h90q82 0 122.5 50t40.5 139z" />
    <glyph glyph-name="dcroat.smcp" unicode="&#xe23c;" horiz-adv-x="629" 
d="M95 0v252h-63v79h63v233h207q129 0 202 -74.5t73 -207.5q0 -134 -73 -208t-202 -74h-207zM460 282q0 88 -40.5 138.5t-122.5 50.5h-90v-140h121v-79h-121v-159h90q82 0 122.5 50t40.5 139z" />
    <glyph glyph-name="dcroat.smcp" unicode="&#xf646;" horiz-adv-x="629" 
d="M95 0v252h-63v79h63v233h207q129 0 202 -74.5t73 -207.5q0 -134 -73 -208t-202 -74h-207zM460 282q0 88 -40.5 138.5t-122.5 50.5h-90v-140h121v-79h-121v-159h90q82 0 122.5 50t40.5 139z" />
    <glyph glyph-name="eacute.smcp" unicode="&#xe23d;" horiz-adv-x="505" 
d="M353 801l50 -82l-202 -109l-37 60zM461 0h-380v564h375v-93h-263v-135h245v-92h-245v-151h268v-93z" />
    <glyph glyph-name="eacute.smcp" unicode="&#xf7e9;" horiz-adv-x="505" 
d="M353 801l50 -82l-202 -109l-37 60zM461 0h-380v564h375v-93h-263v-135h245v-92h-245v-151h268v-93z" />
    <glyph glyph-name="egrave.smcp" unicode="&#xe23e;" horiz-adv-x="505" 
d="M461 0h-380v564h375v-93h-263v-135h245v-92h-245v-151h268v-93zM346 610l-202 109l50 82l189 -131z" />
    <glyph glyph-name="egrave.smcp" unicode="&#xf7e8;" horiz-adv-x="505" 
d="M461 0h-380v564h375v-93h-263v-135h245v-92h-245v-151h268v-93zM346 610l-202 109l50 82l189 -131z" />
    <glyph glyph-name="ecircumflex.smcp" unicode="&#xe23f;" horiz-adv-x="505" 
d="M116 658l115 128h74l115 -128l-55 -50l-98 106l-98 -106zM461 0h-380v564h375v-93h-263v-135h245v-92h-245v-151h268v-93z" />
    <glyph glyph-name="ecircumflex.smcp" unicode="&#xf7ea;" horiz-adv-x="505" 
d="M116 658l115 128h74l115 -128l-55 -50l-98 106l-98 -106zM461 0h-380v564h375v-93h-263v-135h245v-92h-245v-151h268v-93z" />
    <glyph glyph-name="gcommaaccent.smcp" unicode="&#xe240;" horiz-adv-x="632" 
d="M379 -140q0 -17 -4.5 -34.5t-15 -36.5t-33 -33t-53.5 -18l-16 43q19 0 38.5 13.5t19.5 31.5v3q-2 -1 -12 -1q-22 0 -39.5 17t-17.5 42q0 23 16.5 41.5t45.5 18.5q35 0 53 -25.5t18 -61.5zM305 216v88h254v-304h-100v61q-18 -31 -58.5 -52.5t-96.5 -21.5q-116 0 -184 84
t-68 212q0 131 74.5 212t203.5 81q82 0 142.5 -37.5t89.5 -107.5l-102 -42q-37 94 -135 94q-72 0 -114 -53.5t-42 -153.5q0 -95 39 -145.5t112 -50.5q54 0 93.5 28t39.5 79v29h-148z" />
    <glyph glyph-name="gcommaaccent.smcp" unicode="&#xf64c;" horiz-adv-x="632" 
d="M379 -140q0 -17 -4.5 -34.5t-15 -36.5t-33 -33t-53.5 -18l-16 43q19 0 38.5 13.5t19.5 31.5v3q-2 -1 -12 -1q-22 0 -39.5 17t-17.5 42q0 23 16.5 41.5t45.5 18.5q35 0 53 -25.5t18 -61.5zM305 216v88h254v-304h-100v61q-18 -31 -58.5 -52.5t-96.5 -21.5q-116 0 -184 84
t-68 212q0 131 74.5 212t203.5 81q82 0 142.5 -37.5t89.5 -107.5l-102 -42q-37 94 -135 94q-72 0 -114 -53.5t-42 -153.5q0 -95 39 -145.5t112 -50.5q54 0 93.5 28t39.5 79v29h-148z" />
    <glyph glyph-name="ecaron.smcp" unicode="&#xe241;" horiz-adv-x="505" 
d="M422 740l-116 -128h-73l-116 128l55 50l98 -106l98 106zM461 0h-380v564h375v-93h-263v-135h245v-92h-245v-151h268v-93z" />
    <glyph glyph-name="ecaron.smcp" unicode="&#xf647;" horiz-adv-x="505" 
d="M422 740l-116 -128h-73l-116 128l55 50l98 -106l98 106zM461 0h-380v564h375v-93h-263v-135h245v-92h-245v-151h268v-93z" />
    <glyph glyph-name="emacron.smcp" unicode="&#xe242;" horiz-adv-x="505" 
d="M461 0h-380v564h375v-93h-263v-135h245v-92h-245v-151h268v-93zM134 625v74h273v-74h-273z" />
    <glyph glyph-name="emacron.smcp" unicode="&#xf649;" horiz-adv-x="505" 
d="M461 0h-380v564h375v-93h-263v-135h245v-92h-245v-151h268v-93zM134 625v74h273v-74h-273z" />
    <glyph glyph-name="ebreve.smcp" unicode="&#xe243;" horiz-adv-x="505" 
d="M461 0h-380v564h375v-93h-263v-135h245v-92h-245v-151h268v-93zM106 736l83 24q5 -29 26.5 -49.5t52.5 -20.5t52.5 20.5t26.5 49.5l83 -24q-12 -53 -56 -86t-106 -33t-106 33t-56 86z" />
    <glyph glyph-name="ebreve.smcp" unicode="&#xf62a;" horiz-adv-x="505" 
d="M461 0h-380v564h375v-93h-263v-135h245v-92h-245v-151h268v-93zM106 736l83 24q5 -29 26.5 -49.5t52.5 -20.5t52.5 20.5t26.5 49.5l83 -24q-12 -53 -56 -86t-106 -33t-106 33t-56 86z" />
    <glyph glyph-name="edotaccent.smcp" unicode="&#xe246;" horiz-adv-x="505" 
d="M461 0h-380v564h375v-93h-263v-135h245v-92h-245v-151h268v-93zM201 688q0 31 19.5 50.5t50.5 19.5t50.5 -19.5t19.5 -50.5q0 -29 -19.5 -48.5t-50.5 -19.5t-50.5 19.5t-19.5 48.5z" />
    <glyph glyph-name="edotaccent.smcp" unicode="&#xf648;" horiz-adv-x="505" 
d="M461 0h-380v564h375v-93h-263v-135h245v-92h-245v-151h268v-93zM201 688q0 31 19.5 50.5t50.5 19.5t50.5 -19.5t19.5 -50.5q0 -29 -19.5 -48.5t-50.5 -19.5t-50.5 19.5t-19.5 48.5z" />
    <glyph glyph-name="eogonek.smcp" unicode="&#xe249;" horiz-adv-x="505" 
d="M461 0h-61q-101 -53 -101 -99q0 -36 43 -36q33 0 59 39l46 -42q-50 -64 -119 -64q-47 0 -79 23t-32 70q0 35 18 60t53 49h-207v564h375v-93h-263v-135h245v-92h-245v-151h268v-93z" />
    <glyph glyph-name="eogonek.smcp" unicode="&#xf64a;" horiz-adv-x="505" 
d="M461 0h-61q-101 -53 -101 -99q0 -36 43 -36q33 0 59 39l46 -42q-50 -64 -119 -64q-47 0 -79 23t-32 70q0 35 18 60t53 49h-207v564h375v-93h-263v-135h245v-92h-245v-151h268v-93z" />
    <glyph glyph-name="gcircumflex.smcp" unicode="&#xe24b;" horiz-adv-x="632" 
d="M305 216v88h254v-304h-100v61q-18 -31 -58.5 -52.5t-96.5 -21.5q-116 0 -184 84t-68 212q0 131 74.5 212t203.5 81q82 0 142.5 -37.5t89.5 -107.5l-102 -42q-37 94 -135 94q-72 0 -114 -53.5t-42 -153.5q0 -95 39 -145.5t112 -50.5q54 0 93.5 28t39.5 79v29h-148z
M173 658l115 128h74l115 -128l-55 -50l-98 106l-98 -106z" />
    <glyph glyph-name="gcircumflex.smcp" unicode="&#xf62c;" horiz-adv-x="632" 
d="M305 216v88h254v-304h-100v61q-18 -31 -58.5 -52.5t-96.5 -21.5q-116 0 -184 84t-68 212q0 131 74.5 212t203.5 81q82 0 142.5 -37.5t89.5 -107.5l-102 -42q-37 94 -135 94q-72 0 -114 -53.5t-42 -153.5q0 -95 39 -145.5t112 -50.5q54 0 93.5 28t39.5 79v29h-148z
M173 658l115 128h74l115 -128l-55 -50l-98 106l-98 -106z" />
    <glyph glyph-name="gbreve.smcp" unicode="&#xe24e;" horiz-adv-x="632" 
d="M305 216v88h254v-304h-100v61q-18 -31 -58.5 -52.5t-96.5 -21.5q-116 0 -184 84t-68 212q0 131 74.5 212t203.5 81q82 0 142.5 -37.5t89.5 -107.5l-102 -42q-37 94 -135 94q-72 0 -114 -53.5t-42 -153.5q0 -95 39 -145.5t112 -50.5q54 0 93.5 28t39.5 79v29h-148z
M164 736l83 24q5 -29 26.5 -49.5t52.5 -20.5t52.5 20.5t26.5 49.5l83 -24q-12 -53 -56 -86t-106 -33t-106 33t-56 86z" />
    <glyph glyph-name="gbreve.smcp" unicode="&#xf64b;" horiz-adv-x="632" 
d="M305 216v88h254v-304h-100v61q-18 -31 -58.5 -52.5t-96.5 -21.5q-116 0 -184 84t-68 212q0 131 74.5 212t203.5 81q82 0 142.5 -37.5t89.5 -107.5l-102 -42q-37 94 -135 94q-72 0 -114 -53.5t-42 -153.5q0 -95 39 -145.5t112 -50.5q54 0 93.5 28t39.5 79v29h-148z
M164 736l83 24q5 -29 26.5 -49.5t52.5 -20.5t52.5 20.5t26.5 49.5l83 -24q-12 -53 -56 -86t-106 -33t-106 33t-56 86z" />
    <glyph glyph-name="gdotaccent.smcp" unicode="&#xe24f;" horiz-adv-x="632" 
d="M305 216v88h254v-304h-100v61q-18 -31 -58.5 -52.5t-96.5 -21.5q-116 0 -184 84t-68 212q0 131 74.5 212t203.5 81q82 0 142.5 -37.5t89.5 -107.5l-102 -42q-37 94 -135 94q-72 0 -114 -53.5t-42 -153.5q0 -95 39 -145.5t112 -50.5q54 0 93.5 28t39.5 79v29h-148z
M257 688q0 31 19.5 50.5t50.5 19.5t50.5 -19.5t19.5 -50.5q0 -29 -19.5 -48.5t-50.5 -19.5t-50.5 19.5t-19.5 48.5z" />
    <glyph glyph-name="gdotaccent.smcp" unicode="&#xf62d;" horiz-adv-x="632" 
d="M305 216v88h254v-304h-100v61q-18 -31 -58.5 -52.5t-96.5 -21.5q-116 0 -184 84t-68 212q0 131 74.5 212t203.5 81q82 0 142.5 -37.5t89.5 -107.5l-102 -42q-37 94 -135 94q-72 0 -114 -53.5t-42 -153.5q0 -95 39 -145.5t112 -50.5q54 0 93.5 28t39.5 79v29h-148z
M257 688q0 31 19.5 50.5t50.5 19.5t50.5 -19.5t19.5 -50.5q0 -29 -19.5 -48.5t-50.5 -19.5t-50.5 19.5t-19.5 48.5z" />
    <glyph glyph-name="hcircumflex.smcp" unicode="&#xe253;" horiz-adv-x="613" 
d="M155 658l115 128h74l115 -128l-55 -50l-98 106l-98 -106zM81 0v564h112v-227h227v227h112v-564h-112v244h-227v-244h-112z" />
    <glyph glyph-name="hcircumflex.smcp" unicode="&#xf62f;" horiz-adv-x="613" 
d="M155 658l115 128h74l115 -128l-55 -50l-98 106l-98 -106zM81 0v564h112v-227h227v227h112v-564h-112v244h-227v-244h-112z" />
    <glyph glyph-name="hbar.smcp" unicode="&#xe257;" horiz-adv-x="613" 
d="M81 0v403h-57v78h57v83h112v-83h227v83h112v-83h57v-78h-57v-403h-112v244h-227v-244h-112zM193 337h227v66h-227v-66z" />
    <glyph glyph-name="hbar.smcp" unicode="&#xf62e;" horiz-adv-x="613" 
d="M81 0v403h-57v78h57v83h112v-83h227v83h112v-83h57v-78h-57v-403h-112v244h-227v-244h-112zM193 337h227v66h-227v-66z" />
    <glyph glyph-name="iacute.smcp" unicode="&#xe258;" horiz-adv-x="274" 
d="M203 801l50 -82l-202 -109l-37 60zM81 0v564h112v-564h-112z" />
    <glyph glyph-name="iacute.smcp" unicode="&#xf7ed;" horiz-adv-x="274" 
d="M203 801l50 -82l-202 -109l-37 60zM81 0v564h112v-564h-112z" />
    <glyph glyph-name="igrave.smcp" unicode="&#xe259;" horiz-adv-x="274" 
d="M81 0v564h112v-564h-112zM223 610l-202 109l50 82l189 -131z" />
    <glyph glyph-name="igrave.smcp" unicode="&#xf7ec;" horiz-adv-x="274" 
d="M81 0v564h112v-564h-112zM223 610l-202 109l50 82l189 -131z" />
    <glyph glyph-name="icircumflex.smcp" unicode="&#xe25a;" horiz-adv-x="274" 
d="M-14 658l115 128h74l115 -128l-55 -50l-98 106l-98 -106zM81 0v564h112v-564h-112z" />
    <glyph glyph-name="icircumflex.smcp" unicode="&#xf7ee;" horiz-adv-x="274" 
d="M-14 658l115 128h74l115 -128l-55 -50l-98 106l-98 -106zM81 0v564h112v-564h-112z" />
    <glyph glyph-name="idieresis.smcp" unicode="&#xe25b;" horiz-adv-x="274" 
d="M174 686q0 28 18 45.5t47 17.5t47 -17.5t18 -45.5q0 -27 -18.5 -45t-46.5 -18t-46.5 18t-18.5 45zM-30 686q0 28 18 45.5t47 17.5t47 -17.5t18 -45.5q0 -27 -18.5 -45t-46.5 -18t-46.5 18t-18.5 45zM81 0v564h112v-564h-112z" />
    <glyph glyph-name="idieresis.smcp" unicode="&#xf7ef;" horiz-adv-x="274" 
d="M174 686q0 28 18 45.5t47 17.5t47 -17.5t18 -45.5q0 -27 -18.5 -45t-46.5 -18t-46.5 18t-18.5 45zM-30 686q0 28 18 45.5t47 17.5t47 -17.5t18 -45.5q0 -27 -18.5 -45t-46.5 -18t-46.5 18t-18.5 45zM81 0v564h112v-564h-112z" />
    <glyph glyph-name="itilde.smcp" unicode="&#xe25c;" horiz-adv-x="274" 
d="M81 0v564h112v-564h-112zM67 748q39 0 81 -26.5t61 -26.5t33.5 12.5t19.5 24.5l6 12l56 -49q-1 -3 -4 -8t-13.5 -18t-23 -22.5t-33.5 -17.5t-45 -8q-38 0 -79.5 26.5t-61.5 26.5q-19 0 -34 -12t-20 -24l-5 -12l-56 49q1 3 4 8t13 17.5t22.5 22t33.5 17.5t45 8z" />
    <glyph glyph-name="itilde.smcp" unicode="&#xf632;" horiz-adv-x="274" 
d="M81 0v564h112v-564h-112zM67 748q39 0 81 -26.5t61 -26.5t33.5 12.5t19.5 24.5l6 12l56 -49q-1 -3 -4 -8t-13.5 -18t-23 -22.5t-33.5 -17.5t-45 -8q-38 0 -79.5 26.5t-61.5 26.5q-19 0 -34 -12t-20 -24l-5 -12l-56 49q1 3 4 8t13 17.5t22.5 22t33.5 17.5t45 8z" />
    <glyph glyph-name="imacron.smcp" unicode="&#xe25e;" horiz-adv-x="274" 
d="M1 625v74h273v-74h-273zM81 0v564h112v-564h-112z" />
    <glyph glyph-name="imacron.smcp" unicode="&#xf64d;" horiz-adv-x="274" 
d="M1 625v74h273v-74h-273zM81 0v564h112v-564h-112z" />
    <glyph glyph-name="ibreve.smcp" unicode="&#xe25f;" horiz-adv-x="274" 
d="M81 0v564h112v-564h-112zM-25 736l83 24q5 -29 26.5 -49.5t52.5 -20.5t52.5 20.5t26.5 49.5l83 -24q-12 -53 -56 -86t-106 -33t-106 33t-56 86z" />
    <glyph glyph-name="ibreve.smcp" unicode="&#xf630;" horiz-adv-x="274" 
d="M81 0v564h112v-564h-112zM-25 736l83 24q5 -29 26.5 -49.5t52.5 -20.5t52.5 20.5t26.5 49.5l83 -24q-12 -53 -56 -86t-106 -33t-106 33t-56 86z" />
    <glyph glyph-name="idotaccent.smcp" unicode="&#xe262;" horiz-adv-x="274" 
d="M81 0v564h112v-564h-112zM67 688q0 31 19.5 50.5t50.5 19.5t50.5 -19.5t19.5 -50.5q0 -29 -19.5 -48.5t-50.5 -19.5t-50.5 19.5t-19.5 48.5z" />
    <glyph glyph-name="idotaccent.smcp" unicode="&#xf666;" horiz-adv-x="274" 
d="M81 0v564h112v-564h-112zM67 688q0 31 19.5 50.5t50.5 19.5t50.5 -19.5t19.5 -50.5q0 -29 -19.5 -48.5t-50.5 -19.5t-50.5 19.5t-19.5 48.5z" />
    <glyph glyph-name="iogonek.smcp" unicode="&#xe264;" horiz-adv-x="274" 
d="M92 -99q0 -36 43 -36q33 0 59 39l46 -42q-50 -64 -119 -64q-47 0 -79 23t-32 70q0 35 18 60t53 49v564h112v-564q-101 -53 -101 -99z" />
    <glyph glyph-name="iogonek.smcp" unicode="&#xf64e;" horiz-adv-x="274" 
d="M92 -99q0 -36 43 -36q33 0 59 39l46 -42q-50 -64 -119 -64q-47 0 -79 23t-32 70q0 35 18 60t53 49v564h112v-564q-101 -53 -101 -99z" />
    <glyph glyph-name="jcircumflex.smcp" unicode="&#xe265;" horiz-adv-x="410" 
d="M126 658l115 128h74l115 -128l-55 -50l-98 106l-98 -106zM159 80q34 0 48.5 25t14.5 79v380h113v-380q0 -96 -38 -146.5t-135 -50.5q-102 0 -157 66l76 73q21 -24 38 -35t40 -11z" />
    <glyph glyph-name="jcircumflex.smcp" unicode="&#xf633;" horiz-adv-x="410" 
d="M126 658l115 128h74l115 -128l-55 -50l-98 106l-98 -106zM159 80q34 0 48.5 25t14.5 79v380h113v-380q0 -96 -38 -146.5t-135 -50.5q-102 0 -157 66l76 73q21 -24 38 -35t40 -11z" />
    <glyph glyph-name="kcommaaccent.smcp" unicode="&#xe268;" horiz-adv-x="557" 
d="M367 -140q0 -17 -4.5 -34.5t-15 -36.5t-33 -33t-53.5 -18l-16 43q19 0 38.5 13.5t19.5 31.5v3q-2 -1 -12 -1q-22 0 -39.5 17t-17.5 42q0 23 16.5 41.5t45.5 18.5q35 0 53 -25.5t18 -61.5zM410 0l-167 252l-50 -52v-200h-112v564h112v-223l201 223h130l-204 -228l225 -336
h-135z" />
    <glyph glyph-name="kcommaaccent.smcp" unicode="&#xf64f;" horiz-adv-x="557" 
d="M367 -140q0 -17 -4.5 -34.5t-15 -36.5t-33 -33t-53.5 -18l-16 43q19 0 38.5 13.5t19.5 31.5v3q-2 -1 -12 -1q-22 0 -39.5 17t-17.5 42q0 23 16.5 41.5t45.5 18.5q35 0 53 -25.5t18 -61.5zM410 0l-167 252l-50 -52v-200h-112v564h112v-223l201 223h130l-204 -228l225 -336
h-135z" />
    <glyph glyph-name="lacute.smcp" unicode="&#xe26b;" horiz-adv-x="461" 
d="M81 0v564h112v-471h248v-93h-360zM254 801l50 -82l-202 -109l-37 60z" />
    <glyph glyph-name="lacute.smcp" unicode="&#xf650;" horiz-adv-x="461" 
d="M81 0v564h112v-471h248v-93h-360zM254 801l50 -82l-202 -109l-37 60z" />
    <glyph glyph-name="lcaron.smcp" unicode="&#xe26c;" horiz-adv-x="461" 
d="M301 590l87 -23l-64 -177l-64 17zM81 0v564h112v-471h248v-93h-360z" />
    <glyph glyph-name="lcaron.smcp" unicode="&#xf651;" horiz-adv-x="461" 
d="M301 590l87 -23l-64 -177l-64 17zM81 0v564h112v-471h248v-93h-360z" />
    <glyph glyph-name="lcommaaccent.smcp" unicode="&#xe26d;" horiz-adv-x="461" 
d="M333 -140q0 -17 -4.5 -34.5t-15 -36.5t-33 -33t-53.5 -18l-16 43q19 0 38.5 13.5t19.5 31.5v3q-2 -1 -12 -1q-22 0 -39.5 17t-17.5 42q0 23 16.5 41.5t45.5 18.5q35 0 53 -25.5t18 -61.5zM81 0v564h112v-471h248v-93h-360z" />
    <glyph glyph-name="lcommaaccent.smcp" unicode="&#xf652;" horiz-adv-x="461" 
d="M333 -140q0 -17 -4.5 -34.5t-15 -36.5t-33 -33t-53.5 -18l-16 43q19 0 38.5 13.5t19.5 31.5v3q-2 -1 -12 -1q-22 0 -39.5 17t-17.5 42q0 23 16.5 41.5t45.5 18.5q35 0 53 -25.5t18 -61.5zM81 0v564h112v-471h248v-93h-360z" />
    <glyph glyph-name="ldot.smcp" unicode="&#xe271;" horiz-adv-x="461" 
d="M81 0v564h112v-471h248v-93h-360zM267 297q0 31 19.5 50.5t50.5 19.5t50.5 -19.5t19.5 -50.5q0 -29 -19.5 -48.5t-50.5 -19.5t-50.5 19.5t-19.5 48.5z" />
    <glyph glyph-name="ldot.smcp" unicode="&#xf634;" horiz-adv-x="461" 
d="M81 0v564h112v-471h248v-93h-360zM267 297q0 31 19.5 50.5t50.5 19.5t50.5 -19.5t19.5 -50.5q0 -29 -19.5 -48.5t-50.5 -19.5t-50.5 19.5t-19.5 48.5z" />
    <glyph glyph-name="lslash.smcp" unicode="&#xe272;" horiz-adv-x="471" 
d="M91 0v187l-47 -27l-41 73l88 50v281h112v-217l98 56l40 -73l-138 -79v-158h248v-93h-360z" />
    <glyph glyph-name="lslash.smcp" unicode="&#xf6f9;" horiz-adv-x="471" 
d="M91 0v187l-47 -27l-41 73l88 50v281h112v-217l98 56l40 -73l-138 -79v-158h248v-93h-360z" />
    <glyph glyph-name="nacute.smcp" unicode="&#xe276;" horiz-adv-x="629" 
d="M403 801l50 -82l-202 -109l-37 60zM81 0v564h114q192 -300 248 -394h2v394h103v-564h-114l-248 393h-2v-393h-103z" />
    <glyph glyph-name="nacute.smcp" unicode="&#xf653;" horiz-adv-x="629" 
d="M403 801l50 -82l-202 -109l-37 60zM81 0v564h114q192 -300 248 -394h2v394h103v-564h-114l-248 393h-2v-393h-103z" />
    <glyph glyph-name="ntilde.smcp" unicode="&#xe279;" horiz-adv-x="629" 
d="M81 0v564h114q192 -300 248 -394h2v394h103v-564h-114l-248 393h-2v-393h-103zM245 748q39 0 81 -26.5t61 -26.5t33.5 12.5t19.5 24.5l6 12l56 -49q-1 -3 -4 -8t-13.5 -18t-23 -22.5t-33.5 -17.5t-45 -8q-38 0 -79.5 26.5t-61.5 26.5q-19 0 -34 -12t-20 -24l-5 -12
l-56 49q1 3 4 8t13 17.5t22.5 22t33.5 17.5t45 8z" />
    <glyph glyph-name="ncaron.smcp" unicode="&#xe27a;" horiz-adv-x="629" 
d="M466 740l-116 -128h-73l-116 128l55 50l98 -106l98 106zM81 0v564h114q192 -300 248 -394h2v394h103v-564h-114l-248 393h-2v-393h-103z" />
    <glyph glyph-name="ncaron.smcp" unicode="&#xf654;" horiz-adv-x="629" 
d="M466 740l-116 -128h-73l-116 128l55 50l98 -106l98 106zM81 0v564h114q192 -300 248 -394h2v394h103v-564h-114l-248 393h-2v-393h-103z" />
    <glyph glyph-name="ncommaaccent.smcp" unicode="&#xe27d;" horiz-adv-x="629" 
d="M389 -140q0 -17 -4.5 -34.5t-15 -36.5t-33 -33t-53.5 -18l-16 43q19 0 38.5 13.5t19.5 31.5v3q-2 -1 -12 -1q-22 0 -39.5 17t-17.5 42q0 23 16.5 41.5t45.5 18.5q35 0 53 -25.5t18 -61.5zM81 0v564h114q192 -300 248 -394h2v394h103v-564h-114l-248 393h-2v-393h-103z
" />
    <glyph glyph-name="ncommaaccent.smcp" unicode="&#xf655;" horiz-adv-x="629" 
d="M389 -140q0 -17 -4.5 -34.5t-15 -36.5t-33 -33t-53.5 -18l-16 43q19 0 38.5 13.5t19.5 31.5v3q-2 -1 -12 -1q-22 0 -39.5 17t-17.5 42q0 23 16.5 41.5t45.5 18.5q35 0 53 -25.5t18 -61.5zM81 0v564h114q192 -300 248 -394h2v394h103v-564h-114l-248 393h-2v-393h-103z
" />
    <glyph glyph-name="oacute.smcp" unicode="&#xe281;" horiz-adv-x="646" 
d="M52 282q0 136 74 215t197 79t197 -79t74 -215q0 -137 -74 -216t-197 -79t-197 79t-74 216zM169 282q0 -93 39 -147.5t115 -54.5t115 54.5t39 147.5q0 92 -39 146.5t-115 54.5t-115 -54.5t-39 -146.5zM390 801l50 -82l-202 -109l-37 60z" />
    <glyph glyph-name="oacute.smcp" unicode="&#xf7f3;" horiz-adv-x="646" 
d="M52 282q0 136 74 215t197 79t197 -79t74 -215q0 -137 -74 -216t-197 -79t-197 79t-74 216zM169 282q0 -93 39 -147.5t115 -54.5t115 54.5t39 147.5q0 92 -39 146.5t-115 54.5t-115 -54.5t-39 -146.5zM390 801l50 -82l-202 -109l-37 60z" />
    <glyph glyph-name="ograve.smcp" unicode="&#xe282;" horiz-adv-x="646" 
d="M52 282q0 136 74 215t197 79t197 -79t74 -215q0 -137 -74 -216t-197 -79t-197 79t-74 216zM169 282q0 -93 39 -147.5t115 -54.5t115 54.5t39 147.5q0 92 -39 146.5t-115 54.5t-115 -54.5t-39 -146.5zM406 610l-202 109l50 82l189 -131z" />
    <glyph glyph-name="ograve.smcp" unicode="&#xf7f2;" horiz-adv-x="646" 
d="M52 282q0 136 74 215t197 79t197 -79t74 -215q0 -137 -74 -216t-197 -79t-197 79t-74 216zM169 282q0 -93 39 -147.5t115 -54.5t115 54.5t39 147.5q0 92 -39 146.5t-115 54.5t-115 -54.5t-39 -146.5zM406 610l-202 109l50 82l189 -131z" />
    <glyph glyph-name="ocircumflex.smcp" unicode="&#xe283;" horiz-adv-x="646" 
d="M52 282q0 136 74 215t197 79t197 -79t74 -215q0 -137 -74 -216t-197 -79t-197 79t-74 216zM169 282q0 -93 39 -147.5t115 -54.5t115 54.5t39 147.5q0 92 -39 146.5t-115 54.5t-115 -54.5t-39 -146.5zM171 658l115 128h74l115 -128l-55 -50l-98 106l-98 -106z" />
    <glyph glyph-name="ocircumflex.smcp" unicode="&#xf7f4;" horiz-adv-x="646" 
d="M52 282q0 136 74 215t197 79t197 -79t74 -215q0 -137 -74 -216t-197 -79t-197 79t-74 216zM169 282q0 -93 39 -147.5t115 -54.5t115 54.5t39 147.5q0 92 -39 146.5t-115 54.5t-115 -54.5t-39 -146.5zM171 658l115 128h74l115 -128l-55 -50l-98 106l-98 -106z" />
    <glyph glyph-name="odieresis.smcp" unicode="&#xe284;" horiz-adv-x="646" 
d="M52 282q0 136 74 215t197 79t197 -79t74 -215q0 -137 -74 -216t-197 -79t-197 79t-74 216zM169 282q0 -93 39 -147.5t115 -54.5t115 54.5t39 147.5q0 92 -39 146.5t-115 54.5t-115 -54.5t-39 -146.5zM360 686q0 28 18 45.5t47 17.5t47 -17.5t18 -45.5q0 -27 -18.5 -45
t-46.5 -18t-46.5 18t-18.5 45zM156 686q0 28 18 45.5t47 17.5t47 -17.5t18 -45.5q0 -27 -18.5 -45t-46.5 -18t-46.5 18t-18.5 45z" />
    <glyph glyph-name="odieresis.smcp" unicode="&#xf7f6;" horiz-adv-x="646" 
d="M52 282q0 136 74 215t197 79t197 -79t74 -215q0 -137 -74 -216t-197 -79t-197 79t-74 216zM169 282q0 -93 39 -147.5t115 -54.5t115 54.5t39 147.5q0 92 -39 146.5t-115 54.5t-115 -54.5t-39 -146.5zM360 686q0 28 18 45.5t47 17.5t47 -17.5t18 -45.5q0 -27 -18.5 -45
t-46.5 -18t-46.5 18t-18.5 45zM156 686q0 28 18 45.5t47 17.5t47 -17.5t18 -45.5q0 -27 -18.5 -45t-46.5 -18t-46.5 18t-18.5 45z" />
    <glyph glyph-name="otilde.smcp" unicode="&#xe285;" horiz-adv-x="646" 
d="M52 282q0 136 74 215t197 79t197 -79t74 -215q0 -137 -74 -216t-197 -79t-197 79t-74 216zM169 282q0 -93 39 -147.5t115 -54.5t115 54.5t39 147.5q0 92 -39 146.5t-115 54.5t-115 -54.5t-39 -146.5zM253 748q39 0 81 -26.5t61 -26.5t33.5 12.5t19.5 24.5l6 12l56 -49
q-1 -3 -4 -8t-13.5 -18t-23 -22.5t-33.5 -17.5t-45 -8q-38 0 -79.5 26.5t-61.5 26.5q-19 0 -34 -12t-20 -24l-5 -12l-56 49q1 3 4 8t13 17.5t22.5 22t33.5 17.5t45 8z" />
    <glyph glyph-name="otilde.smcp" unicode="&#xf7f5;" horiz-adv-x="646" 
d="M52 282q0 136 74 215t197 79t197 -79t74 -215q0 -137 -74 -216t-197 -79t-197 79t-74 216zM169 282q0 -93 39 -147.5t115 -54.5t115 54.5t39 147.5q0 92 -39 146.5t-115 54.5t-115 -54.5t-39 -146.5zM253 748q39 0 81 -26.5t61 -26.5t33.5 12.5t19.5 24.5l6 12l56 -49
q-1 -3 -4 -8t-13.5 -18t-23 -22.5t-33.5 -17.5t-45 -8q-38 0 -79.5 26.5t-61.5 26.5q-19 0 -34 -12t-20 -24l-5 -12l-56 49q1 3 4 8t13 17.5t22.5 22t33.5 17.5t45 8z" />
    <glyph glyph-name="omacron.smcp" unicode="&#xe287;" horiz-adv-x="646" 
d="M52 282q0 136 74 215t197 79t197 -79t74 -215q0 -137 -74 -216t-197 -79t-197 79t-74 216zM169 282q0 -93 39 -147.5t115 -54.5t115 54.5t39 147.5q0 92 -39 146.5t-115 54.5t-115 -54.5t-39 -146.5zM186 625v74h273v-74h-273z" />
    <glyph glyph-name="omacron.smcp" unicode="&#xf657;" horiz-adv-x="646" 
d="M52 282q0 136 74 215t197 79t197 -79t74 -215q0 -137 -74 -216t-197 -79t-197 79t-74 216zM169 282q0 -93 39 -147.5t115 -54.5t115 54.5t39 147.5q0 92 -39 146.5t-115 54.5t-115 -54.5t-39 -146.5zM186 625v74h273v-74h-273z" />
    <glyph glyph-name="obreve.smcp" unicode="&#xe288;" horiz-adv-x="646" 
d="M52 282q0 136 74 215t197 79t197 -79t74 -215q0 -137 -74 -216t-197 -79t-197 79t-74 216zM169 282q0 -93 39 -147.5t115 -54.5t115 54.5t39 147.5q0 92 -39 146.5t-115 54.5t-115 -54.5t-39 -146.5zM160 736l83 24q5 -29 26.5 -49.5t52.5 -20.5t52.5 20.5t26.5 49.5
l83 -24q-12 -53 -56 -86t-106 -33t-106 33t-56 86z" />
    <glyph glyph-name="obreve.smcp" unicode="&#xf635;" horiz-adv-x="646" 
d="M52 282q0 136 74 215t197 79t197 -79t74 -215q0 -137 -74 -216t-197 -79t-197 79t-74 216zM169 282q0 -93 39 -147.5t115 -54.5t115 54.5t39 147.5q0 92 -39 146.5t-115 54.5t-115 -54.5t-39 -146.5zM160 736l83 24q5 -29 26.5 -49.5t52.5 -20.5t52.5 20.5t26.5 49.5
l83 -24q-12 -53 -56 -86t-106 -33t-106 33t-56 86z" />
    <glyph glyph-name="ohungarumlaut.smcp" unicode="&#xe28a;" horiz-adv-x="646" 
d="M52 282q0 136 74 215t197 79t197 -79t74 -215q0 -137 -74 -216t-197 -79t-197 79t-74 216zM169 282q0 -93 39 -147.5t115 -54.5t115 54.5t39 147.5q0 92 -39 146.5t-115 54.5t-115 -54.5t-39 -146.5zM540 809l56 -78l-192 -121l-40 56zM306 809l57 -78l-192 -121l-41 56z
" />
    <glyph glyph-name="ohungarumlaut.smcp" unicode="&#xf656;" horiz-adv-x="646" 
d="M52 282q0 136 74 215t197 79t197 -79t74 -215q0 -137 -74 -216t-197 -79t-197 79t-74 216zM169 282q0 -93 39 -147.5t115 -54.5t115 54.5t39 147.5q0 92 -39 146.5t-115 54.5t-115 -54.5t-39 -146.5zM540 809l56 -78l-192 -121l-40 56zM306 809l57 -78l-192 -121l-41 56z
" />
    <glyph glyph-name="oslash.smcp" unicode="&#xe295;" horiz-adv-x="646" 
d="M52 282q0 136 74 215t197 79q72 0 128 -29l44 69l59 -37l-45 -71q85 -80 85 -226q0 -137 -74 -216t-197 -79q-70 0 -128 28l-43 -68l-60 35l46 72q-86 80 -86 228zM169 282q0 -82 29 -133l200 315q-33 19 -75 19q-76 0 -115 -54.5t-39 -146.5zM477 282q0 78 -29 130
l-200 -314q32 -18 75 -18q76 0 115 54.5t39 147.5z" />
    <glyph glyph-name="oslash.smcp" unicode="&#xf7f8;" horiz-adv-x="646" 
d="M52 282q0 136 74 215t197 79q72 0 128 -29l44 69l59 -37l-45 -71q85 -80 85 -226q0 -137 -74 -216t-197 -79q-70 0 -128 28l-43 -68l-60 35l46 72q-86 80 -86 228zM169 282q0 -82 29 -133l200 315q-33 19 -75 19q-76 0 -115 -54.5t-39 -146.5zM477 282q0 78 -29 130
l-200 -314q32 -18 75 -18q76 0 115 54.5t39 147.5z" />
    <glyph glyph-name="oe.smcp" unicode="&#xe298;" horiz-adv-x="894" 
d="M52 282q0 133 74.5 213.5t185.5 80.5q56 0 97.5 -20.5t60.5 -52.5v61h375v-94h-263v-134h245v-92h-245v-151h268v-93h-380v59q-50 -72 -156 -72q-114 0 -188 81t-74 214zM169 282q0 -91 39.5 -146.5t113.5 -55.5q72 0 110 53t39 139v15q-1 93 -42 144.5t-108 51.5
q-72 0 -112 -55t-40 -146z" />
    <glyph glyph-name="oe.smcp" unicode="&#xf6fa;" horiz-adv-x="894" 
d="M52 282q0 133 74.5 213.5t185.5 80.5q56 0 97.5 -20.5t60.5 -52.5v61h375v-94h-263v-134h245v-92h-245v-151h268v-93h-380v59q-50 -72 -156 -72q-114 0 -188 81t-74 214zM169 282q0 -91 39.5 -146.5t113.5 -55.5q72 0 110 53t39 139v15q-1 93 -42 144.5t-108 51.5
q-72 0 -112 -55t-40 -146z" />
    <glyph glyph-name="racute.smcp" unicode="&#xe29a;" horiz-adv-x="561" 
d="M357 801l50 -82l-202 -109l-37 60zM502 396q0 -122 -109 -161l134 -235h-127l-122 220h-87v-220h-110v564h210q96 0 153.5 -41t57.5 -127zM388 394q0 42 -27.5 60t-83.5 18h-86v-162h89q108 0 108 84z" />
    <glyph glyph-name="racute.smcp" unicode="&#xf658;" horiz-adv-x="561" 
d="M357 801l50 -82l-202 -109l-37 60zM502 396q0 -122 -109 -161l134 -235h-127l-122 220h-87v-220h-110v564h210q96 0 153.5 -41t57.5 -127zM388 394q0 42 -27.5 60t-83.5 18h-86v-162h89q108 0 108 84z" />
    <glyph glyph-name="rcaron.smcp" unicode="&#xe29b;" horiz-adv-x="561" 
d="M430 740l-116 -128h-73l-116 128l55 50l98 -106l98 106zM502 396q0 -122 -109 -161l134 -235h-127l-122 220h-87v-220h-110v564h210q96 0 153.5 -41t57.5 -127zM388 394q0 42 -27.5 60t-83.5 18h-86v-162h89q108 0 108 84z" />
    <glyph glyph-name="rcaron.smcp" unicode="&#xf659;" horiz-adv-x="561" 
d="M430 740l-116 -128h-73l-116 128l55 50l98 -106l98 106zM502 396q0 -122 -109 -161l134 -235h-127l-122 220h-87v-220h-110v564h210q96 0 153.5 -41t57.5 -127zM388 394q0 42 -27.5 60t-83.5 18h-86v-162h89q108 0 108 84z" />
    <glyph glyph-name="rcommaaccent.smcp" unicode="&#xe29e;" horiz-adv-x="561" 
d="M361 -140q0 -17 -4.5 -34.5t-15 -36.5t-33 -33t-53.5 -18l-16 43q19 0 38.5 13.5t19.5 31.5v3q-2 -1 -12 -1q-22 0 -39.5 17t-17.5 42q0 23 16.5 41.5t45.5 18.5q35 0 53 -25.5t18 -61.5zM502 396q0 -122 -109 -161l134 -235h-127l-122 220h-87v-220h-110v564h210
q96 0 153.5 -41t57.5 -127zM388 394q0 42 -27.5 60t-83.5 18h-86v-162h89q108 0 108 84z" />
    <glyph glyph-name="rcommaaccent.smcp" unicode="&#xf65a;" horiz-adv-x="561" 
d="M361 -140q0 -17 -4.5 -34.5t-15 -36.5t-33 -33t-53.5 -18l-16 43q19 0 38.5 13.5t19.5 31.5v3q-2 -1 -12 -1q-22 0 -39.5 17t-17.5 42q0 23 16.5 41.5t45.5 18.5q35 0 53 -25.5t18 -61.5zM502 396q0 -122 -109 -161l134 -235h-127l-122 220h-87v-220h-110v564h210
q96 0 153.5 -41t57.5 -127zM388 394q0 42 -27.5 60t-83.5 18h-86v-162h89q108 0 108 84z" />
    <glyph glyph-name="ucircumflex.smcp" unicode="&#xe300;" horiz-adv-x="598" 
d="M146 658l115 128h74l115 -128l-55 -50l-98 106l-98 -106zM298 -13q-222 0 -222 213v364h112v-365q0 -52 26 -85t84 -33q60 0 86 33t26 85v365h112v-364q0 -213 -224 -213z" />
    <glyph glyph-name="ucircumflex.smcp" unicode="&#xf7fb;" horiz-adv-x="598" 
d="M146 658l115 128h74l115 -128l-55 -50l-98 106l-98 -106zM298 -13q-222 0 -222 213v364h112v-365q0 -52 26 -85t84 -33q60 0 86 33t26 85v365h112v-364q0 -213 -224 -213z" />
    <glyph glyph-name="sacute.smcp" unicode="&#xe302;" horiz-adv-x="549" 
d="M351 801l50 -82l-202 -109l-37 60zM172 415q0 -36 28.5 -52t104.5 -29q94 -17 145.5 -52.5t51.5 -113.5q0 -83 -62 -132t-162 -49q-103 0 -165.5 49.5t-65.5 121.5l111 18q4 -44 34 -71.5t87 -27.5q48 0 78.5 21t30.5 61q0 35 -29 52.5t-95 28.5q-99 16 -152 52.5
t-53 114.5q0 82 57.5 125.5t152.5 43.5q91 0 150 -39.5t73 -113.5l-112 -25q-14 89 -116 89q-92 0 -92 -72z" />
    <glyph glyph-name="sacute.smcp" unicode="&#xf65b;" horiz-adv-x="549" 
d="M351 801l50 -82l-202 -109l-37 60zM172 415q0 -36 28.5 -52t104.5 -29q94 -17 145.5 -52.5t51.5 -113.5q0 -83 -62 -132t-162 -49q-103 0 -165.5 49.5t-65.5 121.5l111 18q4 -44 34 -71.5t87 -27.5q48 0 78.5 21t30.5 61q0 35 -29 52.5t-95 28.5q-99 16 -152 52.5
t-53 114.5q0 82 57.5 125.5t152.5 43.5q91 0 150 -39.5t73 -113.5l-112 -25q-14 89 -116 89q-92 0 -92 -72z" />
    <glyph glyph-name="scircumflex.smcp" unicode="&#xe303;" horiz-adv-x="549" 
d="M123 658l115 128h74l115 -128l-55 -50l-98 106l-98 -106zM172 415q0 -36 28.5 -52t104.5 -29q94 -17 145.5 -52.5t51.5 -113.5q0 -83 -62 -132t-162 -49q-103 0 -165.5 49.5t-65.5 121.5l111 18q4 -44 34 -71.5t87 -27.5q48 0 78.5 21t30.5 61q0 35 -29 52.5t-95 28.5
q-99 16 -152 52.5t-53 114.5q0 82 57.5 125.5t152.5 43.5q91 0 150 -39.5t73 -113.5l-112 -25q-14 89 -116 89q-92 0 -92 -72z" />
    <glyph glyph-name="scircumflex.smcp" unicode="&#xf636;" horiz-adv-x="549" 
d="M123 658l115 128h74l115 -128l-55 -50l-98 106l-98 -106zM172 415q0 -36 28.5 -52t104.5 -29q94 -17 145.5 -52.5t51.5 -113.5q0 -83 -62 -132t-162 -49q-103 0 -165.5 49.5t-65.5 121.5l111 18q4 -44 34 -71.5t87 -27.5q48 0 78.5 21t30.5 61q0 35 -29 52.5t-95 28.5
q-99 16 -152 52.5t-53 114.5q0 82 57.5 125.5t152.5 43.5q91 0 150 -39.5t73 -113.5l-112 -25q-14 89 -116 89q-92 0 -92 -72z" />
    <glyph glyph-name="scaron.smcp" unicode="&#xe304;" horiz-adv-x="549" 
d="M427 740l-116 -128h-73l-116 128l55 50l98 -106l98 106zM172 415q0 -36 28.5 -52t104.5 -29q94 -17 145.5 -52.5t51.5 -113.5q0 -83 -62 -132t-162 -49q-103 0 -165.5 49.5t-65.5 121.5l111 18q4 -44 34 -71.5t87 -27.5q48 0 78.5 21t30.5 61q0 35 -29 52.5t-95 28.5
q-99 16 -152 52.5t-53 114.5q0 82 57.5 125.5t152.5 43.5q91 0 150 -39.5t73 -113.5l-112 -25q-14 89 -116 89q-92 0 -92 -72z" />
    <glyph glyph-name="scaron.smcp" unicode="&#xf6fd;" horiz-adv-x="549" 
d="M427 740l-116 -128h-73l-116 128l55 50l98 -106l98 106zM172 415q0 -36 28.5 -52t104.5 -29q94 -17 145.5 -52.5t51.5 -113.5q0 -83 -62 -132t-162 -49q-103 0 -165.5 49.5t-65.5 121.5l111 18q4 -44 34 -71.5t87 -27.5q48 0 78.5 21t30.5 61q0 35 -29 52.5t-95 28.5
q-99 16 -152 52.5t-53 114.5q0 82 57.5 125.5t152.5 43.5q91 0 150 -39.5t73 -113.5l-112 -25q-14 89 -116 89q-92 0 -92 -72z" />
    <glyph glyph-name="scommaaccent.smcp" unicode="&#xe305;" horiz-adv-x="549" 
d="M346 -140q0 -17 -4.5 -34.5t-15 -36.5t-33 -33t-53.5 -18l-16 43q19 0 38.5 13.5t19.5 31.5v3q-2 -1 -12 -1q-22 0 -39.5 17t-17.5 42q0 23 16.5 41.5t45.5 18.5q35 0 53 -25.5t18 -61.5zM172 415q0 -36 28.5 -52t104.5 -29q94 -17 145.5 -52.5t51.5 -113.5
q0 -83 -62 -132t-162 -49q-103 0 -165.5 49.5t-65.5 121.5l111 18q4 -44 34 -71.5t87 -27.5q48 0 78.5 21t30.5 61q0 35 -29 52.5t-95 28.5q-99 16 -152 52.5t-53 114.5q0 82 57.5 125.5t152.5 43.5q91 0 150 -39.5t73 -113.5l-112 -25q-14 89 -116 89q-92 0 -92 -72z" />
    <glyph glyph-name="scommaaccent.smcp" unicode="&#xf65d;" horiz-adv-x="549" 
d="M346 -140q0 -17 -4.5 -34.5t-15 -36.5t-33 -33t-53.5 -18l-16 43q19 0 38.5 13.5t19.5 31.5v3q-2 -1 -12 -1q-22 0 -39.5 17t-17.5 42q0 23 16.5 41.5t45.5 18.5q35 0 53 -25.5t18 -61.5zM172 415q0 -36 28.5 -52t104.5 -29q94 -17 145.5 -52.5t51.5 -113.5
q0 -83 -62 -132t-162 -49q-103 0 -165.5 49.5t-65.5 121.5l111 18q4 -44 34 -71.5t87 -27.5q48 0 78.5 21t30.5 61q0 35 -29 52.5t-95 28.5q-99 16 -152 52.5t-53 114.5q0 82 57.5 125.5t152.5 43.5q91 0 150 -39.5t73 -113.5l-112 -25q-14 89 -116 89q-92 0 -92 -72z" />
    <glyph glyph-name="scedilla.smcp" unicode="&#xe306;" horiz-adv-x="549" 
d="M180 -199l33 45q20 -20 53 -20q19 0 30 11t11 29q0 36 -39 36q-25 0 -39 -14l-30 32l30 70q-82 11 -131 58t-51 110l111 18q4 -44 34 -71.5t87 -27.5q48 0 78.5 21t30.5 61q0 35 -29 52.5t-95 28.5q-99 16 -152 52.5t-53 114.5q0 82 57.5 125.5t152.5 43.5
q91 0 150 -39.5t73 -113.5l-112 -25q-14 89 -116 89q-92 0 -92 -72q0 -36 28.5 -52t104.5 -29q94 -17 145.5 -52.5t51.5 -113.5q0 -83 -60.5 -131t-158.5 -50l-17 -40q12 6 29 6q35 0 58.5 -22.5t23.5 -62.5q0 -45 -31.5 -71.5t-79.5 -26.5q-55 0 -86 31z" />
    <glyph glyph-name="scedilla.smcp" unicode="&#xf65c;" horiz-adv-x="549" 
d="M180 -199l33 45q20 -20 53 -20q19 0 30 11t11 29q0 36 -39 36q-25 0 -39 -14l-30 32l30 70q-82 11 -131 58t-51 110l111 18q4 -44 34 -71.5t87 -27.5q48 0 78.5 21t30.5 61q0 35 -29 52.5t-95 28.5q-99 16 -152 52.5t-53 114.5q0 82 57.5 125.5t152.5 43.5
q91 0 150 -39.5t73 -113.5l-112 -25q-14 89 -116 89q-92 0 -92 -72q0 -36 28.5 -52t104.5 -29q94 -17 145.5 -52.5t51.5 -113.5q0 -83 -60.5 -131t-158.5 -50l-17 -40q12 6 29 6q35 0 58.5 -22.5t23.5 -62.5q0 -45 -31.5 -71.5t-79.5 -26.5q-55 0 -86 31z" />
    <glyph glyph-name="tcaron.smcp" unicode="&#xe309;" horiz-adv-x="482" 
d="M394 740l-116 -128h-73l-116 128l55 50l98 -106l98 106zM21 470v94h440v-94h-164v-470h-112v470h-164z" />
    <glyph glyph-name="tcaron.smcp" unicode="&#xf65e;" horiz-adv-x="482" 
d="M394 740l-116 -128h-73l-116 128l55 50l98 -106l98 106zM21 470v94h440v-94h-164v-470h-112v470h-164z" />
    <glyph glyph-name="tcommaaccent.smcp" unicode="&#xe30a;" horiz-adv-x="482" 
d="M312 -140q0 -17 -4.5 -34.5t-15 -36.5t-33 -33t-53.5 -18l-16 43q19 0 38.5 13.5t19.5 31.5v3q-2 -1 -12 -1q-22 0 -39.5 17t-17.5 42q0 23 16.5 41.5t45.5 18.5q35 0 53 -25.5t18 -61.5zM21 470v94h440v-94h-164v-470h-112v470h-164z" />
    <glyph glyph-name="tcommaaccent.smcp" unicode="&#xf65f;" horiz-adv-x="482" 
d="M312 -140q0 -17 -4.5 -34.5t-15 -36.5t-33 -33t-53.5 -18l-16 43q19 0 38.5 13.5t19.5 31.5v3q-2 -1 -12 -1q-22 0 -39.5 17t-17.5 42q0 23 16.5 41.5t45.5 18.5q35 0 53 -25.5t18 -61.5zM21 470v94h440v-94h-164v-470h-112v470h-164z" />
    <glyph glyph-name="tbar.smcp" unicode="&#xe30d;" horiz-adv-x="482" 
d="M21 470v94h440v-94h-164v-127h104v-78h-104v-265h-112v265h-103v78h103v127h-164z" />
    <glyph glyph-name="tbar.smcp" unicode="&#xf637;" horiz-adv-x="482" 
d="M21 470v94h440v-94h-164v-127h104v-78h-104v-265h-112v265h-103v78h103v127h-164z" />
    <glyph glyph-name="uacute.smcp" unicode="&#xe30e;" horiz-adv-x="598" 
d="M380 801l50 -82l-202 -109l-37 60zM298 -13q-222 0 -222 213v364h112v-365q0 -52 26 -85t84 -33q60 0 86 33t26 85v365h112v-364q0 -213 -224 -213z" />
    <glyph glyph-name="uacute.smcp" unicode="&#xf7fa;" horiz-adv-x="598" 
d="M380 801l50 -82l-202 -109l-37 60zM298 -13q-222 0 -222 213v364h112v-365q0 -52 26 -85t84 -33q60 0 86 33t26 85v365h112v-364q0 -213 -224 -213z" />
    <glyph glyph-name="ugrave.smcp" unicode="&#xe30f;" horiz-adv-x="598" 
d="M298 -13q-222 0 -222 213v364h112v-365q0 -52 26 -85t84 -33q60 0 86 33t26 85v365h112v-364q0 -213 -224 -213zM373 610l-202 109l50 82l189 -131z" />
    <glyph glyph-name="ugrave.smcp" unicode="&#xf7f9;" horiz-adv-x="598" 
d="M298 -13q-222 0 -222 213v364h112v-365q0 -52 26 -85t84 -33q60 0 86 33t26 85v365h112v-364q0 -213 -224 -213zM373 610l-202 109l50 82l189 -131z" />
    <glyph glyph-name="wdieresis.smcp" unicode="&#xe310;" horiz-adv-x="767" 
d="M648 564h103l-145 -564h-124q-74 293 -97 396h-2l-97 -396h-124l-146 564h113q78 -328 98 -434h1q10 47 37 155.5t49 193.5l22 85h104q84 -330 104 -434h2q9 46 34.5 154.5t46.5 193.5zM423 686q0 28 18 45.5t47 17.5t47 -17.5t18 -45.5q0 -27 -18.5 -45t-46.5 -18
t-46.5 18t-18.5 45zM219 686q0 28 18 45.5t47 17.5t47 -17.5t18 -45.5q0 -27 -18.5 -45t-46.5 -18t-46.5 18t-18.5 45z" />
    <glyph glyph-name="wdieresis.smcp" unicode="&#xf63c;" horiz-adv-x="767" 
d="M648 564h103l-145 -564h-124q-74 293 -97 396h-2l-97 -396h-124l-146 564h113q78 -328 98 -434h1q10 47 37 155.5t49 193.5l22 85h104q84 -330 104 -434h2q9 46 34.5 154.5t46.5 193.5zM423 686q0 28 18 45.5t47 17.5t47 -17.5t18 -45.5q0 -27 -18.5 -45t-46.5 -18
t-46.5 18t-18.5 45zM219 686q0 28 18 45.5t47 17.5t47 -17.5t18 -45.5q0 -27 -18.5 -45t-46.5 -18t-46.5 18t-18.5 45z" />
    <glyph glyph-name="udieresis.smcp" unicode="&#xe311;" horiz-adv-x="598" 
d="M335 686q0 28 18 45.5t47 17.5t47 -17.5t18 -45.5q0 -27 -18.5 -45t-46.5 -18t-46.5 18t-18.5 45zM131 686q0 28 18 45.5t47 17.5t47 -17.5t18 -45.5q0 -27 -18.5 -45t-46.5 -18t-46.5 18t-18.5 45zM298 -13q-222 0 -222 213v364h112v-365q0 -52 26 -85t84 -33
q60 0 86 33t26 85v365h112v-364q0 -213 -224 -213z" />
    <glyph glyph-name="udieresis.smcp" unicode="&#xf7fc;" horiz-adv-x="598" 
d="M335 686q0 28 18 45.5t47 17.5t47 -17.5t18 -45.5q0 -27 -18.5 -45t-46.5 -18t-46.5 18t-18.5 45zM131 686q0 28 18 45.5t47 17.5t47 -17.5t18 -45.5q0 -27 -18.5 -45t-46.5 -18t-46.5 18t-18.5 45zM298 -13q-222 0 -222 213v364h112v-365q0 -52 26 -85t84 -33
q60 0 86 33t26 85v365h112v-364q0 -213 -224 -213z" />
    <glyph glyph-name="utilde.smcp" unicode="&#xe312;" horiz-adv-x="598" 
d="M298 -13q-222 0 -222 213v364h112v-365q0 -52 26 -85t84 -33q60 0 86 33t26 85v365h112v-364q0 -213 -224 -213zM231 748q39 0 81 -26.5t61 -26.5t33.5 12.5t19.5 24.5l6 12l56 -49q-1 -3 -4 -8t-13.5 -18t-23 -22.5t-33.5 -17.5t-45 -8q-38 0 -79.5 26.5t-61.5 26.5
q-19 0 -34 -12t-20 -24l-5 -12l-56 49q1 3 4 8t13 17.5t22.5 22t33.5 17.5t45 8z" />
    <glyph glyph-name="utilde.smcp" unicode="&#xf639;" horiz-adv-x="598" 
d="M298 -13q-222 0 -222 213v364h112v-365q0 -52 26 -85t84 -33q60 0 86 33t26 85v365h112v-364q0 -213 -224 -213zM231 748q39 0 81 -26.5t61 -26.5t33.5 12.5t19.5 24.5l6 12l56 -49q-1 -3 -4 -8t-13.5 -18t-23 -22.5t-33.5 -17.5t-45 -8q-38 0 -79.5 26.5t-61.5 26.5
q-19 0 -34 -12t-20 -24l-5 -12l-56 49q1 3 4 8t13 17.5t22.5 22t33.5 17.5t45 8z" />
    <glyph glyph-name="uring.smcp" unicode="&#xe313;" horiz-adv-x="598" 
d="M298 -13q-222 0 -222 213v364h112v-365q0 -52 26 -85t84 -33q60 0 86 33t26 85v365h112v-364q0 -213 -224 -213zM192 711q0 44 29.5 72t76.5 28t76.5 -28t29.5 -72q0 -43 -29.5 -71.5t-76.5 -28.5t-76.5 28.5t-29.5 71.5zM252 711q0 -19 13 -32.5t33 -13.5t33 13.5
t13 32.5q0 20 -13 32.5t-33 12.5t-33 -12.5t-13 -32.5z" />
    <glyph glyph-name="uring.smcp" unicode="&#xf663;" horiz-adv-x="598" 
d="M298 -13q-222 0 -222 213v364h112v-365q0 -52 26 -85t84 -33q60 0 86 33t26 85v365h112v-364q0 -213 -224 -213zM192 711q0 44 29.5 72t76.5 28t76.5 -28t29.5 -72q0 -43 -29.5 -71.5t-76.5 -28.5t-76.5 28.5t-29.5 71.5zM252 711q0 -19 13 -32.5t33 -13.5t33 13.5
t13 32.5q0 20 -13 32.5t-33 12.5t-33 -12.5t-13 -32.5z" />
    <glyph glyph-name="umacron.smcp" unicode="&#xe315;" horiz-adv-x="598" 
d="M298 -13q-222 0 -222 213v364h112v-365q0 -52 26 -85t84 -33q60 0 86 33t26 85v365h112v-364q0 -213 -224 -213zM162 625v74h273v-74h-273z" />
    <glyph glyph-name="umacron.smcp" unicode="&#xf661;" horiz-adv-x="598" 
d="M298 -13q-222 0 -222 213v364h112v-365q0 -52 26 -85t84 -33q60 0 86 33t26 85v365h112v-364q0 -213 -224 -213zM162 625v74h273v-74h-273z" />
    <glyph glyph-name="ubreve.smcp" unicode="&#xe316;" horiz-adv-x="598" 
d="M298 -13q-222 0 -222 213v364h112v-365q0 -52 26 -85t84 -33q60 0 86 33t26 85v365h112v-364q0 -213 -224 -213zM136 736l83 24q5 -29 26.5 -49.5t52.5 -20.5t52.5 20.5t26.5 49.5l83 -24q-12 -53 -56 -86t-106 -33t-106 33t-56 86z" />
    <glyph glyph-name="ubreve.smcp" unicode="&#xf638;" horiz-adv-x="598" 
d="M298 -13q-222 0 -222 213v364h112v-365q0 -52 26 -85t84 -33q60 0 86 33t26 85v365h112v-364q0 -213 -224 -213zM136 736l83 24q5 -29 26.5 -49.5t52.5 -20.5t52.5 20.5t26.5 49.5l83 -24q-12 -53 -56 -86t-106 -33t-106 33t-56 86z" />
    <glyph glyph-name="uhungarumlaut.smcp" unicode="&#xe318;" horiz-adv-x="598" 
d="M298 -13q-222 0 -222 213v364h112v-365q0 -52 26 -85t84 -33q60 0 86 33t26 85v365h112v-364q0 -213 -224 -213zM508 809l56 -78l-192 -121l-40 56zM274 809l57 -78l-192 -121l-41 56z" />
    <glyph glyph-name="uhungarumlaut.smcp" unicode="&#xf660;" horiz-adv-x="598" 
d="M298 -13q-222 0 -222 213v364h112v-365q0 -52 26 -85t84 -33q60 0 86 33t26 85v365h112v-364q0 -213 -224 -213zM508 809l56 -78l-192 -121l-40 56zM274 809l57 -78l-192 -121l-41 56z" />
    <glyph glyph-name="uogonek.smcp" unicode="&#xe31b;" horiz-adv-x="598" 
d="M301 -99q0 -36 44 -36q32 0 58 39l46 -42q-48 -64 -119 -64q-46 0 -78.5 23t-32.5 70q0 54 54 97q-197 12 -197 212v364h112v-365q0 -52 26 -85t84 -33q60 0 86 33t26 85v365h112v-364q0 -150 -118 -200q-103 -45 -103 -99z" />
    <glyph glyph-name="uogonek.smcp" unicode="&#xf662;" horiz-adv-x="598" 
d="M301 -99q0 -36 44 -36q32 0 58 39l46 -42q-48 -64 -119 -64q-46 0 -78.5 23t-32.5 70q0 54 54 97q-197 12 -197 212v364h112v-365q0 -52 26 -85t84 -33q60 0 86 33t26 85v365h112v-364q0 -150 -118 -200q-103 -45 -103 -99z" />
    <glyph glyph-name="wacute.smcp" unicode="&#xe31d;" horiz-adv-x="767" 
d="M648 564h103l-145 -564h-124q-74 293 -97 396h-2l-97 -396h-124l-146 564h113q78 -328 98 -434h1q10 47 37 155.5t49 193.5l22 85h104q84 -330 104 -434h2q9 46 34.5 154.5t46.5 193.5zM462 801l50 -82l-202 -109l-37 60z" />
    <glyph glyph-name="wacute.smcp" unicode="&#xf63a;" horiz-adv-x="767" 
d="M648 564h103l-145 -564h-124q-74 293 -97 396h-2l-97 -396h-124l-146 564h113q78 -328 98 -434h1q10 47 37 155.5t49 193.5l22 85h104q84 -330 104 -434h2q9 46 34.5 154.5t46.5 193.5zM462 801l50 -82l-202 -109l-37 60z" />
    <glyph glyph-name="wgrave.smcp" unicode="&#xe31e;" horiz-adv-x="767" 
d="M648 564h103l-145 -564h-124q-74 293 -97 396h-2l-97 -396h-124l-146 564h113q78 -328 98 -434h1q10 47 37 155.5t49 193.5l22 85h104q84 -330 104 -434h2q9 46 34.5 154.5t46.5 193.5zM461 610l-202 109l50 82l189 -131z" />
    <glyph glyph-name="wgrave.smcp" unicode="&#xf63d;" horiz-adv-x="767" 
d="M648 564h103l-145 -564h-124q-74 293 -97 396h-2l-97 -396h-124l-146 564h113q78 -328 98 -434h1q10 47 37 155.5t49 193.5l22 85h104q84 -330 104 -434h2q9 46 34.5 154.5t46.5 193.5zM461 610l-202 109l50 82l189 -131z" />
    <glyph glyph-name="wcircumflex.smcp" unicode="&#xe31f;" horiz-adv-x="767" 
d="M648 564h103l-145 -564h-124q-74 293 -97 396h-2l-97 -396h-124l-146 564h113q78 -328 98 -434h1q10 47 37 155.5t49 193.5l22 85h104q84 -330 104 -434h2q9 46 34.5 154.5t46.5 193.5zM233 658l115 128h74l115 -128l-55 -50l-98 106l-98 -106z" />
    <glyph glyph-name="wcircumflex.smcp" unicode="&#xf63b;" horiz-adv-x="767" 
d="M648 564h103l-145 -564h-124q-74 293 -97 396h-2l-97 -396h-124l-146 564h113q78 -328 98 -434h1q10 47 37 155.5t49 193.5l22 85h104q84 -330 104 -434h2q9 46 34.5 154.5t46.5 193.5zM233 658l115 128h74l115 -128l-55 -50l-98 106l-98 -106z" />
    <glyph glyph-name="yacute.smcp" unicode="&#xe321;" horiz-adv-x="557" 
d="M362 801l50 -82l-202 -109l-37 60zM221 0v237l-211 327h128l143 -223l142 223h124l-213 -327v-237h-113z" />
    <glyph glyph-name="yacute.smcp" unicode="&#xf7fd;" horiz-adv-x="557" 
d="M362 801l50 -82l-202 -109l-37 60zM221 0v237l-211 327h128l143 -223l142 223h124l-213 -327v-237h-113z" />
    <glyph glyph-name="ycircumflex.smcp" unicode="&#xe323;" horiz-adv-x="557" 
d="M128 658l115 128h74l115 -128l-55 -50l-98 106l-98 -106zM221 0v237l-211 327h128l143 -223l142 223h124l-213 -327v-237h-113z" />
    <glyph glyph-name="ycircumflex.smcp" unicode="&#xf63e;" horiz-adv-x="557" 
d="M128 658l115 128h74l115 -128l-55 -50l-98 106l-98 -106zM221 0v237l-211 327h128l143 -223l142 223h124l-213 -327v-237h-113z" />
    <glyph glyph-name="ydieresis.smcp" unicode="&#xe324;" horiz-adv-x="557" 
d="M316 686q0 28 18 45.5t47 17.5t47 -17.5t18 -45.5q0 -27 -18.5 -45t-46.5 -18t-46.5 18t-18.5 45zM112 686q0 28 18 45.5t47 17.5t47 -17.5t18 -45.5q0 -27 -18.5 -45t-46.5 -18t-46.5 18t-18.5 45zM221 0v237l-211 327h128l143 -223l142 223h124l-213 -327v-237h-113z
" />
    <glyph glyph-name="ydieresis.smcp" unicode="&#xf7ff;" horiz-adv-x="557" 
d="M316 686q0 28 18 45.5t47 17.5t47 -17.5t18 -45.5q0 -27 -18.5 -45t-46.5 -18t-46.5 18t-18.5 45zM112 686q0 28 18 45.5t47 17.5t47 -17.5t18 -45.5q0 -27 -18.5 -45t-46.5 -18t-46.5 18t-18.5 45zM221 0v237l-211 327h128l143 -223l142 223h124l-213 -327v-237h-113z
" />
    <glyph glyph-name="ij.smcp" unicode="&#xe327;" horiz-adv-x="669" 
d="M417 80q34 0 48.5 25t14.5 79v380h113v-380q0 -96 -38 -146.5t-135 -50.5q-102 0 -157 66l76 73q21 -24 38 -35t40 -11zM81 0v564h112v-564h-112z" />
    <glyph glyph-name="ij.smcp" unicode="&#xf631;" horiz-adv-x="669" 
d="M417 80q34 0 48.5 25t14.5 79v380h113v-380q0 -96 -38 -146.5t-135 -50.5q-102 0 -157 66l76 73q21 -24 38 -35t40 -11zM81 0v564h112v-564h-112z" />
    <glyph glyph-name="zacute.smcp" unicode="&#xe328;" horiz-adv-x="526" 
d="M352 801l50 -82l-202 -109l-37 60zM50 471v93h435v-84l-303 -387h301v-93h-442v83l305 388h-296z" />
    <glyph glyph-name="zacute.smcp" unicode="&#xf664;" horiz-adv-x="526" 
d="M352 801l50 -82l-202 -109l-37 60zM50 471v93h435v-84l-303 -387h301v-93h-442v83l305 388h-296z" />
    <glyph glyph-name="zcaron.smcp" unicode="&#xe329;" horiz-adv-x="526" 
d="M421 740l-116 -128h-73l-116 128l55 50l98 -106l98 106zM50 471v93h435v-84l-303 -387h301v-93h-442v83l305 388h-296z" />
    <glyph glyph-name="zcaron.smcp" unicode="&#xf6ff;" horiz-adv-x="526" 
d="M421 740l-116 -128h-73l-116 128l55 50l98 -106l98 106zM50 471v93h435v-84l-303 -387h301v-93h-442v83l305 388h-296z" />
    <glyph glyph-name="zdotaccent.smcp" unicode="&#xe32a;" horiz-adv-x="526" 
d="M50 471v93h435v-84l-303 -387h301v-93h-442v83l305 388h-296zM200 688q0 31 19.5 50.5t50.5 19.5t50.5 -19.5t19.5 -50.5q0 -29 -19.5 -48.5t-50.5 -19.5t-50.5 19.5t-19.5 48.5z" />
    </font>
</defs>
</svg>
