<?xml version="1.0" standalone="no"?>
<!DOCTYPE svg PUBLIC "-//W3C//DTD SVG 1.1//EN" "http://www.w3.org/Graphics/SVG/1.1/DTD/svg11.dtd" >
<svg xmlns="http://www.w3.org/2000/svg" xmlns:xlink="http://www.w3.org/1999/xlink" version="1.1">
<metadata>
Created by FontForge 20181003 at Fri Sep 13 20:00:46 2013
 By Mark Brand
Copyright (c) 2011-2013 by Josh Finklea. All rights reserved.
</metadata>
<defs>
<font id="PostGrotesk-Light" horiz-adv-x="600" >
  <font-face 
    font-family="Post Grotesk"
    font-weight="600"
    font-stretch="normal"
    units-per-em="1000"
    panose-1="2 0 0 0 0 0 0 0 0 0"
    ascent="750"
    descent="-250"
    x-height="469"
    cap-height="700"
    bbox="-131 -252 1211 911"
    underline-thickness="40"
    underline-position="-140"
    unicode-range="U+0020-F301"
  />
<missing-glyph horiz-adv-x="849" 
d="M74 0v700h700v-700h-700zM144 630v-560h560v560h-560zM424 301l-187 -188l-50 50l188 187l-188 187l50 50l187 -188l187 188l50 -50l-188 -187l188 -187l-50 -50z" />
    <glyph glyph-name="interrobang" unicode="&#x21;&#x3f;" horiz-adv-x="505" 
d="M274 168h-48l-9 489q-56 -13 -87.5 -59.5t-38.5 -107.5l-59 11q16 96 71.5 153t151.5 57q99 0 151.5 -57t52.5 -134q0 -55 -26 -94t-73 -79q-42 -36 -64 -71t-22 -80v-28zM398 522q0 54 -31 91t-84 46l-7 -321q23 28 44 48q43 41 60.5 68.5t17.5 67.5zM207 38
q0 19 12.5 31t31.5 12t31.5 -12t12.5 -31q0 -18 -12.5 -31t-31.5 -13t-31.5 13t-12.5 31z" />
    <glyph glyph-name="f_b" unicode="fb" horiz-adv-x="863" 
d="M22 469h81v99q0 71 36 107.5t91 36.5q57 0 94 -29l-27 -47q-31 25 -64 25q-32 0 -51 -25.5t-19 -68.5v-98h107v-47h-107v-422h-60v422h-81v47zM815 235q0 -110 -59.5 -178.5t-151.5 -68.5q-56 0 -99 26.5t-62 63.5v-78h-55v700h60v-302q22 36 62.5 59.5t95.5 23.5
q90 0 149.5 -68t59.5 -178zM753 235q0 85 -41.5 140.5t-111.5 55.5q-59 0 -105.5 -45t-46.5 -118v-67q0 -73 46 -118t106 -45q70 0 111.5 55.5t41.5 141.5z" />
    <glyph glyph-name="f_h" unicode="fh" horiz-adv-x="845" 
d="M22 469h81v99q0 71 36 107.5t91 36.5q57 0 94 -29l-27 -47q-31 25 -64 25q-32 0 -51 -25.5t-19 -68.5v-98h107v-47h-107v-422h-60v422h-81v47zM388 0v700h60v-300q20 35 61.5 58t95.5 23q71 0 115 -41.5t44 -118.5v-321h-60v309q0 59 -31 90t-80 31q-60 0 -102.5 -43.5
t-42.5 -110.5v-276h-60z" />
    <glyph glyph-name="f_k" unicode="fk" horiz-adv-x="775" 
d="M22 469h81v99q0 71 36 107.5t91 36.5q57 0 94 -29l-27 -47q-31 25 -64 25q-32 0 -51 -25.5t-19 -68.5v-98h107v-47h-107v-422h-60v422h-81v47zM698 0l-187 262l-63 -59v-203h-60v700h60v-427l213 196h75l-181 -170l215 -299h-72z" />
    <glyph glyph-name="fi" unicode="fi" horiz-adv-x="534" 
d="M377 669q0 18 11.5 29.5t29.5 11.5t29.5 -11.5t11.5 -29.5q0 -17 -11.5 -28.5t-29.5 -11.5t-29.5 11.5t-11.5 28.5zM388 0v469h60v-469h-60zM22 469h81v99q0 71 36 107.5t91 36.5q53 0 89 -28l-26 -48q-28 25 -61 25q-32 0 -50.5 -25.5t-18.5 -68.5v-98h107v-47h-107
v-422h-60v422h-81v47z" />
    <glyph glyph-name="fl" unicode="fl" horiz-adv-x="534" 
d="M22 469h81v99q0 71 36 107.5t91 36.5q57 0 94 -29l-27 -47q-31 25 -64 25q-32 0 -51 -25.5t-19 -68.5v-98h107v-47h-107v-422h-60v422h-81v47zM388 0v700h60v-700h-60z" />
    <glyph glyph-name="interrobangdown" unicode="&#xa1;&#xbf;" horiz-adv-x="484" 
d="M298 462q0 -19 -12.5 -31t-31.5 -12t-31.5 12t-12.5 31q0 18 12.5 31t31.5 13t31.5 -13t12.5 -31zM231 332h48l9 -489q56 13 87.5 59.5t38.5 107.5l59 -11q-16 -96 -71.5 -153t-151.5 -57q-99 0 -151.5 57t-52.5 134q0 55 26 94t73 79q42 36 64 71t22 80v28zM107 -22
q0 -54 31 -91t84 -46l7 321q-23 -28 -44 -48q-43 -41 -60.5 -68.5t-17.5 -67.5z" />
    <glyph glyph-name="interrobangdown.cap" unicode="&#xe441;&#xe444;" horiz-adv-x="505" 
d="M298 662q0 -19 -12.5 -31t-31.5 -12t-31.5 12t-12.5 31q0 18 12.5 31t31.5 13t31.5 -13t12.5 -31zM231 532h48l9 -489q56 13 87.5 59.5t38.5 107.5l59 -11q-16 -96 -71.5 -153t-151.5 -57q-99 0 -151.5 57t-52.5 134q0 55 26 94t73 79q42 36 64 71t22 80v28zM107 178
q0 -54 31 -91t84 -46l7 321q-23 -28 -44 -48q-43 -41 -60.5 -68.5t-17.5 -67.5z" />
    <glyph glyph-name="fj" unicode="fj" horiz-adv-x="534" 
d="M22 469h81v99q0 71 36 107.5t91 36.5q53 0 89 -28l-26 -48q-28 25 -61 25q-32 0 -50.5 -25.5t-18.5 -68.5v-98h107v-47h-107v-422h-60v422h-81v47zM377 669q0 18 11.5 29.5t29.5 11.5t29.5 -11.5t11.5 -29.5q0 -17 -11.5 -28.5t-29.5 -11.5t-29.5 11.5t-11.5 28.5z
M388 -69v538h60v-538q0 -67 -33.5 -104.5t-97.5 -37.5q-57 0 -99 27l28 50q32 -25 70 -25q34 0 53 23.5t19 66.5z" />
    <glyph glyph-name=".notdef" horiz-adv-x="849" 
d="M74 0v700h700v-700h-700zM144 630v-560h560v560h-560zM424 301l-187 -188l-50 50l188 187l-188 187l50 50l187 -188l187 188l50 -50l-188 -187l188 -187l-50 -50z" />
    <glyph glyph-name=".null" horiz-adv-x="0" 
 />
    <glyph glyph-name="nonmarkingreturn" horiz-adv-x="333" 
 />
    <glyph glyph-name="space" unicode=" " horiz-adv-x="235" 
 />
    <glyph glyph-name="exclam" unicode="!" horiz-adv-x="238" 
d="M153 700l-11 -531h-46l-11 531h68zM75 38q0 19 12.5 31t31.5 12t31.5 -12t12.5 -31q0 -18 -12.5 -31t-31.5 -13t-31.5 13t-12.5 31z" />
    <glyph glyph-name="quotedbl" unicode="&#x22;" horiz-adv-x="312" 
d="M237 490h-34l-17 210h67zM110 490h-35l-16 210h67z" />
    <glyph glyph-name="numbersign" unicode="#" horiz-adv-x="613" 
d="M316 0l40 230h-147l-41 -230h-51l41 230h-121v45h129l27 157h-118v48h128l38 220h51l-38 -220h147l39 220h51l-39 -220h124v-48h-134l-27 -157h124v-45h-132l-42 -230h-49zM244 432l-27 -157h147l27 157h-147z" />
    <glyph glyph-name="dollar" unicode="$" horiz-adv-x="555" 
d="M303 798v-103q81 -7 131.5 -52t60.5 -116l-54 -14q-19 119 -138 133v-270q105 -25 152 -69t47 -120q0 -81 -53.5 -135t-145.5 -61v-96h-47v96q-98 6 -148.5 58.5t-58.5 137.5l52 9q21 -148 155 -159v294q-100 25 -144 69t-44 116q0 76 48.5 125.5t139.5 54.5v102h47z
M124 518q0 -50 31.5 -80.5t100.5 -50.5v261q-40 -2 -67.5 -16t-40.5 -35t-18.5 -40t-5.5 -39zM446 185q0 54 -34 85.5t-109 49.5v-283q63 7 103 46.5t40 101.5z" />
    <glyph glyph-name="percent" unicode="%" horiz-adv-x="794" 
d="M211 -12h-56l437 724h56zM346 520q0 -41 -12.5 -79t-49 -69t-90.5 -31t-90.5 31t-49 69t-12.5 79q0 40 12.5 78t49 69t90.5 31t90.5 -31t49 -69t12.5 -78zM101 520q0 -61 24.5 -96.5t68.5 -35.5t68.5 35.5t24.5 96.5t-24.5 96t-68.5 35t-68.5 -35t-24.5 -96zM752 167
q0 -41 -12.5 -79t-49 -69t-90.5 -31t-90.5 31t-49 69t-12.5 79q0 40 12.5 78t49 69t90.5 31t90.5 -31t49 -69t12.5 -78zM507 167q0 -61 24.5 -96.5t68.5 -35.5t68.5 35.5t24.5 96.5t-24.5 96t-68.5 35t-68.5 -35t-24.5 -96z" />
    <glyph glyph-name="ampersand" unicode="&#x26;" horiz-adv-x="638" 
d="M609 0h-69l-61 71q-85 -83 -205 -83q-104 0 -168 53.5t-64 147.5q0 138 153 221q-25 32 -38 51.5t-24 47.5t-11 55q0 60 37.5 104t113.5 44q68 0 106 -40t38 -100q0 -53 -31.5 -94t-108.5 -83l201 -239q26 47 30 142l50 -19q-5 -97 -44 -166zM178 567q0 -34 17 -64
t52 -71q35 20 56.5 35.5t40 43.5t18.5 61q0 40 -23.5 67t-66.5 27q-42 0 -68 -28t-26 -71zM276 35q103 0 171 75l-221 262q-56 -28 -90 -73.5t-34 -104.5q0 -72 47 -115.5t127 -43.5z" />
    <glyph glyph-name="quotesingle" unicode="'" horiz-adv-x="185" 
d="M110 490h-35l-16 210h67z" />
    <glyph glyph-name="parenleft" unicode="(" horiz-adv-x="308" 
d="M72 307q0 155 56.5 287t138.5 198l38 -21q-78 -77 -124.5 -200.5t-46.5 -263.5t46.5 -263.5t124.5 -200.5l-38 -21q-82 66 -138.5 198t-56.5 287z" />
    <glyph glyph-name="parenright" unicode=")" horiz-adv-x="308" 
d="M236 307q0 -155 -56.5 -287t-138.5 -198l-38 21q78 77 124.5 200.5t46.5 263.5t-46.5 263.5t-124.5 200.5l38 21q82 -66 138.5 -198t56.5 -287z" />
    <glyph glyph-name="asterisk" unicode="*" horiz-adv-x="369" 
d="M151 536l-119 36l13 43l118 -39l-2 124h47l-2 -124l118 39l13 -43l-119 -36l74 -101l-35 -26l-73 102l-72 -102l-35 26z" />
    <glyph glyph-name="plus" unicode="+" 
d="M56 297v51h219v219h49v-219h220v-51h-220v-226h-49v226h-219z" />
    <glyph glyph-name="comma" unicode="," horiz-adv-x="249" 
d="M172 18q0 -37 -18 -70t-59 -45l-12 32q19 4 31 20t12 36v6q-3 -1 -9 -1q-17 0 -29 12t-12 32q0 17 12 30.5t33 13.5q25 0 38 -18.5t13 -47.5z" />
    <glyph glyph-name="hyphen" unicode="-" horiz-adv-x="373" 
d="M64 261v52h245v-52h-245z" />
    <glyph glyph-name="period" unicode="." horiz-adv-x="244" 
d="M122 84q19 0 32.5 -13t13.5 -32t-13.5 -32t-32.5 -13t-32.5 13t-13.5 32t13.5 32t32.5 13z" />
    <glyph glyph-name="slash" unicode="/" horiz-adv-x="384" 
d="M65 -115h-54l308 869h54z" />
    <glyph glyph-name="zero" unicode="0" 
d="M300 698q113 0 168 -97t55 -258t-55 -258t-168 -97t-168 97t-55 258t55 258t168 97zM300 39q57 0 94.5 46.5t51.5 111.5t14 146t-14 146t-51.5 111.5t-94.5 46.5t-94.5 -46.5t-51.5 -111.5t-14 -146t14 -146t51.5 -111.5t94.5 -46.5z" />
    <glyph glyph-name="one" unicode="1" 
d="M307 688h45v-638h158v-50h-392v50h173v562q-51 -40 -139 -43l-12 43q117 16 167 76z" />
    <glyph glyph-name="two" unicode="2" 
d="M93 0v50q194 180 260 259q83 98 83 195q0 65 -37 104t-95 39q-66 0 -101 -49.5t-43 -118.5l-61 10q15 95 67 152t140 57q95 0 144 -58t49 -137q0 -109 -90 -215q-85 -99 -247 -237h344v-51h-413z" />
    <glyph glyph-name="three" unicode="3" 
d="M158 528l-58 13q5 25 18.5 50.5t36 50.5t59.5 40.5t82 15.5q90 0 142.5 -52.5t52.5 -129.5q0 -55 -31.5 -99t-85.5 -61q60 -15 96 -63.5t36 -108.5q0 -82 -56 -139t-157 -57q-51 0 -91 16t-63 42.5t-35.5 53.5t-17.5 55l58 13q4 -21 13 -41.5t25.5 -41.5t45 -34t64.5 -13
q73 0 112.5 40.5t39.5 102.5q0 66 -47.5 106.5t-136.5 40.5l-31 -1v53q12 -1 32 -1q78 0 123 39.5t45 102.5q0 59 -38 93t-97 34q-62 0 -94.5 -35.5t-41.5 -84.5z" />
    <glyph glyph-name="four" unicode="4" 
d="M356 687h82v-464h109l-9 -49h-100v-174h-58v174h-321v47zM120 223h260v407h-2z" />
    <glyph glyph-name="five" unicode="5" 
d="M92 162l56 14q7 -60 43 -99t103 -39q69 0 113 48.5t44 127.5q0 71 -38.5 124.5t-116.5 53.5q-51 0 -86.5 -23.5t-50.5 -56.5l-49 7l38 368h335l-9 -51h-278l-26 -241q55 47 128 47q101 0 158 -68t57 -158q0 -101 -62 -164.5t-159 -63.5q-52 0 -93.5 19t-63.5 47.5
t-32.5 56.5t-10.5 51z" />
    <glyph glyph-name="six" unicode="6" 
d="M321 647q-88 0 -132.5 -85t-46.5 -232q17 41 64.5 74t113.5 33q100 0 156.5 -65.5t56.5 -155.5q0 -97 -58.5 -162.5t-158.5 -65.5q-232 0 -232 342q0 177 62.5 272.5t175.5 95.5q151 0 192 -148l-62 -9q-7 22 -14 36.5t-21.5 32.5t-38.5 27.5t-57 9.5zM314 387
q-70 0 -114 -48t-44 -120q0 -76 44 -129t115 -53q67 0 112 47.5t45 127.5t-44.5 127.5t-113.5 47.5z" />
    <glyph glyph-name="seven" unicode="7" 
d="M82 636l8 51h433v-37q-260 -333 -259 -650h-64q0 101 26 203.5t68 185t82 142.5t81 105h-375z" />
    <glyph glyph-name="eight" unicode="8" 
d="M300 698q95 0 149 -55.5t54 -130.5q0 -54 -30.5 -97t-79.5 -60q58 -13 95 -61t37 -110q0 -79 -59 -137.5t-166 -58.5t-166 58.5t-59 137.5q0 62 37 110t95 61q-49 17 -79.5 60t-30.5 97q0 75 54 130.5t149 55.5zM300 650q-65 0 -103.5 -35.5t-38.5 -97.5q0 -59 36.5 -99
t105.5 -40t105.5 40t36.5 99q0 62 -38.5 97.5t-103.5 35.5zM300 37q46 0 79.5 14.5t50.5 38t25 46.5t8 46q0 62 -40.5 104t-122.5 42t-122.5 -42t-40.5 -104q0 -23 8 -46t25 -46.5t50.5 -38t79.5 -14.5z" />
    <glyph glyph-name="nine" unicode="9" 
d="M279 39q88 0 132.5 85t46.5 232q-17 -41 -64.5 -74t-113.5 -33q-100 0 -156.5 65.5t-56.5 155.5q0 97 58.5 162.5t158.5 65.5q232 0 232 -342q0 -177 -62.5 -272.5t-175.5 -95.5q-151 0 -192 148l62 9q7 -22 14 -36.5t21.5 -32.5t38.5 -27.5t57 -9.5zM286 299
q70 0 114 48t44 120q0 76 -44 129t-115 53q-67 0 -112 -47.5t-45 -127.5t44.5 -127.5t113.5 -47.5z" />
    <glyph glyph-name="colon" unicode=":" horiz-adv-x="244" 
d="M122 476q19 0 32.5 -13t13.5 -32t-13.5 -32t-32.5 -13t-32.5 13t-13.5 32t13.5 32t32.5 13zM122 84q19 0 32.5 -13t13.5 -32t-13.5 -32t-32.5 -13t-32.5 13t-13.5 32t13.5 32t32.5 13z" />
    <glyph glyph-name="semicolon" unicode=";" horiz-adv-x="249" 
d="M123 476q19 0 32.5 -13t13.5 -32t-13.5 -32t-32.5 -13t-32.5 13t-13.5 32t13.5 32t32.5 13zM172 18q0 -37 -18 -70t-59 -45l-12 32q19 4 31 20t12 36v6q-3 -1 -9 -1q-17 0 -29 12t-12 32q0 17 12 30.5t33 13.5q25 0 38 -18.5t13 -47.5z" />
    <glyph glyph-name="less" unicode="&#x3c;" 
d="M539 64l-488 236v46l488 236v-61l-419 -197l419 -198v-62z" />
    <glyph glyph-name="equal" unicode="=" 
d="M56 389v50h488v-50h-488zM56 214v50h488v-50h-488z" />
    <glyph glyph-name="greater" unicode="&#x3e;" 
d="M61 582l488 -236v-46l-488 -236v61l419 197l-419 198v62z" />
    <glyph glyph-name="question" unicode="?" horiz-adv-x="505" 
d="M276 168h-60v31q0 53 25.5 95.5t78.5 91.5q42 39 60 67t18 69q0 61 -39.5 100t-104.5 39q-74 0 -114.5 -49.5t-48.5 -121.5l-59 11q16 96 71.5 153t151.5 57q99 0 151.5 -57t52.5 -134q0 -55 -26 -94t-73 -79q-41 -36 -62.5 -71t-21.5 -80v-28zM204 38q0 19 12.5 31
t31.5 12t31.5 -12t12.5 -31q0 -18 -12.5 -31t-31.5 -13t-31.5 13t-12.5 31z" />
    <glyph glyph-name="at" unicode="@" horiz-adv-x="935" 
d="M600 407l10 58h62l-52 -276q-3 -15 -3 -28q0 -30 14.5 -46.5t38.5 -16.5q64 0 112 67.5t48 175.5q0 140 -90 232t-236 92q-166 0 -280.5 -118t-114.5 -300q0 -177 106 -277t267 -100q87 0 152.5 26.5t135.5 79.5l30 -42q-138 -112 -320 -112q-109 0 -194 35.5t-135 96.5
t-75.5 135t-25.5 157q0 139 63.5 247t166 163.5t223.5 55.5q166 0 274.5 -101.5t108.5 -263.5q0 -127 -61.5 -211t-157.5 -84q-83 0 -100 78q-48 -78 -142 -78q-67 0 -111.5 50t-44.5 134q0 99 59.5 168.5t143.5 69.5q94 0 128 -67zM570 224l9 43q15 72 -15 117t-85 45
q-61 0 -105.5 -55.5t-44.5 -130.5q0 -66 28.5 -106t76.5 -40q50 0 87.5 37.5t48.5 89.5z" />
    <glyph glyph-name="A" unicode="A" horiz-adv-x="601" 
d="M326 700l254 -700h-64l-75 205h-286l-75 -205h-59l254 700h51zM299 615h-2l-124 -359h250q-102 296 -124 359z" />
    <glyph glyph-name="B" unicode="B" horiz-adv-x="614" 
d="M97 0v700h218q218 0 218 -172q0 -68 -35 -108t-86 -56q64 -9 105.5 -52t41.5 -115q0 -91 -61 -144t-173 -53h-228zM311 650h-152v-263h142q80 0 125 37t45 101q0 125 -160 125zM159 337v-287h150q100 0 144 41.5t44 103.5q0 73 -51.5 107.5t-140.5 34.5h-146z" />
    <glyph glyph-name="C" unicode="C" horiz-adv-x="648" 
d="M121 350q0 -140 62 -225t172 -85q141 0 201 146l56 -22q-76 -176 -253 -176q-140 0 -221 99.5t-81 262.5t81 262.5t221 99.5q183 0 253 -176l-56 -22q-60 146 -201 146q-110 0 -172 -85t-62 -225z" />
    <glyph glyph-name="D" unicode="D" horiz-adv-x="687" 
d="M97 0v700h215q148 0 233 -93t85 -257t-85 -257t-233 -93h-215zM566 350q0 139 -64.5 219t-194.5 80h-148v-598h148q130 0 194.5 80t64.5 219z" />
    <glyph glyph-name="E" unicode="E" horiz-adv-x="546" 
d="M493 0h-396v700h388v-51h-326v-262h306v-51h-306v-285h334v-51z" />
    <glyph glyph-name="F" unicode="F" horiz-adv-x="528" 
d="M159 0h-62v700h389v-51h-327v-262h308v-51h-308v-336z" />
    <glyph glyph-name="G" unicode="G" horiz-adv-x="701" 
d="M358 -12q-140 0 -220.5 100t-80.5 262q0 163 81.5 262.5t224.5 99.5q187 0 257 -176l-56 -22q-60 146 -205 146q-112 0 -175 -84.5t-63 -225.5t63.5 -225.5t176.5 -84.5q88 0 142 47.5t54 130.5v68h-211v49h271v-335h-56v81q-21 -35 -74 -64t-129 -29z" />
    <glyph glyph-name="H" unicode="H" horiz-adv-x="688" 
d="M97 0v700h62v-312h370v312h62v-700h-62v337h-370v-337h-62z" />
    <glyph glyph-name="I" unicode="I" horiz-adv-x="256" 
d="M97 0v700h62v-700h-62z" />
    <glyph glyph-name="J" unicode="J" horiz-adv-x="413" 
d="M45 104q48 -65 106 -65q59 0 84 44.5t25 140.5v476h62v-473q0 -115 -35.5 -177t-133.5 -62q-91 0 -149 76z" />
    <glyph glyph-name="K" unicode="K" horiz-adv-x="605" 
d="M517 0l-268 374l-90 -90v-284h-62v700h62v-341l336 341h77l-280 -285l299 -415h-74z" />
    <glyph glyph-name="L" unicode="L" horiz-adv-x="496" 
d="M97 0v700h62v-649h314v-51h-376z" />
    <glyph glyph-name="M" unicode="M" horiz-adv-x="840" 
d="M445 0h-49q-39 91 -121 301.5t-119 316.5h-2v-618h-57v700h85q209 -544 241 -628l236 628h84v-700h-58v618h-2q-39 -109 -119.5 -318.5t-118.5 -299.5z" />
    <glyph glyph-name="N" unicode="N" horiz-adv-x="719" 
d="M97 0v700h69q318 -489 395 -609h2v609h59v-700h-69q-308 474 -395 609h-2v-609h-59z" />
    <glyph glyph-name="O" unicode="O" horiz-adv-x="716" 
d="M57 350q0 166 83 264t218 98q134 0 217.5 -98.5t83.5 -263.5t-83.5 -263.5t-217.5 -98.5q-135 0 -218 98t-83 264zM121 350q0 -135 62 -222.5t175 -87.5t175 87.5t62 222.5t-62 222.5t-175 87.5t-175 -87.5t-62 -222.5z" />
    <glyph glyph-name="P" unicode="P" horiz-adv-x="587" 
d="M327 296h-168v-296h-62v700h230q108 0 168 -50.5t60 -150.5t-61.5 -151.5t-166.5 -51.5zM492 499q0 150 -181 150h-152v-302h152q181 0 181 152z" />
    <glyph glyph-name="Q" unicode="Q" horiz-adv-x="716" 
d="M588 -62l-85 87q-65 -37 -145 -37q-135 0 -218 98t-83 264t83 264t218 98q134 0 217.5 -98.5t83.5 -263.5q0 -197 -115 -296l81 -82zM121 350q0 -135 62 -222.5t175 -87.5q60 0 106 26l-70 73l36 34l75 -78q90 85 90 255q0 135 -62 222.5t-175 87.5t-175 -87.5
t-62 -222.5z" />
    <glyph glyph-name="R" unicode="R" horiz-adv-x="625" 
d="M555 515q0 -80 -46 -129.5t-125 -63.5l198 -322h-73l-193 318h-157v-318h-62v700h230q44 0 82.5 -9.5t72.5 -29.5t53.5 -57.5t19.5 -88.5zM492 514q0 135 -183 135h-150v-280h165q86 0 127 40.5t41 104.5z" />
    <glyph glyph-name="S" unicode="S" horiz-adv-x="607" 
d="M306 333q-122 21 -177 64t-55 129q0 83 61.5 134.5t166.5 51.5q102 0 163.5 -49t72.5 -130l-59 -15q-22 143 -178 143q-79 0 -121 -36t-42 -94q0 -61 43 -94.5t139 -48.5q120 -19 177 -65.5t57 -131.5q0 -87 -67.5 -145t-177.5 -58q-120 0 -184 56.5t-70 147.5l60 10
q5 -71 53 -117t142 -46q80 0 130 42t50 106q0 61 -42 95t-142 51z" />
    <glyph glyph-name="T" unicode="T" horiz-adv-x="532" 
d="M25 649v51h482v-51h-210v-649h-62v649h-210z" />
    <glyph glyph-name="U" unicode="U" horiz-adv-x="674" 
d="M154 700v-466q0 -83 43 -138.5t140 -55.5t140 55.5t43 138.5v466h62v-457q0 -255 -245 -255t-245 255v457h62z" />
    <glyph glyph-name="V" unicode="V" horiz-adv-x="597" 
d="M300 85h2q26 82 80 236t96 267l41 112h59l-254 -700h-51l-254 700h64q156 -429 217 -615z" />
    <glyph glyph-name="W" unicode="W" horiz-adv-x="892" 
d="M816 700h57l-197 -700h-57q-136 462 -172 609h-2l-171 -609h-57l-198 700h61q131 -468 166 -617h2q16 66 59.5 220.5t78.5 275.5l35 121h54q139 -486 171 -617h2q14 58 56 212.5t77 279.5z" />
    <glyph glyph-name="X" unicode="X" horiz-adv-x="622" 
d="M44 700h73l194 -283l194 283h69l-230 -330l259 -370h-72l-222 321l-222 -321h-68l256 367z" />
    <glyph glyph-name="Y" unicode="Y" horiz-adv-x="586" 
d="M262 0v312l-250 388h69l213 -335l214 335h66l-250 -388v-312h-62z" />
    <glyph glyph-name="Z" unicode="Z" horiz-adv-x="597" 
d="M59 649v51h489v-41l-422 -608h421v-51h-498v41l424 608h-414z" />
    <glyph glyph-name="bracketleft" unicode="[" horiz-adv-x="290" 
d="M98 -147v909h162v-45h-106v-819h106v-45h-162z" />
    <glyph glyph-name="backslash" unicode="\" horiz-adv-x="384" 
d="M373 -115h-54l-308 869h54z" />
    <glyph glyph-name="bracketright" unicode="]" horiz-adv-x="290" 
d="M192 -147h-162v45h106v819h-106v45h162v-909z" />
    <glyph glyph-name="asciicircum" unicode="^" horiz-adv-x="523" 
d="M285 700l184 -351h-63l-146 289l-149 -289h-57l184 351h47z" />
    <glyph glyph-name="underscore" unicode="_" horiz-adv-x="466" 
d="M9 -107v42h448v-42h-448z" />
    <glyph glyph-name="grave" unicode="`" 
d="M211 637l34 47l147 -120l-23 -32z" />
    <glyph glyph-name="a" unicode="a" horiz-adv-x="496" 
d="M371 0q-12 25 -11 69q-21 -33 -65.5 -57t-102.5 -24q-68 0 -108 34.5t-40 95.5q0 43 25 75t69.5 50t99.5 26t122 8v36q0 54 -29.5 86.5t-88.5 32.5q-55 0 -85 -27.5t-34 -74.5l-61 9q9 68 59.5 105t122.5 37q82 0 128.5 -44.5t46.5 -117.5v-248q0 -40 11 -71h-59zM203 36
q66 0 111.5 40.5t45.5 109.5v44q-118 0 -186.5 -27t-68.5 -82q0 -39 27 -62t71 -23z" />
    <glyph glyph-name="b" unicode="b" horiz-adv-x="561" 
d="M513 235q0 -110 -59.5 -178.5t-151.5 -68.5q-56 0 -99 26.5t-62 63.5v-78h-55v700h60v-302q22 36 62.5 59.5t95.5 23.5q90 0 149.5 -68t59.5 -178zM451 235q0 85 -41.5 140.5t-111.5 55.5q-59 0 -105.5 -45t-46.5 -118v-67q0 -73 46 -118t106 -45q70 0 111.5 55.5
t41.5 141.5z" />
    <glyph glyph-name="c" unicode="c" horiz-adv-x="480" 
d="M48 235q0 108 56 177t159 69q133 0 178 -121l-55 -23q-29 94 -125 94q-71 0 -111 -55t-40 -141q0 -87 40 -142t111 -55q51 0 79 24.5t47 68.5l55 -22q-56 -121 -181 -121q-100 0 -156.5 69.5t-56.5 177.5z" />
    <glyph glyph-name="d" unicode="d" horiz-adv-x="561" 
d="M48 235q0 110 59.5 178t149.5 68q55 0 95.5 -23.5t62.5 -59.5v302h60v-700h-55v78q-19 -37 -62 -63.5t-99 -26.5q-92 0 -151.5 68.5t-59.5 178.5zM110 235q0 -86 41.5 -141.5t111.5 -55.5q60 0 106 45t46 118v67q0 73 -46.5 118t-105.5 45q-70 0 -111.5 -55.5
t-41.5 -140.5z" />
    <glyph glyph-name="e" unicode="e" horiz-adv-x="502" 
d="M399 132l51 -22q-57 -122 -186 -122q-101 0 -158.5 69.5t-57.5 178.5q0 106 56.5 175.5t156.5 69.5q98 0 150 -66.5t52 -160.5v-25h-355q4 -85 43 -139t113 -54q52 0 82 23.5t53 72.5zM258 433q-60 0 -99.5 -43.5t-46.5 -112.5h289q-4 72 -42.5 114t-100.5 42z" />
    <glyph glyph-name="f" unicode="f" horiz-adv-x="302" 
d="M22 469h81v99q0 71 38.5 107.5t99.5 36.5t103 -29l-27 -47q-36 25 -73 25t-59 -25t-22 -69v-98h112v-47h-112v-422h-60v422h-81v47z" />
    <glyph glyph-name="g" unicode="g" horiz-adv-x="506" 
d="M39 -85q0 80 74 113q-53 23 -53 73q0 30 18.5 51t50.5 29q-66 43 -66 129q0 79 54.5 125t131.5 46q64 0 114 -33q34 43 85 43q27 0 46 -8l-12 -48q-14 11 -38 11q-33 0 -50 -24q41 -46 41 -110q0 -76 -54.5 -121t-131.5 -45q-26 0 -50.5 6t-28.5 6q-20 0 -37 -12.5
t-17 -30.5q0 -17 10 -27q13 -13 41.5 -19t108.5 -12q102 -8 149.5 -31.5t47.5 -84.5q0 -74 -63.5 -113t-165.5 -39q-93 0 -149 31t-56 95zM123 312q0 -56 36 -89.5t90 -33.5t90 33.5t36 89.5q0 58 -36 92t-90 34t-90 -34t-36 -92zM254 5q-63 4 -93 9q-28 -12 -46 -36
t-18 -55q0 -46 40.5 -68.5t108.5 -22.5q75 0 122.5 27.5t47.5 74.5q0 37 -33.5 51.5t-128.5 19.5z" />
    <glyph glyph-name="h" unicode="h" horiz-adv-x="543" 
d="M86 0v700h60v-300q20 35 61.5 58t95.5 23q71 0 115 -41.5t44 -118.5v-321h-60v309q0 59 -31 90t-80 31q-60 0 -102.5 -43.5t-42.5 -110.5v-276h-60z" />
    <glyph glyph-name="i" unicode="i" horiz-adv-x="232" 
d="M75 669q0 18 11.5 29.5t29.5 11.5t29.5 -11.5t11.5 -29.5q0 -17 -11.5 -28.5t-29.5 -11.5t-29.5 11.5t-11.5 28.5zM86 0v469h60v-469h-60z" />
    <glyph glyph-name="j" unicode="j" horiz-adv-x="232" 
d="M75 669q0 18 11.5 29.5t29.5 11.5t29.5 -11.5t11.5 -29.5q0 -17 -11.5 -28.5t-29.5 -11.5t-29.5 11.5t-11.5 28.5zM86 -69v538h60v-538q0 -67 -33.5 -104.5t-97.5 -37.5q-57 0 -99 27l28 50q32 -25 70 -25q34 0 53 23.5t19 66.5z" />
    <glyph glyph-name="k" unicode="k" horiz-adv-x="473" 
d="M396 0l-187 262l-63 -59v-203h-60v700h60v-427l213 196h75l-181 -170l215 -299h-72z" />
    <glyph glyph-name="l" unicode="l" horiz-adv-x="232" 
d="M86 0v700h60v-700h-60z" />
    <glyph glyph-name="m" unicode="m" horiz-adv-x="819" 
d="M382 0v309q0 59 -28.5 90t-74.5 31q-55 0 -94 -45.5t-39 -114.5v-270h-60v469h55v-78q17 38 57 64t93 26q104 0 139 -89q55 89 157 89q67 0 109 -41.5t42 -118.5v-321h-60v309q0 59 -28.5 90t-74.5 31q-54 0 -93.5 -45t-39.5 -110v-275h-60z" />
    <glyph glyph-name="n" unicode="n" horiz-adv-x="543" 
d="M86 0v469h55v-78q19 38 62 64t100 26q71 0 115 -41.5t44 -118.5v-321h-60v309q0 59 -31 90t-80 31q-60 0 -102.5 -43.5t-42.5 -110.5v-276h-60z" />
    <glyph glyph-name="o" unicode="o" horiz-adv-x="530" 
d="M265 481q103 0 160 -69.5t57 -177.5t-57 -177t-160 -69t-160 69t-57 177t57 177.5t160 69.5zM265 432q-75 0 -115 -56t-40 -142q0 -85 40 -141t115 -56t115 56t40 141q0 86 -40 142t-115 56z" />
    <glyph glyph-name="p" unicode="p" horiz-adv-x="561" 
d="M513 234q0 -110 -59.5 -178t-149.5 -68q-55 0 -95.5 23.5t-62.5 59.5v-271h-60v669h55v-78q19 37 62 63.5t99 26.5q92 0 151.5 -68.5t59.5 -178.5zM451 234q0 86 -41.5 141.5t-111.5 55.5q-60 0 -106 -45t-46 -118v-67q0 -73 46.5 -118t105.5 -45q70 0 111.5 55.5
t41.5 140.5z" />
    <glyph glyph-name="q" unicode="q" horiz-adv-x="561" 
d="M48 234q0 110 59.5 178.5t151.5 68.5q56 0 99 -26.5t62 -63.5v78h55v-669h-60v271q-22 -36 -62.5 -59.5t-95.5 -23.5q-90 0 -149.5 68t-59.5 178zM110 234q0 -85 41.5 -140.5t111.5 -55.5q59 0 105.5 45t46.5 118v67q0 73 -46 118t-106 45q-70 0 -111.5 -55.5
t-41.5 -141.5z" />
    <glyph glyph-name="r" unicode="r" horiz-adv-x="349" 
d="M344 469l-17 -56q-21 17 -56 17q-50 0 -87.5 -46t-37.5 -117v-267h-60v469h55v-79q16 39 54.5 65t87.5 26q40 0 61 -12z" />
    <glyph glyph-name="s" unicode="s" horiz-adv-x="454" 
d="M410 130q0 -64 -49 -103t-134 -39q-81 0 -130.5 37.5t-56.5 110.5l58 7q3 -49 35.5 -78.5t94.5 -29.5q58 0 90 24.5t32 65.5t-28.5 60t-97.5 28q-85 11 -127.5 41.5t-42.5 91.5q0 63 49 99t118 36q74 0 122.5 -34.5t56.5 -94.5l-59 -13q-14 95 -122 95q-45 0 -75 -22.5
t-30 -61.5q1 -39 28.5 -57.5t98.5 -28.5q84 -11 126.5 -41.5t42.5 -92.5z" />
    <glyph glyph-name="t" unicode="t" horiz-adv-x="311" 
d="M261 57l23 -48q-26 -21 -79 -21q-50 0 -76 28t-26 79v327h-81v47h81v136l60 28v-164h111v-47h-111v-319q0 -64 50 -64q29 0 48 18z" />
    <glyph glyph-name="u" unicode="u" horiz-adv-x="539" 
d="M453 469v-469h-55v78q-18 -38 -60.5 -64t-99.5 -26q-70 0 -113.5 41.5t-43.5 118.5v321h60v-309q0 -59 30 -90t79 -31q59 0 101 42.5t42 109.5v278h60z" />
    <glyph glyph-name="v" unicode="v" horiz-adv-x="465" 
d="M202 0l-183 469h64q130 -344 151 -411h2q9 30 46.5 132.5t70.5 190.5l33 88h60l-183 -469h-61z" />
    <glyph glyph-name="w" unicode="w" horiz-adv-x="710" 
d="M332 469h50q113 -344 128 -404h2q8 35 38.5 136t57.5 185l26 83h57l-152 -469h-60q-103 315 -124 393l-124 -393h-60l-152 469h61q106 -334 122 -404h2q10 33 41.5 132.5t58.5 185.5z" />
    <glyph glyph-name="x" unicode="x" horiz-adv-x="454" 
d="M86 0h-64l171 244l-157 225h70l121 -177l123 177h63l-154 -220l173 -249h-70l-138 201z" />
    <glyph glyph-name="y" unicode="y" horiz-adv-x="463" 
d="M186 -200h-64l81 206l-184 463h65q136 -345 151 -393h2l147 393h60z" />
    <glyph glyph-name="z" unicode="z" horiz-adv-x="434" 
d="M50 418v51h341v-37l-276 -382h276v-50h-348v40l273 378h-266z" />
    <glyph glyph-name="braceleft" unicode="{" horiz-adv-x="320" 
d="M185 540v-57q0 -84 -23.5 -123t-73.5 -50q49 -10 73 -49.5t24 -122.5v-57q0 -45 3 -72.5t13.5 -57.5t35 -46t63.5 -21v-42q-40 1 -69 11t-47.5 30.5t-29.5 41.5t-16 57t-6.5 64t-1.5 74v17q0 69 -16.5 104t-71.5 44v51q54 9 71 44t17 104v17q0 46 1.5 74t6.5 64t16 57
t29.5 41.5t47.5 30.5t69 11v-42q-39 -5 -63.5 -21t-35 -46t-13.5 -57.5t-3 -72.5z" />
    <glyph glyph-name="bar" unicode="|" horiz-adv-x="258" 
d="M102 -169v966h54v-966h-54z" />
    <glyph glyph-name="braceright" unicode="}" horiz-adv-x="320" 
d="M135 483v57q0 45 -3 72.5t-13.5 57.5t-35 46t-63.5 21v42q40 -1 69 -11t47.5 -30.5t29.5 -41.5t16 -57t6.5 -64t1.5 -74v-17q0 -69 17 -104t71 -44v-51q-55 -9 -71.5 -44t-16.5 -104v-17q0 -46 -1.5 -74t-6.5 -64t-16 -57t-29.5 -41.5t-47.5 -30.5t-69 -11v42
q39 5 63.5 21t35 46t13.5 57.5t3 72.5v57q0 83 24 122.5t73 49.5q-50 11 -73.5 50t-23.5 123z" />
    <glyph glyph-name="asciitilde" unicode="~" horiz-adv-x="591" 
d="M395 240q-51 0 -111.5 36t-91.5 36q-28 0 -50 -15.5t-30 -30.5l-8 -16l-50 27l5 10t15 21t27 27t40.5 21.5t54.5 9.5q41 0 77 -18t66.5 -36t58.5 -18t50 15t30 31l9 15l49 -28q-2 -4 -5 -9.5t-15 -20.5t-27 -26.5t-40 -21t-54 -9.5z" />
    <glyph glyph-name="exclamdown" unicode="&#xa1;" horiz-adv-x="238" 
d="M76 462q0 19 12 31.5t31 12.5t31 -12.5t12 -31.5t-12 -30.5t-31 -11.5t-31 11.5t-12 30.5zM142 331l11 -531h-68l11 531h46z" />
    <glyph glyph-name="cent" unicode="&#xa2;" horiz-adv-x="475" 
d="M233 0v104q-87 10 -135 76.5t-48 165.5t47.5 165t135.5 75v106h48v-105q118 -10 159 -116l-52 -22q-28 82 -107 91v-390q75 8 108 92l52 -22q-51 -108 -160 -116v-104h-48zM111 346q0 -79 31.5 -131.5t90.5 -63.5v389q-59 -9 -90.5 -62.5t-31.5 -131.5z" />
    <glyph glyph-name="sterling" unicode="&#xa3;" horiz-adv-x="532" 
d="M112 155v175h-61v47h61v131q0 78 44 133.5t138 55.5q125 0 180 -118l-55 -23q-38 92 -125 92q-62 0 -91.5 -40.5t-29.5 -98.5v-132h181v-47h-181v-175q0 -87 -41 -103l1 -2q13 5 55 5t87 -8.5t73 -8.5q47 0 70 16t37 58l55 -19q-20 -55 -56 -80t-99 -25q-25 0 -72 8.5
t-103 8.5q-78 0 -118 -14l-14 49q40 17 52 45t12 70z" />
    <glyph glyph-name="currency" unicode="&#xa4;" horiz-adv-x="596" 
d="M298 581q81 0 143 -48l69 71l41 -42l-70 -68q50 -65 50 -143t-50 -143l70 -68l-41 -42l-69 71q-62 -48 -143 -48q-80 0 -143 48l-69 -71l-41 42l70 68q-50 65 -50 143q0 80 50 143l-70 68l41 42l69 -71q63 48 143 48zM298 175q73 0 125 51t52 125t-52 125t-125 51
t-125 -51t-52 -125t52 -125t125 -51z" />
    <glyph glyph-name="yen" unicode="&#xa5;" horiz-adv-x="571" 
d="M83 349v45h115l-187 292h67l209 -328l209 328h64l-188 -292h116v-45h-145l-27 -43v-24h172v-45h-172v-237h-61v237h-172v45h172v24l-28 43h-144z" />
    <glyph glyph-name="brokenbar" unicode="&#xa6;" horiz-adv-x="258" 
d="M102 412v385h54v-385h-54zM102 -169v385h54v-385h-54z" />
    <glyph glyph-name="section" unicode="&#xa7;" horiz-adv-x="507" 
d="M464 238q0 -44 -27 -79t-71 -53q66 -51 66 -127q0 -79 -49.5 -123.5t-131.5 -44.5q-72 0 -121.5 35t-67.5 94l50 18q36 -102 141 -102q60 0 91 31.5t31 85.5q0 56 -37.5 88t-115.5 59q-87 30 -133 66t-46 99q0 44 27 78.5t71 53.5q-66 48 -66 127t49.5 123.5t131.5 44.5
q72 0 121.5 -35t67.5 -94l-50 -18q-36 102 -141 102q-60 0 -91 -31.5t-31 -85.5q0 -56 37.5 -88t115.5 -59q87 -30 133 -66t46 -99zM246 165q51 -19 76 -32q38 12 61.5 37.5t23.5 60.5q0 21 -8 38.5t-19 29t-33 23.5t-39 18.5t-47 17.5q-46 16 -77 32q-38 -12 -61 -37
t-23 -61q0 -21 8 -38.5t19 -29t33 -23.5t39 -18.5t47 -17.5z" />
    <glyph glyph-name="dieresis" unicode="&#xa8;" 
d="M348 597q0 19 12.5 31.5t31.5 12.5t31.5 -12.5t12.5 -31.5q0 -18 -12.5 -30.5t-31.5 -12.5t-31.5 12.5t-12.5 30.5zM164 597q0 19 12.5 31.5t31.5 12.5t31.5 -12.5t12.5 -31.5q0 -18 -12.5 -30.5t-31.5 -12.5t-31.5 12.5t-12.5 30.5z" />
    <glyph glyph-name="copyright" unicode="&#xa9;" horiz-adv-x="822" 
d="M411 -12q-153 0 -258 103t-105 260q0 156 105 258.5t258 102.5t258 -102.5t105 -258.5q0 -157 -105 -260t-258 -103zM411 32q132 0 222.5 90.5t90.5 228.5q0 137 -91 227t-222 90t-222 -90t-91 -227q0 -138 90.5 -228.5t222.5 -90.5zM223 351q0 93 54.5 151.5t141.5 58.5
q112 0 163 -99l-49 -20q-30 74 -114 74q-64 0 -103 -45t-39 -120t39 -120t102 -45q43 0 72.5 21t42.5 56l49 -21q-49 -100 -163 -100q-87 0 -141.5 58t-54.5 151z" />
    <glyph glyph-name="ordfeminine" unicode="&#xaa;" horiz-adv-x="403" 
d="M295 327q-10 19 -8 54q-17 -26 -52 -44.5t-79 -18.5q-54 0 -85 27t-31 75q0 124 247 124v27q0 42 -23.5 67.5t-69.5 25.5q-42 0 -65.5 -22t-26.5 -58l-47 7q6 53 46 82t95 29q64 0 100.5 -35t36.5 -92v-192q0 -28 8 -56h-46zM165 355q51 0 86.5 32t35.5 86v34
q-199 0 -199 -85q0 -30 21.5 -48.5t55.5 -18.5z" />
    <glyph glyph-name="guillemotleft" unicode="&#xab;" horiz-adv-x="462" 
d="M380 55l-161 201l161 203l37 -29l-128 -174l128 -173zM200 55l-161 201l161 203l37 -29l-128 -174l128 -173z" />
    <glyph glyph-name="logicalnot" unicode="&#xac;" 
d="M56 307v50h488v-244h-50v194h-438z" />
    <glyph glyph-name="uni00AD" unicode="&#xad;" horiz-adv-x="373" 
d="M64 261v52h245v-52h-245z" />
    <glyph glyph-name="registered" unicode="&#xae;" horiz-adv-x="822" 
d="M411 -12q-153 0 -258 103t-105 260q0 156 105 258.5t258 102.5t258 -102.5t105 -258.5q0 -157 -105 -260t-258 -103zM411 32q132 0 222.5 90.5t90.5 228.5q0 137 -91 227t-222 90t-222 -90t-91 -227q0 -138 90.5 -228.5t222.5 -90.5zM565 443q0 -90 -88 -111l102 -178
h-59l-96 173h-90v-173h-50v396h153q51 0 89.5 -26.5t38.5 -80.5zM513 440q0 66 -84 66h-95v-135h102q38 0 57.5 19.5t19.5 49.5z" />
    <glyph glyph-name="macron" unicode="&#xaf;" 
d="M176 565v45h247v-45h-247z" />
    <glyph glyph-name="degree" unicode="&#xb0;" horiz-adv-x="362" 
d="M325 568q0 -62 -41 -103t-103 -41t-103 41t-41 103t41 103t103 41t103 -41t41 -103zM272 568q0 43 -25 71.5t-66 28.5t-66 -28.5t-25 -71.5t25 -71.5t66 -28.5t66 28.5t25 71.5z" />
    <glyph glyph-name="plusminus" unicode="&#xb1;" 
d="M56 346v51h219v203h49v-203h220v-51h-220v-211h-49v211h-219zM56 0v50h488v-50h-488z" />
    <glyph glyph-name="twosuperior" unicode="&#xb2;" horiz-adv-x="355" 
d="M47 324v41q110 93 148 132q49 51 49 97q0 32 -18 51t-49 19q-35 0 -54.5 -25t-22.5 -59l-52 9q9 54 42 86t89 32q58 0 89 -33.5t31 -79.5q0 -35 -16.5 -63t-49.5 -63q-44 -45 -119 -100h189v-44h-256z" />
    <glyph glyph-name="threesuperior" unicode="&#xb3;" horiz-adv-x="356" 
d="M102 606l-50 11q7 34 38 62t84 28q56 0 89 -30t33 -73q0 -61 -62 -84q32 -5 52 -31.5t20 -60.5q0 -44 -35 -77.5t-98 -33.5t-96 32t-33 63l50 13q10 -66 80 -66q38 0 58 19.5t20 49.5q0 31 -24 50t-69 19l-20 -1v45q10 -1 19 -1q40 0 62.5 18t22.5 48q0 26 -20 42.5
t-49 16.5q-32 0 -50 -17.5t-22 -41.5z" />
    <glyph glyph-name="acute" unicode="&#xb4;" 
d="M354 684l34 -47l-158 -105l-23 32z" />
    <glyph glyph-name="mu" unicode="&#xb5;" horiz-adv-x="544" 
d="M146 -200h-60v669h60v-309q0 -59 30.5 -90t83.5 -31q55 0 96.5 45.5t41.5 124.5v260h60v-469h-55v77q-51 -89 -158 -89q-62 0 -99 31v-219z" />
    <glyph glyph-name="mu" unicode="&#x3bc;" horiz-adv-x="544" 
d="M146 -200h-60v669h60v-309q0 -59 30.5 -90t83.5 -31q55 0 96.5 45.5t41.5 124.5v260h60v-469h-55v77q-51 -89 -158 -89q-62 0 -99 31v-219z" />
    <glyph glyph-name="paragraph" unicode="&#xb6;" horiz-adv-x="588" 
d="M231 -138v450q-76 4 -129.5 59t-53.5 136q0 82 57 137.5t136 55.5h323v-47h-77v-791h-54v791h-148v-791h-54z" />
    <glyph glyph-name="periodcentered" unicode="&#xb7;" horiz-adv-x="232" 
d="M74 287q0 19 11.5 30.5t30.5 11.5t30.5 -11.5t11.5 -30.5q0 -18 -11.5 -30t-30.5 -12t-30.5 12t-11.5 30z" />
    <glyph glyph-name="cedilla" unicode="&#xb8;" 
d="M215 -192l24 34q24 -19 50 -19q18 0 30.5 12.5t12.5 32.5t-11.5 31.5t-30.5 11.5q-20 0 -37 -13l-25 24l31 78h37l-23 -60q13 9 31 9q30 0 53 -19.5t23 -59.5t-25 -63.5t-66 -23.5q-47 0 -74 25z" />
    <glyph glyph-name="onesuperior" unicode="&#xb9;" horiz-adv-x="241" 
d="M115 700h45v-376h-54v318q-26 -20 -72 -21l-10 39q63 8 91 40z" />
    <glyph glyph-name="ordmasculine" unicode="&#xba;" horiz-adv-x="426" 
d="M213 702q80 0 124.5 -54t44.5 -138t-44.5 -138t-124.5 -54t-124.5 54t-44.5 138t44.5 138t124.5 54zM213 663q-58 0 -89.5 -43.5t-31.5 -109.5t31.5 -109.5t89.5 -43.5t89.5 43.5t31.5 109.5t-31.5 109.5t-89.5 43.5z" />
    <glyph glyph-name="guillemotright" unicode="&#xbb;" horiz-adv-x="463" 
d="M423 256l-161 -201l-37 28l128 173l-128 174l37 29zM243 256l-161 -201l-37 28l128 173l-128 174l37 29z" />
    <glyph glyph-name="onequarter" unicode="&#xbc;" horiz-adv-x="681" 
d="M125 -12h-56l437 724h56zM115 700h45v-376h-54v318q-26 -20 -72 -21l-10 39q63 8 91 40zM520 374h67v-245h64l-8 -41h-56v-88h-49v88h-185v40zM402 129h136v199h-1z" />
    <glyph glyph-name="onehalf" unicode="&#xbd;" horiz-adv-x="715" 
d="M125 -12h-56l437 724h56zM115 700h45v-376h-54v318q-26 -20 -72 -21l-10 39q63 8 91 40zM407 0v41q110 93 148 132q49 51 49 97q0 32 -18 51t-49 19q-35 0 -54.5 -25t-22.5 -59l-52 9q9 54 42 86t89 32q58 0 89 -33.5t31 -79.5q0 -35 -16.5 -63t-49.5 -63
q-44 -45 -119 -100h189v-44h-256z" />
    <glyph glyph-name="threequarters" unicode="&#xbe;" horiz-adv-x="767" 
d="M211 -12h-56l437 724h56zM102 606l-50 11q7 34 38 62t84 28q56 0 89 -30t33 -73q0 -61 -62 -84q32 -5 52 -31.5t20 -60.5q0 -44 -35 -77.5t-98 -33.5t-96 32t-33 63l50 13q10 -66 80 -66q38 0 58 19.5t20 49.5q0 31 -24 50t-69 19l-20 -1v45q10 -1 19 -1q40 0 62.5 18
t22.5 48q0 26 -20 42.5t-49 16.5q-32 0 -50 -17.5t-22 -41.5zM606 374h67v-245h64l-8 -41h-56v-88h-49v88h-185v40zM488 129h136v199h-1z" />
    <glyph glyph-name="questiondown" unicode="&#xbf;" horiz-adv-x="484" 
d="M301 462q0 -19 -12.5 -31t-31.5 -12t-31.5 12t-12.5 31q0 18 12.5 31t31.5 13t31.5 -13t12.5 -31zM229 332h60v-31q0 -53 -25.5 -95.5t-78.5 -91.5q-42 -39 -60 -67t-18 -69q0 -61 39.5 -100t104.5 -39q74 0 114.5 49.5t48.5 121.5l59 -11q-16 -96 -71.5 -153t-151.5 -57
q-99 0 -151.5 57t-52.5 134q0 55 26 94t73 79q41 36 62.5 71t21.5 80v28z" />
    <glyph glyph-name="Agrave" unicode="&#xc0;" horiz-adv-x="601" 
d="M195 853l34 47l147 -120l-23 -32zM326 700l254 -700h-64l-75 205h-286l-75 -205h-59l254 700h51zM299 615h-2l-124 -359h250q-102 296 -124 359z" />
    <glyph glyph-name="Aacute" unicode="&#xc1;" horiz-adv-x="601" 
d="M375 900l34 -47l-158 -105l-23 32zM326 700l254 -700h-64l-75 205h-286l-75 -205h-59l254 700h51zM299 615h-2l-124 -359h250q-102 296 -124 359z" />
    <glyph glyph-name="Acircumflex" unicode="&#xc2;" horiz-adv-x="601" 
d="M319 891l111 -116l-31 -29l-98 96l-99 -96l-32 29l111 116h38zM326 700l254 -700h-64l-75 205h-286l-75 -205h-59l254 700h51zM299 615h-2l-124 -359h250q-102 296 -124 359z" />
    <glyph glyph-name="Atilde" unicode="&#xc3;" horiz-adv-x="601" 
d="M232 860q35 0 75 -24.5t61 -24.5q19 0 34 11t21 22l6 11l33 -30q-3 -6 -10 -15.5t-32 -25t-56 -15.5q-36 0 -76 24t-59 24t-34.5 -10.5t-20.5 -21.5l-6 -11l-32 29q3 6 9.5 15.5t31 25.5t55.5 16zM326 700l254 -700h-64l-75 205h-286l-75 -205h-59l254 700h51zM299 615
h-2l-124 -359h250q-102 296 -124 359z" />
    <glyph glyph-name="Adieresis" unicode="&#xc4;" horiz-adv-x="601" 
d="M348 811q0 19 12.5 31.5t31.5 12.5t31.5 -12.5t12.5 -31.5q0 -18 -12.5 -30.5t-31.5 -12.5t-31.5 12.5t-12.5 30.5zM164 811q0 19 12.5 31.5t31.5 12.5t31.5 -12.5t12.5 -31.5q0 -18 -12.5 -30.5t-31.5 -12.5t-31.5 12.5t-12.5 30.5zM326 700l254 -700h-64l-75 205h-286
l-75 -205h-59l254 700h51zM299 615h-2l-124 -359h250q-102 296 -124 359z" />
    <glyph glyph-name="Aring" unicode="&#xc5;" horiz-adv-x="601" 
d="M211 825q0 38 25 62t64 24t64 -24t25 -62t-25 -62.5t-64 -24.5t-64 24.5t-25 62.5zM252 825q0 -22 13.5 -37t34.5 -15t34.5 15t13.5 37t-13.5 36.5t-34.5 14.5t-34.5 -14.5t-13.5 -36.5zM326 700l254 -700h-64l-75 205h-286l-75 -205h-59l254 700h51zM299 615h-2
l-124 -359h250q-102 296 -124 359z" />
    <glyph glyph-name="AE" unicode="&#xc6;" horiz-adv-x="897" 
d="M844 0h-396v205h-249l-121 -205h-63l410 700h411v-51h-326v-262h306v-51h-306v-285h334v-51zM444 631l-216 -376h220v376h-4z" />
    <glyph glyph-name="Ccedilla" unicode="&#xc7;" horiz-adv-x="648" 
d="M288 -192l24 34q24 -19 50 -19q18 0 30.5 12.5t12.5 32.5t-11.5 31.5t-30.5 11.5q-20 0 -37 -13l-25 24l27 68q-127 11 -199 109t-72 251q0 163 81 262.5t221 99.5q183 0 253 -176l-56 -22q-60 146 -201 146q-110 0 -172 -85t-62 -225t62 -225t172 -85q141 0 201 146
l56 -22q-76 -173 -248 -176l-18 -48q13 9 31 9q30 0 53 -19.5t23 -59.5t-25 -63.5t-66 -23.5q-47 0 -74 25z" />
    <glyph glyph-name="Egrave" unicode="&#xc8;" horiz-adv-x="546" 
d="M199 853l34 47l147 -120l-23 -32zM493 0h-396v700h388v-51h-326v-262h306v-51h-306v-285h334v-51z" />
    <glyph glyph-name="Eacute" unicode="&#xc9;" horiz-adv-x="546" 
d="M368 900l34 -47l-158 -105l-23 32zM493 0h-396v700h388v-51h-326v-262h306v-51h-306v-285h334v-51z" />
    <glyph glyph-name="Ecircumflex" unicode="&#xca;" horiz-adv-x="546" 
d="M312 891l111 -116l-31 -29l-98 96l-99 -96l-32 29l111 116h38zM493 0h-396v700h388v-51h-326v-262h306v-51h-306v-285h334v-51z" />
    <glyph glyph-name="Edieresis" unicode="&#xcb;" horiz-adv-x="546" 
d="M341 811q0 19 12.5 31.5t31.5 12.5t31.5 -12.5t12.5 -31.5q0 -18 -12.5 -30.5t-31.5 -12.5t-31.5 12.5t-12.5 30.5zM157 811q0 19 12.5 31.5t31.5 12.5t31.5 -12.5t12.5 -31.5q0 -18 -12.5 -30.5t-31.5 -12.5t-31.5 12.5t-12.5 30.5zM493 0h-396v700h388v-51h-326v-262
h306v-51h-306v-285h334v-51z" />
    <glyph glyph-name="Igrave" unicode="&#xcc;" horiz-adv-x="256" 
d="M39 853l34 47l147 -120l-23 -32zM97 0v700h62v-700h-62z" />
    <glyph glyph-name="Iacute" unicode="&#xcd;" horiz-adv-x="256" 
d="M183 900l34 -47l-158 -105l-23 32zM97 0v700h62v-700h-62z" />
    <glyph glyph-name="Icircumflex" unicode="&#xce;" horiz-adv-x="256" 
d="M147 891l111 -116l-31 -29l-98 96l-99 -96l-32 29l111 116h38zM97 0v700h62v-700h-62z" />
    <glyph glyph-name="Idieresis" unicode="&#xcf;" horiz-adv-x="256" 
d="M176 811q0 19 12.5 31.5t31.5 12.5t31.5 -12.5t12.5 -31.5q0 -18 -12.5 -30.5t-31.5 -12.5t-31.5 12.5t-12.5 30.5zM-8 811q0 19 12.5 31.5t31.5 12.5t31.5 -12.5t12.5 -31.5q0 -18 -12.5 -30.5t-31.5 -12.5t-31.5 12.5t-12.5 30.5zM97 0v700h62v-700h-62z" />
    <glyph glyph-name="Eth" unicode="&#xd0;" horiz-adv-x="706" 
d="M21 390h95v310h215q148 0 233 -93t85 -257t-85 -257t-233 -93h-215v344h-95v46zM585 350q0 139 -64.5 219t-194.5 80h-148v-259h193v-46h-193v-293h148q130 0 194.5 80t64.5 219z" />
    <glyph glyph-name="Ntilde" unicode="&#xd1;" horiz-adv-x="719" 
d="M293 860q35 0 75 -24.5t61 -24.5q19 0 34 11t21 22l6 11l33 -30q-3 -6 -10 -15.5t-32 -25t-56 -15.5q-36 0 -76 24t-59 24t-34.5 -10.5t-21.5 -21.5l-5 -11l-32 29q3 6 9.5 15.5t31 25.5t55.5 16zM97 0v700h69q318 -489 395 -609h2v609h59v-700h-69q-308 474 -395 609h-2
v-609h-59z" />
    <glyph glyph-name="Ograve" unicode="&#xd2;" horiz-adv-x="713" 
d="M265 853l34 47l147 -120l-23 -32zM55 350q0 166 83 264t218 98q134 0 217.5 -98.5t83.5 -263.5t-83.5 -263.5t-217.5 -98.5q-135 0 -218 98t-83 264zM119 350q0 -135 62 -222.5t175 -87.5t175 87.5t62 222.5t-62 222.5t-175 87.5t-175 -87.5t-62 -222.5z" />
    <glyph glyph-name="Oacute" unicode="&#xd3;" horiz-adv-x="713" 
d="M413 900l34 -47l-158 -105l-23 32zM55 350q0 166 83 264t218 98q134 0 217.5 -98.5t83.5 -263.5t-83.5 -263.5t-217.5 -98.5q-135 0 -218 98t-83 264zM119 350q0 -135 62 -222.5t175 -87.5t175 87.5t62 222.5t-62 222.5t-175 87.5t-175 -87.5t-62 -222.5z" />
    <glyph glyph-name="Ocircumflex" unicode="&#xd4;" horiz-adv-x="713" 
d="M376 891l111 -116l-31 -29l-98 96l-99 -96l-32 29l111 116h38zM55 350q0 166 83 264t218 98q134 0 217.5 -98.5t83.5 -263.5t-83.5 -263.5t-217.5 -98.5q-135 0 -218 98t-83 264zM119 350q0 -135 62 -222.5t175 -87.5t175 87.5t62 222.5t-62 222.5t-175 87.5t-175 -87.5
t-62 -222.5z" />
    <glyph glyph-name="Otilde" unicode="&#xd5;" horiz-adv-x="713" 
d="M289 860q35 0 75 -24.5t61 -24.5q19 0 34 11t21 22l6 11l33 -30q-3 -6 -10 -15.5t-32 -25t-56 -15.5q-36 0 -76 24t-59 24t-34.5 -10.5t-21.5 -21.5l-5 -11l-32 29q3 6 9.5 15.5t31 25.5t55.5 16zM55 350q0 166 83 264t218 98q134 0 217.5 -98.5t83.5 -263.5
t-83.5 -263.5t-217.5 -98.5q-135 0 -218 98t-83 264zM119 350q0 -135 62 -222.5t175 -87.5t175 87.5t62 222.5t-62 222.5t-175 87.5t-175 -87.5t-62 -222.5z" />
    <glyph glyph-name="Odieresis" unicode="&#xd6;" horiz-adv-x="713" 
d="M404 811q0 19 12.5 31.5t31.5 12.5t31.5 -12.5t12.5 -31.5q0 -18 -12.5 -30.5t-31.5 -12.5t-31.5 12.5t-12.5 30.5zM220 811q0 19 12.5 31.5t31.5 12.5t31.5 -12.5t12.5 -31.5q0 -18 -12.5 -30.5t-31.5 -12.5t-31.5 12.5t-12.5 30.5zM55 350q0 166 83 264t218 98
q134 0 217.5 -98.5t83.5 -263.5t-83.5 -263.5t-217.5 -98.5q-135 0 -218 98t-83 264zM119 350q0 -135 62 -222.5t175 -87.5t175 87.5t62 222.5t-62 222.5t-175 87.5t-175 -87.5t-62 -222.5z" />
    <glyph glyph-name="multiply" unicode="&#xd7;" 
d="M335 325l172 -172l-36 -36l-172 172l-172 -172l-36 36l172 172l-172 172l36 36l172 -172l172 172l36 -36z" />
    <glyph glyph-name="Oslash" unicode="&#xd8;" horiz-adv-x="715" 
d="M57 350q0 166 83 264t218 98q94 0 164 -49l51 83l44 -28l-55 -90q97 -100 97 -278q0 -165 -83.5 -263.5t-217.5 -98.5q-90 0 -161 46l-55 -90l-46 28l60 97q-99 99 -99 281zM121 350q0 -146 67 -229l304 494q-56 45 -134 45q-113 0 -175 -87.5t-62 -222.5zM595 350
q0 141 -65 226l-303 -494q54 -42 131 -42q113 0 175 87.5t62 222.5z" />
    <glyph glyph-name="Ugrave" unicode="&#xd9;" horiz-adv-x="674" 
d="M227 853l34 47l147 -120l-23 -32zM154 700v-466q0 -83 43 -138.5t140 -55.5t140 55.5t43 138.5v466h62v-457q0 -255 -245 -255t-245 255v457h62z" />
    <glyph glyph-name="Uacute" unicode="&#xda;" horiz-adv-x="674" 
d="M414 900l34 -47l-158 -105l-23 32zM154 700v-466q0 -83 43 -138.5t140 -55.5t140 55.5t43 138.5v466h62v-457q0 -255 -245 -255t-245 255v457h62z" />
    <glyph glyph-name="Ucircumflex" unicode="&#xdb;" horiz-adv-x="674" 
d="M356 891l111 -116l-31 -29l-98 96l-99 -96l-32 29l111 116h38zM154 700v-466q0 -83 43 -138.5t140 -55.5t140 55.5t43 138.5v466h62v-457q0 -255 -245 -255t-245 255v457h62z" />
    <glyph glyph-name="Udieresis" unicode="&#xdc;" horiz-adv-x="674" 
d="M385 811q0 19 12.5 31.5t31.5 12.5t31.5 -12.5t12.5 -31.5q0 -18 -12.5 -30.5t-31.5 -12.5t-31.5 12.5t-12.5 30.5zM201 811q0 19 12.5 31.5t31.5 12.5t31.5 -12.5t12.5 -31.5q0 -18 -12.5 -30.5t-31.5 -12.5t-31.5 12.5t-12.5 30.5zM154 700v-466q0 -83 43 -138.5
t140 -55.5t140 55.5t43 138.5v466h62v-457q0 -255 -245 -255t-245 255v457h62z" />
    <glyph glyph-name="Yacute" unicode="&#xdd;" horiz-adv-x="586" 
d="M371 900l34 -47l-158 -105l-23 32zM262 0v312l-250 388h69l213 -335l214 335h66l-250 -388v-312h-62z" />
    <glyph glyph-name="Thorn" unicode="&#xde;" horiz-adv-x="587" 
d="M97 700h62v-133h168q108 0 168 -50.5t60 -150.5t-61.5 -151.5t-166.5 -51.5h-168v-163h-62v700zM492 366q0 150 -181 150h-152v-302h152q181 0 181 152z" />
    <glyph glyph-name="germandbls" unicode="&#xdf;" horiz-adv-x="539" 
d="M86 0v496q0 58 17.5 104.5t61.5 79t109 32.5q85 0 134 -51.5t49 -126.5q0 -56 -27.5 -97t-76.5 -60q61 -13 99.5 -63t38.5 -113q0 -94 -52 -153.5t-145 -59.5q-41 0 -86 15v51q30 -16 85 -16q66 0 101 45.5t35 114.5q0 67 -44 110t-123 43l-27 -1v48q15 -1 26 -1
q65 0 100.5 38.5t35.5 98.5q0 62 -34 95.5t-89 33.5q-65 0 -96 -46.5t-31 -123.5v-493h-61z" />
    <glyph glyph-name="agrave" unicode="&#xe0;" horiz-adv-x="496" 
d="M154 637l34 47l147 -120l-23 -32zM371 0q-12 25 -11 69q-21 -33 -65.5 -57t-102.5 -24q-68 0 -108 34.5t-40 95.5q0 43 25 75t69.5 50t99.5 26t122 8v36q0 54 -29.5 86.5t-88.5 32.5q-55 0 -85 -27.5t-34 -74.5l-61 9q9 68 59.5 105t122.5 37q82 0 128.5 -44.5
t46.5 -117.5v-248q0 -40 11 -71h-59zM203 36q66 0 111.5 40.5t45.5 109.5v44q-118 0 -186.5 -27t-68.5 -82q0 -39 27 -62t71 -23z" />
    <glyph glyph-name="aacute" unicode="&#xe1;" horiz-adv-x="496" 
d="M303 684l34 -47l-158 -105l-23 32zM371 0q-12 25 -11 69q-21 -33 -65.5 -57t-102.5 -24q-68 0 -108 34.5t-40 95.5q0 43 25 75t69.5 50t99.5 26t122 8v36q0 54 -29.5 86.5t-88.5 32.5q-55 0 -85 -27.5t-34 -74.5l-61 9q9 68 59.5 105t122.5 37q82 0 128.5 -44.5
t46.5 -117.5v-248q0 -40 11 -71h-59zM203 36q66 0 111.5 40.5t45.5 109.5v44q-118 0 -186.5 -27t-68.5 -82q0 -39 27 -62t71 -23z" />
    <glyph glyph-name="acircumflex" unicode="&#xe2;" horiz-adv-x="496" 
d="M112 555l109 130h42l109 -130l-32 -27l-99 108l-98 -108zM371 0q-12 25 -11 69q-21 -33 -65.5 -57t-102.5 -24q-68 0 -108 34.5t-40 95.5q0 43 25 75t69.5 50t99.5 26t122 8v36q0 54 -29.5 86.5t-88.5 32.5q-55 0 -85 -27.5t-34 -74.5l-61 9q9 68 59.5 105t122.5 37
q82 0 128.5 -44.5t46.5 -117.5v-248q0 -40 11 -71h-59zM203 36q66 0 111.5 40.5t45.5 109.5v44q-118 0 -186.5 -27t-68.5 -82q0 -39 27 -62t71 -23z" />
    <glyph glyph-name="atilde" unicode="&#xe3;" horiz-adv-x="496" 
d="M182 649q35 0 75 -24.5t61 -24.5q19 0 34 11t21 22l6 11l33 -30q-3 -6 -10 -15.5t-32 -25t-56 -15.5q-36 0 -76 24t-59 24t-34.5 -11t-20.5 -21l-6 -11l-32 29q3 6 9.5 15.5t31 25.5t55.5 16zM371 0q-12 25 -11 69q-21 -33 -65.5 -57t-102.5 -24q-68 0 -108 34.5
t-40 95.5q0 43 25 75t69.5 50t99.5 26t122 8v36q0 54 -29.5 86.5t-88.5 32.5q-55 0 -85 -27.5t-34 -74.5l-61 9q9 68 59.5 105t122.5 37q82 0 128.5 -44.5t46.5 -117.5v-248q0 -40 11 -71h-59zM203 36q66 0 111.5 40.5t45.5 109.5v44q-118 0 -186.5 -27t-68.5 -82
q0 -39 27 -62t71 -23z" />
    <glyph glyph-name="adieresis" unicode="&#xe4;" horiz-adv-x="496" 
d="M289 597q0 19 12.5 31.5t31.5 12.5t31.5 -12.5t12.5 -31.5q0 -18 -12.5 -30.5t-31.5 -12.5t-31.5 12.5t-12.5 30.5zM105 597q0 19 12.5 31.5t31.5 12.5t31.5 -12.5t12.5 -31.5q0 -18 -12.5 -30.5t-31.5 -12.5t-31.5 12.5t-12.5 30.5zM371 0q-12 25 -11 69
q-21 -33 -65.5 -57t-102.5 -24q-68 0 -108 34.5t-40 95.5q0 43 25 75t69.5 50t99.5 26t122 8v36q0 54 -29.5 86.5t-88.5 32.5q-55 0 -85 -27.5t-34 -74.5l-61 9q9 68 59.5 105t122.5 37q82 0 128.5 -44.5t46.5 -117.5v-248q0 -40 11 -71h-59zM203 36q66 0 111.5 40.5
t45.5 109.5v44q-118 0 -186.5 -27t-68.5 -82q0 -39 27 -62t71 -23z" />
    <glyph glyph-name="aring" unicode="&#xe5;" horiz-adv-x="496" 
d="M156 611q0 38 25 62t64 24t64 -24t25 -62t-25 -62.5t-64 -24.5t-64 24.5t-25 62.5zM197 611q0 -22 13.5 -37t34.5 -15t34.5 15t13.5 37t-13.5 36.5t-34.5 14.5t-34.5 -14.5t-13.5 -36.5zM371 0q-12 25 -11 69q-21 -33 -65.5 -57t-102.5 -24q-68 0 -108 34.5t-40 95.5
q0 43 25 75t69.5 50t99.5 26t122 8v36q0 54 -29.5 86.5t-88.5 32.5q-55 0 -85 -27.5t-34 -74.5l-61 9q9 68 59.5 105t122.5 37q82 0 128.5 -44.5t46.5 -117.5v-248q0 -40 11 -71h-59zM203 36q66 0 111.5 40.5t45.5 109.5v44q-118 0 -186.5 -27t-68.5 -82q0 -39 27 -62
t71 -23z" />
    <glyph glyph-name="ae" unicode="&#xe6;" horiz-adv-x="812" 
d="M708 130l52 -22q-57 -120 -185 -120q-129 0 -183 109q-27 -54 -78.5 -81.5t-114.5 -27.5q-73 0 -114 33.5t-41 97.5q0 43 25 74.5t69.5 49t99.5 26t122 8.5v36q0 55 -29.5 87.5t-88.5 32.5q-56 0 -85.5 -28t-33.5 -75l-61 9q9 68 59.5 105t122.5 37q58 0 99 -24.5
t60 -66.5q56 91 169 91q97 0 149 -67t52 -162v-23h-355q4 -86 43 -139.5t114 -53.5q51 0 80.5 23t52.5 71zM569 433q-61 0 -100.5 -43.5t-46.5 -112.5h289q-4 71 -42.5 113.5t-99.5 42.5zM203 36q66 0 111.5 40.5t45.5 109.5v43q-255 0 -255 -108q0 -39 27.5 -62t70.5 -23z
" />
    <glyph glyph-name="ccedilla" unicode="&#xe7;" horiz-adv-x="480" 
d="M170 -192l24 34q24 -19 50 -19q18 0 30.5 12.5t12.5 32.5t-11.5 31.5t-30.5 11.5q-20 0 -37 -13l-25 24l28 71q-78 17 -120.5 83t-42.5 159q0 108 56 177t159 69q133 0 178 -121l-55 -23q-29 94 -125 94q-71 0 -111 -55t-40 -141q0 -87 40 -142t111 -55q51 0 79 24.5
t47 68.5l55 -22q-56 -121 -181 -121q-10 0 -15 1l-18 -49q14 9 31 9q30 0 53 -19.5t23 -59.5t-25 -63.5t-66 -23.5q-47 0 -74 25z" />
    <glyph glyph-name="egrave" unicode="&#xe8;" horiz-adv-x="502" 
d="M162 637l34 47l147 -120l-23 -32zM399 132l51 -22q-57 -122 -186 -122q-101 0 -158.5 69.5t-57.5 178.5q0 106 56.5 175.5t156.5 69.5q98 0 150 -66.5t52 -160.5v-25h-355q4 -85 43 -139t113 -54q52 0 82 23.5t53 72.5zM258 433q-60 0 -99.5 -43.5t-46.5 -112.5h289
q-4 72 -42.5 114t-100.5 42z" />
    <glyph glyph-name="eacute" unicode="&#xe9;" horiz-adv-x="502" 
d="M319 684l34 -47l-158 -105l-23 32zM399 132l51 -22q-57 -122 -186 -122q-101 0 -158.5 69.5t-57.5 178.5q0 106 56.5 175.5t156.5 69.5q98 0 150 -66.5t52 -160.5v-25h-355q4 -85 43 -139t113 -54q52 0 82 23.5t53 72.5zM258 433q-60 0 -99.5 -43.5t-46.5 -112.5h289
q-4 72 -42.5 114t-100.5 42z" />
    <glyph glyph-name="ecircumflex" unicode="&#xea;" horiz-adv-x="502" 
d="M130 555l109 130h42l109 -130l-32 -27l-99 108l-98 -108zM399 132l51 -22q-57 -122 -186 -122q-101 0 -158.5 69.5t-57.5 178.5q0 106 56.5 175.5t156.5 69.5q98 0 150 -66.5t52 -160.5v-25h-355q4 -85 43 -139t113 -54q52 0 82 23.5t53 72.5zM258 433q-60 0 -99.5 -43.5
t-46.5 -112.5h289q-4 72 -42.5 114t-100.5 42z" />
    <glyph glyph-name="edieresis" unicode="&#xeb;" horiz-adv-x="502" 
d="M309 597q0 19 12.5 31.5t31.5 12.5t31.5 -12.5t12.5 -31.5q0 -18 -12.5 -30.5t-31.5 -12.5t-31.5 12.5t-12.5 30.5zM125 597q0 19 12.5 31.5t31.5 12.5t31.5 -12.5t12.5 -31.5q0 -18 -12.5 -30.5t-31.5 -12.5t-31.5 12.5t-12.5 30.5zM399 132l51 -22q-57 -122 -186 -122
q-101 0 -158.5 69.5t-57.5 178.5q0 106 56.5 175.5t156.5 69.5q98 0 150 -66.5t52 -160.5v-25h-355q4 -85 43 -139t113 -54q52 0 82 23.5t53 72.5zM258 433q-60 0 -99.5 -43.5t-46.5 -112.5h289q-4 72 -42.5 114t-100.5 42z" />
    <glyph glyph-name="igrave" unicode="&#xec;" horiz-adv-x="232" 
d="M25 637l34 47l147 -120l-23 -32zM86 0v469h60v-469h-60z" />
    <glyph glyph-name="iacute" unicode="&#xed;" horiz-adv-x="232" 
d="M172 684l34 -47l-158 -105l-23 32zM86 0v469h60v-469h-60z" />
    <glyph glyph-name="icircumflex" unicode="&#xee;" horiz-adv-x="232" 
d="M-14 555l109 130h42l109 -130l-32 -27l-99 108l-98 -108zM86 0v469h60v-469h-60z" />
    <glyph glyph-name="idieresis" unicode="&#xef;" horiz-adv-x="232" 
d="M164 597q0 19 12.5 31.5t31.5 12.5t31.5 -12.5t12.5 -31.5q0 -18 -12.5 -30.5t-31.5 -12.5t-31.5 12.5t-12.5 30.5zM-20 597q0 19 12.5 31.5t31.5 12.5t31.5 -12.5t12.5 -31.5q0 -18 -12.5 -30.5t-31.5 -12.5t-31.5 12.5t-12.5 30.5zM86 0v469h60v-469h-60z" />
    <glyph glyph-name="eth" unicode="&#xf0;" horiz-adv-x="530" 
d="M206 536l-24 37l75 50q-50 45 -108 69l35 34q61 -24 118 -73l70 46l23 -35l-62 -42q68 -72 108.5 -171.5t40.5 -209.5q0 -118 -61 -185.5t-156 -67.5q-103 0 -160 69t-57 177q0 113 61 180t152 67q44 0 77.5 -14t47.5 -35q-33 90 -97 160zM110 235q0 -85 40.5 -141.5
t114.5 -56.5q72 0 113.5 56t41.5 144t-44 141.5t-112 53.5q-74 0 -114 -56.5t-40 -140.5z" />
    <glyph glyph-name="ntilde" unicode="&#xf1;" horiz-adv-x="543" 
d="M216 649q35 0 75 -24.5t61 -24.5q19 0 34 11t21 22l6 11l33 -30q-3 -6 -10 -15.5t-32 -25t-56 -15.5q-36 0 -76 24t-59 24t-34.5 -11t-20.5 -21l-6 -11l-32 29q3 6 9.5 15.5t31 25.5t55.5 16zM86 0v469h55v-78q19 38 62 64t100 26q71 0 115 -41.5t44 -118.5v-321h-60v309
q0 59 -31 90t-80 31q-60 0 -102.5 -43.5t-42.5 -110.5v-276h-60z" />
    <glyph glyph-name="ograve" unicode="&#xf2;" horiz-adv-x="530" 
d="M173 637l34 47l147 -120l-23 -32zM265 481q103 0 160 -69.5t57 -177.5t-57 -177t-160 -69t-160 69t-57 177t57 177.5t160 69.5zM265 432q-75 0 -115 -56t-40 -142q0 -85 40 -141t115 -56t115 56t40 141q0 86 -40 142t-115 56z" />
    <glyph glyph-name="oacute" unicode="&#xf3;" horiz-adv-x="530" 
d="M323 684l34 -47l-158 -105l-23 32zM265 481q103 0 160 -69.5t57 -177.5t-57 -177t-160 -69t-160 69t-57 177t57 177.5t160 69.5zM265 432q-75 0 -115 -56t-40 -142q0 -85 40 -141t115 -56t115 56t40 141q0 86 -40 142t-115 56z" />
    <glyph glyph-name="ocircumflex" unicode="&#xf4;" horiz-adv-x="530" 
d="M135 555l109 130h42l109 -130l-32 -27l-99 108l-98 -108zM265 481q103 0 160 -69.5t57 -177.5t-57 -177t-160 -69t-160 69t-57 177t57 177.5t160 69.5zM265 432q-75 0 -115 -56t-40 -142q0 -85 40 -141t115 -56t115 56t40 141q0 86 -40 142t-115 56z" />
    <glyph glyph-name="otilde" unicode="&#xf5;" horiz-adv-x="530" 
d="M198 649q35 0 75 -24.5t61 -24.5q19 0 34 11t21 22l6 11l33 -30q-3 -6 -10 -15.5t-32 -25t-56 -15.5q-36 0 -76 24t-59 24t-34.5 -11t-20.5 -21l-6 -11l-32 29q3 6 9.5 15.5t31 25.5t55.5 16zM265 481q103 0 160 -69.5t57 -177.5t-57 -177t-160 -69t-160 69t-57 177
t57 177.5t160 69.5zM265 432q-75 0 -115 -56t-40 -142q0 -85 40 -141t115 -56t115 56t40 141q0 86 -40 142t-115 56z" />
    <glyph glyph-name="odieresis" unicode="&#xf6;" horiz-adv-x="530" 
d="M313 597q0 19 12.5 31.5t31.5 12.5t31.5 -12.5t12.5 -31.5q0 -18 -12.5 -30.5t-31.5 -12.5t-31.5 12.5t-12.5 30.5zM129 597q0 19 12.5 31.5t31.5 12.5t31.5 -12.5t12.5 -31.5q0 -18 -12.5 -30.5t-31.5 -12.5t-31.5 12.5t-12.5 30.5zM265 481q103 0 160 -69.5t57 -177.5
t-57 -177t-160 -69t-160 69t-57 177t57 177.5t160 69.5zM265 432q-75 0 -115 -56t-40 -142q0 -85 40 -141t115 -56t115 56t40 141q0 86 -40 142t-115 56z" />
    <glyph glyph-name="divide" unicode="&#xf7;" 
d="M300 539q19 0 31.5 -12t12.5 -31q0 -18 -12.5 -30t-31.5 -12t-31.5 12t-12.5 30q0 19 12.5 31t31.5 12zM56 297v51h488v-51h-488zM300 191q19 0 31.5 -12t12.5 -31q0 -18 -12.5 -30t-31.5 -12t-31.5 12t-12.5 30q0 19 12.5 31t31.5 12z" />
    <glyph glyph-name="oslash" unicode="&#xf8;" horiz-adv-x="530" 
d="M265 481q57 0 103 -24l41 71l39 -25l-42 -73q76 -68 76 -196q0 -108 -57 -177t-160 -69q-56 0 -100 22l-42 -74l-39 25l43 74q-79 68 -79 199q0 108 57 177.5t160 69.5zM265 432q-75 0 -115 -56t-40 -142q0 -95 46 -148l186 325q-34 21 -77 21zM420 234q0 90 -43 145
l-186 -324q31 -18 74 -18q75 0 115 56t40 141z" />
    <glyph glyph-name="ugrave" unicode="&#xf9;" horiz-adv-x="539" 
d="M175 637l34 47l147 -120l-23 -32zM453 469v-469h-55v78q-18 -38 -60.5 -64t-99.5 -26q-70 0 -113.5 41.5t-43.5 118.5v321h60v-309q0 -59 30 -90t79 -31q59 0 101 42.5t42 109.5v278h60z" />
    <glyph glyph-name="uacute" unicode="&#xfa;" horiz-adv-x="539" 
d="M330 684l34 -47l-158 -105l-23 32zM453 469v-469h-55v78q-18 -38 -60.5 -64t-99.5 -26q-70 0 -113.5 41.5t-43.5 118.5v321h60v-309q0 -59 30 -90t79 -31q59 0 101 42.5t42 109.5v278h60z" />
    <glyph glyph-name="ucircumflex" unicode="&#xfb;" horiz-adv-x="539" 
d="M136 555l109 130h42l109 -130l-32 -27l-99 108l-98 -108zM453 469v-469h-55v78q-18 -38 -60.5 -64t-99.5 -26q-70 0 -113.5 41.5t-43.5 118.5v321h60v-309q0 -59 30 -90t79 -31q59 0 101 42.5t42 109.5v278h60z" />
    <glyph glyph-name="udieresis" unicode="&#xfc;" horiz-adv-x="539" 
d="M315 597q0 19 12.5 31.5t31.5 12.5t31.5 -12.5t12.5 -31.5q0 -18 -12.5 -30.5t-31.5 -12.5t-31.5 12.5t-12.5 30.5zM131 597q0 19 12.5 31.5t31.5 12.5t31.5 -12.5t12.5 -31.5q0 -18 -12.5 -30.5t-31.5 -12.5t-31.5 12.5t-12.5 30.5zM453 469v-469h-55v78
q-18 -38 -60.5 -64t-99.5 -26q-70 0 -113.5 41.5t-43.5 118.5v321h60v-309q0 -59 30 -90t79 -31q59 0 101 42.5t42 109.5v278h60z" />
    <glyph glyph-name="yacute" unicode="&#xfd;" horiz-adv-x="463" 
d="M305 684l34 -47l-158 -105l-23 32zM186 -200h-64l81 206l-184 463h65q136 -345 151 -393h2l147 393h60z" />
    <glyph glyph-name="thorn" unicode="&#xfe;" horiz-adv-x="561" 
d="M513 235q0 -110 -59 -178.5t-149 -68.5q-107 0 -159 81v-269h-60v900h60v-300q52 81 159 81q90 0 149 -68t59 -178zM451 235q0 85 -41.5 140.5t-111.5 55.5q-56 0 -103.5 -41.5t-47.5 -121.5v-67q0 -80 47.5 -121.5t103.5 -41.5q70 0 111.5 55.5t41.5 141.5z" />
    <glyph glyph-name="ydieresis" unicode="&#xff;" horiz-adv-x="463" 
d="M282 597q0 19 12.5 31.5t31.5 12.5t31.5 -12.5t12.5 -31.5q0 -18 -12.5 -30.5t-31.5 -12.5t-31.5 12.5t-12.5 30.5zM98 597q0 19 12.5 31.5t31.5 12.5t31.5 -12.5t12.5 -31.5q0 -18 -12.5 -30.5t-31.5 -12.5t-31.5 12.5t-12.5 30.5zM186 -200h-64l81 206l-184 463h65
q136 -345 151 -393h2l147 393h60z" />
    <glyph glyph-name="Amacron" unicode="&#x100;" horiz-adv-x="601" 
d="M176 778v45h247v-45h-247zM326 700l254 -700h-64l-75 205h-286l-75 -205h-59l254 700h51zM299 615h-2l-124 -359h250q-102 296 -124 359z" />
    <glyph glyph-name="amacron" unicode="&#x101;" horiz-adv-x="496" 
d="M120 565v45h247v-45h-247zM371 0q-12 25 -11 69q-21 -33 -65.5 -57t-102.5 -24q-68 0 -108 34.5t-40 95.5q0 43 25 75t69.5 50t99.5 26t122 8v36q0 54 -29.5 86.5t-88.5 32.5q-55 0 -85 -27.5t-34 -74.5l-61 9q9 68 59.5 105t122.5 37q82 0 128.5 -44.5t46.5 -117.5v-248
q0 -40 11 -71h-59zM203 36q66 0 111.5 40.5t45.5 109.5v44q-118 0 -186.5 -27t-68.5 -82q0 -39 27 -62t71 -23z" />
    <glyph glyph-name="Abreve" unicode="&#x102;" horiz-adv-x="601" 
d="M158 866l49 17q5 -34 31 -57t62 -23t62 23t31 57l49 -17q-11 -48 -49 -76.5t-93 -28.5t-93 28.5t-49 76.5zM326 700l254 -700h-64l-75 205h-286l-75 -205h-59l254 700h51zM299 615h-2l-124 -359h250q-102 296 -124 359z" />
    <glyph glyph-name="abreve" unicode="&#x103;" horiz-adv-x="496" 
d="M101 644l49 17q5 -34 31 -57t62 -23t62 23t31 57l49 -17q-11 -48 -49 -76.5t-93 -28.5t-93 28.5t-49 76.5zM371 0q-12 25 -11 69q-21 -33 -65.5 -57t-102.5 -24q-68 0 -108 34.5t-40 95.5q0 43 25 75t69.5 50t99.5 26t122 8v36q0 54 -29.5 86.5t-88.5 32.5
q-55 0 -85 -27.5t-34 -74.5l-61 9q9 68 59.5 105t122.5 37q82 0 128.5 -44.5t46.5 -117.5v-248q0 -40 11 -71h-59zM203 36q66 0 111.5 40.5t45.5 109.5v44q-118 0 -186.5 -27t-68.5 -82q0 -39 27 -62t71 -23z" />
    <glyph glyph-name="Aogonek" unicode="&#x104;" horiz-adv-x="601" 
d="M485 -108q0 -18 11 -29.5t31 -11.5q29 0 54 34l22 -23q-34 -52 -90 -52q-29 0 -54 17t-25 58q0 66 82 115l-75 205h-286l-75 -205h-59l254 700h51l254 -700q-95 -53 -95 -108zM299 615h-2l-124 -359h250q-102 296 -124 359z" />
    <glyph glyph-name="aogonek" unicode="&#x105;" horiz-adv-x="496" 
d="M337 -108q0 -18 11 -29.5t31 -11.5q29 0 54 34l22 -23q-34 -52 -90 -52q-29 0 -54 17t-25 58q0 69 85 115q-12 25 -11 69q-21 -33 -65.5 -57t-102.5 -24q-68 0 -108 34.5t-40 95.5q0 43 25 75t69.5 50t99.5 26t122 8v36q0 54 -29.5 86.5t-88.5 32.5q-55 0 -85 -27.5
t-34 -74.5l-61 9q9 68 59.5 105t122.5 37q82 0 128.5 -44.5t46.5 -117.5v-248q0 -40 11 -71q-93 -56 -93 -108zM203 36q66 0 111.5 40.5t45.5 109.5v44q-118 0 -186.5 -27t-68.5 -82q0 -39 27 -62t71 -23z" />
    <glyph glyph-name="Cacute" unicode="&#x106;" horiz-adv-x="648" 
d="M416 900l34 -47l-158 -105l-23 32zM121 350q0 -140 62 -225t172 -85q141 0 201 146l56 -22q-76 -176 -253 -176q-140 0 -221 99.5t-81 262.5t81 262.5t221 99.5q183 0 253 -176l-56 -22q-60 146 -201 146q-110 0 -172 -85t-62 -225z" />
    <glyph glyph-name="cacute" unicode="&#x107;" horiz-adv-x="480" 
d="M319 684l34 -47l-158 -105l-23 32zM48 235q0 108 56 177t159 69q133 0 178 -121l-55 -23q-29 94 -125 94q-71 0 -111 -55t-40 -141q0 -87 40 -142t111 -55q51 0 79 24.5t47 68.5l55 -22q-56 -121 -181 -121q-100 0 -156.5 69.5t-56.5 177.5z" />
    <glyph glyph-name="Ccircumflex" unicode="&#x108;" horiz-adv-x="648" 
d="M378 891l111 -116l-31 -29l-98 96l-99 -96l-32 29l111 116h38zM121 350q0 -140 62 -225t172 -85q141 0 201 146l56 -22q-76 -176 -253 -176q-140 0 -221 99.5t-81 262.5t81 262.5t221 99.5q183 0 253 -176l-56 -22q-60 146 -201 146q-110 0 -172 -85t-62 -225z" />
    <glyph glyph-name="ccircumflex" unicode="&#x109;" horiz-adv-x="480" 
d="M131 555l109 130h42l109 -130l-32 -27l-99 108l-98 -108zM48 235q0 108 56 177t159 69q133 0 178 -121l-55 -23q-29 94 -125 94q-71 0 -111 -55t-40 -141q0 -87 40 -142t111 -55q51 0 79 24.5t47 68.5l55 -22q-56 -121 -181 -121q-100 0 -156.5 69.5t-56.5 177.5z" />
    <glyph glyph-name="Cdotaccent" unicode="&#x10a;" horiz-adv-x="648" 
d="M317 809q0 19 12.5 31.5t31.5 12.5t31.5 -12.5t12.5 -31.5q0 -17 -12.5 -30t-31.5 -13t-31.5 13t-12.5 30zM121 350q0 -140 62 -225t172 -85q141 0 201 146l56 -22q-76 -176 -253 -176q-140 0 -221 99.5t-81 262.5t81 262.5t221 99.5q183 0 253 -176l-56 -22
q-60 146 -201 146q-110 0 -172 -85t-62 -225z" />
    <glyph glyph-name="cdotaccent" unicode="&#x10b;" horiz-adv-x="480" 
d="M226 596q0 18 11.5 29.5t29.5 11.5t29.5 -11.5t11.5 -29.5q0 -17 -11.5 -28.5t-29.5 -11.5t-29.5 11.5t-11.5 28.5zM48 235q0 108 56 177t159 69q133 0 178 -121l-55 -23q-29 94 -125 94q-71 0 -111 -55t-40 -141q0 -87 40 -142t111 -55q51 0 79 24.5t47 68.5l55 -22
q-56 -121 -181 -121q-100 0 -156.5 69.5t-56.5 177.5z" />
    <glyph glyph-name="Ccaron" unicode="&#x10c;" horiz-adv-x="648" 
d="M488 869l-112 -116h-38l-111 116l32 29l99 -96l98 96zM121 350q0 -140 62 -225t172 -85q141 0 201 146l56 -22q-76 -176 -253 -176q-140 0 -221 99.5t-81 262.5t81 262.5t221 99.5q183 0 253 -176l-56 -22q-60 146 -201 146q-110 0 -172 -85t-62 -225z" />
    <glyph glyph-name="ccaron" unicode="&#x10d;" horiz-adv-x="480" 
d="M394 664l-109 -130h-42l-109 130l32 27l99 -108l98 108zM48 235q0 108 56 177t159 69q133 0 178 -121l-55 -23q-29 94 -125 94q-71 0 -111 -55t-40 -141q0 -87 40 -142t111 -55q51 0 79 24.5t47 68.5l55 -22q-56 -121 -181 -121q-100 0 -156.5 69.5t-56.5 177.5z" />
    <glyph glyph-name="Dcaron" unicode="&#x10e;" horiz-adv-x="687" 
d="M436 869l-112 -116h-38l-111 116l32 29l99 -96l98 96zM97 0v700h215q148 0 233 -93t85 -257t-85 -257t-233 -93h-215zM566 350q0 139 -64.5 219t-194.5 80h-148v-598h148q130 0 194.5 80t64.5 219z" />
    <glyph glyph-name="dcaron" unicode="&#x10f;" horiz-adv-x="561" 
d="M556 706l57 -15l-60 -158l-38 10zM48 235q0 110 59.5 178t149.5 68q55 0 95.5 -23.5t62.5 -59.5v302h60v-700h-55v78q-19 -37 -62 -63.5t-99 -26.5q-92 0 -151.5 68.5t-59.5 178.5zM110 235q0 -86 41.5 -141.5t111.5 -55.5q60 0 106 45t46 118v67q0 73 -46.5 118
t-105.5 45q-70 0 -111.5 -55.5t-41.5 -140.5z" />
    <glyph glyph-name="Dcroat" unicode="&#x110;" horiz-adv-x="706" 
d="M21 390h95v310h215q148 0 233 -93t85 -257t-85 -257t-233 -93h-215v344h-95v46zM585 350q0 139 -64.5 219t-194.5 80h-148v-259h193v-46h-193v-293h148q130 0 194.5 80t64.5 219z" />
    <glyph glyph-name="dcroat" unicode="&#x111;" horiz-adv-x="561" 
d="M535 558h-60v-558h-55v78q-19 -37 -62 -63.5t-99 -26.5q-92 0 -151.5 68.5t-59.5 178.5t59.5 178t149.5 68q55 0 95.5 -23.5t62.5 -59.5v160h-164v49h164v93h60v-93h60v-49zM110 235q0 -86 41.5 -141.5t111.5 -55.5q60 0 106 45t46 118v67q0 73 -46.5 118t-105.5 45
q-70 0 -111.5 -55.5t-41.5 -140.5z" />
    <glyph glyph-name="Emacron" unicode="&#x112;" horiz-adv-x="546" 
d="M172 778v45h247v-45h-247zM493 0h-396v700h388v-51h-326v-262h306v-51h-306v-285h334v-51z" />
    <glyph glyph-name="emacron" unicode="&#x113;" horiz-adv-x="502" 
d="M138 565v45h247v-45h-247zM399 132l51 -22q-57 -122 -186 -122q-101 0 -158.5 69.5t-57.5 178.5q0 106 56.5 175.5t156.5 69.5q98 0 150 -66.5t52 -160.5v-25h-355q4 -85 43 -139t113 -54q52 0 82 23.5t53 72.5zM258 433q-60 0 -99.5 -43.5t-46.5 -112.5h289
q-4 72 -42.5 114t-100.5 42z" />
    <glyph glyph-name="Ebreve" unicode="&#x114;" horiz-adv-x="546" 
d="M152 866l49 17q5 -34 31 -57t62 -23t62 23t31 57l49 -17q-11 -48 -49 -76.5t-93 -28.5t-93 28.5t-49 76.5zM493 0h-396v700h388v-51h-326v-262h306v-51h-306v-285h334v-51z" />
    <glyph glyph-name="ebreve" unicode="&#x115;" horiz-adv-x="502" 
d="M119 644l49 17q5 -34 31 -57t62 -23t62 23t31 57l49 -17q-11 -48 -49 -76.5t-93 -28.5t-93 28.5t-49 76.5zM399 132l51 -22q-57 -122 -186 -122q-101 0 -158.5 69.5t-57.5 178.5q0 106 56.5 175.5t156.5 69.5q98 0 150 -66.5t52 -160.5v-25h-355q4 -85 43 -139t113 -54
q52 0 82 23.5t53 72.5zM258 433q-60 0 -99.5 -43.5t-46.5 -112.5h289q-4 72 -42.5 114t-100.5 42z" />
    <glyph glyph-name="Edotaccent" unicode="&#x116;" horiz-adv-x="546" 
d="M250 809q0 19 12.5 31.5t31.5 12.5t31.5 -12.5t12.5 -31.5q0 -17 -13 -30t-31 -13t-31 13t-13 30zM493 0h-396v700h388v-51h-326v-262h306v-51h-306v-285h334v-51z" />
    <glyph glyph-name="edotaccent" unicode="&#x117;" horiz-adv-x="502" 
d="M220 596q0 18 11.5 29.5t29.5 11.5t29.5 -11.5t11.5 -29.5q0 -17 -11.5 -28.5t-29.5 -11.5t-29.5 11.5t-11.5 28.5zM399 132l51 -22q-57 -122 -186 -122q-101 0 -158.5 69.5t-57.5 178.5q0 106 56.5 175.5t156.5 69.5q98 0 150 -66.5t52 -160.5v-25h-355q4 -85 43 -139
t113 -54q52 0 82 23.5t53 72.5zM258 433q-60 0 -99.5 -43.5t-46.5 -112.5h289q-4 72 -42.5 114t-100.5 42z" />
    <glyph glyph-name="Eogonek" unicode="&#x118;" horiz-adv-x="546" 
d="M363 -108q0 -18 11 -29.5t31 -11.5q29 0 54 34l22 -23q-34 -52 -90 -52q-29 0 -54 17t-25 58q0 66 84 115h-299v700h388v-51h-326v-262h306v-51h-306v-285h334v-51h-35q-95 -56 -95 -108z" />
    <glyph glyph-name="eogonek" unicode="&#x119;" horiz-adv-x="502" 
d="M262 -108q0 -18 11 -29.5t31 -11.5q29 0 54 34l22 -23q-34 -52 -90 -52q-29 0 -54 17t-25 58q0 59 60 103h-7q-101 0 -158.5 69.5t-57.5 178.5q0 106 56.5 175.5t156.5 69.5q98 0 150 -66.5t52 -160.5v-25h-355q4 -85 43 -139t113 -54q52 0 82 23.5t53 72.5l51 -22
q-33 -71 -90 -104q-98 -56 -98 -114zM258 433q-60 0 -99.5 -43.5t-46.5 -112.5h289q-4 72 -42.5 114t-100.5 42z" />
    <glyph glyph-name="Ecaron" unicode="&#x11a;" horiz-adv-x="546" 
d="M425 869l-112 -116h-38l-111 116l32 29l99 -96l98 96zM493 0h-396v700h388v-51h-326v-262h306v-51h-306v-285h334v-51z" />
    <glyph glyph-name="ecaron" unicode="&#x11b;" horiz-adv-x="502" 
d="M391 664l-109 -130h-42l-109 130l32 27l99 -108l98 108zM399 132l51 -22q-57 -122 -186 -122q-101 0 -158.5 69.5t-57.5 178.5q0 106 56.5 175.5t156.5 69.5q98 0 150 -66.5t52 -160.5v-25h-355q4 -85 43 -139t113 -54q52 0 82 23.5t53 72.5zM258 433q-60 0 -99.5 -43.5
t-46.5 -112.5h289q-4 72 -42.5 114t-100.5 42z" />
    <glyph glyph-name="Gcircumflex" unicode="&#x11c;" horiz-adv-x="701" 
d="M384 891l111 -116l-31 -29l-98 96l-99 -96l-32 29l111 116h38zM358 -12q-140 0 -220.5 100t-80.5 262q0 163 81.5 262.5t224.5 99.5q187 0 257 -176l-56 -22q-60 146 -205 146q-112 0 -175 -84.5t-63 -225.5t63.5 -225.5t176.5 -84.5q88 0 142 47.5t54 130.5v68h-211v49
h271v-335h-56v81q-21 -35 -74 -64t-129 -29z" />
    <glyph glyph-name="gcircumflex" unicode="&#x11d;" horiz-adv-x="506" 
d="M120 555l109 130h42l109 -130l-32 -27l-99 108l-98 -108zM39 -85q0 80 74 113q-53 23 -53 73q0 30 18.5 51t50.5 29q-66 43 -66 129q0 79 54.5 125t131.5 46q64 0 114 -33q34 43 85 43q27 0 46 -8l-12 -48q-14 11 -38 11q-33 0 -50 -24q41 -46 41 -110q0 -76 -54.5 -121
t-131.5 -45q-26 0 -50.5 6t-28.5 6q-20 0 -37 -12.5t-17 -30.5q0 -17 10 -27q13 -13 41.5 -19t108.5 -12q102 -8 149.5 -31.5t47.5 -84.5q0 -74 -63.5 -113t-165.5 -39q-93 0 -149 31t-56 95zM123 312q0 -56 36 -89.5t90 -33.5t90 33.5t36 89.5q0 58 -36 92t-90 34t-90 -34
t-36 -92zM254 5q-63 4 -93 9q-28 -12 -46 -36t-18 -55q0 -46 40.5 -68.5t108.5 -22.5q75 0 122.5 27.5t47.5 74.5q0 37 -33.5 51.5t-128.5 19.5z" />
    <glyph glyph-name="Gbreve" unicode="&#x11e;" horiz-adv-x="701" 
d="M222 866l49 17q5 -34 31 -57t62 -23t62 23t31 57l49 -17q-11 -48 -49 -76.5t-93 -28.5t-93 28.5t-49 76.5zM358 -12q-140 0 -220.5 100t-80.5 262q0 163 81.5 262.5t224.5 99.5q187 0 257 -176l-56 -22q-60 146 -205 146q-112 0 -175 -84.5t-63 -225.5t63.5 -225.5
t176.5 -84.5q88 0 142 47.5t54 130.5v68h-211v49h271v-335h-56v81q-21 -35 -74 -64t-129 -29z" />
    <glyph glyph-name="gbreve" unicode="&#x11f;" horiz-adv-x="506" 
d="M108 644l49 17q5 -34 31 -57t62 -23t62 23t31 57l49 -17q-11 -48 -49 -76.5t-93 -28.5t-93 28.5t-49 76.5zM39 -85q0 80 74 113q-53 23 -53 73q0 30 18.5 51t50.5 29q-66 43 -66 129q0 79 54.5 125t131.5 46q64 0 114 -33q34 43 85 43q27 0 46 -8l-12 -48q-14 11 -38 11
q-33 0 -50 -24q41 -46 41 -110q0 -76 -54.5 -121t-131.5 -45q-26 0 -50.5 6t-28.5 6q-20 0 -37 -12.5t-17 -30.5q0 -17 10 -27q13 -13 41.5 -19t108.5 -12q102 -8 149.5 -31.5t47.5 -84.5q0 -74 -63.5 -113t-165.5 -39q-93 0 -149 31t-56 95zM123 312q0 -56 36 -89.5
t90 -33.5t90 33.5t36 89.5q0 58 -36 92t-90 34t-90 -34t-36 -92zM254 5q-63 4 -93 9q-28 -12 -46 -36t-18 -55q0 -46 40.5 -68.5t108.5 -22.5q75 0 122.5 27.5t47.5 74.5q0 37 -33.5 51.5t-128.5 19.5z" />
    <glyph glyph-name="Gdotaccent" unicode="&#x120;" horiz-adv-x="701" 
d="M319 809q0 19 12.5 31.5t31.5 12.5t31.5 -12.5t12.5 -31.5q0 -17 -12.5 -30t-31.5 -13t-31.5 13t-12.5 30zM358 -12q-140 0 -220.5 100t-80.5 262q0 163 81.5 262.5t224.5 99.5q187 0 257 -176l-56 -22q-60 146 -205 146q-112 0 -175 -84.5t-63 -225.5t63.5 -225.5
t176.5 -84.5q88 0 142 47.5t54 130.5v68h-211v49h271v-335h-56v81q-21 -35 -74 -64t-129 -29z" />
    <glyph glyph-name="gdotaccent" unicode="&#x121;" horiz-adv-x="506" 
d="M209 596q0 18 11.5 29.5t29.5 11.5t29.5 -11.5t11.5 -29.5q0 -17 -11.5 -28.5t-29.5 -11.5t-29.5 11.5t-11.5 28.5zM39 -85q0 80 74 113q-53 23 -53 73q0 30 18.5 51t50.5 29q-66 43 -66 129q0 79 54.5 125t131.5 46q64 0 114 -33q34 43 85 43q27 0 46 -8l-12 -48
q-14 11 -38 11q-33 0 -50 -24q41 -46 41 -110q0 -76 -54.5 -121t-131.5 -45q-26 0 -50.5 6t-28.5 6q-20 0 -37 -12.5t-17 -30.5q0 -17 10 -27q13 -13 41.5 -19t108.5 -12q102 -8 149.5 -31.5t47.5 -84.5q0 -74 -63.5 -113t-165.5 -39q-93 0 -149 31t-56 95zM123 312
q0 -56 36 -89.5t90 -33.5t90 33.5t36 89.5q0 58 -36 92t-90 34t-90 -34t-36 -92zM254 5q-63 4 -93 9q-28 -12 -46 -36t-18 -55q0 -46 40.5 -68.5t108.5 -22.5q75 0 122.5 27.5t47.5 74.5q0 37 -33.5 51.5t-128.5 19.5z" />
    <glyph glyph-name="Gcommaaccent" unicode="&#x122;" horiz-adv-x="701" 
d="M358 -12q-140 0 -220.5 100t-80.5 262q0 163 81.5 262.5t224.5 99.5q187 0 257 -176l-56 -22q-60 146 -205 146q-112 0 -175 -84.5t-63 -225.5t63.5 -225.5t176.5 -84.5q88 0 142 47.5t54 130.5v68h-211v49h271v-335h-56v81q-21 -35 -74 -64t-129 -29zM408 -109
q0 -29 -15 -55t-49 -33l-11 27q15 1 25.5 12.5t10.5 26.5v4q-2 -1 -8 -1q-14 0 -24 10.5t-10 27.5q0 14 10.5 25.5t27.5 11.5q21 0 32 -15.5t11 -40.5z" />
    <glyph glyph-name="gcommaaccent" unicode="&#x123;" horiz-adv-x="506" 
d="M212 596q0 29 15 55t49 33l11 -27q-15 -1 -25.5 -12.5t-10.5 -26.5v-4q2 1 8 1q14 0 24 -10.5t10 -27.5q0 -14 -10.5 -25.5t-27.5 -11.5q-21 0 -32 15.5t-11 40.5zM39 -85q0 80 74 113q-53 23 -53 73q0 30 18.5 51t50.5 29q-66 43 -66 129q0 79 54.5 125t131.5 46
q64 0 114 -33q34 43 85 43q27 0 46 -8l-12 -48q-14 11 -38 11q-33 0 -50 -24q41 -46 41 -110q0 -76 -54.5 -121t-131.5 -45q-26 0 -50.5 6t-28.5 6q-20 0 -37 -12.5t-17 -30.5q0 -17 10 -27q13 -13 41.5 -19t108.5 -12q102 -8 149.5 -31.5t47.5 -84.5q0 -74 -63.5 -113
t-165.5 -39q-93 0 -149 31t-56 95zM123 312q0 -56 36 -89.5t90 -33.5t90 33.5t36 89.5q0 58 -36 92t-90 34t-90 -34t-36 -92zM254 5q-63 4 -93 9q-28 -12 -46 -36t-18 -55q0 -46 40.5 -68.5t108.5 -22.5q75 0 122.5 27.5t47.5 74.5q0 37 -33.5 51.5t-128.5 19.5z" />
    <glyph glyph-name="Hcircumflex" unicode="&#x124;" horiz-adv-x="688" 
d="M363 891l111 -116l-31 -29l-98 96l-99 -96l-32 29l111 116h38zM97 0v700h62v-312h370v312h62v-700h-62v337h-370v-337h-62z" />
    <glyph glyph-name="hcircumflex" unicode="&#x125;" horiz-adv-x="543" 
d="M137 891l111 -116l-31 -29l-98 96l-99 -96l-32 29l111 116h38zM86 0v700h60v-300q20 35 61.5 58t95.5 23q71 0 115 -41.5t44 -118.5v-321h-60v309q0 59 -31 90t-80 31q-60 0 -102.5 -43.5t-42.5 -110.5v-276h-60z" />
    <glyph glyph-name="Hbar" unicode="&#x126;" horiz-adv-x="688" 
d="M12 556h85v144h62v-144h370v144h62v-144h85v-51h-85v-505h-62v337h-370v-337h-62v505h-85v51zM159 388h370v117h-370v-117z" />
    <glyph glyph-name="hbar" unicode="&#x127;" horiz-adv-x="543" 
d="M310 558h-164v-158q20 35 61.5 58t95.5 23q71 0 115 -41.5t44 -118.5v-321h-60v309q0 59 -31 90t-80 31q-60 0 -102.5 -43.5t-42.5 -110.5v-276h-60v558h-60v49h60v93h60v-93h164v-49z" />
    <glyph glyph-name="Itilde" unicode="&#x128;" horiz-adv-x="256" 
d="M61 860q35 0 75 -24.5t61 -24.5q19 0 34 11t21 22l6 11l33 -30q-3 -6 -10 -15.5t-32 -25t-56 -15.5q-36 0 -76 24t-59 24t-34.5 -10.5t-21.5 -21.5l-5 -11l-32 29q3 6 9.5 15.5t31 25.5t55.5 16zM97 0v700h62v-700h-62z" />
    <glyph glyph-name="itilde" unicode="&#x129;" horiz-adv-x="232" 
d="M50 649q35 0 75 -24.5t61 -24.5q19 0 34 11t21 22l6 11l33 -30q-3 -6 -10 -15.5t-32 -25t-56 -15.5q-36 0 -76 24t-59 24t-34.5 -11t-20.5 -21l-6 -11l-32 29q3 6 9.5 15.5t31 25.5t55.5 16zM86 0v469h60v-469h-60z" />
    <glyph glyph-name="Imacron" unicode="&#x12a;" horiz-adv-x="256" 
d="M5 778v45h247v-45h-247zM97 0v700h62v-700h-62z" />
    <glyph glyph-name="imacron" unicode="&#x12b;" horiz-adv-x="232" 
d="M-7 565v45h247v-45h-247zM86 0v469h60v-469h-60z" />
    <glyph glyph-name="Ibreve" unicode="&#x12c;" horiz-adv-x="256" 
d="M-14 866l49 17q5 -34 31 -57t62 -23t62 23t31 57l49 -17q-11 -48 -49 -76.5t-93 -28.5t-93 28.5t-49 76.5zM97 0v700h62v-700h-62z" />
    <glyph glyph-name="ibreve" unicode="&#x12d;" horiz-adv-x="232" 
d="M-26 644l49 17q5 -34 31 -57t62 -23t62 23t31 57l49 -17q-11 -48 -49 -76.5t-93 -28.5t-93 28.5t-49 76.5zM86 0v469h60v-469h-60z" />
    <glyph glyph-name="Iogonek" unicode="&#x12e;" horiz-adv-x="256" 
d="M64 -108q0 -18 11 -29.5t31 -11.5q29 0 54 34l22 -23q-34 -52 -90 -52q-29 0 -54 17t-25 58q0 66 84 115v700h62v-700q-95 -56 -95 -108z" />
    <glyph glyph-name="iogonek" unicode="&#x12f;" horiz-adv-x="232" 
d="M75 669q0 18 11.5 29.5t29.5 11.5t29.5 -11.5t11.5 -29.5q0 -17 -11.5 -28.5t-29.5 -11.5t-29.5 11.5t-11.5 28.5zM53 -108q0 -18 11 -29.5t31 -11.5q29 0 54 34l22 -23q-34 -52 -90 -52q-29 0 -54 17t-25 58q0 68 84 115v469h60v-469q-93 -56 -93 -108z" />
    <glyph glyph-name="Idotaccent" unicode="&#x130;" horiz-adv-x="256" 
d="M84 809q0 19 12.5 31.5t31.5 12.5t31.5 -12.5t12.5 -31.5q0 -17 -13 -30t-31 -13t-31 13t-13 30zM97 0v700h62v-700h-62z" />
    <glyph glyph-name="dotlessi" unicode="&#x131;" horiz-adv-x="232" 
d="M86 0v469h60v-469h-60z" />
    <glyph glyph-name="IJ" unicode="&#x132;" horiz-adv-x="653" 
d="M285 104q48 -65 106 -65q59 0 84 44.5t25 140.5v476h62v-473q0 -115 -35.5 -177t-133.5 -62q-91 0 -149 76zM97 0v700h62v-700h-62z" />
    <glyph glyph-name="ij" unicode="&#x133;" horiz-adv-x="466" 
d="M309 669q0 18 11.5 29.5t29.5 11.5t29.5 -11.5t11.5 -29.5q0 -17 -11.5 -28.5t-29.5 -11.5t-29.5 11.5t-11.5 28.5zM75 669q0 18 11.5 29.5t29.5 11.5t29.5 -11.5t11.5 -29.5q0 -17 -11.5 -28.5t-29.5 -11.5t-29.5 11.5t-11.5 28.5zM320 -69v538h60v-538
q0 -67 -33.5 -104.5t-97.5 -37.5q-57 0 -99 27l28 50q32 -25 70 -25q34 0 53 23.5t19 66.5zM86 0v469h60v-469h-60z" />
    <glyph glyph-name="Jcircumflex" unicode="&#x134;" horiz-adv-x="413" 
d="M310 891l111 -116l-31 -29l-98 96l-99 -96l-32 29l111 116h38zM45 104q48 -65 106 -65q59 0 84 44.5t25 140.5v476h62v-473q0 -115 -35.5 -177t-133.5 -62q-91 0 -149 76z" />
    <glyph glyph-name="jcircumflex" unicode="&#x135;" horiz-adv-x="232" 
d="M-14 555l109 130h42l109 -130l-32 -27l-99 108l-98 -108zM86 -69v538h60v-538q0 -67 -33.5 -104.5t-97.5 -37.5q-57 0 -99 27l28 50q32 -25 70 -25q34 0 53 23.5t19 66.5z" />
    <glyph glyph-name="Kcommaaccent" unicode="&#x136;" horiz-adv-x="605" 
d="M517 0l-268 374l-90 -90v-284h-62v700h62v-341l336 341h77l-280 -285l299 -415h-74zM358 -109q0 -29 -15 -55t-49 -33l-11 27q15 1 25.5 12.5t10.5 26.5v4q-2 -1 -8 -1q-14 0 -24 10.5t-10 27.5q0 14 10.5 25.5t27.5 11.5q21 0 32 -15.5t11 -40.5z" />
    <glyph glyph-name="kcommaaccent" unicode="&#x137;" horiz-adv-x="473" 
d="M396 0l-187 262l-63 -59v-203h-60v700h60v-427l213 196h75l-181 -170l215 -299h-72zM311 -109q0 -29 -15 -55t-49 -33l-11 27q15 1 25.5 12.5t10.5 26.5v4q-2 -1 -8 -1q-14 0 -24 10.5t-10 27.5q0 14 10.5 25.5t27.5 11.5q21 0 32 -15.5t11 -40.5z" />
    <glyph glyph-name="kgreenlandic" unicode="&#x138;" horiz-adv-x="473" 
d="M396 0l-187 262l-63 -59v-203h-60v469h60v-196l213 196h75l-181 -170l215 -299h-72z" />
    <glyph glyph-name="Lacute" unicode="&#x139;" horiz-adv-x="496" 
d="M238 900l34 -47l-158 -105l-23 32zM97 0v700h62v-649h314v-51h-376z" />
    <glyph glyph-name="lacute" unicode="&#x13a;" horiz-adv-x="232" 
d="M172 900l34 -47l-158 -105l-23 32zM86 0v700h60v-700h-60z" />
    <glyph glyph-name="Lcommaaccent" unicode="&#x13b;" horiz-adv-x="496" 
d="M97 0v700h62v-649h314v-51h-376zM327 -109q0 -29 -15 -55t-49 -33l-11 27q15 1 25.5 12.5t10.5 26.5v4q-2 -1 -8 -1q-14 0 -24 10.5t-10 27.5q0 14 10.5 25.5t27.5 11.5q21 0 32 -15.5t11 -40.5z" />
    <glyph glyph-name="lcommaaccent" unicode="&#x13c;" horiz-adv-x="232" 
d="M86 0v700h60v-700h-60zM160 -109q0 -29 -15 -55t-49 -33l-11 27q15 1 25.5 12.5t10.5 26.5v4q-2 -1 -8 -1q-14 0 -24 10.5t-10 27.5q0 14 10.5 25.5t27.5 11.5q21 0 32 -15.5t11 -40.5z" />
    <glyph glyph-name="Lcaron" unicode="&#x13d;" horiz-adv-x="496" 
d="M289 706l57 -15l-60 -158l-38 10zM97 0v700h62v-649h314v-51h-376z" />
    <glyph glyph-name="lcaron" unicode="&#x13e;" horiz-adv-x="232" 
d="M227 706l57 -15l-60 -158l-38 10zM86 0v700h60v-700h-60z" />
    <glyph glyph-name="Ldot" unicode="&#x13f;" horiz-adv-x="496" 
d="M97 0v700h62v-649h314v-51h-376zM304 343q0 18 11.5 29.5t29.5 11.5t29.5 -11.5t11.5 -29.5q0 -17 -11.5 -28.5t-29.5 -11.5t-29.5 11.5t-11.5 28.5z" />
    <glyph glyph-name="ldot" unicode="&#x140;" horiz-adv-x="306" 
d="M86 0v700h60v-700h-60zM212 351q0 18 11.5 29.5t29.5 11.5t29.5 -11.5t11.5 -29.5q0 -17 -11.5 -28.5t-29.5 -11.5t-29.5 11.5t-11.5 28.5z" />
    <glyph glyph-name="Lslash" unicode="&#x141;" horiz-adv-x="521" 
d="M34 271l88 57v372h62v-331l153 100l28 -40l-181 -118v-260h314v-51h-376v270l-61 -39z" />
    <glyph glyph-name="lslash" unicode="&#x142;" horiz-adv-x="252" 
d="M261 426l-105 -70v-356h-60v316l-69 -46l-28 42l97 64v324h60v-284l77 52z" />
    <glyph glyph-name="Nacute" unicode="&#x143;" horiz-adv-x="719" 
d="M450 900l34 -47l-158 -105l-23 32zM97 0v700h69q318 -489 395 -609h2v609h59v-700h-69q-308 474 -395 609h-2v-609h-59z" />
    <glyph glyph-name="nacute" unicode="&#x144;" horiz-adv-x="543" 
d="M353 684l34 -47l-158 -105l-23 32zM86 0v469h55v-78q19 38 62 64t100 26q71 0 115 -41.5t44 -118.5v-321h-60v309q0 59 -31 90t-80 31q-60 0 -102.5 -43.5t-42.5 -110.5v-276h-60z" />
    <glyph glyph-name="Ncommaaccent" unicode="&#x145;" horiz-adv-x="719" 
d="M97 0v700h69q318 -489 395 -609h2v609h59v-700h-69q-308 474 -395 609h-2v-609h-59zM409 -109q0 -29 -15 -55t-49 -33l-11 27q15 1 25.5 12.5t10.5 26.5v4q-2 -1 -8 -1q-14 0 -24 10.5t-10 27.5q0 14 10.5 25.5t27.5 11.5q21 0 32 -15.5t11 -40.5z" />
    <glyph glyph-name="ncommaaccent" unicode="&#x146;" horiz-adv-x="543" 
d="M86 0v469h55v-78q19 38 62 64t100 26q71 0 115 -41.5t44 -118.5v-321h-60v309q0 59 -31 90t-80 31q-60 0 -102.5 -43.5t-42.5 -110.5v-276h-60zM321 -109q0 -29 -15 -55t-49 -33l-11 27q15 1 25.5 12.5t10.5 26.5v4q-2 -1 -8 -1q-14 0 -24 10.5t-10 27.5q0 14 10.5 25.5
t27.5 11.5q21 0 32 -15.5t11 -40.5z" />
    <glyph glyph-name="Ncaron" unicode="&#x147;" horiz-adv-x="719" 
d="M492 869l-112 -116h-38l-111 116l32 29l99 -96l98 96zM97 0v700h69q318 -489 395 -609h2v609h59v-700h-69q-308 474 -395 609h-2v-609h-59z" />
    <glyph glyph-name="ncaron" unicode="&#x148;" horiz-adv-x="543" 
d="M417 664l-109 -130h-42l-109 130l32 27l99 -108l98 108zM86 0v469h55v-78q19 38 62 64t100 26q71 0 115 -41.5t44 -118.5v-321h-60v309q0 59 -31 90t-80 31q-60 0 -102.5 -43.5t-42.5 -110.5v-276h-60z" />
    <glyph glyph-name="Eng" unicode="&#x14a;" horiz-adv-x="719" 
d="M97 0v700h69q318 -485 395 -605h2v605h59v-733q0 -85 -41.5 -131.5t-111.5 -46.5q-81 0 -132 61l40 41q43 -52 92 -52q41 0 67.5 34.5t26.5 94.5v24q-318 482 -405 617h-2v-609h-59z" />
    <glyph glyph-name="eng" unicode="&#x14b;" horiz-adv-x="543" 
d="M86 0v469h55v-77q51 89 160 89q73 0 117 -41.5t44 -118.5v-390q0 -67 -33.5 -104.5t-97.5 -37.5q-57 0 -99 27l28 50q32 -25 70 -25q34 0 53 23.5t19 66.5v378q0 59 -31 90t-85 31q-56 0 -98 -45.5t-42 -124.5v-260h-60z" />
    <glyph glyph-name="Omacron" unicode="&#x14c;" horiz-adv-x="713" 
d="M233 778v45h247v-45h-247zM55 350q0 166 83 264t218 98q134 0 217.5 -98.5t83.5 -263.5t-83.5 -263.5t-217.5 -98.5q-135 0 -218 98t-83 264zM119 350q0 -135 62 -222.5t175 -87.5t175 87.5t62 222.5t-62 222.5t-175 87.5t-175 -87.5t-62 -222.5z" />
    <glyph glyph-name="omacron" unicode="&#x14d;" horiz-adv-x="530" 
d="M142 565v45h247v-45h-247zM265 481q103 0 160 -69.5t57 -177.5t-57 -177t-160 -69t-160 69t-57 177t57 177.5t160 69.5zM265 432q-75 0 -115 -56t-40 -142q0 -85 40 -141t115 -56t115 56t40 141q0 86 -40 142t-115 56z" />
    <glyph glyph-name="Obreve" unicode="&#x14e;" horiz-adv-x="713" 
d="M214 866l49 17q5 -34 31 -57t62 -23t62 23t31 57l49 -17q-11 -48 -49 -76.5t-93 -28.5t-93 28.5t-49 76.5zM55 350q0 166 83 264t218 98q134 0 217.5 -98.5t83.5 -263.5t-83.5 -263.5t-217.5 -98.5q-135 0 -218 98t-83 264zM119 350q0 -135 62 -222.5t175 -87.5t175 87.5
t62 222.5t-62 222.5t-175 87.5t-175 -87.5t-62 -222.5z" />
    <glyph glyph-name="obreve" unicode="&#x14f;" horiz-adv-x="530" 
d="M123 644l49 17q5 -34 31 -57t62 -23t62 23t31 57l49 -17q-11 -48 -49 -76.5t-93 -28.5t-93 28.5t-49 76.5zM265 481q103 0 160 -69.5t57 -177.5t-57 -177t-160 -69t-160 69t-57 177t57 177.5t160 69.5zM265 432q-75 0 -115 -56t-40 -142q0 -85 40 -141t115 -56t115 56
t40 141q0 86 -40 142t-115 56z" />
    <glyph glyph-name="Ohungarumlaut" unicode="&#x150;" horiz-adv-x="713" 
d="M530 894l34 -47l-148 -99l-23 32zM360 894l34 -47l-148 -99l-23 32zM55 350q0 166 83 264t218 98q134 0 217.5 -98.5t83.5 -263.5t-83.5 -263.5t-217.5 -98.5q-135 0 -218 98t-83 264zM119 350q0 -135 62 -222.5t175 -87.5t175 87.5t62 222.5t-62 222.5t-175 87.5
t-175 -87.5t-62 -222.5z" />
    <glyph glyph-name="ohungarumlaut" unicode="&#x151;" horiz-adv-x="530" 
d="M452 678l34 -47l-148 -99l-23 32zM282 678l34 -47l-148 -99l-23 32zM265 481q103 0 160 -69.5t57 -177.5t-57 -177t-160 -69t-160 69t-57 177t57 177.5t160 69.5zM265 432q-75 0 -115 -56t-40 -142q0 -85 40 -141t115 -56t115 56t40 141q0 86 -40 142t-115 56z" />
    <glyph glyph-name="OE" unicode="&#x152;" horiz-adv-x="1031" 
d="M978 0h-396v108q-69 -120 -228 -120q-133 0 -215 98t-82 264t82 264t215 98q158 0 228 -121v109h388v-51h-326v-262h306v-51h-306v-285h334v-51zM583 378q0 124 -63 203t-166 79q-111 0 -172 -87.5t-61 -222.5t61 -222.5t172 -87.5q103 0 166 79t63 203v56z" />
    <glyph glyph-name="oe" unicode="&#x153;" horiz-adv-x="868" 
d="M265 481q129 0 182 -114q55 114 181 114q97 0 149 -67t52 -162v-25h-353q4 -84 43 -137.5t112 -53.5q51 0 81 23t53 71l51 -22q-57 -120 -185 -120t-183 114q-55 -114 -183 -114q-103 0 -160 69t-57 177t57 177.5t160 69.5zM625 433q-60 0 -99 -44.5t-46 -113.5h287
q-4 72 -42.5 115t-99.5 43zM265 432q-75 0 -115 -56t-40 -142q0 -85 40 -141t115 -56t115 56t40 141q0 86 -40 142t-115 56z" />
    <glyph glyph-name="Racute" unicode="&#x154;" horiz-adv-x="625" 
d="M374 900l34 -47l-158 -105l-23 32zM555 515q0 -80 -46 -129.5t-125 -63.5l198 -322h-73l-193 318h-157v-318h-62v700h230q44 0 82.5 -9.5t72.5 -29.5t53.5 -57.5t19.5 -88.5zM492 514q0 135 -183 135h-150v-280h165q86 0 127 40.5t41 104.5z" />
    <glyph glyph-name="racute" unicode="&#x155;" horiz-adv-x="349" 
d="M304 684l34 -47l-158 -105l-23 32zM344 469l-17 -56q-21 17 -56 17q-50 0 -87.5 -46t-37.5 -117v-267h-60v469h55v-79q16 39 54.5 65t87.5 26q40 0 61 -12z" />
    <glyph glyph-name="Rcommaaccent" unicode="&#x156;" horiz-adv-x="625" 
d="M555 515q0 -80 -46 -129.5t-125 -63.5l198 -322h-73l-193 318h-157v-318h-62v700h230q44 0 82.5 -9.5t72.5 -29.5t53.5 -57.5t19.5 -88.5zM492 514q0 135 -183 135h-150v-280h165q86 0 127 40.5t41 104.5zM361 -109q0 -29 -15 -55t-49 -33l-11 27q15 1 25.5 12.5
t10.5 26.5v4q-2 -1 -8 -1q-14 0 -24 10.5t-10 27.5q0 14 10.5 25.5t27.5 11.5q21 0 32 -15.5t11 -40.5z" />
    <glyph glyph-name="rcommaaccent" unicode="&#x157;" horiz-adv-x="349" 
d="M344 469l-17 -56q-21 17 -56 17q-50 0 -87.5 -46t-37.5 -117v-267h-60v469h55v-79q16 39 54.5 65t87.5 26q40 0 61 -12zM162 -109q0 -29 -15 -55t-49 -33l-11 27q15 1 25.5 12.5t10.5 26.5v4q-2 -1 -8 -1q-14 0 -24 10.5t-10 27.5q0 14 10.5 25.5t27.5 11.5
q21 0 32 -15.5t11 -40.5z" />
    <glyph glyph-name="Rcaron" unicode="&#x158;" horiz-adv-x="625" 
d="M444 869l-112 -116h-38l-111 116l32 29l99 -96l98 96zM555 515q0 -80 -46 -129.5t-125 -63.5l198 -322h-73l-193 318h-157v-318h-62v700h230q44 0 82.5 -9.5t72.5 -29.5t53.5 -57.5t19.5 -88.5zM492 514q0 135 -183 135h-150v-280h165q86 0 127 40.5t41 104.5z" />
    <glyph glyph-name="rcaron" unicode="&#x159;" horiz-adv-x="349" 
d="M341 664l-109 -130h-42l-109 130l32 27l99 -108l98 108zM344 469l-17 -56q-21 17 -56 17q-50 0 -87.5 -46t-37.5 -117v-267h-60v469h55v-79q16 39 54.5 65t87.5 26q40 0 61 -12z" />
    <glyph glyph-name="Sacute" unicode="&#x15a;" horiz-adv-x="607" 
d="M362 900l34 -47l-158 -105l-23 32zM306 333q-122 21 -177 64t-55 129q0 83 61.5 134.5t166.5 51.5q102 0 163.5 -49t72.5 -130l-59 -15q-22 143 -178 143q-79 0 -121 -36t-42 -94q0 -61 43 -94.5t139 -48.5q120 -19 177 -65.5t57 -131.5q0 -87 -67.5 -145t-177.5 -58
q-120 0 -184 56.5t-70 147.5l60 10q5 -71 53 -117t142 -46q80 0 130 42t50 106q0 61 -42 95t-142 51z" />
    <glyph glyph-name="sacute" unicode="&#x15b;" horiz-adv-x="454" 
d="M285 684l34 -47l-158 -105l-23 32zM410 130q0 -64 -49 -103t-134 -39q-81 0 -130.5 37.5t-56.5 110.5l58 7q3 -49 35.5 -78.5t94.5 -29.5q58 0 90 24.5t32 65.5t-28.5 60t-97.5 28q-85 11 -127.5 41.5t-42.5 91.5q0 63 49 99t118 36q74 0 122.5 -34.5t56.5 -94.5l-59 -13
q-14 95 -122 95q-45 0 -75 -22.5t-30 -61.5q1 -39 28.5 -57.5t98.5 -28.5q84 -11 126.5 -41.5t42.5 -92.5z" />
    <glyph glyph-name="Scircumflex" unicode="&#x15c;" horiz-adv-x="607" 
d="M315 891l111 -116l-31 -29l-98 96l-99 -96l-32 29l111 116h38zM306 333q-122 21 -177 64t-55 129q0 83 61.5 134.5t166.5 51.5q102 0 163.5 -49t72.5 -130l-59 -15q-22 143 -178 143q-79 0 -121 -36t-42 -94q0 -61 43 -94.5t139 -48.5q120 -19 177 -65.5t57 -131.5
q0 -87 -67.5 -145t-177.5 -58q-120 0 -184 56.5t-70 147.5l60 10q5 -71 53 -117t142 -46q80 0 130 42t50 106q0 61 -42 95t-142 51z" />
    <glyph glyph-name="scircumflex" unicode="&#x15d;" horiz-adv-x="454" 
d="M96 555l109 130h42l109 -130l-32 -27l-99 108l-98 -108zM410 130q0 -64 -49 -103t-134 -39q-81 0 -130.5 37.5t-56.5 110.5l58 7q3 -49 35.5 -78.5t94.5 -29.5q58 0 90 24.5t32 65.5t-28.5 60t-97.5 28q-85 11 -127.5 41.5t-42.5 91.5q0 63 49 99t118 36
q74 0 122.5 -34.5t56.5 -94.5l-59 -13q-14 95 -122 95q-45 0 -75 -22.5t-30 -61.5q1 -39 28.5 -57.5t98.5 -28.5q84 -11 126.5 -41.5t42.5 -92.5z" />
    <glyph glyph-name="Scedilla" unicode="&#x15e;" horiz-adv-x="607" 
d="M223 -192l24 34q24 -19 50 -19q18 0 30.5 12.5t12.5 32.5t-11.5 31.5t-30.5 11.5q-20 0 -37 -13l-25 24l27 69q-98 10 -150 64.5t-58 136.5l60 10q5 -71 53 -117t142 -46q80 0 130 42t50 106q0 61 -42 95t-142 51q-122 21 -177 64t-55 129q0 83 61.5 134.5t166.5 51.5
q102 0 163.5 -49t72.5 -130l-59 -15q-22 143 -178 143q-79 0 -121 -36t-42 -94q0 -61 43 -94.5t139 -48.5q120 -19 177 -65.5t57 -131.5q0 -87 -67.5 -145t-177.5 -58h-10l-18 -48q13 9 31 9q30 0 53 -19.5t23 -59.5t-25 -63.5t-66 -23.5q-47 0 -74 25z" />
    <glyph glyph-name="scedilla" unicode="&#x15f;" horiz-adv-x="454" 
d="M143 -192l24 34q24 -19 50 -19q18 0 30.5 12.5t12.5 32.5t-11.5 31.5t-30.5 11.5q-20 0 -37 -13l-25 24l27 70q-62 8 -100 45t-43 99l58 7q3 -49 35.5 -78.5t94.5 -29.5q58 0 90 24.5t32 65.5t-28.5 60t-97.5 28q-85 11 -127.5 41.5t-42.5 91.5q0 63 49 99t118 36
q74 0 122.5 -34.5t56.5 -94.5l-59 -13q-14 95 -122 95q-45 0 -75 -22.5t-30 -61.5q1 -39 28.5 -57.5t98.5 -28.5q84 -11 126.5 -41.5t42.5 -92.5q0 -64 -49 -103t-134 -39h-8l-18 -48q13 9 31 9q30 0 53 -19.5t23 -59.5t-25 -63.5t-66 -23.5q-47 0 -74 25z" />
    <glyph glyph-name="Scaron" unicode="&#x160;" horiz-adv-x="607" 
d="M426 869l-112 -116h-38l-111 116l32 29l99 -96l98 96zM306 333q-122 21 -177 64t-55 129q0 83 61.5 134.5t166.5 51.5q102 0 163.5 -49t72.5 -130l-59 -15q-22 143 -178 143q-79 0 -121 -36t-42 -94q0 -61 43 -94.5t139 -48.5q120 -19 177 -65.5t57 -131.5
q0 -87 -67.5 -145t-177.5 -58q-120 0 -184 56.5t-70 147.5l60 10q5 -71 53 -117t142 -46q80 0 130 42t50 106q0 61 -42 95t-142 51z" />
    <glyph glyph-name="scaron" unicode="&#x161;" horiz-adv-x="454" 
d="M352 664l-109 -130h-42l-109 130l32 27l99 -108l98 108zM410 130q0 -64 -49 -103t-134 -39q-81 0 -130.5 37.5t-56.5 110.5l58 7q3 -49 35.5 -78.5t94.5 -29.5q58 0 90 24.5t32 65.5t-28.5 60t-97.5 28q-85 11 -127.5 41.5t-42.5 91.5q0 63 49 99t118 36
q74 0 122.5 -34.5t56.5 -94.5l-59 -13q-14 95 -122 95q-45 0 -75 -22.5t-30 -61.5q1 -39 28.5 -57.5t98.5 -28.5q84 -11 126.5 -41.5t42.5 -92.5z" />
    <glyph glyph-name="Tcommaaccent" unicode="&#x162;" horiz-adv-x="532" 
d="M25 649v51h482v-51h-210v-649h-62v649h-210zM310 -109q0 -29 -15 -55t-49 -33l-11 27q15 1 25.5 12.5t10.5 26.5v4q-2 -1 -8 -1q-14 0 -24 10.5t-10 27.5q0 14 10.5 25.5t27.5 11.5q21 0 32 -15.5t11 -40.5z" />
    <glyph glyph-name="tcommaaccent" unicode="&#x163;" horiz-adv-x="311" 
d="M261 57l23 -48q-26 -21 -79 -21q-50 0 -76 28t-26 79v327h-81v47h81v136l60 28v-164h111v-47h-111v-319q0 -64 50 -64q29 0 48 18zM211 -109q0 -29 -15 -55t-49 -33l-11 27q15 1 25.5 12.5t10.5 26.5v4q-2 -1 -8 -1q-14 0 -24 10.5t-10 27.5q0 14 10.5 25.5t27.5 11.5
q21 0 32 -15.5t11 -40.5z" />
    <glyph glyph-name="Tcaron" unicode="&#x164;" horiz-adv-x="532" 
d="M397 869l-112 -116h-38l-111 116l32 29l99 -96l98 96zM25 649v51h482v-51h-210v-649h-62v649h-210z" />
    <glyph glyph-name="tcaron" unicode="&#x165;" horiz-adv-x="311" 
d="M249 706l57 -15l-60 -158l-38 10zM261 57l23 -48q-26 -21 -79 -21q-50 0 -76 28t-26 79v327h-81v47h81v136l60 28v-164h111v-47h-111v-319q0 -64 50 -64q29 0 48 18z" />
    <glyph glyph-name="Tbar" unicode="&#x166;" horiz-adv-x="532" 
d="M440 379h-143v-379h-62v379h-143v51h143v219h-210v51h482v-51h-210v-219h143v-51z" />
    <glyph glyph-name="tbar" unicode="&#x167;" horiz-adv-x="311" 
d="M271 264h-108v-161q0 -64 50 -64q29 0 48 18l23 -48q-26 -21 -79 -21q-50 0 -76 28t-26 79v169h-81v47h81v111h-81v47h81v136l60 28v-164h111v-47h-111v-111h108v-47z" />
    <glyph glyph-name="Utilde" unicode="&#x168;" horiz-adv-x="674" 
d="M270 860q35 0 75 -24.5t61 -24.5q19 0 34 11t21 22l6 11l33 -30q-3 -6 -10 -15.5t-32 -25t-56 -15.5q-36 0 -76 24t-59 24t-34.5 -10.5t-20.5 -21.5l-6 -11l-32 29q3 6 9.5 15.5t31 25.5t55.5 16zM154 700v-466q0 -83 43 -138.5t140 -55.5t140 55.5t43 138.5v466h62v-457
q0 -255 -245 -255t-245 255v457h62z" />
    <glyph glyph-name="utilde" unicode="&#x169;" horiz-adv-x="539" 
d="M204 649q35 0 75 -24.5t61 -24.5q19 0 34 11t21 22l6 11l33 -30q-3 -6 -10 -15.5t-32 -25t-56 -15.5q-36 0 -76 24t-59 24t-34.5 -11t-20.5 -21l-6 -11l-32 29q3 6 9.5 15.5t31 25.5t55.5 16zM453 469v-469h-55v78q-18 -38 -60.5 -64t-99.5 -26q-70 0 -113.5 41.5
t-43.5 118.5v321h60v-309q0 -59 30 -90t79 -31q59 0 101 42.5t42 109.5v278h60z" />
    <glyph glyph-name="Umacron" unicode="&#x16a;" horiz-adv-x="674" 
d="M214 778v45h247v-45h-247zM154 700v-466q0 -83 43 -138.5t140 -55.5t140 55.5t43 138.5v466h62v-457q0 -255 -245 -255t-245 255v457h62z" />
    <glyph glyph-name="umacron" unicode="&#x16b;" horiz-adv-x="539" 
d="M144 565v45h247v-45h-247zM453 469v-469h-55v78q-18 -38 -60.5 -64t-99.5 -26q-70 0 -113.5 41.5t-43.5 118.5v321h60v-309q0 -59 30 -90t79 -31q59 0 101 42.5t42 109.5v278h60z" />
    <glyph glyph-name="Ubreve" unicode="&#x16c;" horiz-adv-x="674" 
d="M195 866l49 17q5 -34 31 -57t62 -23t62 23t31 57l49 -17q-11 -48 -49 -76.5t-93 -28.5t-93 28.5t-49 76.5zM154 700v-466q0 -83 43 -138.5t140 -55.5t140 55.5t43 138.5v466h62v-457q0 -255 -245 -255t-245 255v457h62z" />
    <glyph glyph-name="ubreve" unicode="&#x16d;" horiz-adv-x="539" 
d="M126 644l49 17q5 -34 31 -57t62 -23t62 23t31 57l49 -17q-11 -48 -49 -76.5t-93 -28.5t-93 28.5t-49 76.5zM453 469v-469h-55v78q-18 -38 -60.5 -64t-99.5 -26q-70 0 -113.5 41.5t-43.5 118.5v321h60v-309q0 -59 30 -90t79 -31q59 0 101 42.5t42 109.5v278h60z" />
    <glyph glyph-name="Uring" unicode="&#x16e;" horiz-adv-x="674" 
d="M248 825q0 38 25 62t64 24t64 -24t25 -62t-25 -62.5t-64 -24.5t-64 24.5t-25 62.5zM289 825q0 -22 13.5 -37t34.5 -15t34.5 15t13.5 37t-13.5 36.5t-34.5 14.5t-34.5 -14.5t-13.5 -36.5zM154 700v-466q0 -83 43 -138.5t140 -55.5t140 55.5t43 138.5v466h62v-457
q0 -255 -245 -255t-245 255v457h62z" />
    <glyph glyph-name="uring" unicode="&#x16f;" horiz-adv-x="539" 
d="M178 611q0 38 25 62t64 24t64 -24t25 -62t-25 -62.5t-64 -24.5t-64 24.5t-25 62.5zM219 611q0 -22 13.5 -37t34.5 -15t34.5 15t13.5 37t-13.5 36.5t-34.5 14.5t-34.5 -14.5t-13.5 -36.5zM453 469v-469h-55v78q-18 -38 -60.5 -64t-99.5 -26q-70 0 -113.5 41.5t-43.5 118.5
v321h60v-309q0 -59 30 -90t79 -31q59 0 101 42.5t42 109.5v278h60z" />
    <glyph glyph-name="Uhungarumlaut" unicode="&#x170;" horiz-adv-x="674" 
d="M526 894l34 -47l-148 -99l-23 32zM356 894l34 -47l-148 -99l-23 32zM154 700v-466q0 -83 43 -138.5t140 -55.5t140 55.5t43 138.5v466h62v-457q0 -255 -245 -255t-245 255v457h62z" />
    <glyph glyph-name="uhungarumlaut" unicode="&#x171;" horiz-adv-x="539" 
d="M439 678l34 -47l-148 -99l-23 32zM269 678l34 -47l-148 -99l-23 32zM453 469v-469h-55v78q-18 -38 -60.5 -64t-99.5 -26q-70 0 -113.5 41.5t-43.5 118.5v321h60v-309q0 -59 30 -90t79 -31q59 0 101 42.5t42 109.5v278h60z" />
    <glyph glyph-name="Uogonek" unicode="&#x172;" horiz-adv-x="674" 
d="M154 700v-466q0 -83 43 -138.5t140 -55.5t140 55.5t43 138.5v466h62v-457q0 -179 -125 -236q-46 -21 -72.5 -53t-26.5 -62q0 -18 11 -29.5t31 -11.5q29 0 54 34l22 -23q-34 -52 -90 -52q-29 0 -54 17t-25 58q0 60 64 105q-22 -2 -34 -2q-245 0 -245 255v457h62z" />
    <glyph glyph-name="uogonek" unicode="&#x173;" horiz-adv-x="539" 
d="M361 -108q0 -18 11 -29.5t31 -11.5q29 0 54 34l22 -23q-34 -52 -90 -52q-29 0 -54 17t-25 58q0 70 88 115v78q-18 -38 -60.5 -64t-99.5 -26q-70 0 -113.5 41.5t-43.5 118.5v321h60v-309q0 -59 30 -90t79 -31q59 0 101 42.5t42 109.5v278h60v-469q-92 -55 -92 -108z" />
    <glyph glyph-name="Wcircumflex" unicode="&#x174;" horiz-adv-x="892" 
d="M466 891l111 -116l-31 -29l-98 96l-99 -96l-32 29l111 116h38zM816 700h57l-197 -700h-57q-136 462 -172 609h-2l-171 -609h-57l-198 700h61q131 -468 166 -617h2q16 66 59.5 220.5t78.5 275.5l35 121h54q139 -486 171 -617h2q14 58 56 212.5t77 279.5z" />
    <glyph glyph-name="wcircumflex" unicode="&#x175;" horiz-adv-x="710" 
d="M228 555l109 130h42l109 -130l-32 -27l-99 108l-98 -108zM332 469h50q113 -344 128 -404h2q8 35 38.5 136t57.5 185l26 83h57l-152 -469h-60q-103 315 -124 393l-124 -393h-60l-152 469h61q106 -334 122 -404h2q10 33 41.5 132.5t58.5 185.5z" />
    <glyph glyph-name="Ycircumflex" unicode="&#x176;" horiz-adv-x="586" 
d="M314 891l111 -116l-31 -29l-98 96l-99 -96l-32 29l111 116h38zM262 0v312l-250 388h69l213 -335l214 335h66l-250 -388v-312h-62z" />
    <glyph glyph-name="ycircumflex" unicode="&#x177;" horiz-adv-x="463" 
d="M104 555l109 130h42l109 -130l-32 -27l-99 108l-98 -108zM186 -200h-64l81 206l-184 463h65q136 -345 151 -393h2l147 393h60z" />
    <glyph glyph-name="Ydieresis" unicode="&#x178;" horiz-adv-x="586" 
d="M342 811q0 19 12.5 31.5t31.5 12.5t31.5 -12.5t12.5 -31.5q0 -18 -12.5 -30.5t-31.5 -12.5t-31.5 12.5t-12.5 30.5zM158 811q0 19 12.5 31.5t31.5 12.5t31.5 -12.5t12.5 -31.5q0 -18 -12.5 -30.5t-31.5 -12.5t-31.5 12.5t-12.5 30.5zM262 0v312l-250 388h69l213 -335
l214 335h66l-250 -388v-312h-62z" />
    <glyph glyph-name="Zacute" unicode="&#x179;" horiz-adv-x="597" 
d="M387 900l34 -47l-158 -105l-23 32zM59 649v51h489v-41l-422 -608h421v-51h-498v41l424 608h-414z" />
    <glyph glyph-name="zacute" unicode="&#x17a;" horiz-adv-x="434" 
d="M297 684l34 -47l-158 -105l-23 32zM50 418v51h341v-37l-276 -382h276v-50h-348v40l273 378h-266z" />
    <glyph glyph-name="Zdotaccent" unicode="&#x17b;" horiz-adv-x="597" 
d="M263 809q0 19 12.5 31.5t31.5 12.5t31.5 -12.5t12.5 -31.5q0 -17 -12.5 -30t-31.5 -13t-31.5 13t-12.5 30zM59 649v51h489v-41l-422 -608h421v-51h-498v41l424 608h-414z" />
    <glyph glyph-name="zdotaccent" unicode="&#x17c;" horiz-adv-x="434" 
d="M186 596q0 18 11.5 29.5t29.5 11.5t29.5 -11.5t11.5 -29.5q0 -17 -11.5 -28.5t-29.5 -11.5t-29.5 11.5t-11.5 28.5zM50 418v51h341v-37l-276 -382h276v-50h-348v40l273 378h-266z" />
    <glyph glyph-name="Zcaron" unicode="&#x17d;" horiz-adv-x="597" 
d="M437 869l-112 -116h-38l-111 116l32 29l99 -96l98 96zM59 649v51h489v-41l-422 -608h421v-51h-498v41l424 608h-414z" />
    <glyph glyph-name="zcaron" unicode="&#x17e;" horiz-adv-x="434" 
d="M355 664l-109 -130h-42l-109 130l32 27l99 -108l98 108zM50 418v51h341v-37l-276 -382h276v-50h-348v40l273 378h-266z" />
    <glyph glyph-name="florin" unicode="&#x192;" horiz-adv-x="464" 
d="M168 -8l39 373h-83v45h88l17 161q8 74 46 107t91 33q55 0 88 -26l-35 -49q-26 22 -58 22q-33 0 -52 -23.5t-23 -64.5l-17 -160h109v-45h-113l-40 -374q-8 -74 -46 -107t-91 -33q-55 0 -88 26l35 49q26 -22 58 -22q33 0 52 23.5t23 64.5z" />
    <glyph glyph-name="Scommaaccent" unicode="&#x218;" horiz-adv-x="607" 
d="M306 333q-122 21 -177 64t-55 129q0 83 61.5 134.5t166.5 51.5q102 0 163.5 -49t72.5 -130l-59 -15q-22 143 -178 143q-79 0 -121 -36t-42 -94q0 -61 43 -94.5t139 -48.5q120 -19 177 -65.5t57 -131.5q0 -87 -67.5 -145t-177.5 -58q-120 0 -184 56.5t-70 147.5l60 10
q5 -71 53 -117t142 -46q80 0 130 42t50 106q0 61 -42 95t-142 51zM352 -109q0 -29 -15 -55t-49 -33l-11 27q15 1 25.5 12.5t10.5 26.5v4q-2 -1 -8 -1q-14 0 -24 10.5t-10 27.5q0 14 10.5 25.5t27.5 11.5q21 0 32 -15.5t11 -40.5z" />
    <glyph glyph-name="scommaaccent" unicode="&#x219;" horiz-adv-x="454" 
d="M410 130q0 -64 -49 -103t-134 -39q-81 0 -130.5 37.5t-56.5 110.5l58 7q3 -49 35.5 -78.5t94.5 -29.5q58 0 90 24.5t32 65.5t-28.5 60t-97.5 28q-85 11 -127.5 41.5t-42.5 91.5q0 63 49 99t118 36q74 0 122.5 -34.5t56.5 -94.5l-59 -13q-14 95 -122 95q-45 0 -75 -22.5
t-30 -61.5q1 -39 28.5 -57.5t98.5 -28.5q84 -11 126.5 -41.5t42.5 -92.5zM274 -109q0 -29 -15 -55t-49 -33l-11 27q15 1 25.5 12.5t10.5 26.5v4q-2 -1 -8 -1q-14 0 -24 10.5t-10 27.5q0 14 10.5 25.5t27.5 11.5q21 0 32 -15.5t11 -40.5z" />
    <glyph glyph-name="dotlessj" unicode="&#x237;" horiz-adv-x="232" 
d="M86 -69v538h60v-538q0 -67 -33.5 -104.5t-97.5 -37.5q-57 0 -99 27l28 50q32 -25 70 -25q34 0 53 23.5t19 66.5z" />
    <glyph glyph-name="circumflex" unicode="&#x2c6;" 
d="M170 555l109 130h42l109 -130l-32 -27l-99 108l-98 -108z" />
    <glyph glyph-name="caron" unicode="&#x2c7;" 
d="M430 664l-109 -130h-42l-109 130l32 27l99 -108l98 108z" />
    <glyph glyph-name="breve" unicode="&#x2d8;" 
d="M158 644l49 17q5 -34 31 -57t62 -23t62 23t31 57l49 -17q-11 -48 -49 -76.5t-93 -28.5t-93 28.5t-49 76.5z" />
    <glyph glyph-name="dotaccent" unicode="&#x2d9;" 
d="M259 596q0 18 11.5 29.5t29.5 11.5t29.5 -11.5t11.5 -29.5q0 -17 -11.5 -28.5t-29.5 -11.5t-29.5 11.5t-11.5 28.5z" />
    <glyph glyph-name="ring" unicode="&#x2da;" 
d="M211 611q0 38 25 62t64 24t64 -24t25 -62t-25 -62.5t-64 -24.5t-64 24.5t-25 62.5zM252 611q0 -22 13.5 -37t34.5 -15t34.5 15t13.5 37t-13.5 36.5t-34.5 14.5t-34.5 -14.5t-13.5 -36.5z" />
    <glyph glyph-name="ogonek" unicode="&#x2db;" 
d="M270 -108q0 -18 11 -29.5t31 -11.5q29 0 54 34l22 -23q-34 -52 -90 -52q-29 0 -54 17t-25 58q0 66 84 115h62q-95 -56 -95 -108z" />
    <glyph glyph-name="tilde" unicode="&#x2dc;" 
d="M233 649q35 0 75 -24.5t61 -24.5q19 0 34 11t21 22l6 11l33 -30q-3 -6 -10 -15.5t-32 -25t-56 -15.5q-36 0 -76 24t-59 24t-34.5 -11t-21.5 -21l-5 -11l-32 29q3 6 9.5 15.5t31 25.5t55.5 16z" />
    <glyph glyph-name="hungarumlaut" unicode="&#x2dd;" 
d="M433 678l34 -47l-148 -99l-23 32zM263 678l34 -47l-148 -99l-23 32z" />
    <glyph glyph-name="uni0312" unicode="&#x312;" 
d="M267 596q0 29 15 55t49 33l11 -27q-15 -1 -25.5 -12.5t-10.5 -26.5v-4q2 1 8 1q14 0 24 -10.5t10 -27.5q0 -14 -10.5 -25.5t-27.5 -11.5q-21 0 -32 15.5t-11 40.5z" />
    <glyph glyph-name="pi" unicode="&#x3c0;" horiz-adv-x="560" 
d="M487 469v-50h-62v-326q0 -57 39 -57q20 0 40 13l15 -46q-19 -15 -62 -15q-46 0 -67 25.5t-21 77.5v328h-198v-419h-56v419h-62v50h434z" />
    <glyph glyph-name="pi" unicode="&#x3d6;" horiz-adv-x="560" 
d="M487 469v-50h-62v-326q0 -57 39 -57q20 0 40 13l15 -46q-19 -15 -62 -15q-46 0 -67 25.5t-21 77.5v328h-198v-419h-56v419h-62v50h434z" />
    <glyph glyph-name="Wgrave" unicode="&#x1e80;" horiz-adv-x="892" 
d="M340 853l34 47l147 -120l-23 -32zM816 700h57l-197 -700h-57q-136 462 -172 609h-2l-171 -609h-57l-198 700h61q131 -468 166 -617h2q16 66 59.5 220.5t78.5 275.5l35 121h54q139 -486 171 -617h2q14 58 56 212.5t77 279.5z" />
    <glyph glyph-name="wgrave" unicode="&#x1e81;" horiz-adv-x="709" 
d="M248 637l34 47l147 -120l-23 -32zM331 469h50q113 -344 128 -404h2q8 35 38.5 136t56.5 185l27 83h57l-152 -469h-60q-103 315 -124 393l-124 -393h-60l-152 469h61q106 -334 122 -404h2q10 33 41.5 132.5t59.5 185.5z" />
    <glyph glyph-name="Wacute" unicode="&#x1e82;" horiz-adv-x="892" 
d="M522 900l34 -47l-158 -105l-23 32zM816 700h57l-197 -700h-57q-136 462 -172 609h-2l-171 -609h-57l-198 700h61q131 -468 166 -617h2q16 66 59.5 220.5t78.5 275.5l35 121h54q139 -486 171 -617h2q14 58 56 212.5t77 279.5z" />
    <glyph glyph-name="wacute" unicode="&#x1e83;" horiz-adv-x="710" 
d="M431 684l34 -47l-158 -105l-23 32zM332 469h50q113 -344 128 -404h2q8 35 38.5 136t57.5 185l26 83h57l-152 -469h-60q-103 315 -124 393l-124 -393h-60l-152 469h61q106 -334 122 -404h2q10 33 41.5 132.5t58.5 185.5z" />
    <glyph glyph-name="Wdieresis" unicode="&#x1e84;" horiz-adv-x="892" 
d="M496 811q0 19 12.5 31.5t31.5 12.5t31.5 -12.5t12.5 -31.5q0 -18 -12.5 -30.5t-31.5 -12.5t-31.5 12.5t-12.5 30.5zM312 811q0 19 12.5 31.5t31.5 12.5t31.5 -12.5t12.5 -31.5q0 -18 -12.5 -30.5t-31.5 -12.5t-31.5 12.5t-12.5 30.5zM816 700h57l-197 -700h-57
q-136 462 -172 609h-2l-171 -609h-57l-198 700h61q131 -468 166 -617h2q16 66 59.5 220.5t78.5 275.5l35 121h54q139 -486 171 -617h2q14 58 56 212.5t77 279.5z" />
    <glyph glyph-name="wdieresis" unicode="&#x1e85;" horiz-adv-x="710" 
d="M406 597q0 19 12.5 31.5t31.5 12.5t31.5 -12.5t12.5 -31.5q0 -18 -12.5 -30.5t-31.5 -12.5t-31.5 12.5t-12.5 30.5zM222 597q0 19 12.5 31.5t31.5 12.5t31.5 -12.5t12.5 -31.5q0 -18 -12.5 -30.5t-31.5 -12.5t-31.5 12.5t-12.5 30.5zM332 469h50q113 -344 128 -404h2
q8 35 38.5 136t57.5 185l26 83h57l-152 -469h-60q-103 315 -124 393l-124 -393h-60l-152 469h61q106 -334 122 -404h2q10 33 41.5 132.5t58.5 185.5z" />
    <glyph glyph-name="figuredash" unicode="&#x2012;" 
d="M64 261v52h472v-52h-472z" />
    <glyph glyph-name="endash" unicode="&#x2013;" horiz-adv-x="500" 
d="M64 261v52h372v-52h-372z" />
    <glyph glyph-name="emdash" unicode="&#x2014;" horiz-adv-x="870" 
d="M64 261v52h742v-52h-742z" />
    <glyph glyph-name="uni2015" unicode="&#x2015;" horiz-adv-x="1200" 
d="M64 313h1072v-52h-1072v52z" />
    <glyph glyph-name="doublebar" unicode="&#x2016;" horiz-adv-x="381" 
d="M225 -169v966h54v-966h-54zM102 -169v966h54v-966h-54z" />
    <glyph glyph-name="quoteleft" unicode="&#x2018;" horiz-adv-x="192" 
d="M48 598q0 37 18 70t59 45l12 -32q-19 -4 -31 -20t-12 -36v-6q3 1 9 1q17 0 29 -12t12 -32q0 -17 -12 -30.5t-33 -13.5q-25 0 -38 18.5t-13 47.5z" />
    <glyph glyph-name="quoteright" unicode="&#x2019;" horiz-adv-x="192" 
d="M144 646q0 -37 -18 -70t-59 -45l-12 32q19 4 31 20t12 36v6q-3 -1 -9 -1q-17 0 -29 12t-12 32q0 17 12 30.5t33 13.5q25 0 38 -18.5t13 -47.5z" />
    <glyph glyph-name="quotesinglbase" unicode="&#x201a;" horiz-adv-x="192" 
d="M144 18q0 -37 -18 -70t-59 -45l-12 32q19 4 31 20t12 36v6q-3 -1 -9 -1q-17 0 -29 12t-12 32q0 17 12 30.5t33 13.5q25 0 38 -18.5t13 -47.5z" />
    <glyph glyph-name="reversequoteleft" unicode="&#x201b;" horiz-adv-x="192" 
d="M48 646q0 29 13 47.5t38 18.5q21 0 33 -13.5t12 -30.5q0 -20 -12 -32t-29 -12l-9 1v-6q0 -20 12 -36t31 -20l-12 -32q-41 12 -59 45t-18 70z" />
    <glyph glyph-name="quotedblleft" unicode="&#x201c;" horiz-adv-x="321" 
d="M177 598q0 37 18 70t59 45l12 -32q-19 -4 -31 -20t-12 -36v-6q3 1 9 1q17 0 29 -12t12 -32q0 -17 -12 -30.5t-33 -13.5q-25 0 -38 18.5t-13 47.5zM48 598q0 37 18 70t59 45l12 -32q-19 -4 -31 -20t-12 -36v-6q3 1 9 1q17 0 29 -12t12 -32q0 -17 -12 -30.5t-33 -13.5
q-25 0 -38 18.5t-13 47.5z" />
    <glyph glyph-name="quotedblright" unicode="&#x201d;" horiz-adv-x="322" 
d="M274 646q0 -37 -18 -70t-59 -45l-12 32q19 4 31 20t12 36v6q-3 -1 -9 -1q-17 0 -29 12t-12 32q0 17 12 30.5t33 13.5q25 0 38 -18.5t13 -47.5zM145 646q0 -37 -18 -70t-59 -45l-12 32q19 4 31 20t12 36v6q-3 -1 -9 -1q-17 0 -29 12t-12 32q0 17 12 30.5t33 13.5
q25 0 38 -18.5t13 -47.5z" />
    <glyph glyph-name="quotedblbase" unicode="&#x201e;" horiz-adv-x="321" 
d="M273 18q0 -37 -18 -70t-59 -45l-12 32q19 4 31 20t12 36v6q-3 -1 -9 -1q-17 0 -29 12t-12 32q0 17 12 30.5t33 13.5q25 0 38 -18.5t13 -47.5zM144 18q0 -37 -18 -70t-59 -45l-12 32q19 4 31 20t12 36v6q-3 -1 -9 -1q-17 0 -29 12t-12 32q0 17 12 30.5t33 13.5
q25 0 38 -18.5t13 -47.5z" />
    <glyph glyph-name="reversequotedblleft" unicode="&#x201f;" horiz-adv-x="321" 
d="M177 646q0 29 13 47.5t38 18.5q21 0 33 -13.5t12 -30.5q0 -20 -12 -32t-29 -12l-9 1v-6q0 -20 12 -36t31 -20l-12 -32q-41 12 -59 45t-18 70zM48 646q0 29 13 47.5t38 18.5q21 0 33 -13.5t12 -30.5q0 -20 -12 -32t-29 -12l-9 1v-6q0 -20 12 -36t31 -20l-12 -32
q-41 12 -59 45t-18 70z" />
    <glyph glyph-name="dagger" unicode="&#x2020;" horiz-adv-x="463" 
d="M32 428v53h170v219h59v-219h170v-53h-170v-543h-59v543h-170z" />
    <glyph glyph-name="daggerdbl" unicode="&#x2021;" horiz-adv-x="463" 
d="M32 130v53h170v251h-170v52h170v214h59v-214h170v-52h-170v-251h170v-53h-170v-245h-59v245h-170z" />
    <glyph glyph-name="bullet" unicode="&#x2022;" horiz-adv-x="370" 
d="M71 326q0 49 32 80t82 31t82 -31t32 -80q0 -47 -32 -78t-82 -31t-82 31t-32 78z" />
    <glyph glyph-name="ellipsis" unicode="&#x2026;" horiz-adv-x="783" 
d="M662 81q18 0 31 -12.5t13 -30.5t-13 -31t-31 -13t-31 13t-13 31t13 30.5t31 12.5zM391 81q18 0 31 -12.5t13 -30.5t-13 -31t-31 -13t-31 13t-13 31t13 30.5t31 12.5zM120 81q18 0 31 -12.5t13 -30.5t-13 -31t-31 -13t-31 13t-13 31t13 30.5t31 12.5z" />
    <glyph glyph-name="perthousand" unicode="&#x2030;" horiz-adv-x="1171" 
d="M211 -12h-56l437 724h56zM346 520q0 -41 -12.5 -79t-49 -69t-90.5 -31t-90.5 31t-49 69t-12.5 79q0 40 12.5 78t49 69t90.5 31t90.5 -31t49 -69t12.5 -78zM101 520q0 -61 24.5 -96.5t68.5 -35.5t68.5 35.5t24.5 96.5t-24.5 96t-68.5 35t-68.5 -35t-24.5 -96zM1129 167
q0 -41 -12.5 -79t-49 -69t-90.5 -31t-90.5 31t-49 69t-12.5 79q0 40 12.5 78t49 69t90.5 31t90.5 -31t49 -69t12.5 -78zM752 167q0 -41 -12.5 -79t-49 -69t-90.5 -31t-90.5 31t-49 69t-12.5 79q0 40 12.5 78t49 69t90.5 31t90.5 -31t49 -69t12.5 -78zM884 167
q0 -61 24.5 -96.5t68.5 -35.5t68.5 35.5t24.5 96.5t-24.5 96t-68.5 35t-68.5 -35t-24.5 -96zM507 167q0 -61 24.5 -96.5t68.5 -35.5t68.5 35.5t24.5 96.5t-24.5 96t-68.5 35t-68.5 -35t-24.5 -96z" />
    <glyph glyph-name="guilsinglleft" unicode="&#x2039;" horiz-adv-x="282" 
d="M200 55l-161 201l161 203l37 -29l-128 -174l128 -173z" />
    <glyph glyph-name="guilsinglright" unicode="&#x203a;" horiz-adv-x="282" 
d="M243 256l-161 -201l-37 28l128 173l-128 174l37 29z" />
    <glyph glyph-name="fraction" unicode="&#x2044;" horiz-adv-x="233" 
d="M-75 -12h-56l437 724h56z" />
    <glyph glyph-name="uni2070" unicode="&#x2070;" horiz-adv-x="387" 
d="M193 707q72 0 107 -54t35 -141t-35 -141t-107 -54t-106.5 54t-34.5 141t34.5 141t106.5 54zM193 361q45 0 66 43t21 108t-21 108t-66 43t-65.5 -43t-20.5 -108t20.5 -108t65.5 -43z" />
    <glyph glyph-name="uni2074" unicode="&#x2074;" horiz-adv-x="360" 
d="M199 698h67v-245h64l-8 -41h-56v-88h-49v88h-185v40zM81 453h136v199h-1z" />
    <glyph glyph-name="uni2075" unicode="&#x2075;" horiz-adv-x="349" 
d="M46 414l49 12q2 -28 21.5 -47t53.5 -19q37 0 59.5 23t22.5 60q0 35 -19.5 60.5t-57.5 25.5q-55 0 -74 -39l-44 7l23 203h207l-7 -43h-161l-14 -115q26 30 77 30q58 0 91 -38.5t33 -89.5t-37 -89t-100 -38q-58 0 -90 31.5t-33 65.5z" />
    <glyph glyph-name="uni2076" unicode="&#x2076;" horiz-adv-x="366" 
d="M197 665q-92 0 -98 -146q26 51 100 51q60 0 93.5 -37t33.5 -89q0 -54 -35.5 -90.5t-98.5 -36.5q-140 0 -140 187q0 98 37 150.5t109 52.5q95 0 118 -86l-52 -7q-17 51 -67 51zM192 528q-37 0 -60 -22.5t-23 -58.5q0 -38 22.5 -63t60.5 -25q36 0 59 23t23 61
q0 37 -21.5 61t-60.5 24z" />
    <glyph glyph-name="uni2077" unicode="&#x2077;" horiz-adv-x="319" 
d="M28 657l8 43h255v-35q-145 -167 -145 -341h-54q0 100 44.5 188.5t97.5 144.5h-206z" />
    <glyph glyph-name="uni2078" unicode="&#x2078;" horiz-adv-x="368" 
d="M184 707q58 0 91.5 -31t33.5 -73q0 -29 -18 -51.5t-46 -31.5q34 -7 55 -34.5t21 -59.5q0 -44 -36 -76.5t-101 -32.5t-101 32.5t-36 76.5q0 32 21 59.5t55 34.5q-28 9 -46 31.5t-18 51.5q0 42 33.5 73t91.5 31zM184 666q-33 0 -53 -16.5t-20 -44.5q0 -30 19 -48t54 -18
t54 18t19 48q0 28 -20 44.5t-53 16.5zM268 427q0 30 -22 50t-62 20t-62 -20t-22 -50q0 -27 19 -47.5t65 -20.5t65 20.5t19 47.5z" />
    <glyph glyph-name="uni2079" unicode="&#x2079;" horiz-adv-x="366" 
d="M169 359q92 0 98 146q-26 -51 -100 -51q-60 0 -93.5 37t-33.5 89q0 54 35.5 90.5t98.5 36.5q140 0 140 -187q0 -98 -37 -150.5t-109 -52.5q-95 0 -118 86l52 7q17 -51 67 -51zM174 496q37 0 60 22.5t23 58.5q0 38 -22.5 63t-60.5 25q-36 0 -59 -23t-23 -61
q0 -37 21.5 -61t60.5 -24z" />
    <glyph glyph-name="uni207A" unicode="&#x207a;" horiz-adv-x="376" 
d="M43 497v50h120v121h50v-121h120v-50h-120v-125h-50v125h-120z" />
    <glyph glyph-name="uni207B" unicode="&#x207b;" horiz-adv-x="384" 
d="M54 497v50h276v-50h-276z" />
    <glyph glyph-name="uni207C" unicode="&#x207c;" horiz-adv-x="384" 
d="M54 554v50h276v-50h-276zM54 444v50h276v-50h-276z" />
    <glyph glyph-name="uni207D" unicode="&#x207d;" horiz-adv-x="222" 
d="M54 501q0 71 33.5 135.5t85.5 93.5l28 -26q-89 -70 -89 -203t89 -203l-28 -26q-52 29 -85.5 93.5t-33.5 135.5z" />
    <glyph glyph-name="uni207E" unicode="&#x207e;" horiz-adv-x="222" 
d="M168 501q0 -71 -33.5 -135.5t-85.5 -93.5l-28 26q89 70 89 203t-89 203l28 26q52 -29 85.5 -93.5t33.5 -135.5z" />
    <glyph glyph-name="n.superior" unicode="&#x207f;" horiz-adv-x="355" 
d="M55 288v299h46v-46q33 54 97 54q46 0 75.5 -26t29.5 -74v-207h-49v198q0 34 -19 51t-48 17q-34 0 -58.5 -27.5t-24.5 -74.5v-164h-49z" />
    <glyph glyph-name="uni2080" unicode="&#x2080;" horiz-adv-x="387" 
d="M193 383q72 0 107 -54t35 -141t-35 -141t-107 -54t-106.5 54t-34.5 141t34.5 141t106.5 54zM193 37q45 0 66 43t21 108t-21 108t-66 43t-65.5 -43t-20.5 -108t20.5 -108t65.5 -43z" />
    <glyph glyph-name="uni2081" unicode="&#x2081;" horiz-adv-x="241" 
d="M115 376h45v-376h-54v318q-26 -20 -72 -21l-10 39q63 8 91 40z" />
    <glyph glyph-name="uni2082" unicode="&#x2082;" horiz-adv-x="355" 
d="M47 0v41q110 93 148 132q49 51 49 97q0 32 -18 51t-49 19q-35 0 -54.5 -25t-22.5 -59l-52 9q9 54 42 86t89 32q58 0 89 -33.5t31 -79.5q0 -35 -16.5 -63t-49.5 -63q-44 -45 -119 -100h189v-44h-256z" />
    <glyph glyph-name="uni2083" unicode="&#x2083;" horiz-adv-x="356" 
d="M102 282l-50 11q7 34 38 62t84 28q56 0 89 -30t33 -73q0 -61 -62 -84q32 -5 52 -31.5t20 -60.5q0 -44 -35 -77.5t-98 -33.5t-96 32t-33 63l50 13q10 -66 80 -66q38 0 58 19.5t20 49.5q0 31 -24 50t-69 19l-20 -1v45q10 -1 19 -1q40 0 62.5 18t22.5 48q0 26 -20 42.5
t-49 16.5q-32 0 -50 -17.5t-22 -41.5z" />
    <glyph glyph-name="uni2084" unicode="&#x2084;" horiz-adv-x="360" 
d="M199 374h67v-245h64l-8 -41h-56v-88h-49v88h-185v40zM81 129h136v199h-1z" />
    <glyph glyph-name="uni2085" unicode="&#x2085;" horiz-adv-x="349" 
d="M46 90l49 12q2 -28 21.5 -47t53.5 -19q37 0 59.5 23t22.5 60q0 35 -19.5 60.5t-57.5 25.5q-55 0 -74 -39l-44 7l23 203h207l-7 -43h-161l-14 -115q26 30 77 30q58 0 91 -38.5t33 -89.5t-37 -89t-100 -38q-58 0 -90 31.5t-33 65.5z" />
    <glyph glyph-name="uni2086" unicode="&#x2086;" horiz-adv-x="366" 
d="M197 341q-92 0 -98 -146q26 51 100 51q60 0 93.5 -37t33.5 -89q0 -54 -35.5 -90.5t-98.5 -36.5q-140 0 -140 187q0 98 37 150.5t109 52.5q95 0 118 -86l-52 -7q-17 51 -67 51zM192 204q-37 0 -60 -22.5t-23 -58.5q0 -38 22.5 -63t60.5 -25q36 0 59 23t23 61
q0 37 -21.5 61t-60.5 24z" />
    <glyph glyph-name="uni2087" unicode="&#x2087;" horiz-adv-x="319" 
d="M28 333l8 43h255v-35q-145 -167 -145 -341h-54q0 100 44.5 188.5t97.5 144.5h-206z" />
    <glyph glyph-name="uni2088" unicode="&#x2088;" horiz-adv-x="368" 
d="M184 383q58 0 91.5 -31t33.5 -73q0 -29 -18 -51.5t-46 -31.5q34 -7 55 -34.5t21 -59.5q0 -44 -36 -76.5t-101 -32.5t-101 32.5t-36 76.5q0 32 21 59.5t55 34.5q-28 9 -46 31.5t-18 51.5q0 42 33.5 73t91.5 31zM184 342q-33 0 -53 -16.5t-20 -44.5q0 -30 19 -48t54 -18
t54 18t19 48q0 28 -20 44.5t-53 16.5zM268 103q0 30 -22 50t-62 20t-62 -20t-22 -50q0 -27 19 -47.5t65 -20.5t65 20.5t19 47.5z" />
    <glyph glyph-name="uni2089" unicode="&#x2089;" horiz-adv-x="366" 
d="M169 35q92 0 98 146q-26 -51 -100 -51q-60 0 -93.5 37t-33.5 89q0 54 35.5 90.5t98.5 36.5q140 0 140 -187q0 -98 -37 -150.5t-109 -52.5q-95 0 -118 86l52 7q17 -51 67 -51zM174 172q37 0 60 22.5t23 58.5q0 38 -22.5 63t-60.5 25q-36 0 -59 -23t-23 -61q0 -37 21.5 -61
t60.5 -24z" />
    <glyph glyph-name="uni208A" unicode="&#x208a;" horiz-adv-x="376" 
d="M43 173v50h120v121h50v-121h120v-50h-120v-125h-50v125h-120z" />
    <glyph glyph-name="uni208B" unicode="&#x208b;" horiz-adv-x="384" 
d="M54 173v50h276v-50h-276z" />
    <glyph glyph-name="uni208C" unicode="&#x208c;" horiz-adv-x="384" 
d="M54 230v50h276v-50h-276zM54 120v50h276v-50h-276z" />
    <glyph glyph-name="uni208D" unicode="&#x208d;" horiz-adv-x="222" 
d="M54 177q0 71 33.5 135.5t85.5 93.5l28 -26q-89 -70 -89 -203t89 -203l-28 -26q-52 29 -85.5 93.5t-33.5 135.5z" />
    <glyph glyph-name="uni208E" unicode="&#x208e;" horiz-adv-x="222" 
d="M168 177q0 -71 -33.5 -135.5t-85.5 -93.5l-28 26q89 70 89 203t-89 203l28 26q52 -29 85.5 -93.5t33.5 -135.5z" />
    <glyph glyph-name="Euro" unicode="&#x20ac;" horiz-adv-x="615" 
d="M91 341q0 26 1 39h-60v44h65q20 122 92.5 198t190.5 76q133 0 201 -100l-48 -33q-28 39 -62.5 60.5t-88.5 21.5q-87 0 -147 -60t-77 -163h282v-44h-287q-1 -11 -1 -33q0 -25 1 -36h287v-44h-282q17 -111 79.5 -169.5t144.5 -58.5q95 0 155 83l46 -36q-76 -98 -201 -98
q-118 0 -193.5 75t-92.5 204h-64v44h60q-1 10 -1 30z" />
    <glyph glyph-name="servicemark" unicode="&#x2120;" horiz-adv-x="697" 
d="M101 626q0 -21 14.5 -31.5t52.5 -16.5q50 -8 75.5 -27t25.5 -57q0 -40 -29 -64t-79 -24q-52 0 -81.5 24.5t-31.5 61.5l44 7q2 -25 18.5 -41.5t51.5 -16.5q62 0 62 50q0 21 -15.5 32.5t-52.5 16.5q-50 7 -75 26t-25 56q0 39 28 61t74 22q44 0 71.5 -20t33.5 -56l-43 -10
q-8 51 -64 51q-55 0 -55 -44zM502 411h-36q-70 175 -90 233h-1v-233h-39v289h58q81 -207 92 -238l88 238h57v-289h-39v233h-1q-21 -62 -89 -233z" />
    <glyph glyph-name="trademark" unicode="&#x2122;" horiz-adv-x="678" 
d="M483 411h-36q-70 175 -90 233h-1v-233h-39v289h58q81 -207 92 -238l88 238h57v-289h-39v233h-1q-21 -62 -89 -233zM34 665v35h219v-35h-87v-254h-45v254h-87z" />
    <glyph glyph-name="estimated" unicode="&#x212e;" horiz-adv-x="770" 
d="M617 194l77 -30q-42 -88 -115.5 -133t-190.5 -45q-163 0 -250.5 98.5t-87.5 266.5q0 175 91 269t246 94q163 0 248 -101.5t85 -261.5v-28h-553q5 -130 62 -203.5t160 -73.5q173 0 228 148zM388 654q-202 0 -221 -270h435q-9 127 -62 198.5t-152 71.5z" />
    <glyph glyph-name="uni2153" unicode="&#x2153;" horiz-adv-x="721" 
d="M125 -12h-56l437 724h56zM115 700h45v-376h-54v318q-26 -20 -72 -21l-10 39q63 8 91 40zM467 282l-50 11q7 34 38 62t84 28q56 0 89 -30t33 -73q0 -61 -62 -84q32 -5 52 -31.5t20 -60.5q0 -44 -35 -77.5t-98 -33.5t-96 32t-33 63l50 13q10 -66 80 -66q38 0 58 19.5
t20 49.5q0 31 -24 50t-69 19l-20 -1v45q10 -1 19 -1q40 0 62.5 18t22.5 48q0 26 -20 42.5t-49 16.5q-32 0 -50 -17.5t-22 -41.5z" />
    <glyph glyph-name="uni2154" unicode="&#x2154;" horiz-adv-x="819" 
d="M223 -12h-56l437 724h56zM47 324v41q110 93 148 132q49 51 49 97q0 32 -18 51t-49 19q-35 0 -54.5 -25t-22.5 -59l-52 9q9 54 42 86t89 32q58 0 89 -33.5t31 -79.5q0 -35 -16.5 -63t-49.5 -63q-44 -45 -119 -100h189v-44h-256zM565 282l-50 11q7 34 38 62t84 28
q56 0 89 -30t33 -73q0 -61 -62 -84q32 -5 52 -31.5t20 -60.5q0 -44 -35 -77.5t-98 -33.5t-96 32t-33 63l50 13q10 -66 80 -66q38 0 58 19.5t20 49.5q0 31 -24 50t-69 19l-20 -1v45q10 -1 19 -1q40 0 62.5 18t22.5 48q0 26 -20 42.5t-49 16.5q-32 0 -50 -17.5t-22 -41.5z" />
    <glyph glyph-name="uni2155" unicode="&#x2155;" horiz-adv-x="712" 
d="M125 -12h-56l437 724h56zM115 700h45v-376h-54v318q-26 -20 -72 -21l-10 39q63 8 91 40zM409 90l49 12q2 -28 21.5 -47t53.5 -19q37 0 59.5 23t22.5 60q0 35 -19.5 60.5t-57.5 25.5q-54 0 -74 -39l-44 7l23 203h207l-7 -43h-161l-14 -115q26 30 77 30q58 0 91 -38.5
t33 -89.5t-37 -89t-100 -38q-58 0 -90 31.5t-33 65.5z" />
    <glyph glyph-name="uni2156" unicode="&#x2156;" horiz-adv-x="810" 
d="M223 -12h-56l437 724h56zM47 324v41q110 93 148 132q49 51 49 97q0 32 -18 51t-49 19q-35 0 -54.5 -25t-22.5 -59l-52 9q9 54 42 86t89 32q58 0 89 -33.5t31 -79.5q0 -35 -16.5 -63t-49.5 -63q-44 -45 -119 -100h189v-44h-256zM507 90l49 12q2 -28 21.5 -47t53.5 -19
q37 0 59.5 23t22.5 60q0 35 -19.5 60.5t-57.5 25.5q-54 0 -74 -39l-44 7l23 203h207l-7 -43h-161l-14 -115q26 30 77 30q58 0 91 -38.5t33 -89.5t-37 -89t-100 -38q-58 0 -90 31.5t-33 65.5z" />
    <glyph glyph-name="uni2157" unicode="&#x2157;" horiz-adv-x="798" 
d="M211 -12h-56l437 724h56zM102 606l-50 11q7 34 38 62t84 28q56 0 89 -30t33 -73q0 -61 -62 -84q32 -5 52 -31.5t20 -60.5q0 -44 -35 -77.5t-98 -33.5t-96 32t-33 63l50 13q10 -66 80 -66q38 0 58 19.5t20 49.5q0 31 -24 50t-69 19l-20 -1v45q10 -1 19 -1q40 0 62.5 18
t22.5 48q0 26 -20 42.5t-49 16.5q-32 0 -50 -17.5t-22 -41.5zM495 90l49 12q2 -28 21.5 -47t53.5 -19q37 0 59.5 23t22.5 60q0 35 -19.5 60.5t-57.5 25.5q-54 0 -74 -39l-44 7l23 203h207l-7 -43h-161l-14 -115q26 30 77 30q58 0 91 -38.5t33 -89.5t-37 -89t-100 -38
q-58 0 -90 31.5t-33 65.5z" />
    <glyph glyph-name="uni2158" unicode="&#x2158;" horiz-adv-x="821" 
d="M234 -12h-56l437 724h56zM199 698h67v-245h64l-8 -41h-56v-88h-49v88h-185v40zM81 453h136v199h-1zM518 90l49 12q2 -28 21.5 -47t53.5 -19q37 0 59.5 23t22.5 60q0 35 -19.5 60.5t-57.5 25.5q-55 0 -74 -39l-44 7l23 203h207l-7 -43h-161l-14 -115q26 30 77 30
q58 0 91 -38.5t33 -89.5t-37 -89t-100 -38q-58 0 -90 31.5t-33 65.5z" />
    <glyph glyph-name="uni2159" unicode="&#x2159;" horiz-adv-x="709" 
d="M125 -12h-56l437 724h56zM115 700h45v-376h-54v318q-26 -20 -72 -21l-10 39q63 8 91 40zM540 341q-92 0 -98 -146q26 51 100 51q60 0 93.5 -37t33.5 -89q0 -54 -35.5 -90.5t-98.5 -36.5q-140 0 -140 187q0 98 37 150.5t109 52.5q95 0 118 -86l-52 -7q-17 51 -67 51z
M535 204q-37 0 -60 -22.5t-23 -58.5q0 -38 22.5 -63t60.5 -25q36 0 59 23t23 61q0 37 -21.5 61t-60.5 24z" />
    <glyph glyph-name="uni215A" unicode="&#x215a;" horiz-adv-x="788" 
d="M204 -12h-56l437 724h56zM46 414l49 12q2 -28 21.5 -47t53.5 -19q37 0 59.5 23t22.5 60q0 35 -19.5 60.5t-57.5 25.5q-55 0 -74 -39l-44 7l23 203h207l-7 -43h-161l-14 -115q26 30 77 30q58 0 91 -38.5t33 -89.5t-37 -89t-100 -38q-58 0 -90 31.5t-33 65.5zM619 341
q-92 0 -98 -146q26 51 100 51q60 0 93.5 -37t33.5 -89q0 -54 -35.5 -90.5t-98.5 -36.5q-140 0 -140 187q0 98 37 150.5t109 52.5q95 0 118 -86l-52 -7q-17 51 -67 51zM614 204q-37 0 -60 -22.5t-23 -58.5q0 -38 22.5 -63t60.5 -25q36 0 59 23t23 61q0 37 -21.5 61t-60.5 24z
" />
    <glyph glyph-name="uni215B" unicode="&#x215b;" horiz-adv-x="721" 
d="M125 -12h-56l437 724h56zM115 700h45v-376h-54v318q-26 -20 -72 -21l-10 39q63 8 91 40zM537 383q58 0 91.5 -31t33.5 -73q0 -29 -18 -51.5t-46 -31.5q34 -7 55 -34.5t21 -59.5q0 -44 -36 -76.5t-101 -32.5t-101 32.5t-36 76.5q0 32 21 59.5t55 34.5q-28 9 -46 31.5
t-18 51.5q0 42 33.5 73t91.5 31zM537 342q-33 0 -53 -16.5t-20 -44.5q0 -30 19 -48t54 -18t54 18t19 48q0 28 -20 44.5t-53 16.5zM621 103q0 30 -22 50t-62 20t-62 -20t-22 -50q0 -27 19 -47.5t65 -20.5t65 20.5t19 47.5z" />
    <glyph glyph-name="uni215C" unicode="&#x215c;" horiz-adv-x="807" 
d="M211 -12h-56l437 724h56zM102 606l-50 11q7 34 38 62t84 28q56 0 89 -30t33 -73q0 -61 -62 -84q32 -5 52 -31.5t20 -60.5q0 -44 -35 -77.5t-98 -33.5t-96 32t-33 63l50 13q10 -66 80 -66q38 0 58 19.5t20 49.5q0 31 -24 50t-69 19l-20 -1v45q10 -1 19 -1q40 0 62.5 18
t22.5 48q0 26 -20 42.5t-49 16.5q-32 0 -50 -17.5t-22 -41.5zM623 383q58 0 91.5 -31t33.5 -73q0 -29 -18 -51.5t-46 -31.5q34 -7 55 -34.5t21 -59.5q0 -44 -36 -76.5t-101 -32.5t-101 32.5t-36 76.5q0 32 21 59.5t55 34.5q-28 9 -46 31.5t-18 51.5q0 42 33.5 73t91.5 31z
M623 342q-33 0 -53 -16.5t-20 -44.5q0 -30 19 -48t54 -18t54 18t19 48q0 28 -20 44.5t-53 16.5zM707 103q0 30 -22 50t-62 20t-62 -20t-22 -50q0 -27 19 -47.5t65 -20.5t65 20.5t19 47.5z" />
    <glyph glyph-name="uni215D" unicode="&#x215d;" horiz-adv-x="800" 
d="M204 -12h-56l437 724h56zM46 414l49 12q2 -28 21.5 -47t53.5 -19q37 0 59.5 23t22.5 60q0 35 -19.5 60.5t-57.5 25.5q-55 0 -74 -39l-44 7l23 203h207l-7 -43h-161l-14 -115q26 30 77 30q58 0 91 -38.5t33 -89.5t-37 -89t-100 -38q-58 0 -90 31.5t-33 65.5zM616 383
q58 0 91.5 -31t33.5 -73q0 -29 -18 -51.5t-46 -31.5q34 -7 55 -34.5t21 -59.5q0 -44 -36 -76.5t-101 -32.5t-101 32.5t-36 76.5q0 32 21 59.5t55 34.5q-28 9 -46 31.5t-18 51.5q0 42 33.5 73t91.5 31zM616 342q-33 0 -53 -16.5t-20 -44.5q0 -30 19 -48t54 -18t54 18t19 48
q0 28 -20 44.5t-53 16.5zM700 103q0 30 -22 50t-62 20t-62 -20t-22 -50q0 -27 19 -47.5t65 -20.5t65 20.5t19 47.5z" />
    <glyph glyph-name="uni215E" unicode="&#x215e;" horiz-adv-x="721" 
d="M125 -12h-56l437 724h56zM28 657l8 43h255v-35q-145 -167 -145 -341h-54q0 100 44.5 188.5t97.5 144.5h-206zM537 383q58 0 91.5 -31t33.5 -73q0 -29 -18 -51.5t-46 -31.5q34 -7 55 -34.5t21 -59.5q0 -44 -36 -76.5t-101 -32.5t-101 32.5t-36 76.5q0 32 21 59.5t55 34.5
q-28 9 -46 31.5t-18 51.5q0 42 33.5 73t91.5 31zM537 342q-33 0 -53 -16.5t-20 -44.5q0 -30 19 -48t54 -18t54 18t19 48q0 28 -20 44.5t-53 16.5zM621 103q0 30 -22 50t-62 20t-62 -20t-22 -50q0 -27 19 -47.5t65 -20.5t65 20.5t19 47.5z" />
    <glyph glyph-name="uni215F" unicode="&#x215f;" horiz-adv-x="574" 
d="M125 -12h-56l437 724h56zM115 700h45v-376h-54v318q-26 -20 -72 -21l-10 39q63 8 91 40z" />
    <glyph glyph-name="arrowleft" unicode="&#x2190;" horiz-adv-x="850" 
d="M165 375h611v-52h-611l207 -207l-37 -38l-272 271l272 271l37 -38z" />
    <glyph glyph-name="arrowup" unicode="&#x2191;" horiz-adv-x="750" 
d="M400 609v-609h-51v609l-208 -206l-37 38l271 272l270 -272l-37 -38z" />
    <glyph glyph-name="arrowright" unicode="&#x2192;" horiz-adv-x="850" 
d="M74 375h611l-207 207l37 38l272 -271l-272 -271l-37 38l207 207h-611v52z" />
    <glyph glyph-name="arrowdown" unicode="&#x2193;" horiz-adv-x="750" 
d="M350 91v609h51v-609l208 206l37 -38l-271 -272l-270 272l37 38z" />
    <glyph glyph-name="uni2196" unicode="&#x2196;" horiz-adv-x="750" 
d="M229 646l432 -432l-36 -36l-433 429v-292h-53v385h384v-54h-294z" />
    <glyph glyph-name="uni2197" unicode="&#x2197;" horiz-adv-x="750" 
d="M89 214l431 432h-293v54h384v-385h-53v292l-433 -429z" />
    <glyph glyph-name="uni2198" unicode="&#x2198;" horiz-adv-x="750" 
d="M520 54l-431 432l36 36l433 -429v292h53v-385h-384v54h293z" />
    <glyph glyph-name="uni2199" unicode="&#x2199;" horiz-adv-x="750" 
d="M661 486l-432 -432h294v-54h-384v385h53v-292l433 429z" />
    <glyph glyph-name="partialdiff" unicode="&#x2202;" horiz-adv-x="533" 
d="M151 605l-45 33q56 74 150 74q218 0 218 -354q0 -370 -235 -370q-88 0 -137 58.5t-49 152.5q0 90 52.5 157t149.5 67q56 0 98.5 -23.5t63.5 -53.5q0 317 -162 317q-37 0 -60.5 -15.5t-43.5 -42.5zM252 374q-66 0 -102 -51t-36 -122q0 -74 36 -119t94 -45q45 0 79.5 24.5
t53 62.5t28 77t9.5 75q-18 40 -65 69t-97 29z" />
    <glyph glyph-name="increment" unicode="&#x2206;" horiz-adv-x="657" 
d="M357 700l250 -700h-557l252 700h55zM327 608l-193 -557h388z" />
    <glyph glyph-name="product" unicode="&#x220f;" horiz-adv-x="664" 
d="M93 0v700h478v-700h-60v648h-358v-648h-60z" />
    <glyph glyph-name="summation" unicode="&#x2211;" horiz-adv-x="524" 
d="M471 50v-50h-421v41l205 309l-205 309v41h421v-50h-348l197 -300l-197 -300h348z" />
    <glyph glyph-name="minus" unicode="&#x2212;" 
d="M56 297v51h488v-51h-488z" />
    <glyph glyph-name="radical" unicode="&#x221a;" horiz-adv-x="557" 
d="M30 328l-14 45l131 42l117 -345l226 630h57l-258 -700h-53l-126 354z" />
    <glyph glyph-name="infinity" unicode="&#x221e;" horiz-adv-x="768" 
d="M710 324q0 -78 -45 -123t-113 -45q-49 0 -87.5 27.5t-80.5 88.5q-42 -61 -80.5 -88.5t-87.5 -27.5q-68 0 -113 45t-45 123q0 79 44.5 124t113.5 45q49 0 87.5 -27.5t80.5 -88.5q42 61 80.5 88.5t87.5 27.5q69 0 113.5 -45t44.5 -124zM413 324q66 -117 142 -117
q44 0 71 31t27 86t-27 86.5t-71 31.5q-76 0 -142 -118zM115 324q0 -55 27 -86t71 -31q76 0 142 117q-66 118 -142 118q-44 0 -71 -31.5t-27 -86.5z" />
    <glyph glyph-name="integral" unicode="&#x222b;" horiz-adv-x="297" 
d="M119 -10v583q0 72 33 105.5t83 33.5q60 0 90 -27l-30 -49q-25 23 -56 23q-61 0 -61 -87v-583q0 -72 -33 -105.5t-83 -33.5q-58 0 -90 27l30 49q25 -23 56 -23q61 0 61 87z" />
    <glyph glyph-name="approxequal" unicode="&#x2248;" 
d="M400 357q-52 0 -112 36t-91 36q-28 0 -50 -15.5t-30 -31.5l-8 -15l-50 25l5 10t15 21t27 27t40.5 21.5t54.5 9.5q41 0 77 -18t66.5 -36t58.5 -18t50.5 15.5t30.5 30.5l8 15l49 -26q-2 -4 -5 -9.5t-15 -20.5t-27 -26.5t-40 -21t-54 -9.5zM400 176q-52 0 -112 36t-91 36
q-28 0 -50 -15.5t-30 -30.5l-8 -16l-50 25l5 10t15 21t27 27t40.5 21.5t54.5 9.5q41 0 77 -18t66.5 -36t58.5 -18q18 0 33.5 6.5t25 15t17 17.5t10.5 15l3 7l49 -26q-2 -4 -5 -9.5t-15 -20.5t-27 -26.5t-40 -21t-54 -9.5z" />
    <glyph glyph-name="notequal" unicode="&#x2260;" 
d="M447 612l41 -27l-90 -146h146v-50h-176l-77 -125h253v-50h-284l-109 -178l-42 27l93 151h-146v50h177l77 125h-254v50h284z" />
    <glyph glyph-name="equivalence" unicode="&#x2261;" 
d="M54 499v50h492v-50h-492zM54 299v50h492v-50h-492zM54 99v50h492v-50h-492z" />
    <glyph glyph-name="lessequal" unicode="&#x2264;" 
d="M545 113l-490 231v48l490 231v-61l-421 -193l421 -194v-62zM55 0v51h490v-51h-490z" />
    <glyph glyph-name="greaterequal" unicode="&#x2265;" 
d="M55 623l490 -231v-48l-490 -231v61l421 193l-421 194v62zM545 51v-51h-490v51h490z" />
    <glyph glyph-name="squaremultiply" unicode="&#x22a0;" horiz-adv-x="850" 
d="M75 0v700h700v-700h-700zM121 656v-612h608v612h-608zM639 102l-214 214l-214 -214l-35 35l215 213l-215 213l35 35l214 -214l214 214l35 -35l-215 -213l215 -213z" />
    <glyph glyph-name="blacksquare" unicode="&#x25a0;" horiz-adv-x="850" 
d="M75 0v700h700v-700h-700z" />
    <glyph glyph-name="blacksquare" unicode="&#xe740;" horiz-adv-x="850" 
d="M75 0v700h700v-700h-700z" />
    <glyph glyph-name="whitesquare" unicode="&#x25a1;" horiz-adv-x="850" 
d="M75 0v700h700v-700h-700zM121 656v-612h608v612h-608z" />
    <glyph glyph-name="blacksmallsquare" unicode="&#x25aa;" 
d="M66 0v469h469v-469h-469z" />
    <glyph glyph-name="whitesmallsquare" unicode="&#x25ab;" 
d="M66 0v469h469v-469h-469zM107 430v-391h387v391h-387z" />
    <glyph glyph-name="triagup" unicode="&#x25b2;" horiz-adv-x="800" 
d="M750 0h-700l350 716z" />
    <glyph glyph-name="triagrt" unicode="&#x25ba;" horiz-adv-x="785" 
d="M50 0v700l685 -350z" />
    <glyph glyph-name="triagdn" unicode="&#x25bc;" horiz-adv-x="800" 
d="M50 700h700l-350 -716z" />
    <glyph glyph-name="triaglf" unicode="&#x25c4;" horiz-adv-x="785" 
d="M735 700v-700l-685 350z" />
    <glyph glyph-name="lozenge" unicode="&#x25ca;" horiz-adv-x="476" 
d="M265 700l171 -350l-171 -350h-53l-172 350l172 350h53zM238 622l-133 -272l133 -272l133 272z" />
    <glyph glyph-name="whitecircle" unicode="&#x25cb;" horiz-adv-x="850" 
d="M63 350q0 150 106 256t256 106t256 -106t106 -256t-106 -256t-256 -106t-256 106t-106 256zM740 350q0 131 -92.5 224.5t-222.5 93.5t-222.5 -93.5t-92.5 -224.5t92.5 -224.5t222.5 -93.5t222.5 93.5t92.5 224.5z" />
    <glyph glyph-name="whitecircle" unicode="&#x25ef;" horiz-adv-x="850" 
d="M63 350q0 150 106 256t256 106t256 -106t106 -256t-106 -256t-256 -106t-256 106t-106 256zM740 350q0 131 -92.5 224.5t-222.5 93.5t-222.5 -93.5t-92.5 -224.5t92.5 -224.5t222.5 -93.5t222.5 93.5t92.5 224.5z" />
    <glyph glyph-name="blackcircle" unicode="&#x25cf;" horiz-adv-x="850" 
d="M787 350q0 -148 -107 -255t-255 -107t-255 107t-107 255t107 255t255 107t255 -107t107 -255z" />
    <glyph glyph-name="uni25E2" unicode="&#x25e2;" horiz-adv-x="800" 
d="M43 204l496 496l221 -716z" />
    <glyph glyph-name="uni25E3" unicode="&#x25e3;" horiz-adv-x="800" 
d="M261 700l496 -496l-717 -220z" />
    <glyph glyph-name="uni25E4" unicode="&#x25e4;" horiz-adv-x="800" 
d="M757 480l-496 -496l-221 716z" />
    <glyph glyph-name="uni25E5" unicode="&#x25e5;" horiz-adv-x="800" 
d="M539 -16l-496 496l717 220z" />
    <glyph glyph-name="ballotboxwithx" unicode="&#x2612;" 
d="M66 0v469h469v-469h-469zM107 430v-391h387v391h-387zM300 202l-95 -94l-32 32l95 94l-95 94l32 32l95 -94l95 94l32 -32l-95 -94l95 -94l-32 -32z" />
    <glyph glyph-name="mediumwhitecircle" unicode="&#x26aa;" horiz-adv-x="599" 
d="M53 235q0 102 72.5 174t174.5 72t174 -72t72 -174t-72 -174.5t-174 -72.5t-174.5 72.5t-72.5 174.5zM505 235q0 86 -60 147t-145 61t-145.5 -61t-60.5 -147t60.5 -147t145.5 -61t145 61t60 147z" />
    <glyph glyph-name="mediumblackcircle" unicode="&#x26ab;" 
d="M545 235q0 -102 -72.5 -174.5t-173.5 -72.5t-173.5 72.5t-72.5 174.5q0 101 72.5 173.5t173.5 72.5t173.5 -72.5t72.5 -173.5z" />
    <glyph glyph-name="anglebracketleft" unicode="&#x3008;" horiz-adv-x="285" 
d="M52 307l168 485l50 -14l-156 -471l156 -471l-50 -14z" />
    <glyph glyph-name="anglebracketright" unicode="&#x3009;" horiz-adv-x="285" 
d="M65 792l168 -485l-168 -485l-50 14l156 471l-156 471z" />
    <glyph glyph-name="aogonek.school" unicode="&#xe150;" horiz-adv-x="551" 
d="M465 0h-55v75q-53 -87 -158 -87q-88 0 -146 68.5t-58 178.5t58 178t146 68q105 0 158 -87v75h55v-469zM259 38q53 0 99.5 41.5t46.5 119.5v71q0 78 -46.5 119.5t-99.5 41.5q-68 0 -108.5 -55.5t-40.5 -140.5q0 -86 40.5 -141.5t108.5 -55.5zM374 -108q0 -18 11 -29.5
t31 -11.5q29 0 54 34l22 -23q-34 -52 -90 -52q-29 0 -54 17t-25 58q0 69 87 115h55q-91 -57 -91 -108z" />
    <glyph glyph-name="a.school" unicode="&#xe151;" horiz-adv-x="551" 
d="M465 0h-55v75q-53 -87 -158 -87q-88 0 -146 68.5t-58 178.5t58 178t146 68q105 0 158 -87v75h55v-469zM259 38q53 0 99.5 41.5t46.5 119.5v71q0 78 -46.5 119.5t-99.5 41.5q-68 0 -108.5 -55.5t-40.5 -140.5q0 -86 40.5 -141.5t108.5 -55.5z" />
    <glyph glyph-name="agrave.school" unicode="&#xe152;" horiz-adv-x="551" 
d="M176 637l34 47l147 -120l-23 -32zM465 0h-55v75q-53 -87 -158 -87q-88 0 -146 68.5t-58 178.5t58 178t146 68q105 0 158 -87v75h55v-469zM259 38q53 0 99.5 41.5t46.5 119.5v71q0 78 -46.5 119.5t-99.5 41.5q-68 0 -108.5 -55.5t-40.5 -140.5q0 -86 40.5 -141.5
t108.5 -55.5z" />
    <glyph glyph-name="aacute.school" unicode="&#xe153;" horiz-adv-x="551" 
d="M319 684l34 -47l-158 -105l-23 32zM465 0h-55v75q-53 -87 -158 -87q-88 0 -146 68.5t-58 178.5t58 178t146 68q105 0 158 -87v75h55v-469zM259 38q53 0 99.5 41.5t46.5 119.5v71q0 78 -46.5 119.5t-99.5 41.5q-68 0 -108.5 -55.5t-40.5 -140.5q0 -86 40.5 -141.5
t108.5 -55.5z" />
    <glyph glyph-name="acircumflex.school" unicode="&#xe154;" horiz-adv-x="551" 
d="M132 555l109 130h42l109 -130l-32 -27l-99 108l-98 -108zM465 0h-55v75q-53 -87 -158 -87q-88 0 -146 68.5t-58 178.5t58 178t146 68q105 0 158 -87v75h55v-469zM259 38q53 0 99.5 41.5t46.5 119.5v71q0 78 -46.5 119.5t-99.5 41.5q-68 0 -108.5 -55.5t-40.5 -140.5
q0 -86 40.5 -141.5t108.5 -55.5z" />
    <glyph glyph-name="adieresis.school" unicode="&#xe155;" horiz-adv-x="551" 
d="M309 597q0 19 12.5 31.5t31.5 12.5t31.5 -12.5t12.5 -31.5q0 -18 -12.5 -30.5t-31.5 -12.5t-31.5 12.5t-12.5 30.5zM125 597q0 19 12.5 31.5t31.5 12.5t31.5 -12.5t12.5 -31.5q0 -18 -12.5 -30.5t-31.5 -12.5t-31.5 12.5t-12.5 30.5zM465 0h-55v75q-53 -87 -158 -87
q-88 0 -146 68.5t-58 178.5t58 178t146 68q105 0 158 -87v75h55v-469zM259 38q53 0 99.5 41.5t46.5 119.5v71q0 78 -46.5 119.5t-99.5 41.5q-68 0 -108.5 -55.5t-40.5 -140.5q0 -86 40.5 -141.5t108.5 -55.5z" />
    <glyph glyph-name="atilde.school" unicode="&#xe156;" horiz-adv-x="551" 
d="M195 649q35 0 75 -24.5t61 -24.5q19 0 34 11t21 22l6 11l33 -30q-3 -6 -10 -15.5t-32 -25t-56 -15.5q-36 0 -76 24t-59 24t-34.5 -11t-21.5 -21l-5 -11l-32 29q3 6 9.5 15.5t31 25.5t55.5 16zM465 0h-55v75q-53 -87 -158 -87q-88 0 -146 68.5t-58 178.5t58 178t146 68
q105 0 158 -87v75h55v-469zM259 38q53 0 99.5 41.5t46.5 119.5v71q0 78 -46.5 119.5t-99.5 41.5q-68 0 -108.5 -55.5t-40.5 -140.5q0 -86 40.5 -141.5t108.5 -55.5z" />
    <glyph glyph-name="aring.school" unicode="&#xe157;" horiz-adv-x="551" 
d="M172 611q0 38 25 62t64 24t64 -24t25 -62t-25 -62.5t-64 -24.5t-64 24.5t-25 62.5zM213 611q0 -22 13.5 -37t34.5 -15t34.5 15t13.5 37t-13.5 36.5t-34.5 14.5t-34.5 -14.5t-13.5 -36.5zM465 0h-55v75q-53 -87 -158 -87q-88 0 -146 68.5t-58 178.5t58 178t146 68
q105 0 158 -87v75h55v-469zM259 38q53 0 99.5 41.5t46.5 119.5v71q0 78 -46.5 119.5t-99.5 41.5q-68 0 -108.5 -55.5t-40.5 -140.5q0 -86 40.5 -141.5t108.5 -55.5z" />
    <glyph glyph-name="amacron.school" unicode="&#xe159;" horiz-adv-x="551" 
d="M135 565v45h247v-45h-247zM465 0h-55v75q-53 -87 -158 -87q-88 0 -146 68.5t-58 178.5t58 178t146 68q105 0 158 -87v75h55v-469zM259 38q53 0 99.5 41.5t46.5 119.5v71q0 78 -46.5 119.5t-99.5 41.5q-68 0 -108.5 -55.5t-40.5 -140.5q0 -86 40.5 -141.5t108.5 -55.5z
" />
    <glyph glyph-name="abreve.school" unicode="&#xe15a;" horiz-adv-x="551" 
d="M120 644l49 17q5 -34 31 -57t62 -23t62 23t31 57l49 -17q-11 -48 -49 -76.5t-93 -28.5t-93 28.5t-49 76.5zM465 0h-55v75q-53 -87 -158 -87q-88 0 -146 68.5t-58 178.5t58 178t146 68q105 0 158 -87v75h55v-469zM259 38q53 0 99.5 41.5t46.5 119.5v71q0 78 -46.5 119.5
t-99.5 41.5q-68 0 -108.5 -55.5t-40.5 -140.5q0 -86 40.5 -141.5t108.5 -55.5z" />
    <glyph glyph-name="g.school" unicode="&#xe161;" horiz-adv-x="561" 
d="M415 89q-52 -81 -159 -81q-90 0 -149 65.5t-59 170.5q0 106 59 171.5t149 65.5q109 0 164 -89v77h55v-434q0 -246 -215 -246q-77 0 -124 30t-73 92l55 22q31 -94 142 -94q155 0 155 192v58zM110 244q0 -81 41.5 -133.5t111.5 -52.5q56 0 104 42t48 121v49q0 79 -48 120
t-104 41q-70 0 -111.5 -53t-41.5 -134z" />
    <glyph glyph-name="gcircumflex.school" unicode="&#xe163;" horiz-adv-x="561" 
d="M138 555l109 130h42l109 -130l-32 -27l-99 108l-98 -108zM415 89q-52 -81 -159 -81q-90 0 -149 65.5t-59 170.5q0 106 59 171.5t149 65.5q109 0 164 -89v77h55v-434q0 -246 -215 -246q-77 0 -124 30t-73 92l55 22q31 -94 142 -94q155 0 155 192v58zM110 244
q0 -81 41.5 -133.5t111.5 -52.5q56 0 104 42t48 121v49q0 79 -48 120t-104 41q-70 0 -111.5 -53t-41.5 -134z" />
    <glyph glyph-name="gbreve.school" unicode="&#xe166;" horiz-adv-x="561" 
d="M125 644l49 17q5 -34 31 -57t62 -23t62 23t31 57l49 -17q-11 -48 -49 -76.5t-93 -28.5t-93 28.5t-49 76.5zM415 89q-52 -81 -159 -81q-90 0 -149 65.5t-59 170.5q0 106 59 171.5t149 65.5q109 0 164 -89v77h55v-434q0 -246 -215 -246q-77 0 -124 30t-73 92l55 22
q31 -94 142 -94q155 0 155 192v58zM110 244q0 -81 41.5 -133.5t111.5 -52.5q56 0 104 42t48 121v49q0 79 -48 120t-104 41q-70 0 -111.5 -53t-41.5 -134z" />
    <glyph glyph-name="gdotaccent.school" unicode="&#xe167;" horiz-adv-x="561" 
d="M224 596q0 18 11.5 29.5t29.5 11.5t29.5 -11.5t11.5 -29.5q0 -17 -11.5 -28.5t-29.5 -11.5t-29.5 11.5t-11.5 28.5zM415 89q-52 -81 -159 -81q-90 0 -149 65.5t-59 170.5q0 106 59 171.5t149 65.5q109 0 164 -89v77h55v-434q0 -246 -215 -246q-77 0 -124 30t-73 92l55 22
q31 -94 142 -94q155 0 155 192v58zM110 244q0 -81 41.5 -133.5t111.5 -52.5q56 0 104 42t48 121v49q0 79 -48 120t-104 41q-70 0 -111.5 -53t-41.5 -134z" />
    <glyph glyph-name="gcommaaccent.school" unicode="&#xe168;" horiz-adv-x="561" 
d="M227 596q0 29 15 55t49 33l11 -27q-15 -1 -25.5 -12.5t-10.5 -26.5v-4q2 1 8 1q14 0 24 -10.5t10 -27.5q0 -14 -10.5 -25.5t-27.5 -11.5q-21 0 -32 15.5t-11 40.5zM415 89q-52 -81 -159 -81q-90 0 -149 65.5t-59 170.5q0 106 59 171.5t149 65.5q109 0 164 -89v77h55v-434
q0 -246 -215 -246q-77 0 -124 30t-73 92l55 22q31 -94 142 -94q155 0 155 192v58zM110 244q0 -81 41.5 -133.5t111.5 -52.5q56 0 104 42t48 121v49q0 79 -48 120t-104 41q-70 0 -111.5 -53t-41.5 -134z" />
    <glyph glyph-name="y.school" unicode="&#xe16b;" horiz-adv-x="463" 
d="M444 469l-230 -596q-32 -84 -113 -84q-40 0 -68 15l22 49q23 -13 44 -13q38 0 61 58l43 108l-184 463h65q136 -345 151 -393h2l147 393h60z" />
    <glyph glyph-name="yacute.school" unicode="&#xe16d;" horiz-adv-x="463" 
d="M305 684l34 -47l-158 -105l-23 32zM444 469l-230 -596q-32 -84 -113 -84q-40 0 -68 15l22 49q23 -13 44 -13q38 0 61 58l43 108l-184 463h65q136 -345 151 -393h2l147 393h60z" />
    <glyph glyph-name="ycircumflex.school" unicode="&#xe16e;" horiz-adv-x="463" 
d="M104 555l109 130h42l109 -130l-32 -27l-99 108l-98 -108zM444 469l-230 -596q-32 -84 -113 -84q-40 0 -68 15l22 49q23 -13 44 -13q38 0 61 58l43 108l-184 463h65q136 -345 151 -393h2l147 393h60z" />
    <glyph glyph-name="ydieresis.school" unicode="&#xe16f;" horiz-adv-x="463" 
d="M282 597q0 19 12.5 31.5t31.5 12.5t31.5 -12.5t12.5 -31.5q0 -18 -12.5 -30.5t-31.5 -12.5t-31.5 12.5t-12.5 30.5zM98 597q0 19 12.5 31.5t31.5 12.5t31.5 -12.5t12.5 -31.5q0 -18 -12.5 -30.5t-31.5 -12.5t-31.5 12.5t-12.5 30.5zM444 469l-230 -596q-32 -84 -113 -84
q-40 0 -68 15l22 49q23 -13 44 -13q38 0 61 58l43 108l-184 463h65q136 -345 151 -393h2l147 393h60z" />
    <glyph glyph-name="ordfeminine.school" unicode="&#xe182;" horiz-adv-x="436" 
d="M366 327h-42v59q-42 -68 -125 -68q-69 0 -114 53t-45 139t45 139t114 53q83 0 125 -68v59h42v-366zM204 358q42 0 79 31.5t37 92.5v56q0 61 -37 92.5t-79 31.5q-52 0 -84 -43t-32 -109t32 -109t84 -43z" />
    <glyph glyph-name="p.smcp" unicode="&#xe200;" horiz-adv-x="515" 
d="M287 234h-131v-234h-59v564h190q89 0 138.5 -41t49.5 -123t-51 -124t-137 -42zM415 400q0 60 -34.5 88t-107.5 28h-117v-234h117q142 0 142 118z" />
    <glyph glyph-name="p.smcp" unicode="&#xf770;" horiz-adv-x="515" 
d="M287 234h-131v-234h-59v564h190q89 0 138.5 -41t49.5 -123t-51 -124t-137 -42zM415 400q0 60 -34.5 88t-107.5 28h-117v-234h117q142 0 142 118z" />
    <glyph glyph-name="a.smcp" unicode="&#xe201;" horiz-adv-x="505" 
d="M278 564l206 -564h-61l-58 160h-229l-58 -160h-57l206 564h51zM251 485h-2l-96 -278h195q-80 229 -97 278z" />
    <glyph glyph-name="a.smcp" unicode="&#xf761;" horiz-adv-x="505" 
d="M278 564l206 -564h-61l-58 160h-229l-58 -160h-57l206 564h51zM251 485h-2l-96 -278h195q-80 229 -97 278z" />
    <glyph glyph-name="b.smcp" unicode="&#xe202;" horiz-adv-x="534" 
d="M97 0v564h186q86 0 129.5 -36t43.5 -103q0 -100 -95 -132q51 -7 84.5 -41t33.5 -92q0 -72 -50 -116t-137 -44h-195zM275 517h-119v-203h111q62 0 96 28.5t34 78.5q0 96 -122 96zM156 268v-221h118q78 0 112 31.5t34 79.5q0 110 -149 110h-115z" />
    <glyph glyph-name="b.smcp" unicode="&#xf762;" horiz-adv-x="534" 
d="M97 0v564h186q86 0 129.5 -36t43.5 -103q0 -100 -95 -132q51 -7 84.5 -41t33.5 -92q0 -72 -50 -116t-137 -44h-195zM275 517h-119v-203h111q62 0 96 28.5t34 78.5q0 96 -122 96zM156 268v-221h118q78 0 112 31.5t34 79.5q0 110 -149 110h-115z" />
    <glyph glyph-name="c.smcp" unicode="&#xe203;" horiz-adv-x="555" 
d="M62 282q0 132 67 212.5t182 80.5q150 0 208 -144l-54 -21q-46 116 -158 116q-86 0 -135 -66.5t-49 -177.5t49 -178t135 -67q113 0 158 116l54 -21q-61 -144 -209 -144q-115 0 -181.5 81t-66.5 213z" />
    <glyph glyph-name="c.smcp" unicode="&#xf763;" horiz-adv-x="555" 
d="M62 282q0 132 67 212.5t182 80.5q150 0 208 -144l-54 -21q-46 116 -158 116q-86 0 -135 -66.5t-49 -177.5t49 -178t135 -67q113 0 158 116l54 -21q-61 -144 -209 -144q-115 0 -181.5 81t-66.5 213z" />
    <glyph glyph-name="d.smcp" unicode="&#xe204;" horiz-adv-x="597" 
d="M97 0v564h181q120 0 188.5 -75t68.5 -207t-68.5 -207t-188.5 -75h-181zM474 282q0 109 -50.5 171.5t-152.5 62.5h-115v-468h115q102 0 152.5 62.5t50.5 171.5z" />
    <glyph glyph-name="d.smcp" unicode="&#xf764;" horiz-adv-x="597" 
d="M97 0v564h181q120 0 188.5 -75t68.5 -207t-68.5 -207t-188.5 -75h-181zM474 282q0 109 -50.5 171.5t-152.5 62.5h-115v-468h115q102 0 152.5 62.5t50.5 171.5z" />
    <glyph glyph-name="e.smcp" unicode="&#xe205;" horiz-adv-x="478" 
d="M425 0h-328v564h322v-48h-263v-201h246v-48h-246v-219h269v-48z" />
    <glyph glyph-name="e.smcp" unicode="&#xf765;" horiz-adv-x="478" 
d="M425 0h-328v564h322v-48h-263v-201h246v-48h-246v-219h269v-48z" />
    <glyph glyph-name="f.smcp" unicode="&#xe206;" horiz-adv-x="469" 
d="M156 0h-59v564h322v-48h-263v-201h247v-48h-247v-267z" />
    <glyph glyph-name="f.smcp" unicode="&#xf766;" horiz-adv-x="469" 
d="M156 0h-59v564h322v-48h-263v-201h247v-48h-247v-267z" />
    <glyph glyph-name="g.smcp" unicode="&#xe207;" horiz-adv-x="604" 
d="M299 227v47h225v-274h-54v62q-19 -29 -60 -51.5t-101 -22.5q-115 0 -181 81.5t-66 212.5t68 212t185 81q151 0 211 -144l-54 -21q-47 116 -161 116q-88 0 -138 -66t-50 -180q0 -113 49.5 -178t138.5 -65q69 0 112 37t43 104v49h-167z" />
    <glyph glyph-name="g.smcp" unicode="&#xf767;" horiz-adv-x="604" 
d="M299 227v47h225v-274h-54v62q-19 -29 -60 -51.5t-101 -22.5q-115 0 -181 81.5t-66 212.5t68 212t185 81q151 0 211 -144l-54 -21q-47 116 -161 116q-88 0 -138 -66t-50 -180q0 -113 49.5 -178t138.5 -65q69 0 112 37t43 104v49h-167z" />
    <glyph glyph-name="h.smcp" unicode="&#xe208;" horiz-adv-x="601" 
d="M97 0v564h59v-248h289v248h59v-564h-59v268h-289v-268h-59z" />
    <glyph glyph-name="h.smcp" unicode="&#xf768;" horiz-adv-x="601" 
d="M97 0v564h59v-248h289v248h59v-564h-59v268h-289v-268h-59z" />
    <glyph glyph-name="i.smcp" unicode="&#xe209;" horiz-adv-x="253" 
d="M97 0v564h59v-564h-59z" />
    <glyph glyph-name="i.smcp" unicode="&#xf769;" horiz-adv-x="253" 
d="M97 0v564h59v-564h-59z" />
    <glyph glyph-name="j.smcp" unicode="&#xe20a;" horiz-adv-x="359" 
d="M127 36q46 0 65.5 35t19.5 111v382h59v-381q0 -44 -5.5 -76t-20 -61t-44 -43.5t-72.5 -14.5q-76 0 -125 62l38 38q42 -52 85 -52z" />
    <glyph glyph-name="j.smcp" unicode="&#xf76a;" horiz-adv-x="359" 
d="M127 36q46 0 65.5 35t19.5 111v382h59v-381q0 -44 -5.5 -76t-20 -61t-44 -43.5t-72.5 -14.5q-76 0 -125 62l38 38q42 -52 85 -52z" />
    <glyph glyph-name="k.smcp" unicode="&#xe20b;" horiz-adv-x="518" 
d="M433 0l-209 295l-68 -69v-226h-59v564h59v-266l259 266h72l-222 -229l239 -335h-71z" />
    <glyph glyph-name="k.smcp" unicode="&#xf76b;" horiz-adv-x="518" 
d="M433 0l-209 295l-68 -69v-226h-59v564h59v-266l259 266h72l-222 -229l239 -335h-71z" />
    <glyph glyph-name="l.smcp" unicode="&#xe20c;" horiz-adv-x="432" 
d="M97 0v564h59v-516h253v-48h-312z" />
    <glyph glyph-name="l.smcp" unicode="&#xf76c;" horiz-adv-x="432" 
d="M97 0v564h59v-516h253v-48h-312z" />
    <glyph glyph-name="m.smcp" unicode="&#xe20d;" horiz-adv-x="726" 
d="M388 0h-49q-121 290 -186 484h-2v-484h-54v564h79q165 -428 190 -494l185 494h78v-564h-54v484h-2q-75 -219 -185 -484z" />
    <glyph glyph-name="m.smcp" unicode="&#xf76d;" horiz-adv-x="726" 
d="M388 0h-49q-121 290 -186 484h-2v-484h-54v564h79q165 -428 190 -494l185 494h78v-564h-54v484h-2q-75 -219 -185 -484z" />
    <glyph glyph-name="n.smcp" unicode="&#xe20e;" horiz-adv-x="625" 
d="M97 0v564h64q248 -380 310 -476h2v476h55v-564h-64q-241 369 -310 476h-1v-476h-56z" />
    <glyph glyph-name="n.smcp" unicode="&#xf76e;" horiz-adv-x="625" 
d="M97 0v564h64q248 -380 310 -476h2v476h55v-564h-64q-241 369 -310 476h-1v-476h-56z" />
    <glyph glyph-name="o.smcp" unicode="&#xe20f;" horiz-adv-x="619" 
d="M62 282q0 134 68 213.5t179 79.5t179.5 -79.5t68.5 -213.5t-68.5 -214t-179.5 -80t-179 80t-68 214zM123 282q0 -107 48.5 -176t137.5 -69q90 0 138.5 68.5t48.5 176.5q0 107 -48.5 175.5t-138.5 68.5q-89 0 -137.5 -68.5t-48.5 -175.5z" />
    <glyph glyph-name="o.smcp" unicode="&#xf76f;" horiz-adv-x="619" 
d="M62 282q0 134 68 213.5t179 79.5t179.5 -79.5t68.5 -213.5t-68.5 -214t-179.5 -80t-179 80t-68 214zM123 282q0 -107 48.5 -176t137.5 -69q90 0 138.5 68.5t48.5 176.5q0 107 -48.5 175.5t-138.5 68.5q-89 0 -137.5 -68.5t-48.5 -175.5z" />
    <glyph glyph-name="q.smcp" unicode="&#xe211;" horiz-adv-x="619" 
d="M494 -54l-68 71q-52 -29 -117 -29q-111 0 -179 80t-68 214t68 213.5t179 79.5t179.5 -79.5t68.5 -213.5q0 -157 -92 -238l64 -66zM123 282q0 -107 48.5 -176t137.5 -69q45 0 80 18l-56 60l34 32l61 -64q68 66 68 199q0 107 -48.5 175.5t-138.5 68.5q-89 0 -137.5 -68.5
t-48.5 -175.5z" />
    <glyph glyph-name="q.smcp" unicode="&#xf771;" horiz-adv-x="619" 
d="M494 -54l-68 71q-52 -29 -117 -29q-111 0 -179 80t-68 214t68 213.5t179 79.5t179.5 -79.5t68.5 -213.5q0 -157 -92 -238l64 -66zM123 282q0 -107 48.5 -176t137.5 -69q45 0 80 18l-56 60l34 32l61 -64q68 66 68 199q0 107 -48.5 175.5t-138.5 68.5q-89 0 -137.5 -68.5
t-48.5 -175.5z" />
    <glyph glyph-name="r.smcp" unicode="&#xe212;" horiz-adv-x="540" 
d="M475 414q0 -63 -36.5 -104.5t-98.5 -53.5l157 -256h-71l-151 252h-119v-252h-59v564h192q33 0 63 -7t59 -22.5t46.5 -46.5t17.5 -74zM415 412q0 104 -142 104h-117v-216h129q67 0 98.5 31t31.5 81z" />
    <glyph glyph-name="r.smcp" unicode="&#xf772;" horiz-adv-x="540" 
d="M475 414q0 -63 -36.5 -104.5t-98.5 -53.5l157 -256h-71l-151 252h-119v-252h-59v564h192q33 0 63 -7t59 -22.5t46.5 -46.5t17.5 -74zM415 412q0 104 -142 104h-117v-216h129q67 0 98.5 31t31.5 81z" />
    <glyph glyph-name="s.smcp" unicode="&#xe213;" horiz-adv-x="523" 
d="M130 424q0 -47 32 -71.5t111 -36.5q99 -15 147 -52t48 -109q0 -73 -55 -120t-148 -47q-97 0 -150.5 46.5t-57.5 120.5l58 9q3 -55 40 -91.5t112 -36.5q64 0 102 32t38 83q0 48 -33.5 73.5t-113.5 37.5q-99 15 -145 51t-46 107q0 70 51.5 112.5t137.5 42.5
q82 0 132.5 -39.5t60.5 -107.5l-57 -15q-17 114 -139 114q-62 0 -93.5 -28t-31.5 -75z" />
    <glyph glyph-name="s.smcp" unicode="&#xf773;" horiz-adv-x="523" 
d="M130 424q0 -47 32 -71.5t111 -36.5q99 -15 147 -52t48 -109q0 -73 -55 -120t-148 -47q-97 0 -150.5 46.5t-57.5 120.5l58 9q3 -55 40 -91.5t112 -36.5q64 0 102 32t38 83q0 48 -33.5 73.5t-113.5 37.5q-99 15 -145 51t-46 107q0 70 51.5 112.5t137.5 42.5
q82 0 132.5 -39.5t60.5 -107.5l-57 -15q-17 114 -139 114q-62 0 -93.5 -28t-31.5 -75z" />
    <glyph glyph-name="t.smcp" unicode="&#xe214;" horiz-adv-x="447" 
d="M25 516v48h397v-48h-169v-516h-59v516h-169z" />
    <glyph glyph-name="t.smcp" unicode="&#xf774;" horiz-adv-x="447" 
d="M25 516v48h397v-48h-169v-516h-59v516h-169z" />
    <glyph glyph-name="u.smcp" unicode="&#xe215;" horiz-adv-x="579" 
d="M290 -12q-202 0 -202 209v367h59v-372q0 -66 33.5 -110.5t109.5 -44.5t109 44t33 111v372h59v-367q0 -209 -201 -209z" />
    <glyph glyph-name="u.smcp" unicode="&#xf775;" horiz-adv-x="579" 
d="M290 -12q-202 0 -202 209v367h59v-372q0 -66 33.5 -110.5t109.5 -44.5t109 44t33 111v372h59v-367q0 -209 -201 -209z" />
    <glyph glyph-name="v.smcp" unicode="&#xe216;" horiz-adv-x="503" 
d="M19 564h62q124 -340 171 -485h2q20 64 63 185.5t76 210.5l33 89h58l-207 -564h-52z" />
    <glyph glyph-name="v.smcp" unicode="&#xf776;" horiz-adv-x="503" 
d="M19 564h62q124 -340 171 -485h2q20 64 63 185.5t76 210.5l33 89h58l-207 -564h-52z" />
    <glyph glyph-name="w.smcp" unicode="&#xe217;" horiz-adv-x="736" 
d="M665 564h52l-160 -564h-55q-105 361 -133 478h-1q-13 -52 -46.5 -171.5t-60.5 -212.5l-27 -94h-55l-160 564h59q103 -368 130 -486h2q12 52 45.5 173.5t60.5 216.5l28 96h53q108 -383 132 -486h2q11 46 44.5 167.5t61.5 220.5z" />
    <glyph glyph-name="w.smcp" unicode="&#xf777;" horiz-adv-x="736" 
d="M665 564h52l-160 -564h-55q-105 361 -133 478h-1q-13 -52 -46.5 -171.5t-60.5 -212.5l-27 -94h-55l-160 564h59q103 -368 130 -486h2q12 52 45.5 173.5t60.5 216.5l28 96h53q108 -383 132 -486h2q11 46 44.5 167.5t61.5 220.5z" />
    <glyph glyph-name="x.smcp" unicode="&#xe218;" horiz-adv-x="521" 
d="M479 564l-186 -267l209 -297h-69l-174 250l-174 -250h-66l207 295l-187 269h70l152 -221l152 221h66z" />
    <glyph glyph-name="x.smcp" unicode="&#xf778;" horiz-adv-x="521" 
d="M479 564l-186 -267l209 -297h-69l-174 250l-174 -250h-66l207 295l-187 269h70l152 -221l152 221h66z" />
    <glyph glyph-name="y.smcp" unicode="&#xe219;" horiz-adv-x="491" 
d="M216 0v249l-204 315h67l168 -263l169 263h63l-204 -315v-249h-59z" />
    <glyph glyph-name="y.smcp" unicode="&#xf779;" horiz-adv-x="491" 
d="M216 0v249l-204 315h67l168 -263l169 263h63l-204 -315v-249h-59z" />
    <glyph glyph-name="z.smcp" unicode="&#xe21a;" horiz-adv-x="510" 
d="M57 516v48h404v-40l-338 -476h337v-48h-411v39l340 477h-332z" />
    <glyph glyph-name="z.smcp" unicode="&#xf77a;" horiz-adv-x="510" 
d="M57 516v48h404v-40l-338 -476h337v-48h-411v39l340 477h-332z" />
    <glyph glyph-name="anocross.smcp" unicode="&#xe220;" horiz-adv-x="505" 
d="M423 0q-140 385 -172 484h-2l-171 -484h-57l206 564h51l206 -564h-61z" />
    <glyph glyph-name="aacute.smcp" unicode="&#xe221;" horiz-adv-x="505" 
d="M318 762l34 -47l-158 -105l-23 32zM278 564l206 -564h-61l-58 160h-229l-58 -160h-57l206 564h51zM251 485h-2l-96 -278h195q-80 229 -97 278z" />
    <glyph glyph-name="aacute.smcp" unicode="&#xf7e1;" horiz-adv-x="505" 
d="M318 762l34 -47l-158 -105l-23 32zM278 564l206 -564h-61l-58 160h-229l-58 -160h-57l206 564h51zM251 485h-2l-96 -278h195q-80 229 -97 278z" />
    <glyph glyph-name="agrave.smcp" unicode="&#xe222;" horiz-adv-x="505" 
d="M155 715l34 47l147 -120l-23 -32zM278 564l206 -564h-61l-58 160h-229l-58 -160h-57l206 564h51zM251 485h-2l-96 -278h195q-80 229 -97 278z" />
    <glyph glyph-name="agrave.smcp" unicode="&#xf7e0;" horiz-adv-x="505" 
d="M155 715l34 47l147 -120l-23 -32zM278 564l206 -564h-61l-58 160h-229l-58 -160h-57l206 564h51zM251 485h-2l-96 -278h195q-80 229 -97 278z" />
    <glyph glyph-name="acircumflex.smcp" unicode="&#xe223;" horiz-adv-x="505" 
d="M124 635l109 130h42l109 -130l-32 -27l-99 108l-98 -108zM278 564l206 -564h-61l-58 160h-229l-58 -160h-57l206 564h51zM251 485h-2l-96 -278h195q-80 229 -97 278z" />
    <glyph glyph-name="acircumflex.smcp" unicode="&#xf7e2;" horiz-adv-x="505" 
d="M124 635l109 130h42l109 -130l-32 -27l-99 108l-98 -108zM278 564l206 -564h-61l-58 160h-229l-58 -160h-57l206 564h51zM251 485h-2l-96 -278h195q-80 229 -97 278z" />
    <glyph glyph-name="adieresis.smcp" unicode="&#xe224;" horiz-adv-x="505" 
d="M302 669q0 19 12.5 31.5t31.5 12.5t31.5 -12.5t12.5 -31.5q0 -18 -12.5 -30.5t-31.5 -12.5t-31.5 12.5t-12.5 30.5zM118 669q0 19 12.5 31.5t31.5 12.5t31.5 -12.5t12.5 -31.5q0 -18 -12.5 -30.5t-31.5 -12.5t-31.5 12.5t-12.5 30.5zM278 564l206 -564h-61l-58 160h-229
l-58 -160h-57l206 564h51zM251 485h-2l-96 -278h195q-80 229 -97 278z" />
    <glyph glyph-name="adieresis.smcp" unicode="&#xf7e4;" horiz-adv-x="505" 
d="M302 669q0 19 12.5 31.5t31.5 12.5t31.5 -12.5t12.5 -31.5q0 -18 -12.5 -30.5t-31.5 -12.5t-31.5 12.5t-12.5 30.5zM118 669q0 19 12.5 31.5t31.5 12.5t31.5 -12.5t12.5 -31.5q0 -18 -12.5 -30.5t-31.5 -12.5t-31.5 12.5t-12.5 30.5zM278 564l206 -564h-61l-58 160h-229
l-58 -160h-57l206 564h51zM251 485h-2l-96 -278h195q-80 229 -97 278z" />
    <glyph glyph-name="atilde.smcp" unicode="&#xe225;" horiz-adv-x="505" 
d="M184 716q35 0 75 -24.5t61 -24.5q19 0 34 11t21 22l6 11l33 -30q-3 -6 -10 -15.5t-32 -25t-56 -15.5q-36 0 -76 24t-59 24t-34.5 -10.5t-20.5 -21.5l-6 -11l-32 29q3 6 9.5 15.5t31 25.5t55.5 16zM278 564l206 -564h-61l-58 160h-229l-58 -160h-57l206 564h51zM251 485
h-2l-96 -278h195q-80 229 -97 278z" />
    <glyph glyph-name="atilde.smcp" unicode="&#xf7e3;" horiz-adv-x="505" 
d="M184 716q35 0 75 -24.5t61 -24.5q19 0 34 11t21 22l6 11l33 -30q-3 -6 -10 -15.5t-32 -25t-56 -15.5q-36 0 -76 24t-59 24t-34.5 -10.5t-20.5 -21.5l-6 -11l-32 29q3 6 9.5 15.5t31 25.5t55.5 16zM278 564l206 -564h-61l-58 160h-229l-58 -160h-57l206 564h51zM251 485
h-2l-96 -278h195q-80 229 -97 278z" />
    <glyph glyph-name="aring.smcp" unicode="&#xe226;" horiz-adv-x="505" 
d="M165 693q0 38 25 62t64 24t64 -24t25 -62t-25 -62.5t-64 -24.5t-64 24.5t-25 62.5zM206 693q0 -22 13.5 -37t34.5 -15t34.5 15t13.5 37t-13.5 36.5t-34.5 14.5t-34.5 -14.5t-13.5 -36.5zM278 564l206 -564h-61l-58 160h-229l-58 -160h-57l206 564h51zM251 485h-2
l-96 -278h195q-80 229 -97 278z" />
    <glyph glyph-name="aring.smcp" unicode="&#xf7e5;" horiz-adv-x="505" 
d="M165 693q0 38 25 62t64 24t64 -24t25 -62t-25 -62.5t-64 -24.5t-64 24.5t-25 62.5zM206 693q0 -22 13.5 -37t34.5 -15t34.5 15t13.5 37t-13.5 36.5t-34.5 14.5t-34.5 -14.5t-13.5 -36.5zM278 564l206 -564h-61l-58 160h-229l-58 -160h-57l206 564h51zM251 485h-2
l-96 -278h195q-80 229 -97 278z" />
    <glyph glyph-name="amacron.smcp" unicode="&#xe228;" horiz-adv-x="505" 
d="M129 634v45h247v-45h-247zM278 564l206 -564h-61l-58 160h-229l-58 -160h-57l206 564h51zM251 485h-2l-96 -278h195q-80 229 -97 278z" />
    <glyph glyph-name="amacron.smcp" unicode="&#xf641;" horiz-adv-x="505" 
d="M129 634v45h247v-45h-247zM278 564l206 -564h-61l-58 160h-229l-58 -160h-57l206 564h51zM251 485h-2l-96 -278h195q-80 229 -97 278z" />
    <glyph glyph-name="abreve.smcp" unicode="&#xe229;" horiz-adv-x="505" 
d="M111 724l49 17q5 -34 31 -57t62 -23t62 23t31 57l49 -17q-11 -48 -49 -76.5t-93 -28.5t-93 28.5t-49 76.5zM278 564l206 -564h-61l-58 160h-229l-58 -160h-57l206 564h51zM251 485h-2l-96 -278h195q-80 229 -97 278z" />
    <glyph glyph-name="abreve.smcp" unicode="&#xf640;" horiz-adv-x="505" 
d="M111 724l49 17q5 -34 31 -57t62 -23t62 23t31 57l49 -17q-11 -48 -49 -76.5t-93 -28.5t-93 28.5t-49 76.5zM278 564l206 -564h-61l-58 160h-229l-58 -160h-57l206 564h51zM251 485h-2l-96 -278h195q-80 229 -97 278z" />
    <glyph glyph-name="f_f_j" unicode="&#xe22a;" horiz-adv-x="797" 
d="M22 469h81v94q0 72 38.5 108t99.5 36q59 0 103 -29l-27 -47q-38 25 -73 25q-38 0 -59.5 -25t-21.5 -69v-93h219v63q0 92 49 136t119 44q101 0 144 -82l-45 -33q-39 64 -101 64q-49 0 -77.5 -35.5t-28.5 -96.5v-60h269v-538q0 -67 -33.5 -104.5t-97.5 -37.5q-57 0 -99 27
l28 50q33 -25 70 -25q34 0 53 23.5t19 66.5v491h-209v-422h-60v422h-219v-422h-60v422h-81v47z" />
    <glyph glyph-name="f_f_j" unicode="&#xe384;" horiz-adv-x="797" 
d="M22 469h81v94q0 72 38.5 108t99.5 36q59 0 103 -29l-27 -47q-38 25 -73 25q-38 0 -59.5 -25t-21.5 -69v-93h219v63q0 92 49 136t119 44q101 0 144 -82l-45 -33q-39 64 -101 64q-49 0 -77.5 -35.5t-28.5 -96.5v-60h269v-538q0 -67 -33.5 -104.5t-97.5 -37.5q-57 0 -99 27
l28 50q33 -25 70 -25q34 0 53 23.5t19 66.5v491h-209v-422h-60v422h-219v-422h-60v422h-81v47z" />
    <glyph glyph-name="f_f_k" unicode="&#xe22b;" horiz-adv-x="1054" 
d="M22 469h81v94q0 71 38 107.5t98 36.5q59 0 101 -29l-27 -47q-34 25 -71 25t-58 -25t-21 -69v-93h219v99q0 71 36 107.5t91 36.5q57 0 94 -29l-27 -47q-31 25 -64 25q-32 0 -51 -25.5t-19 -68.5v-98h107v-47h-107v-422h-60v422h-219v-422h-60v422h-81v47zM977 0l-187 262
l-63 -59v-203h-60v700h60v-427l213 196h75l-181 -170l215 -299h-72z" />
    <glyph glyph-name="f_f_k" unicode="&#xe385;" horiz-adv-x="1054" 
d="M22 469h81v94q0 71 38 107.5t98 36.5q59 0 101 -29l-27 -47q-34 25 -71 25t-58 -25t-21 -69v-93h219v99q0 71 36 107.5t91 36.5q57 0 94 -29l-27 -47q-31 25 -64 25q-32 0 -51 -25.5t-19 -68.5v-98h107v-47h-107v-422h-60v422h-219v-422h-60v422h-81v47zM977 0l-187 262
l-63 -59v-203h-60v700h60v-427l213 196h75l-181 -170l215 -299h-72z" />
    <glyph glyph-name="aogonek.smcp" unicode="&#xe22f;" horiz-adv-x="505" 
d="M390 -108q0 -18 11 -29.5t31 -11.5q29 0 54 34l22 -23q-34 -52 -90 -52q-29 0 -54 17t-25 58q0 66 84 115l-58 160h-229l-58 -160h-57l206 564h51l206 -564q-94 -55 -94 -108zM251 485h-2l-96 -278h195q-80 229 -97 278z" />
    <glyph glyph-name="aogonek.smcp" unicode="&#xf642;" horiz-adv-x="505" 
d="M390 -108q0 -18 11 -29.5t31 -11.5q29 0 54 34l22 -23q-34 -52 -90 -52q-29 0 -54 17t-25 58q0 66 84 115l-58 160h-229l-58 -160h-57l206 564h51l206 -564q-94 -55 -94 -108zM251 485h-2l-96 -278h195q-80 229 -97 278z" />
    <glyph glyph-name="edieresis.smcp" unicode="&#xe230;" horiz-adv-x="478" 
d="M307 669q0 19 12.5 31.5t31.5 12.5t31.5 -12.5t12.5 -31.5q0 -18 -12.5 -30.5t-31.5 -12.5t-31.5 12.5t-12.5 30.5zM123 669q0 19 12.5 31.5t31.5 12.5t31.5 -12.5t12.5 -31.5q0 -18 -12.5 -30.5t-31.5 -12.5t-31.5 12.5t-12.5 30.5zM425 0h-328v564h322v-48h-263v-201
h246v-48h-246v-219h269v-48z" />
    <glyph glyph-name="edieresis.smcp" unicode="&#xf7eb;" horiz-adv-x="478" 
d="M307 669q0 19 12.5 31.5t31.5 12.5t31.5 -12.5t12.5 -31.5q0 -18 -12.5 -30.5t-31.5 -12.5t-31.5 12.5t-12.5 30.5zM123 669q0 19 12.5 31.5t31.5 12.5t31.5 -12.5t12.5 -31.5q0 -18 -12.5 -30.5t-31.5 -12.5t-31.5 12.5t-12.5 30.5zM425 0h-328v564h322v-48h-263v-201
h246v-48h-246v-219h269v-48z" />
    <glyph glyph-name="ae.smcp" unicode="&#xe231;" horiz-adv-x="751" 
d="M698 0h-328v160h-198l-94 -160h-61l329 564h346v-48h-263v-201h246v-48h-246v-219h269v-48zM367 501l-169 -295h172v295h-3z" />
    <glyph glyph-name="ae.smcp" unicode="&#xf7e6;" horiz-adv-x="751" 
d="M698 0h-328v160h-198l-94 -160h-61l329 564h346v-48h-263v-201h246v-48h-246v-219h269v-48zM367 501l-169 -295h172v295h-3z" />
    <glyph glyph-name="cacute.smcp" unicode="&#xe234;" horiz-adv-x="555" 
d="M365 762l34 -47l-158 -105l-23 32zM62 282q0 132 67 212.5t182 80.5q150 0 208 -144l-54 -21q-46 116 -158 116q-86 0 -135 -66.5t-49 -177.5t49 -178t135 -67q113 0 158 116l54 -21q-61 -144 -209 -144q-115 0 -181.5 81t-66.5 213z" />
    <glyph glyph-name="cacute.smcp" unicode="&#xf643;" horiz-adv-x="555" 
d="M365 762l34 -47l-158 -105l-23 32zM62 282q0 132 67 212.5t182 80.5q150 0 208 -144l-54 -21q-46 116 -158 116q-86 0 -135 -66.5t-49 -177.5t49 -178t135 -67q113 0 158 116l54 -21q-61 -144 -209 -144q-115 0 -181.5 81t-66.5 213z" />
    <glyph glyph-name="ccircumflex.smcp" unicode="&#xe235;" horiz-adv-x="555" 
d="M179 635l109 130h42l109 -130l-32 -27l-99 108l-98 -108zM62 282q0 132 67 212.5t182 80.5q150 0 208 -144l-54 -21q-46 116 -158 116q-86 0 -135 -66.5t-49 -177.5t49 -178t135 -67q113 0 158 116l54 -21q-61 -144 -209 -144q-115 0 -181.5 81t-66.5 213z" />
    <glyph glyph-name="ccircumflex.smcp" unicode="&#xf628;" horiz-adv-x="555" 
d="M179 635l109 130h42l109 -130l-32 -27l-99 108l-98 -108zM62 282q0 132 67 212.5t182 80.5q150 0 208 -144l-54 -21q-46 116 -158 116q-86 0 -135 -66.5t-49 -177.5t49 -178t135 -67q113 0 158 116l54 -21q-61 -144 -209 -144q-115 0 -181.5 81t-66.5 213z" />
    <glyph glyph-name="ccaron.smcp" unicode="&#xe236;" horiz-adv-x="555" 
d="M439 742l-109 -130h-42l-109 130l32 27l99 -108l98 108zM62 282q0 132 67 212.5t182 80.5q150 0 208 -144l-54 -21q-46 116 -158 116q-86 0 -135 -66.5t-49 -177.5t49 -178t135 -67q113 0 158 116l54 -21q-61 -144 -209 -144q-115 0 -181.5 81t-66.5 213z" />
    <glyph glyph-name="ccaron.smcp" unicode="&#xf644;" horiz-adv-x="555" 
d="M439 742l-109 -130h-42l-109 130l32 27l99 -108l98 108zM62 282q0 132 67 212.5t182 80.5q150 0 208 -144l-54 -21q-46 116 -158 116q-86 0 -135 -66.5t-49 -177.5t49 -178t135 -67q113 0 158 116l54 -21q-61 -144 -209 -144q-115 0 -181.5 81t-66.5 213z" />
    <glyph glyph-name="cdotaccent.smcp" unicode="&#xe237;" horiz-adv-x="555" 
d="M272 666q0 18 11.5 29.5t29.5 11.5t29.5 -11.5t11.5 -29.5q0 -17 -11.5 -28.5t-29.5 -11.5t-29.5 11.5t-11.5 28.5zM62 282q0 132 67 212.5t182 80.5q150 0 208 -144l-54 -21q-46 116 -158 116q-86 0 -135 -66.5t-49 -177.5t49 -178t135 -67q113 0 158 116l54 -21
q-61 -144 -209 -144q-115 0 -181.5 81t-66.5 213z" />
    <glyph glyph-name="cdotaccent.smcp" unicode="&#xf629;" horiz-adv-x="555" 
d="M272 666q0 18 11.5 29.5t29.5 11.5t29.5 -11.5t11.5 -29.5q0 -17 -11.5 -28.5t-29.5 -11.5t-29.5 11.5t-11.5 28.5zM62 282q0 132 67 212.5t182 80.5q150 0 208 -144l-54 -21q-46 116 -158 116q-86 0 -135 -66.5t-49 -177.5t49 -178t135 -67q113 0 158 116l54 -21
q-61 -144 -209 -144q-115 0 -181.5 81t-66.5 213z" />
    <glyph glyph-name="ccedilla.smcp" unicode="&#xe238;" horiz-adv-x="555" 
d="M235 -192l24 34q24 -19 50 -19q18 0 30.5 12.5t12.5 32.5t-11.5 31.5t-30.5 11.5q-20 0 -37 -13l-25 24l27 68q-100 12 -156.5 91t-56.5 201q0 132 67 212.5t182 80.5q150 0 208 -144l-54 -21q-46 116 -158 116q-86 0 -135 -66.5t-49 -177.5t49 -178t135 -67
q113 0 158 116l54 -21q-61 -143 -208 -144l-18 -48q13 9 31 9q30 0 53 -19.5t23 -59.5t-25 -63.5t-66 -23.5q-47 0 -74 25z" />
    <glyph glyph-name="ccedilla.smcp" unicode="&#xf7e7;" horiz-adv-x="555" 
d="M235 -192l24 34q24 -19 50 -19q18 0 30.5 12.5t12.5 32.5t-11.5 31.5t-30.5 11.5q-20 0 -37 -13l-25 24l27 68q-100 12 -156.5 91t-56.5 201q0 132 67 212.5t182 80.5q150 0 208 -144l-54 -21q-46 116 -158 116q-86 0 -135 -66.5t-49 -177.5t49 -178t135 -67
q113 0 158 116l54 -21q-61 -143 -208 -144l-18 -48q13 9 31 9q30 0 53 -19.5t23 -59.5t-25 -63.5t-66 -23.5q-47 0 -74 25z" />
    <glyph glyph-name="dcaron.smcp" unicode="&#xe239;" horiz-adv-x="597" 
d="M406 742l-109 -130h-42l-109 130l32 27l99 -108l98 108zM97 0v564h181q120 0 188.5 -75t68.5 -207t-68.5 -207t-188.5 -75h-181zM474 282q0 109 -50.5 171.5t-152.5 62.5h-115v-468h115q102 0 152.5 62.5t50.5 171.5z" />
    <glyph glyph-name="dcaron.smcp" unicode="&#xf645;" horiz-adv-x="597" 
d="M406 742l-109 -130h-42l-109 130l32 27l99 -108l98 108zM97 0v564h181q120 0 188.5 -75t68.5 -207t-68.5 -207t-188.5 -75h-181zM474 282q0 109 -50.5 171.5t-152.5 62.5h-115v-468h115q102 0 152.5 62.5t50.5 171.5z" />
    <glyph glyph-name="dcroat.smcp" unicode="&#xe23c;" horiz-adv-x="611" 
d="M36 316h75v248h181q120 0 188.5 -75t68.5 -207t-68.5 -207t-188.5 -75h-181v273h-75v43zM488 282q0 109 -50.5 171.5t-152.5 62.5h-115v-200h154v-43h-154v-225h115q102 0 152.5 62.5t50.5 171.5z" />
    <glyph glyph-name="dcroat.smcp" unicode="&#xf646;" horiz-adv-x="611" 
d="M36 316h75v248h181q120 0 188.5 -75t68.5 -207t-68.5 -207t-188.5 -75h-181v273h-75v43zM488 282q0 109 -50.5 171.5t-152.5 62.5h-115v-200h154v-43h-154v-225h115q102 0 152.5 62.5t50.5 171.5z" />
    <glyph glyph-name="eacute.smcp" unicode="&#xe23d;" horiz-adv-x="478" 
d="M321 762l34 -47l-158 -105l-23 32zM425 0h-328v564h322v-48h-263v-201h246v-48h-246v-219h269v-48z" />
    <glyph glyph-name="eacute.smcp" unicode="&#xf7e9;" horiz-adv-x="478" 
d="M321 762l34 -47l-158 -105l-23 32zM425 0h-328v564h322v-48h-263v-201h246v-48h-246v-219h269v-48z" />
    <glyph glyph-name="egrave.smcp" unicode="&#xe23e;" horiz-adv-x="478" 
d="M162 715l34 47l147 -120l-23 -32zM425 0h-328v564h322v-48h-263v-201h246v-48h-246v-219h269v-48z" />
    <glyph glyph-name="egrave.smcp" unicode="&#xf7e8;" horiz-adv-x="478" 
d="M162 715l34 47l147 -120l-23 -32zM425 0h-328v564h322v-48h-263v-201h246v-48h-246v-219h269v-48z" />
    <glyph glyph-name="ecircumflex.smcp" unicode="&#xe23f;" horiz-adv-x="478" 
d="M130 635l109 130h42l109 -130l-32 -27l-99 108l-98 -108zM425 0h-328v564h322v-48h-263v-201h246v-48h-246v-219h269v-48z" />
    <glyph glyph-name="ecircumflex.smcp" unicode="&#xf7ea;" horiz-adv-x="478" 
d="M130 635l109 130h42l109 -130l-32 -27l-99 108l-98 -108zM425 0h-328v564h322v-48h-263v-201h246v-48h-246v-219h269v-48z" />
    <glyph glyph-name="gcommaaccent.smcp" unicode="&#xe240;" horiz-adv-x="604" 
d="M299 227v47h225v-274h-54v62q-19 -29 -60 -51.5t-101 -22.5q-115 0 -181 81.5t-66 212.5t68 212t185 81q151 0 211 -144l-54 -21q-47 116 -161 116q-88 0 -138 -66t-50 -180q0 -113 49.5 -178t138.5 -65q69 0 112 37t43 104v49h-167zM348 -109q0 -29 -15 -55t-49 -33
l-11 27q15 1 25.5 12.5t10.5 26.5v4q-2 -1 -8 -1q-14 0 -24 10.5t-10 27.5q0 14 10.5 25.5t27.5 11.5q21 0 32 -15.5t11 -40.5z" />
    <glyph glyph-name="gcommaaccent.smcp" unicode="&#xf64c;" horiz-adv-x="604" 
d="M299 227v47h225v-274h-54v62q-19 -29 -60 -51.5t-101 -22.5q-115 0 -181 81.5t-66 212.5t68 212t185 81q151 0 211 -144l-54 -21q-47 116 -161 116q-88 0 -138 -66t-50 -180q0 -113 49.5 -178t138.5 -65q69 0 112 37t43 104v49h-167zM348 -109q0 -29 -15 -55t-49 -33
l-11 27q15 1 25.5 12.5t10.5 26.5v4q-2 -1 -8 -1q-14 0 -24 10.5t-10 27.5q0 14 10.5 25.5t27.5 11.5q21 0 32 -15.5t11 -40.5z" />
    <glyph glyph-name="ecaron.smcp" unicode="&#xe241;" horiz-adv-x="478" 
d="M390 742l-109 -130h-42l-109 130l32 27l99 -108l98 108zM425 0h-328v564h322v-48h-263v-201h246v-48h-246v-219h269v-48z" />
    <glyph glyph-name="ecaron.smcp" unicode="&#xf647;" horiz-adv-x="478" 
d="M390 742l-109 -130h-42l-109 130l32 27l99 -108l98 108zM425 0h-328v564h322v-48h-263v-201h246v-48h-246v-219h269v-48z" />
    <glyph glyph-name="emacron.smcp" unicode="&#xe242;" horiz-adv-x="478" 
d="M137 634v45h247v-45h-247zM425 0h-328v564h322v-48h-263v-201h246v-48h-246v-219h269v-48z" />
    <glyph glyph-name="emacron.smcp" unicode="&#xf649;" horiz-adv-x="478" 
d="M137 634v45h247v-45h-247zM425 0h-328v564h322v-48h-263v-201h246v-48h-246v-219h269v-48z" />
    <glyph glyph-name="ebreve.smcp" unicode="&#xe243;" horiz-adv-x="478" 
d="M118 724l49 17q5 -34 31 -57t62 -23t62 23t31 57l49 -17q-11 -48 -49 -76.5t-93 -28.5t-93 28.5t-49 76.5zM425 0h-328v564h322v-48h-263v-201h246v-48h-246v-219h269v-48z" />
    <glyph glyph-name="ebreve.smcp" unicode="&#xf62a;" horiz-adv-x="478" 
d="M118 724l49 17q5 -34 31 -57t62 -23t62 23t31 57l49 -17q-11 -48 -49 -76.5t-93 -28.5t-93 28.5t-49 76.5zM425 0h-328v564h322v-48h-263v-201h246v-48h-246v-219h269v-48z" />
    <glyph glyph-name="edotaccent.smcp" unicode="&#xe246;" horiz-adv-x="478" 
d="M218 666q0 18 11.5 29.5t29.5 11.5t29.5 -11.5t11.5 -29.5q0 -17 -11.5 -28.5t-29.5 -11.5t-29.5 11.5t-11.5 28.5zM425 0h-328v564h322v-48h-263v-201h246v-48h-246v-219h269v-48z" />
    <glyph glyph-name="edotaccent.smcp" unicode="&#xf648;" horiz-adv-x="478" 
d="M218 666q0 18 11.5 29.5t29.5 11.5t29.5 -11.5t11.5 -29.5q0 -17 -11.5 -28.5t-29.5 -11.5t-29.5 11.5t-11.5 28.5zM425 0h-328v564h322v-48h-263v-201h246v-48h-246v-219h269v-48z" />
    <glyph glyph-name="eogonek.smcp" unicode="&#xe249;" horiz-adv-x="478" 
d="M292 -108q0 -18 11 -29.5t31 -11.5q29 0 54 34l22 -23q-34 -52 -90 -52q-29 0 -54 17t-25 58q0 66 84 115h-228v564h322v-48h-263v-201h246v-48h-246v-219h269v-48h-38q-95 -56 -95 -108z" />
    <glyph glyph-name="eogonek.smcp" unicode="&#xf64a;" horiz-adv-x="478" 
d="M292 -108q0 -18 11 -29.5t31 -11.5q29 0 54 34l22 -23q-34 -52 -90 -52q-29 0 -54 17t-25 58q0 66 84 115h-228v564h322v-48h-263v-201h246v-48h-246v-219h269v-48h-38q-95 -56 -95 -108z" />
    <glyph glyph-name="gcircumflex.smcp" unicode="&#xe24b;" horiz-adv-x="604" 
d="M181 635l109 130h42l109 -130l-32 -27l-99 108l-98 -108zM299 227v47h225v-274h-54v62q-19 -29 -60 -51.5t-101 -22.5q-115 0 -181 81.5t-66 212.5t68 212t185 81q151 0 211 -144l-54 -21q-47 116 -161 116q-88 0 -138 -66t-50 -180q0 -113 49.5 -178t138.5 -65
q69 0 112 37t43 104v49h-167z" />
    <glyph glyph-name="gcircumflex.smcp" unicode="&#xf62c;" horiz-adv-x="604" 
d="M181 635l109 130h42l109 -130l-32 -27l-99 108l-98 -108zM299 227v47h225v-274h-54v62q-19 -29 -60 -51.5t-101 -22.5q-115 0 -181 81.5t-66 212.5t68 212t185 81q151 0 211 -144l-54 -21q-47 116 -161 116q-88 0 -138 -66t-50 -180q0 -113 49.5 -178t138.5 -65
q69 0 112 37t43 104v49h-167z" />
    <glyph glyph-name="gbreve.smcp" unicode="&#xe24e;" horiz-adv-x="604" 
d="M168 724l49 17q5 -34 31 -57t62 -23t62 23t31 57l49 -17q-11 -48 -49 -76.5t-93 -28.5t-93 28.5t-49 76.5zM299 227v47h225v-274h-54v62q-19 -29 -60 -51.5t-101 -22.5q-115 0 -181 81.5t-66 212.5t68 212t185 81q151 0 211 -144l-54 -21q-47 116 -161 116
q-88 0 -138 -66t-50 -180q0 -113 49.5 -178t138.5 -65q69 0 112 37t43 104v49h-167z" />
    <glyph glyph-name="gbreve.smcp" unicode="&#xf64b;" horiz-adv-x="604" 
d="M168 724l49 17q5 -34 31 -57t62 -23t62 23t31 57l49 -17q-11 -48 -49 -76.5t-93 -28.5t-93 28.5t-49 76.5zM299 227v47h225v-274h-54v62q-19 -29 -60 -51.5t-101 -22.5q-115 0 -181 81.5t-66 212.5t68 212t185 81q151 0 211 -144l-54 -21q-47 116 -161 116
q-88 0 -138 -66t-50 -180q0 -113 49.5 -178t138.5 -65q69 0 112 37t43 104v49h-167z" />
    <glyph glyph-name="gdotaccent.smcp" unicode="&#xe24f;" horiz-adv-x="604" 
d="M271 666q0 18 11.5 29.5t29.5 11.5t29.5 -11.5t11.5 -29.5q0 -17 -11.5 -28.5t-29.5 -11.5t-29.5 11.5t-11.5 28.5zM299 227v47h225v-274h-54v62q-19 -29 -60 -51.5t-101 -22.5q-115 0 -181 81.5t-66 212.5t68 212t185 81q151 0 211 -144l-54 -21q-47 116 -161 116
q-88 0 -138 -66t-50 -180q0 -113 49.5 -178t138.5 -65q69 0 112 37t43 104v49h-167z" />
    <glyph glyph-name="gdotaccent.smcp" unicode="&#xf62d;" horiz-adv-x="604" 
d="M271 666q0 18 11.5 29.5t29.5 11.5t29.5 -11.5t11.5 -29.5q0 -17 -11.5 -28.5t-29.5 -11.5t-29.5 11.5t-11.5 28.5zM299 227v47h225v-274h-54v62q-19 -29 -60 -51.5t-101 -22.5q-115 0 -181 81.5t-66 212.5t68 212t185 81q151 0 211 -144l-54 -21q-47 116 -161 116
q-88 0 -138 -66t-50 -180q0 -113 49.5 -178t138.5 -65q69 0 112 37t43 104v49h-167z" />
    <glyph glyph-name="hcircumflex.smcp" unicode="&#xe253;" horiz-adv-x="601" 
d="M172 635l109 130h42l109 -130l-32 -27l-99 108l-98 -108zM97 0v564h59v-248h289v248h59v-564h-59v268h-289v-268h-59z" />
    <glyph glyph-name="hcircumflex.smcp" unicode="&#xf62f;" horiz-adv-x="601" 
d="M172 635l109 130h42l109 -130l-32 -27l-99 108l-98 -108zM97 0v564h59v-248h289v248h59v-564h-59v268h-289v-268h-59z" />
    <glyph glyph-name="hbar.smcp" unicode="&#xe257;" horiz-adv-x="601" 
d="M30 453h67v111h59v-111h289v111h59v-111h67v-48h-67v-405h-59v268h-289v-268h-59v405h-67v48zM156 316h289v89h-289v-89z" />
    <glyph glyph-name="hbar.smcp" unicode="&#xf62e;" horiz-adv-x="601" 
d="M30 453h67v111h59v-111h289v111h59v-111h67v-48h-67v-405h-59v268h-289v-268h-59v405h-67v48zM156 316h289v89h-289v-89z" />
    <glyph glyph-name="iacute.smcp" unicode="&#xe258;" horiz-adv-x="253" 
d="M180 762l34 -47l-158 -105l-23 32zM97 0v564h59v-564h-59z" />
    <glyph glyph-name="iacute.smcp" unicode="&#xf7ed;" horiz-adv-x="253" 
d="M180 762l34 -47l-158 -105l-23 32zM97 0v564h59v-564h-59z" />
    <glyph glyph-name="igrave.smcp" unicode="&#xe259;" horiz-adv-x="253" 
d="M37 715l34 47l147 -120l-23 -32zM97 0v564h59v-564h-59z" />
    <glyph glyph-name="igrave.smcp" unicode="&#xf7ec;" horiz-adv-x="253" 
d="M37 715l34 47l147 -120l-23 -32zM97 0v564h59v-564h-59z" />
    <glyph glyph-name="icircumflex.smcp" unicode="&#xe25a;" horiz-adv-x="253" 
d="M-4 635l109 130h42l109 -130l-32 -27l-99 108l-98 -108zM97 0v564h59v-564h-59z" />
    <glyph glyph-name="icircumflex.smcp" unicode="&#xf7ee;" horiz-adv-x="253" 
d="M-4 635l109 130h42l109 -130l-32 -27l-99 108l-98 -108zM97 0v564h59v-564h-59z" />
    <glyph glyph-name="idieresis.smcp" unicode="&#xe25b;" horiz-adv-x="253" 
d="M173 669q0 19 12.5 31.5t31.5 12.5t31.5 -12.5t12.5 -31.5q0 -18 -12.5 -30.5t-31.5 -12.5t-31.5 12.5t-12.5 30.5zM-11 669q0 19 12.5 31.5t31.5 12.5t31.5 -12.5t12.5 -31.5q0 -18 -12.5 -30.5t-31.5 -12.5t-31.5 12.5t-12.5 30.5zM97 0v564h59v-564h-59z" />
    <glyph glyph-name="idieresis.smcp" unicode="&#xf7ef;" horiz-adv-x="253" 
d="M173 669q0 19 12.5 31.5t31.5 12.5t31.5 -12.5t12.5 -31.5q0 -18 -12.5 -30.5t-31.5 -12.5t-31.5 12.5t-12.5 30.5zM-11 669q0 19 12.5 31.5t31.5 12.5t31.5 -12.5t12.5 -31.5q0 -18 -12.5 -30.5t-31.5 -12.5t-31.5 12.5t-12.5 30.5zM97 0v564h59v-564h-59z" />
    <glyph glyph-name="itilde.smcp" unicode="&#xe25c;" horiz-adv-x="253" 
d="M57 716q35 0 75 -24.5t61 -24.5q19 0 34 11t21 22l6 11l33 -30q-3 -6 -10 -15.5t-32 -25t-56 -15.5q-36 0 -76 24t-59 24t-34.5 -10.5t-21.5 -21.5l-5 -11l-32 29q3 6 9.5 15.5t31 25.5t55.5 16zM97 0v564h59v-564h-59z" />
    <glyph glyph-name="itilde.smcp" unicode="&#xf632;" horiz-adv-x="253" 
d="M57 716q35 0 75 -24.5t61 -24.5q19 0 34 11t21 22l6 11l33 -30q-3 -6 -10 -15.5t-32 -25t-56 -15.5q-36 0 -76 24t-59 24t-34.5 -10.5t-21.5 -21.5l-5 -11l-32 29q3 6 9.5 15.5t31 25.5t55.5 16zM97 0v564h59v-564h-59z" />
    <glyph glyph-name="imacron.smcp" unicode="&#xe25e;" horiz-adv-x="253" 
d="M2 634v45h247v-45h-247zM97 0v564h59v-564h-59z" />
    <glyph glyph-name="imacron.smcp" unicode="&#xf64d;" horiz-adv-x="253" 
d="M2 634v45h247v-45h-247zM97 0v564h59v-564h-59z" />
    <glyph glyph-name="ibreve.smcp" unicode="&#xe25f;" horiz-adv-x="253" 
d="M-17 724l49 17q5 -34 31 -57t62 -23t62 23t31 57l49 -17q-11 -48 -49 -76.5t-93 -28.5t-93 28.5t-49 76.5zM97 0v564h59v-564h-59z" />
    <glyph glyph-name="ibreve.smcp" unicode="&#xf630;" horiz-adv-x="253" 
d="M-17 724l49 17q5 -34 31 -57t62 -23t62 23t31 57l49 -17q-11 -48 -49 -76.5t-93 -28.5t-93 28.5t-49 76.5zM97 0v564h59v-564h-59z" />
    <glyph glyph-name="idotaccent.smcp" unicode="&#xe262;" horiz-adv-x="253" 
d="M84 666q0 18 11.5 29.5t29.5 11.5t29.5 -11.5t11.5 -29.5q0 -17 -11.5 -28.5t-29.5 -11.5t-29.5 11.5t-11.5 28.5zM97 0v564h59v-564h-59z" />
    <glyph glyph-name="idotaccent.smcp" unicode="&#xf666;" horiz-adv-x="253" 
d="M84 666q0 18 11.5 29.5t29.5 11.5t29.5 -11.5t11.5 -29.5q0 -17 -11.5 -28.5t-29.5 -11.5t-29.5 11.5t-11.5 28.5zM97 0v564h59v-564h-59z" />
    <glyph glyph-name="iogonek.smcp" unicode="&#xe264;" horiz-adv-x="253" 
d="M63 -108q0 -18 11 -29.5t31 -11.5q29 0 54 34l22 -23q-34 -52 -90 -52q-29 0 -54 17t-25 58q0 69 85 115v564h59v-564q-93 -55 -93 -108z" />
    <glyph glyph-name="iogonek.smcp" unicode="&#xf64e;" horiz-adv-x="253" 
d="M63 -108q0 -18 11 -29.5t31 -11.5q29 0 54 34l22 -23q-34 -52 -90 -52q-29 0 -54 17t-25 58q0 69 85 115v564h59v-564q-93 -55 -93 -108z" />
    <glyph glyph-name="jcircumflex.smcp" unicode="&#xe265;" horiz-adv-x="359" 
d="M111 635l109 130h42l109 -130l-32 -27l-99 108l-98 -108zM127 36q46 0 65.5 35t19.5 111v382h59v-381q0 -44 -5.5 -76t-20 -61t-44 -43.5t-72.5 -14.5q-76 0 -125 62l38 38q42 -52 85 -52z" />
    <glyph glyph-name="jcircumflex.smcp" unicode="&#xf633;" horiz-adv-x="359" 
d="M111 635l109 130h42l109 -130l-32 -27l-99 108l-98 -108zM127 36q46 0 65.5 35t19.5 111v382h59v-381q0 -44 -5.5 -76t-20 -61t-44 -43.5t-72.5 -14.5q-76 0 -125 62l38 38q42 -52 85 -52z" />
    <glyph glyph-name="kcommaaccent.smcp" unicode="&#xe268;" horiz-adv-x="518" 
d="M433 0l-209 295l-68 -69v-226h-59v564h59v-266l259 266h72l-222 -229l239 -335h-71zM317 -109q0 -29 -15 -55t-49 -33l-11 27q15 1 25.5 12.5t10.5 26.5v4q-2 -1 -8 -1q-14 0 -24 10.5t-10 27.5q0 14 10.5 25.5t27.5 11.5q21 0 32 -15.5t11 -40.5z" />
    <glyph glyph-name="kcommaaccent.smcp" unicode="&#xf64f;" horiz-adv-x="518" 
d="M433 0l-209 295l-68 -69v-226h-59v564h59v-266l259 266h72l-222 -229l239 -335h-71zM317 -109q0 -29 -15 -55t-49 -33l-11 27q15 1 25.5 12.5t10.5 26.5v4q-2 -1 -8 -1q-14 0 -24 10.5t-10 27.5q0 14 10.5 25.5t27.5 11.5q21 0 32 -15.5t11 -40.5z" />
    <glyph glyph-name="lacute.smcp" unicode="&#xe26b;" horiz-adv-x="432" 
d="M228 762l34 -47l-158 -105l-23 32zM97 0v564h59v-516h253v-48h-312z" />
    <glyph glyph-name="lacute.smcp" unicode="&#xf650;" horiz-adv-x="432" 
d="M228 762l34 -47l-158 -105l-23 32zM97 0v564h59v-516h253v-48h-312z" />
    <glyph glyph-name="lcaron.smcp" unicode="&#xe26c;" horiz-adv-x="432" 
d="M264 569l57 -15l-60 -158l-38 10zM97 0v564h59v-516h253v-48h-312z" />
    <glyph glyph-name="lcaron.smcp" unicode="&#xf651;" horiz-adv-x="432" 
d="M264 569l57 -15l-60 -158l-38 10zM97 0v564h59v-516h253v-48h-312z" />
    <glyph glyph-name="lcommaaccent.smcp" unicode="&#xe26d;" horiz-adv-x="432" 
d="M97 0v564h59v-516h253v-48h-312zM290 -109q0 -29 -15 -55t-49 -33l-11 27q15 1 25.5 12.5t10.5 26.5v4q-2 -1 -8 -1q-14 0 -24 10.5t-10 27.5q0 14 10.5 25.5t27.5 11.5q21 0 32 -15.5t11 -40.5z" />
    <glyph glyph-name="lcommaaccent.smcp" unicode="&#xf652;" horiz-adv-x="432" 
d="M97 0v564h59v-516h253v-48h-312zM290 -109q0 -29 -15 -55t-49 -33l-11 27q15 1 25.5 12.5t10.5 26.5v4q-2 -1 -8 -1q-14 0 -24 10.5t-10 27.5q0 14 10.5 25.5t27.5 11.5q21 0 32 -15.5t11 -40.5z" />
    <glyph glyph-name="ldot.smcp" unicode="&#xe271;" horiz-adv-x="432" 
d="M97 0v564h59v-516h253v-48h-312zM269 281q0 18 11.5 29.5t29.5 11.5t29.5 -11.5t11.5 -29.5q0 -17 -11.5 -28.5t-29.5 -11.5t-29.5 11.5t-11.5 28.5z" />
    <glyph glyph-name="ldot.smcp" unicode="&#xf634;" horiz-adv-x="432" 
d="M97 0v564h59v-516h253v-48h-312zM269 281q0 18 11.5 29.5t29.5 11.5t29.5 -11.5t11.5 -29.5q0 -17 -11.5 -28.5t-29.5 -11.5t-29.5 11.5t-11.5 28.5z" />
    <glyph glyph-name="lslash.smcp" unicode="&#xe272;" horiz-adv-x="442" 
d="M33 220l74 47v297h59v-260l120 77l25 -38l-145 -93v-202h253v-48h-312v213l-49 -31z" />
    <glyph glyph-name="lslash.smcp" unicode="&#xf6f9;" horiz-adv-x="442" 
d="M33 220l74 47v297h59v-260l120 77l25 -38l-145 -93v-202h253v-48h-312v213l-49 -31z" />
    <glyph glyph-name="nacute.smcp" unicode="&#xe276;" horiz-adv-x="625" 
d="M387 762l34 -47l-158 -105l-23 32zM97 0v564h64q248 -380 310 -476h2v476h55v-564h-64q-241 369 -310 476h-1v-476h-56z" />
    <glyph glyph-name="nacute.smcp" unicode="&#xf653;" horiz-adv-x="625" 
d="M387 762l34 -47l-158 -105l-23 32zM97 0v564h64q248 -380 310 -476h2v476h55v-564h-64q-241 369 -310 476h-1v-476h-56z" />
    <glyph glyph-name="ntilde.smcp" unicode="&#xe279;" horiz-adv-x="625" 
d="M241 716q35 0 75 -24.5t61 -24.5q19 0 34 11t21 22l6 11l33 -30q-3 -6 -10 -15.5t-32 -25t-56 -15.5q-36 0 -76 24t-59 24t-34.5 -10.5t-21.5 -21.5l-5 -11l-32 29q3 6 9.5 15.5t31 25.5t55.5 16zM97 0v564h64q248 -380 310 -476h2v476h55v-564h-64q-241 369 -310 476h-1
v-476h-56z" />
    <glyph glyph-name="ncaron.smcp" unicode="&#xe27a;" horiz-adv-x="625" 
d="M439 742l-109 -130h-42l-109 130l32 27l99 -108l98 108zM97 0v564h64q248 -380 310 -476h2v476h55v-564h-64q-241 369 -310 476h-1v-476h-56z" />
    <glyph glyph-name="ncaron.smcp" unicode="&#xf654;" horiz-adv-x="625" 
d="M439 742l-109 -130h-42l-109 130l32 27l99 -108l98 108zM97 0v564h64q248 -380 310 -476h2v476h55v-564h-64q-241 369 -310 476h-1v-476h-56z" />
    <glyph glyph-name="ncommaaccent.smcp" unicode="&#xe27d;" horiz-adv-x="625" 
d="M97 0v564h64q248 -380 310 -476h2v476h55v-564h-64q-241 369 -310 476h-1v-476h-56zM359 -109q0 -29 -15 -55t-49 -33l-11 27q15 1 25.5 12.5t10.5 26.5v4q-2 -1 -8 -1q-14 0 -24 10.5t-10 27.5q0 14 10.5 25.5t27.5 11.5q21 0 32 -15.5t11 -40.5z" />
    <glyph glyph-name="ncommaaccent.smcp" unicode="&#xf655;" horiz-adv-x="625" 
d="M97 0v564h64q248 -380 310 -476h2v476h55v-564h-64q-241 369 -310 476h-1v-476h-56zM359 -109q0 -29 -15 -55t-49 -33l-11 27q15 1 25.5 12.5t10.5 26.5v4q-2 -1 -8 -1q-14 0 -24 10.5t-10 27.5q0 14 10.5 25.5t27.5 11.5q21 0 32 -15.5t11 -40.5z" />
    <glyph glyph-name="oacute.smcp" unicode="&#xe281;" horiz-adv-x="619" 
d="M362 762l34 -47l-158 -105l-23 32zM62 282q0 134 68 213.5t179 79.5t179.5 -79.5t68.5 -213.5t-68.5 -214t-179.5 -80t-179 80t-68 214zM123 282q0 -107 48.5 -176t137.5 -69q90 0 138.5 68.5t48.5 176.5q0 107 -48.5 175.5t-138.5 68.5q-89 0 -137.5 -68.5t-48.5 -175.5
z" />
    <glyph glyph-name="oacute.smcp" unicode="&#xf7f3;" horiz-adv-x="619" 
d="M362 762l34 -47l-158 -105l-23 32zM62 282q0 134 68 213.5t179 79.5t179.5 -79.5t68.5 -213.5t-68.5 -214t-179.5 -80t-179 80t-68 214zM123 282q0 -107 48.5 -176t137.5 -69q90 0 138.5 68.5t48.5 176.5q0 107 -48.5 175.5t-138.5 68.5q-89 0 -137.5 -68.5t-48.5 -175.5
z" />
    <glyph glyph-name="ograve.smcp" unicode="&#xe282;" horiz-adv-x="619" 
d="M218 715l34 47l147 -120l-23 -32zM62 282q0 134 68 213.5t179 79.5t179.5 -79.5t68.5 -213.5t-68.5 -214t-179.5 -80t-179 80t-68 214zM123 282q0 -107 48.5 -176t137.5 -69q90 0 138.5 68.5t48.5 176.5q0 107 -48.5 175.5t-138.5 68.5q-89 0 -137.5 -68.5t-48.5 -175.5z
" />
    <glyph glyph-name="ograve.smcp" unicode="&#xf7f2;" horiz-adv-x="619" 
d="M218 715l34 47l147 -120l-23 -32zM62 282q0 134 68 213.5t179 79.5t179.5 -79.5t68.5 -213.5t-68.5 -214t-179.5 -80t-179 80t-68 214zM123 282q0 -107 48.5 -176t137.5 -69q90 0 138.5 68.5t48.5 176.5q0 107 -48.5 175.5t-138.5 68.5q-89 0 -137.5 -68.5t-48.5 -175.5z
" />
    <glyph glyph-name="ocircumflex.smcp" unicode="&#xe283;" horiz-adv-x="619" 
d="M178 635l109 130h42l109 -130l-32 -27l-99 108l-98 -108zM62 282q0 134 68 213.5t179 79.5t179.5 -79.5t68.5 -213.5t-68.5 -214t-179.5 -80t-179 80t-68 214zM123 282q0 -107 48.5 -176t137.5 -69q90 0 138.5 68.5t48.5 176.5q0 107 -48.5 175.5t-138.5 68.5
q-89 0 -137.5 -68.5t-48.5 -175.5z" />
    <glyph glyph-name="ocircumflex.smcp" unicode="&#xf7f4;" horiz-adv-x="619" 
d="M178 635l109 130h42l109 -130l-32 -27l-99 108l-98 -108zM62 282q0 134 68 213.5t179 79.5t179.5 -79.5t68.5 -213.5t-68.5 -214t-179.5 -80t-179 80t-68 214zM123 282q0 -107 48.5 -176t137.5 -69q90 0 138.5 68.5t48.5 176.5q0 107 -48.5 175.5t-138.5 68.5
q-89 0 -137.5 -68.5t-48.5 -175.5z" />
    <glyph glyph-name="odieresis.smcp" unicode="&#xe284;" horiz-adv-x="619" 
d="M357 669q0 19 12.5 31.5t31.5 12.5t31.5 -12.5t12.5 -31.5q0 -18 -12.5 -30.5t-31.5 -12.5t-31.5 12.5t-12.5 30.5zM173 669q0 19 12.5 31.5t31.5 12.5t31.5 -12.5t12.5 -31.5q0 -18 -12.5 -30.5t-31.5 -12.5t-31.5 12.5t-12.5 30.5zM62 282q0 134 68 213.5t179 79.5
t179.5 -79.5t68.5 -213.5t-68.5 -214t-179.5 -80t-179 80t-68 214zM123 282q0 -107 48.5 -176t137.5 -69q90 0 138.5 68.5t48.5 176.5q0 107 -48.5 175.5t-138.5 68.5q-89 0 -137.5 -68.5t-48.5 -175.5z" />
    <glyph glyph-name="odieresis.smcp" unicode="&#xf7f6;" horiz-adv-x="619" 
d="M357 669q0 19 12.5 31.5t31.5 12.5t31.5 -12.5t12.5 -31.5q0 -18 -12.5 -30.5t-31.5 -12.5t-31.5 12.5t-12.5 30.5zM173 669q0 19 12.5 31.5t31.5 12.5t31.5 -12.5t12.5 -31.5q0 -18 -12.5 -30.5t-31.5 -12.5t-31.5 12.5t-12.5 30.5zM62 282q0 134 68 213.5t179 79.5
t179.5 -79.5t68.5 -213.5t-68.5 -214t-179.5 -80t-179 80t-68 214zM123 282q0 -107 48.5 -176t137.5 -69q90 0 138.5 68.5t48.5 176.5q0 107 -48.5 175.5t-138.5 68.5q-89 0 -137.5 -68.5t-48.5 -175.5z" />
    <glyph glyph-name="otilde.smcp" unicode="&#xe285;" horiz-adv-x="619" 
d="M239 716q35 0 75 -24.5t61 -24.5q19 0 34 11t21 22l6 11l33 -30q-3 -6 -10 -15.5t-32 -25t-56 -15.5q-36 0 -76 24t-59 24t-34.5 -10.5t-21.5 -21.5l-5 -11l-32 29q3 6 9.5 15.5t31 25.5t55.5 16zM62 282q0 134 68 213.5t179 79.5t179.5 -79.5t68.5 -213.5t-68.5 -214
t-179.5 -80t-179 80t-68 214zM123 282q0 -107 48.5 -176t137.5 -69q90 0 138.5 68.5t48.5 176.5q0 107 -48.5 175.5t-138.5 68.5q-89 0 -137.5 -68.5t-48.5 -175.5z" />
    <glyph glyph-name="otilde.smcp" unicode="&#xf7f5;" horiz-adv-x="619" 
d="M239 716q35 0 75 -24.5t61 -24.5q19 0 34 11t21 22l6 11l33 -30q-3 -6 -10 -15.5t-32 -25t-56 -15.5q-36 0 -76 24t-59 24t-34.5 -10.5t-21.5 -21.5l-5 -11l-32 29q3 6 9.5 15.5t31 25.5t55.5 16zM62 282q0 134 68 213.5t179 79.5t179.5 -79.5t68.5 -213.5t-68.5 -214
t-179.5 -80t-179 80t-68 214zM123 282q0 -107 48.5 -176t137.5 -69q90 0 138.5 68.5t48.5 176.5q0 107 -48.5 175.5t-138.5 68.5q-89 0 -137.5 -68.5t-48.5 -175.5z" />
    <glyph glyph-name="omacron.smcp" unicode="&#xe287;" horiz-adv-x="619" 
d="M184 634v45h247v-45h-247zM62 282q0 134 68 213.5t179 79.5t179.5 -79.5t68.5 -213.5t-68.5 -214t-179.5 -80t-179 80t-68 214zM123 282q0 -107 48.5 -176t137.5 -69q90 0 138.5 68.5t48.5 176.5q0 107 -48.5 175.5t-138.5 68.5q-89 0 -137.5 -68.5t-48.5 -175.5z" />
    <glyph glyph-name="omacron.smcp" unicode="&#xf657;" horiz-adv-x="619" 
d="M184 634v45h247v-45h-247zM62 282q0 134 68 213.5t179 79.5t179.5 -79.5t68.5 -213.5t-68.5 -214t-179.5 -80t-179 80t-68 214zM123 282q0 -107 48.5 -176t137.5 -69q90 0 138.5 68.5t48.5 176.5q0 107 -48.5 175.5t-138.5 68.5q-89 0 -137.5 -68.5t-48.5 -175.5z" />
    <glyph glyph-name="obreve.smcp" unicode="&#xe288;" horiz-adv-x="619" 
d="M164 724l49 17q5 -34 31 -57t62 -23t62 23t31 57l49 -17q-11 -48 -49 -76.5t-93 -28.5t-93 28.5t-49 76.5zM62 282q0 134 68 213.5t179 79.5t179.5 -79.5t68.5 -213.5t-68.5 -214t-179.5 -80t-179 80t-68 214zM123 282q0 -107 48.5 -176t137.5 -69q90 0 138.5 68.5
t48.5 176.5q0 107 -48.5 175.5t-138.5 68.5q-89 0 -137.5 -68.5t-48.5 -175.5z" />
    <glyph glyph-name="obreve.smcp" unicode="&#xf635;" horiz-adv-x="619" 
d="M164 724l49 17q5 -34 31 -57t62 -23t62 23t31 57l49 -17q-11 -48 -49 -76.5t-93 -28.5t-93 28.5t-49 76.5zM62 282q0 134 68 213.5t179 79.5t179.5 -79.5t68.5 -213.5t-68.5 -214t-179.5 -80t-179 80t-68 214zM123 282q0 -107 48.5 -176t137.5 -69q90 0 138.5 68.5
t48.5 176.5q0 107 -48.5 175.5t-138.5 68.5q-89 0 -137.5 -68.5t-48.5 -175.5z" />
    <glyph glyph-name="ohungarumlaut.smcp" unicode="&#xe28a;" horiz-adv-x="619" 
d="M470 755l34 -47l-148 -99l-23 32zM300 755l34 -47l-148 -99l-23 32zM62 282q0 134 68 213.5t179 79.5t179.5 -79.5t68.5 -213.5t-68.5 -214t-179.5 -80t-179 80t-68 214zM123 282q0 -107 48.5 -176t137.5 -69q90 0 138.5 68.5t48.5 176.5q0 107 -48.5 175.5t-138.5 68.5
q-89 0 -137.5 -68.5t-48.5 -175.5z" />
    <glyph glyph-name="ohungarumlaut.smcp" unicode="&#xf656;" horiz-adv-x="619" 
d="M470 755l34 -47l-148 -99l-23 32zM300 755l34 -47l-148 -99l-23 32zM62 282q0 134 68 213.5t179 79.5t179.5 -79.5t68.5 -213.5t-68.5 -214t-179.5 -80t-179 80t-68 214zM123 282q0 -107 48.5 -176t137.5 -69q90 0 138.5 68.5t48.5 176.5q0 107 -48.5 175.5t-138.5 68.5
q-89 0 -137.5 -68.5t-48.5 -175.5z" />
    <glyph glyph-name="oslash.smcp" unicode="&#xe295;" horiz-adv-x="619" 
d="M62 282q0 134 68 213.5t179 79.5q74 0 133 -39l41 67l39 -25l-45 -71q80 -82 80 -225q0 -134 -68.5 -214t-179.5 -80q-73 0 -130 37l-44 -71l-40 24l47 76q-80 82 -80 228zM123 282q0 -113 50 -179l241 388q-45 35 -105 35q-89 0 -137.5 -68.5t-48.5 -175.5zM496 282
q0 108 -49 175l-241 -388q43 -32 103 -32q90 0 138.5 68.5t48.5 176.5z" />
    <glyph glyph-name="oslash.smcp" unicode="&#xf7f8;" horiz-adv-x="619" 
d="M62 282q0 134 68 213.5t179 79.5q74 0 133 -39l41 67l39 -25l-45 -71q80 -82 80 -225q0 -134 -68.5 -214t-179.5 -80q-73 0 -130 37l-44 -71l-40 24l47 76q-80 82 -80 228zM123 282q0 -113 50 -179l241 388q-45 35 -105 35q-89 0 -137.5 -68.5t-48.5 -175.5zM496 282
q0 108 -49 175l-241 -388q43 -32 103 -32q90 0 138.5 68.5t48.5 176.5z" />
    <glyph glyph-name="oe.smcp" unicode="&#xe298;" horiz-adv-x="866" 
d="M62 282q0 133 67.5 212t177.5 79q120 0 178 -89v80h322v-48h-263v-201h246v-48h-246v-219h269v-48h-328v79q-57 -89 -178 -89q-110 0 -177.5 79.5t-67.5 212.5zM123 282q0 -106 48 -174.5t135 -68.5q82 0 131 63.5t49 162.5v33q0 99 -48.5 162.5t-131.5 63.5
q-87 0 -135 -68.5t-48 -173.5z" />
    <glyph glyph-name="oe.smcp" unicode="&#xf6fa;" horiz-adv-x="866" 
d="M62 282q0 133 67.5 212t177.5 79q120 0 178 -89v80h322v-48h-263v-201h246v-48h-246v-219h269v-48h-328v79q-57 -89 -178 -89q-110 0 -177.5 79.5t-67.5 212.5zM123 282q0 -106 48 -174.5t135 -68.5q82 0 131 63.5t49 162.5v33q0 99 -48.5 162.5t-131.5 63.5
q-87 0 -135 -68.5t-48 -173.5z" />
    <glyph glyph-name="racute.smcp" unicode="&#xe29a;" horiz-adv-x="540" 
d="M338 762l34 -47l-158 -105l-23 32zM475 414q0 -63 -36.5 -104.5t-98.5 -53.5l157 -256h-71l-151 252h-119v-252h-59v564h192q33 0 63 -7t59 -22.5t46.5 -46.5t17.5 -74zM415 412q0 104 -142 104h-117v-216h129q67 0 98.5 31t31.5 81z" />
    <glyph glyph-name="racute.smcp" unicode="&#xf658;" horiz-adv-x="540" 
d="M338 762l34 -47l-158 -105l-23 32zM475 414q0 -63 -36.5 -104.5t-98.5 -53.5l157 -256h-71l-151 252h-119v-252h-59v564h192q33 0 63 -7t59 -22.5t46.5 -46.5t17.5 -74zM415 412q0 104 -142 104h-117v-216h129q67 0 98.5 31t31.5 81z" />
    <glyph glyph-name="rcaron.smcp" unicode="&#xe29b;" horiz-adv-x="540" 
d="M401 742l-109 -130h-42l-109 130l32 27l99 -108l98 108zM475 414q0 -63 -36.5 -104.5t-98.5 -53.5l157 -256h-71l-151 252h-119v-252h-59v564h192q33 0 63 -7t59 -22.5t46.5 -46.5t17.5 -74zM415 412q0 104 -142 104h-117v-216h129q67 0 98.5 31t31.5 81z" />
    <glyph glyph-name="rcaron.smcp" unicode="&#xf659;" horiz-adv-x="540" 
d="M401 742l-109 -130h-42l-109 130l32 27l99 -108l98 108zM475 414q0 -63 -36.5 -104.5t-98.5 -53.5l157 -256h-71l-151 252h-119v-252h-59v564h192q33 0 63 -7t59 -22.5t46.5 -46.5t17.5 -74zM415 412q0 104 -142 104h-117v-216h129q67 0 98.5 31t31.5 81z" />
    <glyph glyph-name="rcommaaccent.smcp" unicode="&#xe29e;" horiz-adv-x="540" 
d="M475 414q0 -63 -36.5 -104.5t-98.5 -53.5l157 -256h-71l-151 252h-119v-252h-59v564h192q33 0 63 -7t59 -22.5t46.5 -46.5t17.5 -74zM415 412q0 104 -142 104h-117v-216h129q67 0 98.5 31t31.5 81zM314 -109q0 -29 -15 -55t-49 -33l-11 27q15 1 25.5 12.5t10.5 26.5v4
q-2 -1 -8 -1q-14 0 -24 10.5t-10 27.5q0 14 10.5 25.5t27.5 11.5q21 0 32 -15.5t11 -40.5z" />
    <glyph glyph-name="rcommaaccent.smcp" unicode="&#xf65a;" horiz-adv-x="540" 
d="M475 414q0 -63 -36.5 -104.5t-98.5 -53.5l157 -256h-71l-151 252h-119v-252h-59v564h192q33 0 63 -7t59 -22.5t46.5 -46.5t17.5 -74zM415 412q0 104 -142 104h-117v-216h129q67 0 98.5 31t31.5 81zM314 -109q0 -29 -15 -55t-49 -33l-11 27q15 1 25.5 12.5t10.5 26.5v4
q-2 -1 -8 -1q-14 0 -24 10.5t-10 27.5q0 14 10.5 25.5t27.5 11.5q21 0 32 -15.5t11 -40.5z" />
    <glyph glyph-name="ucircumflex.smcp" unicode="&#xe300;" horiz-adv-x="579" 
d="M159 635l109 130h42l109 -130l-32 -27l-99 108l-98 -108zM290 -12q-202 0 -202 209v367h59v-372q0 -66 33.5 -110.5t109.5 -44.5t109 44t33 111v372h59v-367q0 -209 -201 -209z" />
    <glyph glyph-name="ucircumflex.smcp" unicode="&#xf7fb;" horiz-adv-x="579" 
d="M159 635l109 130h42l109 -130l-32 -27l-99 108l-98 -108zM290 -12q-202 0 -202 209v367h59v-372q0 -66 33.5 -110.5t109.5 -44.5t109 44t33 111v372h59v-367q0 -209 -201 -209z" />
    <glyph glyph-name="sacute.smcp" unicode="&#xe302;" horiz-adv-x="523" 
d="M326 762l34 -47l-158 -105l-23 32zM130 424q0 -47 32 -71.5t111 -36.5q99 -15 147 -52t48 -109q0 -73 -55 -120t-148 -47q-97 0 -150.5 46.5t-57.5 120.5l58 9q3 -55 40 -91.5t112 -36.5q64 0 102 32t38 83q0 48 -33.5 73.5t-113.5 37.5q-99 15 -145 51t-46 107
q0 70 51.5 112.5t137.5 42.5q82 0 132.5 -39.5t60.5 -107.5l-57 -15q-17 114 -139 114q-62 0 -93.5 -28t-31.5 -75z" />
    <glyph glyph-name="sacute.smcp" unicode="&#xf65b;" horiz-adv-x="523" 
d="M326 762l34 -47l-158 -105l-23 32zM130 424q0 -47 32 -71.5t111 -36.5q99 -15 147 -52t48 -109q0 -73 -55 -120t-148 -47q-97 0 -150.5 46.5t-57.5 120.5l58 9q3 -55 40 -91.5t112 -36.5q64 0 102 32t38 83q0 48 -33.5 73.5t-113.5 37.5q-99 15 -145 51t-46 107
q0 70 51.5 112.5t137.5 42.5q82 0 132.5 -39.5t60.5 -107.5l-57 -15q-17 114 -139 114q-62 0 -93.5 -28t-31.5 -75z" />
    <glyph glyph-name="scircumflex.smcp" unicode="&#xe303;" horiz-adv-x="523" 
d="M133 635l109 130h42l109 -130l-32 -27l-99 108l-98 -108zM130 424q0 -47 32 -71.5t111 -36.5q99 -15 147 -52t48 -109q0 -73 -55 -120t-148 -47q-97 0 -150.5 46.5t-57.5 120.5l58 9q3 -55 40 -91.5t112 -36.5q64 0 102 32t38 83q0 48 -33.5 73.5t-113.5 37.5
q-99 15 -145 51t-46 107q0 70 51.5 112.5t137.5 42.5q82 0 132.5 -39.5t60.5 -107.5l-57 -15q-17 114 -139 114q-62 0 -93.5 -28t-31.5 -75z" />
    <glyph glyph-name="scircumflex.smcp" unicode="&#xf636;" horiz-adv-x="523" 
d="M133 635l109 130h42l109 -130l-32 -27l-99 108l-98 -108zM130 424q0 -47 32 -71.5t111 -36.5q99 -15 147 -52t48 -109q0 -73 -55 -120t-148 -47q-97 0 -150.5 46.5t-57.5 120.5l58 9q3 -55 40 -91.5t112 -36.5q64 0 102 32t38 83q0 48 -33.5 73.5t-113.5 37.5
q-99 15 -145 51t-46 107q0 70 51.5 112.5t137.5 42.5q82 0 132.5 -39.5t60.5 -107.5l-57 -15q-17 114 -139 114q-62 0 -93.5 -28t-31.5 -75z" />
    <glyph glyph-name="scaron.smcp" unicode="&#xe304;" horiz-adv-x="523" 
d="M393 742l-109 -130h-42l-109 130l32 27l99 -108l98 108zM130 424q0 -47 32 -71.5t111 -36.5q99 -15 147 -52t48 -109q0 -73 -55 -120t-148 -47q-97 0 -150.5 46.5t-57.5 120.5l58 9q3 -55 40 -91.5t112 -36.5q64 0 102 32t38 83q0 48 -33.5 73.5t-113.5 37.5
q-99 15 -145 51t-46 107q0 70 51.5 112.5t137.5 42.5q82 0 132.5 -39.5t60.5 -107.5l-57 -15q-17 114 -139 114q-62 0 -93.5 -28t-31.5 -75z" />
    <glyph glyph-name="scaron.smcp" unicode="&#xf6fd;" horiz-adv-x="523" 
d="M393 742l-109 -130h-42l-109 130l32 27l99 -108l98 108zM130 424q0 -47 32 -71.5t111 -36.5q99 -15 147 -52t48 -109q0 -73 -55 -120t-148 -47q-97 0 -150.5 46.5t-57.5 120.5l58 9q3 -55 40 -91.5t112 -36.5q64 0 102 32t38 83q0 48 -33.5 73.5t-113.5 37.5
q-99 15 -145 51t-46 107q0 70 51.5 112.5t137.5 42.5q82 0 132.5 -39.5t60.5 -107.5l-57 -15q-17 114 -139 114q-62 0 -93.5 -28t-31.5 -75z" />
    <glyph glyph-name="scommaaccent.smcp" unicode="&#xe305;" horiz-adv-x="523" 
d="M130 424q0 -47 32 -71.5t111 -36.5q99 -15 147 -52t48 -109q0 -73 -55 -120t-148 -47q-97 0 -150.5 46.5t-57.5 120.5l58 9q3 -55 40 -91.5t112 -36.5q64 0 102 32t38 83q0 48 -33.5 73.5t-113.5 37.5q-99 15 -145 51t-46 107q0 70 51.5 112.5t137.5 42.5
q82 0 132.5 -39.5t60.5 -107.5l-57 -15q-17 114 -139 114q-62 0 -93.5 -28t-31.5 -75zM310 -109q0 -29 -15 -55t-49 -33l-11 27q15 1 25.5 12.5t10.5 26.5v4q-2 -1 -8 -1q-14 0 -24 10.5t-10 27.5q0 14 10.5 25.5t27.5 11.5q21 0 32 -15.5t11 -40.5z" />
    <glyph glyph-name="scommaaccent.smcp" unicode="&#xf65d;" horiz-adv-x="523" 
d="M130 424q0 -47 32 -71.5t111 -36.5q99 -15 147 -52t48 -109q0 -73 -55 -120t-148 -47q-97 0 -150.5 46.5t-57.5 120.5l58 9q3 -55 40 -91.5t112 -36.5q64 0 102 32t38 83q0 48 -33.5 73.5t-113.5 37.5q-99 15 -145 51t-46 107q0 70 51.5 112.5t137.5 42.5
q82 0 132.5 -39.5t60.5 -107.5l-57 -15q-17 114 -139 114q-62 0 -93.5 -28t-31.5 -75zM310 -109q0 -29 -15 -55t-49 -33l-11 27q15 1 25.5 12.5t10.5 26.5v4q-2 -1 -8 -1q-14 0 -24 10.5t-10 27.5q0 14 10.5 25.5t27.5 11.5q21 0 32 -15.5t11 -40.5z" />
    <glyph glyph-name="scedilla.smcp" unicode="&#xe306;" horiz-adv-x="523" 
d="M184 -192l24 34q24 -19 50 -19q18 0 30.5 12.5t12.5 32.5t-11.5 31.5t-30.5 11.5q-20 0 -37 -13l-25 24l27 69q-78 9 -121 53.5t-46 110.5l58 9q3 -55 40 -91.5t112 -36.5q64 0 102 32t38 83q0 48 -33.5 73.5t-113.5 37.5q-99 15 -145 51t-46 107q0 70 51.5 112.5
t137.5 42.5q82 0 132.5 -39.5t60.5 -107.5l-57 -15q-17 114 -139 114q-62 0 -93.5 -28t-31.5 -75t32 -71.5t111 -36.5q99 -15 147 -52t48 -109q0 -73 -55 -120t-148 -47h-5l-18 -48q13 9 31 9q30 0 53 -19.5t23 -59.5t-25 -63.5t-66 -23.5q-47 0 -74 25z" />
    <glyph glyph-name="scedilla.smcp" unicode="&#xf65c;" horiz-adv-x="523" 
d="M184 -192l24 34q24 -19 50 -19q18 0 30.5 12.5t12.5 32.5t-11.5 31.5t-30.5 11.5q-20 0 -37 -13l-25 24l27 69q-78 9 -121 53.5t-46 110.5l58 9q3 -55 40 -91.5t112 -36.5q64 0 102 32t38 83q0 48 -33.5 73.5t-113.5 37.5q-99 15 -145 51t-46 107q0 70 51.5 112.5
t137.5 42.5q82 0 132.5 -39.5t60.5 -107.5l-57 -15q-17 114 -139 114q-62 0 -93.5 -28t-31.5 -75t32 -71.5t111 -36.5q99 -15 147 -52t48 -109q0 -73 -55 -120t-148 -47h-5l-18 -48q13 9 31 9q30 0 53 -19.5t23 -59.5t-25 -63.5t-66 -23.5q-47 0 -74 25z" />
    <glyph glyph-name="tcaron.smcp" unicode="&#xe309;" horiz-adv-x="447" 
d="M355 742l-109 -130h-42l-109 130l32 27l99 -108l98 108zM25 516v48h397v-48h-169v-516h-59v516h-169z" />
    <glyph glyph-name="tcaron.smcp" unicode="&#xf65e;" horiz-adv-x="447" 
d="M355 742l-109 -130h-42l-109 130l32 27l99 -108l98 108zM25 516v48h397v-48h-169v-516h-59v516h-169z" />
    <glyph glyph-name="tcommaaccent.smcp" unicode="&#xe30a;" horiz-adv-x="447" 
d="M25 516v48h397v-48h-169v-516h-59v516h-169zM266 -109q0 -29 -15 -55t-49 -33l-11 27q15 1 25.5 12.5t10.5 26.5v4q-2 -1 -8 -1q-14 0 -24 10.5t-10 27.5q0 14 10.5 25.5t27.5 11.5q21 0 32 -15.5t11 -40.5z" />
    <glyph glyph-name="tcommaaccent.smcp" unicode="&#xf65f;" horiz-adv-x="447" 
d="M25 516v48h397v-48h-169v-516h-59v516h-169zM266 -109q0 -29 -15 -55t-49 -33l-11 27q15 1 25.5 12.5t10.5 26.5v4q-2 -1 -8 -1q-14 0 -24 10.5t-10 27.5q0 14 10.5 25.5t27.5 11.5q21 0 32 -15.5t11 -40.5z" />
    <glyph glyph-name="tbar.smcp" unicode="&#xe30d;" horiz-adv-x="447" 
d="M367 299h-114v-299h-59v299h-114v47h114v170h-169v48h397v-48h-169v-170h114v-47z" />
    <glyph glyph-name="tbar.smcp" unicode="&#xf637;" horiz-adv-x="447" 
d="M367 299h-114v-299h-59v299h-114v47h114v170h-169v48h397v-48h-169v-170h114v-47z" />
    <glyph glyph-name="uacute.smcp" unicode="&#xe30e;" horiz-adv-x="579" 
d="M358 762l34 -47l-158 -105l-23 32zM290 -12q-202 0 -202 209v367h59v-372q0 -66 33.5 -110.5t109.5 -44.5t109 44t33 111v372h59v-367q0 -209 -201 -209z" />
    <glyph glyph-name="uacute.smcp" unicode="&#xf7fa;" horiz-adv-x="579" 
d="M358 762l34 -47l-158 -105l-23 32zM290 -12q-202 0 -202 209v367h59v-372q0 -66 33.5 -110.5t109.5 -44.5t109 44t33 111v372h59v-367q0 -209 -201 -209z" />
    <glyph glyph-name="ugrave.smcp" unicode="&#xe30f;" horiz-adv-x="579" 
d="M190 715l34 47l147 -120l-23 -32zM290 -12q-202 0 -202 209v367h59v-372q0 -66 33.5 -110.5t109.5 -44.5t109 44t33 111v372h59v-367q0 -209 -201 -209z" />
    <glyph glyph-name="ugrave.smcp" unicode="&#xf7f9;" horiz-adv-x="579" 
d="M190 715l34 47l147 -120l-23 -32zM290 -12q-202 0 -202 209v367h59v-372q0 -66 33.5 -110.5t109.5 -44.5t109 44t33 111v372h59v-367q0 -209 -201 -209z" />
    <glyph glyph-name="wdieresis.smcp" unicode="&#xe310;" horiz-adv-x="736" 
d="M419 669q0 19 12.5 31.5t31.5 12.5t31.5 -12.5t12.5 -31.5q0 -18 -12.5 -30.5t-31.5 -12.5t-31.5 12.5t-12.5 30.5zM235 669q0 19 12.5 31.5t31.5 12.5t31.5 -12.5t12.5 -31.5q0 -18 -12.5 -30.5t-31.5 -12.5t-31.5 12.5t-12.5 30.5zM665 564h52l-160 -564h-55
q-105 361 -133 478h-1q-13 -52 -46.5 -171.5t-60.5 -212.5l-27 -94h-55l-160 564h59q103 -368 130 -486h2q12 52 45.5 173.5t60.5 216.5l28 96h53q108 -383 132 -486h2q11 46 44.5 167.5t61.5 220.5z" />
    <glyph glyph-name="wdieresis.smcp" unicode="&#xf63c;" horiz-adv-x="736" 
d="M419 669q0 19 12.5 31.5t31.5 12.5t31.5 -12.5t12.5 -31.5q0 -18 -12.5 -30.5t-31.5 -12.5t-31.5 12.5t-12.5 30.5zM235 669q0 19 12.5 31.5t31.5 12.5t31.5 -12.5t12.5 -31.5q0 -18 -12.5 -30.5t-31.5 -12.5t-31.5 12.5t-12.5 30.5zM665 564h52l-160 -564h-55
q-105 361 -133 478h-1q-13 -52 -46.5 -171.5t-60.5 -212.5l-27 -94h-55l-160 564h59q103 -368 130 -486h2q12 52 45.5 173.5t60.5 216.5l28 96h53q108 -383 132 -486h2q11 46 44.5 167.5t61.5 220.5z" />
    <glyph glyph-name="udieresis.smcp" unicode="&#xe311;" horiz-adv-x="579" 
d="M337 669q0 19 12.5 31.5t31.5 12.5t31.5 -12.5t12.5 -31.5q0 -18 -12.5 -30.5t-31.5 -12.5t-31.5 12.5t-12.5 30.5zM153 669q0 19 12.5 31.5t31.5 12.5t31.5 -12.5t12.5 -31.5q0 -18 -12.5 -30.5t-31.5 -12.5t-31.5 12.5t-12.5 30.5zM290 -12q-202 0 -202 209v367h59
v-372q0 -66 33.5 -110.5t109.5 -44.5t109 44t33 111v372h59v-367q0 -209 -201 -209z" />
    <glyph glyph-name="udieresis.smcp" unicode="&#xf7fc;" horiz-adv-x="579" 
d="M337 669q0 19 12.5 31.5t31.5 12.5t31.5 -12.5t12.5 -31.5q0 -18 -12.5 -30.5t-31.5 -12.5t-31.5 12.5t-12.5 30.5zM153 669q0 19 12.5 31.5t31.5 12.5t31.5 -12.5t12.5 -31.5q0 -18 -12.5 -30.5t-31.5 -12.5t-31.5 12.5t-12.5 30.5zM290 -12q-202 0 -202 209v367h59
v-372q0 -66 33.5 -110.5t109.5 -44.5t109 44t33 111v372h59v-367q0 -209 -201 -209z" />
    <glyph glyph-name="utilde.smcp" unicode="&#xe312;" horiz-adv-x="579" 
d="M223 716q35 0 75 -24.5t61 -24.5q19 0 34 11t21 22l6 11l33 -30q-3 -6 -10 -15.5t-32 -25t-56 -15.5q-36 0 -76 24t-59 24t-34.5 -10.5t-21.5 -21.5l-5 -11l-32 29q3 6 9.5 15.5t31 25.5t55.5 16zM290 -12q-202 0 -202 209v367h59v-372q0 -66 33.5 -110.5t109.5 -44.5
t109 44t33 111v372h59v-367q0 -209 -201 -209z" />
    <glyph glyph-name="utilde.smcp" unicode="&#xf639;" horiz-adv-x="579" 
d="M223 716q35 0 75 -24.5t61 -24.5q19 0 34 11t21 22l6 11l33 -30q-3 -6 -10 -15.5t-32 -25t-56 -15.5q-36 0 -76 24t-59 24t-34.5 -10.5t-21.5 -21.5l-5 -11l-32 29q3 6 9.5 15.5t31 25.5t55.5 16zM290 -12q-202 0 -202 209v367h59v-372q0 -66 33.5 -110.5t109.5 -44.5
t109 44t33 111v372h59v-367q0 -209 -201 -209z" />
    <glyph glyph-name="uring.smcp" unicode="&#xe313;" horiz-adv-x="579" 
d="M200 693q0 38 25 62t64 24t64 -24t25 -62t-25 -62.5t-64 -24.5t-64 24.5t-25 62.5zM241 693q0 -22 13.5 -37t34.5 -15t34.5 15t13.5 37t-13.5 36.5t-34.5 14.5t-34.5 -14.5t-13.5 -36.5zM290 -12q-202 0 -202 209v367h59v-372q0 -66 33.5 -110.5t109.5 -44.5t109 44
t33 111v372h59v-367q0 -209 -201 -209z" />
    <glyph glyph-name="uring.smcp" unicode="&#xf663;" horiz-adv-x="579" 
d="M200 693q0 38 25 62t64 24t64 -24t25 -62t-25 -62.5t-64 -24.5t-64 24.5t-25 62.5zM241 693q0 -22 13.5 -37t34.5 -15t34.5 15t13.5 37t-13.5 36.5t-34.5 14.5t-34.5 -14.5t-13.5 -36.5zM290 -12q-202 0 -202 209v367h59v-372q0 -66 33.5 -110.5t109.5 -44.5t109 44
t33 111v372h59v-367q0 -209 -201 -209z" />
    <glyph glyph-name="umacron.smcp" unicode="&#xe315;" horiz-adv-x="579" 
d="M166 634v45h247v-45h-247zM290 -12q-202 0 -202 209v367h59v-372q0 -66 33.5 -110.5t109.5 -44.5t109 44t33 111v372h59v-367q0 -209 -201 -209z" />
    <glyph glyph-name="umacron.smcp" unicode="&#xf661;" horiz-adv-x="579" 
d="M166 634v45h247v-45h-247zM290 -12q-202 0 -202 209v367h59v-372q0 -66 33.5 -110.5t109.5 -44.5t109 44t33 111v372h59v-367q0 -209 -201 -209z" />
    <glyph glyph-name="ubreve.smcp" unicode="&#xe316;" horiz-adv-x="579" 
d="M147 724l49 17q5 -34 31 -57t62 -23t62 23t31 57l49 -17q-11 -48 -49 -76.5t-93 -28.5t-93 28.5t-49 76.5zM290 -12q-202 0 -202 209v367h59v-372q0 -66 33.5 -110.5t109.5 -44.5t109 44t33 111v372h59v-367q0 -209 -201 -209z" />
    <glyph glyph-name="ubreve.smcp" unicode="&#xf638;" horiz-adv-x="579" 
d="M147 724l49 17q5 -34 31 -57t62 -23t62 23t31 57l49 -17q-11 -48 -49 -76.5t-93 -28.5t-93 28.5t-49 76.5zM290 -12q-202 0 -202 209v367h59v-372q0 -66 33.5 -110.5t109.5 -44.5t109 44t33 111v372h59v-367q0 -209 -201 -209z" />
    <glyph glyph-name="uhungarumlaut.smcp" unicode="&#xe318;" horiz-adv-x="579" 
d="M458 755l34 -47l-148 -99l-23 32zM288 755l34 -47l-148 -99l-23 32zM290 -12q-202 0 -202 209v367h59v-372q0 -66 33.5 -110.5t109.5 -44.5t109 44t33 111v372h59v-367q0 -209 -201 -209z" />
    <glyph glyph-name="uhungarumlaut.smcp" unicode="&#xf660;" horiz-adv-x="579" 
d="M458 755l34 -47l-148 -99l-23 32zM288 755l34 -47l-148 -99l-23 32zM290 -12q-202 0 -202 209v367h59v-372q0 -66 33.5 -110.5t109.5 -44.5t109 44t33 111v372h59v-367q0 -209 -201 -209z" />
    <glyph glyph-name="uogonek.smcp" unicode="&#xe31b;" horiz-adv-x="579" 
d="M290 -12q-202 0 -202 209v367h59v-372q0 -66 33.5 -110.5t109.5 -44.5t109 44t33 111v372h59v-367q0 -144 -102 -194q-104 -51 -104 -111q0 -18 11 -29.5t31 -11.5q29 0 54 34l22 -23q-34 -52 -90 -52q-29 0 -54 17t-25 58q0 60 64 103h-8z" />
    <glyph glyph-name="uogonek.smcp" unicode="&#xf662;" horiz-adv-x="579" 
d="M290 -12q-202 0 -202 209v367h59v-372q0 -66 33.5 -110.5t109.5 -44.5t109 44t33 111v372h59v-367q0 -144 -102 -194q-104 -51 -104 -111q0 -18 11 -29.5t31 -11.5q29 0 54 34l22 -23q-34 -52 -90 -52q-29 0 -54 17t-25 58q0 60 64 103h-8z" />
    <glyph glyph-name="wacute.smcp" unicode="&#xe31d;" horiz-adv-x="736" 
d="M434 762l34 -47l-158 -105l-23 32zM665 564h52l-160 -564h-55q-105 361 -133 478h-1q-13 -52 -46.5 -171.5t-60.5 -212.5l-27 -94h-55l-160 564h59q103 -368 130 -486h2q12 52 45.5 173.5t60.5 216.5l28 96h53q108 -383 132 -486h2q11 46 44.5 167.5t61.5 220.5z" />
    <glyph glyph-name="wacute.smcp" unicode="&#xf63a;" horiz-adv-x="736" 
d="M434 762l34 -47l-158 -105l-23 32zM665 564h52l-160 -564h-55q-105 361 -133 478h-1q-13 -52 -46.5 -171.5t-60.5 -212.5l-27 -94h-55l-160 564h59q103 -368 130 -486h2q12 52 45.5 173.5t60.5 216.5l28 96h53q108 -383 132 -486h2q11 46 44.5 167.5t61.5 220.5z" />
    <glyph glyph-name="wgrave.smcp" unicode="&#xe31e;" horiz-adv-x="736" 
d="M272 715l34 47l147 -120l-23 -32zM665 564h52l-160 -564h-55q-105 361 -133 478h-1q-13 -52 -46.5 -171.5t-60.5 -212.5l-27 -94h-55l-160 564h59q103 -368 130 -486h2q12 52 45.5 173.5t60.5 216.5l28 96h53q108 -383 132 -486h2q11 46 44.5 167.5t61.5 220.5z" />
    <glyph glyph-name="wgrave.smcp" unicode="&#xf63d;" horiz-adv-x="736" 
d="M272 715l34 47l147 -120l-23 -32zM665 564h52l-160 -564h-55q-105 361 -133 478h-1q-13 -52 -46.5 -171.5t-60.5 -212.5l-27 -94h-55l-160 564h59q103 -368 130 -486h2q12 52 45.5 173.5t60.5 216.5l28 96h53q108 -383 132 -486h2q11 46 44.5 167.5t61.5 220.5z" />
    <glyph glyph-name="wcircumflex.smcp" unicode="&#xe31f;" horiz-adv-x="736" 
d="M242 635l109 130h42l109 -130l-32 -27l-99 108l-98 -108zM665 564h52l-160 -564h-55q-105 361 -133 478h-1q-13 -52 -46.5 -171.5t-60.5 -212.5l-27 -94h-55l-160 564h59q103 -368 130 -486h2q12 52 45.5 173.5t60.5 216.5l28 96h53q108 -383 132 -486h2
q11 46 44.5 167.5t61.5 220.5z" />
    <glyph glyph-name="wcircumflex.smcp" unicode="&#xf63b;" horiz-adv-x="736" 
d="M242 635l109 130h42l109 -130l-32 -27l-99 108l-98 -108zM665 564h52l-160 -564h-55q-105 361 -133 478h-1q-13 -52 -46.5 -171.5t-60.5 -212.5l-27 -94h-55l-160 564h59q103 -368 130 -486h2q12 52 45.5 173.5t60.5 216.5l28 96h53q108 -383 132 -486h2
q11 46 44.5 167.5t61.5 220.5z" />
    <glyph glyph-name="yacute.smcp" unicode="&#xe321;" horiz-adv-x="491" 
d="M323 762l34 -47l-158 -105l-23 32zM216 0v249l-204 315h67l168 -263l169 263h63l-204 -315v-249h-59z" />
    <glyph glyph-name="yacute.smcp" unicode="&#xf7fd;" horiz-adv-x="491" 
d="M323 762l34 -47l-158 -105l-23 32zM216 0v249l-204 315h67l168 -263l169 263h63l-204 -315v-249h-59z" />
    <glyph glyph-name="ycircumflex.smcp" unicode="&#xe323;" horiz-adv-x="491" 
d="M118 635l109 130h42l109 -130l-32 -27l-99 108l-98 -108zM216 0v249l-204 315h67l168 -263l169 263h63l-204 -315v-249h-59z" />
    <glyph glyph-name="ycircumflex.smcp" unicode="&#xf63e;" horiz-adv-x="491" 
d="M118 635l109 130h42l109 -130l-32 -27l-99 108l-98 -108zM216 0v249l-204 315h67l168 -263l169 263h63l-204 -315v-249h-59z" />
    <glyph glyph-name="ydieresis.smcp" unicode="&#xe324;" horiz-adv-x="491" 
d="M295 669q0 19 12.5 31.5t31.5 12.5t31.5 -12.5t12.5 -31.5q0 -18 -12.5 -30.5t-31.5 -12.5t-31.5 12.5t-12.5 30.5zM111 669q0 19 12.5 31.5t31.5 12.5t31.5 -12.5t12.5 -31.5q0 -18 -12.5 -30.5t-31.5 -12.5t-31.5 12.5t-12.5 30.5zM216 0v249l-204 315h67l168 -263
l169 263h63l-204 -315v-249h-59z" />
    <glyph glyph-name="ydieresis.smcp" unicode="&#xf7ff;" horiz-adv-x="491" 
d="M295 669q0 19 12.5 31.5t31.5 12.5t31.5 -12.5t12.5 -31.5q0 -18 -12.5 -30.5t-31.5 -12.5t-31.5 12.5t-12.5 30.5zM111 669q0 19 12.5 31.5t31.5 12.5t31.5 -12.5t12.5 -31.5q0 -18 -12.5 -30.5t-31.5 -12.5t-31.5 12.5t-12.5 30.5zM216 0v249l-204 315h67l168 -263
l169 263h63l-204 -315v-249h-59z" />
    <glyph glyph-name="ij.smcp" unicode="&#xe327;" horiz-adv-x="596" 
d="M364 36q46 0 65.5 35t19.5 111v382h59v-381q0 -44 -5.5 -76t-20 -61t-44 -43.5t-72.5 -14.5q-76 0 -125 62l38 38q42 -52 85 -52zM97 0v564h59v-564h-59z" />
    <glyph glyph-name="ij.smcp" unicode="&#xf631;" horiz-adv-x="596" 
d="M364 36q46 0 65.5 35t19.5 111v382h59v-381q0 -44 -5.5 -76t-20 -61t-44 -43.5t-72.5 -14.5q-76 0 -125 62l38 38q42 -52 85 -52zM97 0v564h59v-564h-59z" />
    <glyph glyph-name="zacute.smcp" unicode="&#xe328;" horiz-adv-x="510" 
d="M331 762l34 -47l-158 -105l-23 32zM57 516v48h404v-40l-338 -476h337v-48h-411v39l340 477h-332z" />
    <glyph glyph-name="zacute.smcp" unicode="&#xf664;" horiz-adv-x="510" 
d="M331 762l34 -47l-158 -105l-23 32zM57 516v48h404v-40l-338 -476h337v-48h-411v39l340 477h-332z" />
    <glyph glyph-name="zcaron.smcp" unicode="&#xe329;" horiz-adv-x="510" 
d="M390 742l-109 -130h-42l-109 130l32 27l99 -108l98 108zM57 516v48h404v-40l-338 -476h337v-48h-411v39l340 477h-332z" />
    <glyph glyph-name="zcaron.smcp" unicode="&#xf6ff;" horiz-adv-x="510" 
d="M390 742l-109 -130h-42l-109 130l32 27l99 -108l98 108zM57 516v48h404v-40l-338 -476h337v-48h-411v39l340 477h-332z" />
    </font>
</defs>
</svg>
